<?xml version="1.0" encoding="iso-8859-1"?>
<!-- Generator: Adobe Illustrator 26.5.1, SVG Export Plug-In . SVG Version: 6.00 Build 0)  -->
<svg xmlns="http://www.w3.org/2000/svg" xmlns:xlink="http://www.w3.org/1999/xlink" version="1.1" id="Capa_1" x="0px" y="0px" viewBox="0 0 512 512" style="enable-background:new 0 0 512 512;" xml:space="preserve">
<g>
	<g>
		<path style="fill:#261D2A;" d="M61.071,46.632c-0.218,0-0.439-0.066-0.63-0.206c-0.105-0.077-9.921-9.31-9.365-11.11    c0.336-1.089,0.508-1.635,15.117,1.457c0.593,0.126,0.97,0.706,0.845,1.299c-0.125,0.593-0.704,0.969-1.299,0.845    c-4.27-0.905-8.96-1.791-11.5-2.138c2.161,2.531,6.776,7.297,7.507,7.887c0.463,0.372,0.557,1.057,0.195,1.53    C61.725,46.48,61.399,46.632,61.071,46.632z"/>
		<path style="fill:#A17296;" d="M77.984,46.892c0,0-1.086-17.074-9.99-13.956c-12.334,4.318-17.961,36.139,5.345,43.01    c23.307,6.871,31.676-12.302,31.676-12.302l-12.518-2.852c0,0,8.946-8.11,8.088-14.738c-0.858-6.628-7.848-0.775-7.848-0.775    s8.152-15.302,1.356-15.741C87.296,29.099,77.984,46.892,77.984,46.892z"/>
		<path style="fill:#261D2A;" d="M67.466,44.909c-0.053,0-0.106,0-0.16-0.004c-0.583-0.039-1.071-0.332-1.376-0.826    c-0.966-1.568,0.381-5.334,1.271-7.44c0.235-0.559,0.878-0.813,1.435-0.584c0.557,0.236,0.818,0.88,0.583,1.436    c-0.845,2.003-1.465,4.252-1.454,5.163c0.839-0.344,2.273-1.971,3.187-3.47c0.315-0.514,0.989-0.683,1.505-0.366    c0.517,0.314,0.681,0.986,0.367,1.504C72.162,41.413,69.848,44.909,67.466,44.909z"/>
		<path style="fill:#261D2A;" d="M88.537,60.741c-0.315,0-0.626-0.135-0.842-0.394c-0.387-0.464-0.325-1.155,0.139-1.543    c2.173-1.814,5.534-5.518,5.302-7.735c-0.021-0.203-0.065-0.27-0.065-0.272c-0.573-0.152-3.028,1.293-5.018,3.023    c-0.36,0.312-0.881,0.357-1.29,0.109c-0.408-0.25-0.606-0.734-0.492-1.198c0.74-3.002,1.093-6.122,0.848-7.215    c-1.38,0.944-4.721,5.371-7.276,9.366c-0.327,0.509-1.005,0.657-1.514,0.332c-0.509-0.325-0.658-1.004-0.333-1.513    c7.231-11.298,9.207-10.673,9.859-10.457c1.527,0.492,1.92,2.863,1.178,7.059c1.627-1.091,3.559-2.018,4.901-1.498    c0.454,0.18,1.238,0.683,1.38,2.035c0.43,4.095-5.41,9.09-6.077,9.646C89.032,60.658,88.784,60.741,88.537,60.741z"/>
		<path style="fill:#261D2A;" d="M78.269,71.988c-3.22,0-7.247-0.608-10.853-2.94c-4.492-2.906-7.302-7.825-8.352-14.623    c-0.092-0.597,0.318-1.158,0.916-1.25c0.601-0.086,1.159,0.317,1.25,0.916c0.95,6.145,3.427,10.555,7.363,13.108    c6.539,4.239,15.053,1.984,15.138,1.958c0.571-0.156,1.184,0.182,1.346,0.768c0.16,0.582-0.182,1.183-0.765,1.346    C84.114,71.324,81.631,71.988,78.269,71.988z"/>
	</g>
	<path style="fill:#261D2A;" d="M413.686,63.29c-0.288,0-0.572-0.088-0.825-0.259c-0.793-0.533-2.953-4.072-5.292-8.51   c-5.772,0.642-10.595,0.862-11.27-0.077c-0.295-0.411-0.368-1.074,0.133-1.628c1.094-1.215,3.67-4.044,6.78-7.279   c-2.25-5.108-3.828-9.71-3.237-11.165c0.285-0.7,0.951-1.066,1.697-0.931c1.399,0.252,5.461,2.223,9.42,4.284   c4.089-3.8,7.87-6.802,9.651-6.841c0.642,0.023,1.092,0.27,1.329,0.509c0.246,0.25,0.357,0.601,0.3,0.946   c-0.509,3.09-1.15,6.781-1.869,10.519c9.588,5.476,9.703,6.456,9.767,7.006c0.055,0.481-0.292,1.076-0.735,1.269   c-0.108,0.047-5.121,0.978-11.227,1.926c-1.333,5.401-2.746,9.556-4.026,10.106C414.087,63.247,413.886,63.29,413.686,63.29z    M409.812,54.256c1.573,3.013,2.997,5.473,3.834,6.507c0.619-1.091,1.429-3.764,2.31-7.35   C413.93,53.714,411.84,54.003,409.812,54.256z M404.19,47.697c-1.672,1.742-3.355,3.539-4.989,5.328   c1.595-0.006,4.238-0.225,7.305-0.56C405.72,50.916,404.933,49.3,404.19,47.697z M405.808,46.026   c0.935,2.061,1.956,4.192,2.956,6.182c2.504-0.297,5.172-0.648,7.718-1.008c0.508-2.202,1.029-4.65,1.544-7.226   c-2.135-1.205-4.389-2.442-6.535-3.58C409.703,42.098,407.776,44.011,405.808,46.026z M420.054,45.134   c-0.392,1.954-0.802,3.89-1.225,5.728c3.45-0.511,6.475-1.008,8.265-1.365C425.668,48.468,423.073,46.878,420.054,45.134z    M402.012,35.809c0.175,1.474,1.312,4.536,2.832,8.043c1.477-1.511,3.032-3.064,4.575-4.547   C406.217,37.647,403.46,36.322,402.012,35.809z M413.168,38.815c1.406,0.749,2.732,1.47,3.844,2.084   c0.505,0.28,0.991,0.55,1.458,0.811c0.527-2.737,1.04-5.574,1.514-8.377C418.623,34.022,416.166,36.042,413.168,38.815z    M420.792,33.074h0.021H420.792z"/>
	<path style="fill:#261D2A;" d="M492.808,224.175h-0.006l-4.238-0.015l4.49-3.044c0.501-0.34,0.632-1.021,0.292-1.522   c-0.342-0.503-1.028-0.628-1.522-0.292l-6.057,4.107l0.134-7.077c0.012-0.606-0.469-1.104-1.075-1.116l-0.007,0   c-0.601-0.008-1.098,0.472-1.11,1.075l-0.119,6.245l-3.705-4.018c-0.411-0.442-1.102-0.474-1.548-0.063   c-0.444,0.409-0.472,1.105-0.063,1.548l3.811,4.134l-7.019-0.025c-0.605-0.002-1.098,0.486-1.099,1.092   c-0.002,0.601,0.48,1.091,1.081,1.099l0.011,0l6.403,0.023l-5.003,3.392c-0.501,0.34-0.632,1.021-0.292,1.522   c0.21,0.309,0.548,0.476,0.893,0.48c0.218,0.003,0.437-0.059,0.63-0.189l5.805-3.935l-0.135,7.129   c-0.012,0.606,0.469,1.104,1.075,1.116l0.006,0c0.601,0.008,1.098-0.472,1.11-1.075l0.128-6.734l3.949,4.283   c0.213,0.23,0.5,0.349,0.791,0.353c0.27,0.004,0.543-0.091,0.757-0.29c0.444-0.41,0.472-1.105,0.063-1.548l-4.135-4.485l5.691,0.02   c0.606,0.002,1.098-0.486,1.099-1.092C493.895,224.673,493.413,224.183,492.808,224.175z"/>
	<path style="fill:#261D2A;" d="M32.687,260.839h-0.007l-4.238-0.015l4.49-3.044c0.501-0.34,0.632-1.021,0.291-1.522   c-0.342-0.503-1.027-0.628-1.522-0.292l-6.057,4.107l0.134-7.077c0.012-0.606-0.469-1.104-1.075-1.116l-0.006,0   c-0.601-0.008-1.098,0.472-1.11,1.075L23.47,259.2l-3.704-4.018c-0.411-0.442-1.102-0.474-1.548-0.063   c-0.444,0.409-0.472,1.105-0.063,1.548l3.812,4.134l-7.019-0.025c-0.606-0.002-1.098,0.486-1.099,1.092   c-0.001,0.601,0.48,1.091,1.081,1.099l0.011,0l6.403,0.023l-5.003,3.392c-0.501,0.34-0.632,1.021-0.292,1.522   c0.21,0.309,0.548,0.476,0.892,0.48c0.218,0.003,0.437-0.059,0.63-0.189l5.805-3.936l-0.135,7.13   c-0.012,0.606,0.469,1.104,1.075,1.116l0.007,0c0.601,0.008,1.097-0.472,1.11-1.075l0.128-6.734l3.949,4.283   c0.213,0.23,0.5,0.349,0.791,0.353c0.27,0.004,0.543-0.091,0.757-0.29c0.444-0.41,0.472-1.105,0.063-1.548l-4.135-4.485l5.691,0.02   c0.606,0.002,1.098-0.486,1.099-1.092C33.774,261.337,33.293,260.847,32.687,260.839z"/>
	<path style="fill:#E8C01B;" d="M13.215,330.617c0,0,5.982-20.348,7.614-17.864c1.631,2.485,6.526,16.123,6.526,16.123   s17.215,5.803,16.765,6.964c-0.45,1.161-15.448,7.254-15.448,7.254s-4.852,17.7-7.571,15.959c-2.719-1.741-7.43-15.862-7.43-15.862   s-15.411-1.488-13.507-5C2.066,334.68,13.215,330.617,13.215,330.617z"/>
	<path style="fill:#E8C01B;" d="M473.961,151.514c0,0,5.982-20.348,7.614-17.864c1.631,2.485,6.526,16.123,6.526,16.123   s17.215,5.803,16.765,6.964c-0.45,1.161-15.448,7.254-15.448,7.254s-4.852,17.7-7.571,15.959c-2.719-1.741-7.43-15.862-7.43-15.862   s-15.41-1.488-13.507-5C462.813,155.577,473.961,151.514,473.961,151.514z"/>
	<path style="fill:#E8C01B;" d="M40.012,386.094c0,0,3.708-12.614,4.719-11.074c1.011,1.54,4.045,9.994,4.045,9.994   s10.671,3.597,10.392,4.317c-0.279,0.72-9.576,4.497-9.576,4.497s-3.008,10.972-4.693,9.893c-1.686-1.079-4.606-9.833-4.606-9.833   s-9.553-0.922-8.373-3.1C33.101,388.612,40.012,386.094,40.012,386.094z"/>
	<path style="fill:#261D2A;" d="M245.954,202.906l-0.025-0.019c-3.187-2.47-3.768-7.073-1.296-10.261   c2.46-3.174,7.051-3.764,10.235-1.316c1.569,1.217,2.555,2.944,2.799,4.882c0.245,1.936-0.279,3.855-1.476,5.397   C253.729,204.762,249.135,205.352,245.954,202.906z M253.597,193c-2.281-1.754-5.544-1.333-7.292,0.921   c-1.757,2.265-1.344,5.538,0.92,7.294l0.018,0.014c2.262,1.739,5.526,1.319,7.277-0.935c0.851-1.097,1.224-2.46,1.048-3.837   C255.395,195.078,254.693,193.851,253.597,193z"/>
	<path style="fill:#261D2A;" d="M500.228,417.67l-0.025-0.019c-3.187-2.47-3.768-7.073-1.296-10.261   c2.46-3.174,7.051-3.764,10.235-1.316c1.569,1.216,2.555,2.944,2.799,4.882c0.245,1.936-0.28,3.855-1.476,5.397   C508.003,419.526,503.41,420.116,500.228,417.67z M507.871,407.765c-2.281-1.754-5.544-1.333-7.292,0.921   c-1.757,2.266-1.344,5.538,0.92,7.294l0.018,0.014c2.262,1.739,5.526,1.319,7.277-0.935c0.851-1.097,1.224-2.46,1.048-3.837   C509.669,409.842,508.967,408.616,507.871,407.765z"/>
	<path style="fill:#261D2A;" d="M22.475,77.195c-0.809,0-1.577,0-3.713-8.501c-7.202-1.388-7.834-2.234-8.045-2.518   c-0.205-0.273-0.293-0.775-0.199-1.102c0.131-0.461,0.432-1.531,8.664-4.85c2.957-7.707,3.959-7.707,4.626-7.707   c0.344,0,0.822,0.248,1.029,0.525c0.528,0.711,1.008,2.556,1.733,5.509c0.229,0.925,0.503,2.041,0.661,2.533   c0.432,0.193,1.387,0.534,2.178,0.819c4.232,1.517,5.324,2.034,5.52,3.044c0.075,0.379-0.118,0.931-0.404,1.189   c-0.86,0.772-4.951,2.291-7.098,3.054c-3.486,7.931-4.23,7.97-4.889,8.005C22.52,77.195,22.494,77.195,22.475,77.195z    M13.503,65.233c1.44,0.415,4.066,1.011,6.355,1.438c0.422,0.079,0.76,0.398,0.862,0.815c0.586,2.373,1.352,5.077,1.902,6.618   c0.798-1.436,2.007-3.979,2.989-6.227c0.122-0.279,0.353-0.495,0.64-0.596c1.958-0.688,4.166-1.534,5.544-2.137   c-0.965-0.405-2.277-0.876-3.126-1.181c-2.418-0.867-2.874-1.054-3.184-1.472c-0.272-0.364-0.441-0.972-1.042-3.418   c-0.227-0.919-0.573-2.328-0.882-3.383c-0.717,1.369-1.72,3.699-2.501,5.76c-0.109,0.287-0.334,0.516-0.618,0.629   C17.901,63.094,15.016,64.388,13.503,65.233z"/>
	<path style="fill:#261D2A;" d="M327.034,52.406c-0.809,0-1.577,0-3.712-8.501c-7.202-1.388-7.834-2.234-8.046-2.518   c-0.205-0.273-0.293-0.775-0.199-1.102c0.131-0.461,0.432-1.531,8.664-4.85c2.957-7.707,3.958-7.707,4.626-7.707   c0.345,0,0.822,0.248,1.029,0.525c0.529,0.711,1.008,2.556,1.733,5.509c0.229,0.926,0.503,2.041,0.661,2.534   c0.432,0.193,1.387,0.534,2.178,0.818c4.232,1.517,5.324,2.034,5.52,3.044c0.075,0.379-0.118,0.931-0.404,1.188   c-0.86,0.773-4.951,2.291-7.097,3.055c-3.486,7.931-4.23,7.969-4.889,8.005C327.079,52.406,327.054,52.406,327.034,52.406z    M318.062,40.444c1.44,0.415,4.066,1.011,6.355,1.438c0.422,0.079,0.76,0.398,0.862,0.815c0.586,2.373,1.352,5.077,1.902,6.618   c0.798-1.436,2.007-3.979,2.989-6.227c0.122-0.279,0.353-0.495,0.64-0.596c1.958-0.688,4.166-1.534,5.544-2.137   c-0.965-0.406-2.277-0.876-3.126-1.181c-2.418-0.867-2.874-1.054-3.184-1.472c-0.272-0.364-0.441-0.972-1.042-3.418   c-0.227-0.919-0.574-2.328-0.882-3.383c-0.717,1.369-1.72,3.699-2.501,5.76c-0.109,0.287-0.334,0.516-0.618,0.629   C322.46,38.305,319.575,39.599,318.062,40.444z"/>
	<path style="fill:#261D2A;" d="M62.673,141.043c3.934-4.98,6.303-11.252,6.303-18.076c0-0.016-0.002-0.032-0.002-0.048   c0-0.005-0.001-0.011-0.001-0.016c-0.017-7.591-2.962-14.49-7.738-19.684c-0.03-0.044-0.045-0.096-0.083-0.136   c-0.035-0.037-0.082-0.055-0.12-0.087c-5.32-5.668-12.847-9.236-21.21-9.26c-0.008,0-0.016-0.001-0.023-0.001   c-0.02,0-0.039-0.003-0.059-0.003c-9.236,0-17.47,4.316-22.832,11.023c-0.031,0.033-0.072,0.053-0.099,0.091   c-0.025,0.034-0.031,0.075-0.052,0.111c-3.263,4.154-5.434,9.2-6.056,14.717c-0.116,0.173-0.195,0.372-0.199,0.606   c-0.003,0.173,0.043,0.332,0.112,0.478c-0.055,0.732-0.112,1.464-0.112,2.209c0,16.12,13.115,29.236,29.236,29.238c0,0,0,0,0,0h0   c0,0,0.001,0,0.001,0c0,0,0.001,0,0.001,0h0c0,0,0,0,0,0c9.295,0,17.573-4.376,22.931-11.159   C62.672,141.045,62.673,141.044,62.673,141.043C62.673,141.043,62.673,141.043,62.673,141.043z M24.977,121.663   c4.323,0.105,9.016,0.234,13.667,0.389v11.454c-3.759-0.194-7.583,0.078-11.16,1.125c-1.359-2.969-2.339-6.275-2.539-9.871   C24.887,123.728,24.908,122.695,24.977,121.663z M17.965,106.993c1.327,0.848,4.033,2.424,7.659,3.82   c-1.329,2.852-2.201,5.725-2.616,8.612c-4.538-0.103-8.145-0.169-10.025-0.201C13.616,114.689,15.37,110.521,17.965,106.993z    M27.703,111.549c3.189,1.046,6.914,1.846,10.941,1.925v6.382c-4.705-0.156-9.345-0.282-13.431-0.379   C25.624,116.827,26.456,114.182,27.703,111.549z M66.715,121.582c-1.848-0.312-4.873-0.589-8.568-0.834   c-0.36-3.804-1.591-7.572-3.679-11.29c1.929-1.092,3.852-2.446,5.756-4.099C64.018,109.766,66.399,115.401,66.715,121.582z    M40.835,113.433c3.756-0.18,7.713-1.028,11.699-2.937c1.883,3.347,3.029,6.721,3.403,10.114   c-4.515-0.267-9.786-0.492-15.102-0.679V113.433z M40.835,111.35V97.132c4.532,3.778,8.054,7.616,10.569,11.496   C47.797,110.346,44.226,111.153,40.835,111.35z M53.355,107.608c-2.49-3.883-5.919-7.708-10.29-11.459   c6.078,0.75,11.54,3.507,15.684,7.609C56.962,105.308,55.158,106.581,53.355,107.608z M38.644,111.403   c-3.664-0.058-7.056-0.773-9.985-1.722c2.289-4.165,5.616-8.301,9.985-12.383V111.403z M38.644,135.757v13.098   c-2.437-2.038-6.947-6.312-10.145-12.2C31.735,135.781,35.209,135.566,38.644,135.757z M40.835,135.935   c3.69,0.381,7.257,1.167,10.352,2.037c-3.491,5.283-7.956,9.141-10.352,10.985V135.935z M40.835,133.672v-11.546   c5.476,0.192,10.781,0.418,15.228,0.678c0.006,0.447,0.013,0.894-0.007,1.342c-0.197,4.384-1.671,8.365-3.653,11.844   C49.009,134.993,45.008,134.08,40.835,133.672z M58.244,124.257c0.02-0.44,0.012-0.878,0.009-1.318   c3.928,0.257,6.955,0.545,8.49,0.862c-0.177,5.774-2.168,11.086-5.427,15.406c-1.206-0.531-3.6-1.525-6.737-2.547   C56.568,133.03,58.035,128.874,58.244,124.257z M36.723,96.101c-4.438,4.214-7.827,8.5-10.16,12.837   c-3.376-1.306-5.919-2.805-7.238-3.658C23.667,100.278,29.798,96.875,36.723,96.101z M12.772,121.411   c2.745,0.045,6.191,0.112,10.013,0.2c-0.069,1.089-0.089,2.179-0.028,3.271c0.214,3.836,1.224,7.34,2.625,10.478   c-2.484,0.98-4.811,2.38-6.855,4.332c-3.641-4.608-5.833-10.41-5.833-16.725C12.693,122.442,12.742,121.929,12.772,121.411z    M19.957,141.349c1.88-1.815,4.057-3.1,6.4-3.991c3.009,5.722,7.203,10.004,9.961,12.415   C29.885,148.955,24.164,145.873,19.957,141.349z M43.417,149.733c2.757-2.244,6.816-6.063,10.003-11.095   c2.829,0.89,5.098,1.777,6.441,2.338C55.681,145.642,49.92,148.843,43.417,149.733z"/>
	<path style="fill:#261D2A;" d="M179.739,61.867c-0.879,0-1.794-0.278-2.719-0.824c-0.367-0.216-0.711-0.464-1.03-0.742   c-0.455-0.398-0.501-1.091-0.102-1.545c0.398-0.46,1.089-0.503,1.546-0.103c0.214,0.188,0.447,0.355,0.697,0.501   c0.851,0.503,1.59,0.646,2.222,0.413c0.565-0.22,1.197,0.073,1.411,0.64c0.212,0.567-0.075,1.198-0.641,1.41   C180.682,61.783,180.217,61.867,179.739,61.867z M125.338,59.479h-0.001c-0.605,0-1.094-0.49-1.094-1.096   c0-0.075,0.005-1.872,0.475-4.568c0.105-0.595,0.661-1.014,1.268-0.89c0.596,0.103,0.995,0.67,0.891,1.267   c-0.434,2.495-0.443,4.177-0.443,4.192C126.432,58.989,125.942,59.479,125.338,59.479z M183.309,58.33   c-0.104,0-0.211-0.015-0.316-0.047c-0.58-0.173-0.908-0.785-0.734-1.365c0.306-1.014,0.468-2.249,0.468-3.569l-0.005-0.417   c-0.017-0.603,0.46-1.108,1.064-1.126c0.598-0.023,1.109,0.46,1.127,1.066l0.005,0.486c0,1.545-0.188,2.959-0.56,4.194   C184.215,58.024,183.781,58.33,183.309,58.33z M229.252,56.941c-0.84,0-1.759-0.206-2.737-0.612   c-0.559-0.233-0.824-0.873-0.592-1.434c0.233-0.556,0.876-0.815,1.433-0.591c1.342,0.556,2.415,0.597,3.096,0.081   c0.482-0.368,1.17-0.272,1.535,0.212c0.366,0.481,0.271,1.168-0.211,1.534C231.072,56.667,230.223,56.939,229.252,56.941z    M174.52,56.853c-0.481,0-0.923-0.321-1.056-0.809c-0.308-1.132-0.465-2.397-0.465-3.759c0-0.306,0.008-0.614,0.024-0.929   c0.032-0.603,0.55-1.091,1.15-1.038c0.605,0.03,1.069,0.546,1.039,1.149c-0.014,0.276-0.021,0.55-0.021,0.817   c0,1.168,0.131,2.24,0.387,3.186c0.16,0.584-0.186,1.185-0.769,1.344C174.712,56.841,174.615,56.853,174.52,56.853z M223.27,54.057   c-0.271,0-0.542-0.1-0.754-0.301c-1.197-1.136-2.097-2.491-2.673-4.027c-0.212-0.567,0.075-1.198,0.642-1.41   c0.561-0.218,1.197,0.075,1.41,0.64c0.458,1.224,1.175,2.302,2.129,3.21c0.439,0.415,0.457,1.108,0.041,1.547   C223.848,53.943,223.559,54.057,223.27,54.057z M258.667,53.126c-0.126,0-0.255-0.021-0.38-0.068   c-0.567-0.21-0.858-0.839-0.647-1.406c0.489-1.325,0.889-2.69,1.19-4.061c0.129-0.591,0.715-0.963,1.304-0.835   c0.592,0.128,0.965,0.713,0.836,1.305c-0.322,1.468-0.751,2.931-1.275,4.35C259.532,52.852,259.112,53.126,258.667,53.126z    M232.66,52.405c-0.011,0-0.021,0-0.032,0c-0.605-0.017-1.082-0.522-1.064-1.125l0.005-0.312c0-1.113-0.177-2.364-0.523-3.721   c-0.15-0.586,0.203-1.183,0.79-1.333c0.583-0.152,1.183,0.203,1.333,0.789c0.393,1.534,0.592,2.97,0.592,4.265l-0.005,0.372   C233.737,51.934,233.25,52.405,232.66,52.405z M126.814,50.83c-0.106,0-0.213-0.015-0.32-0.047   c-0.578-0.177-0.904-0.789-0.729-1.367c0.445-1.459,0.983-2.887,1.601-4.239c0.251-0.552,0.901-0.792,1.452-0.543   c0.55,0.25,0.793,0.901,0.542,1.451c-0.578,1.267-1.082,2.602-1.498,3.969C127.718,50.526,127.284,50.83,126.814,50.83z    M183.236,49.655c-0.495,0-0.946-0.338-1.064-0.843c-0.319-1.344-0.768-2.675-1.334-3.961c-0.244-0.552,0.006-1.198,0.56-1.444   c0.555-0.242,1.202,0.011,1.444,0.561c0.619,1.406,1.112,2.867,1.46,4.339c0.14,0.589-0.223,1.179-0.812,1.318   C183.405,49.647,183.32,49.655,183.236,49.655z M174.785,48.181c-0.088,0-0.178-0.011-0.266-0.032   c-0.587-0.148-0.945-0.743-0.797-1.329c0.356-1.427,0.841-2.878,1.441-4.314c0.233-0.559,0.875-0.822,1.434-0.586   c0.559,0.233,0.822,0.875,0.589,1.434c-0.559,1.333-1.008,2.679-1.338,3.997C175.722,47.849,175.276,48.181,174.785,48.181z    M220.186,46.135c-0.007,0-0.015,0-0.024,0c-0.604-0.013-1.085-0.514-1.072-1.119c0.032-1.468,0.28-3.015,0.74-4.596   c0.169-0.582,0.768-0.922,1.358-0.747c0.581,0.169,0.915,0.777,0.746,1.359c-0.405,1.397-0.626,2.754-0.652,4.031   C221.269,45.66,220.781,46.135,220.186,46.135z M260.514,44.584c-0.023,0-0.046,0-0.069-0.002   c-0.605-0.036-1.063-0.556-1.026-1.162c0.03-0.477,0.046-0.967,0.046-1.461c0-0.922-0.055-1.832-0.167-2.707   c-0.076-0.599,0.349-1.147,0.949-1.224c0.613-0.068,1.149,0.349,1.225,0.95c0.122,0.963,0.184,1.967,0.184,2.981   c0,0.541-0.018,1.074-0.05,1.598C261.57,44.137,261.089,44.584,260.514,44.584z M230.651,43.94c-0.419,0-0.82-0.242-1.002-0.648   c-0.562-1.258-1.232-2.514-1.994-3.73c-0.321-0.514-0.166-1.19,0.348-1.511c0.51-0.323,1.19-0.167,1.509,0.347   c0.815,1.303,1.535,2.649,2.138,3.999c0.247,0.554-0.001,1.2-0.554,1.449C230.951,43.91,230.799,43.94,230.651,43.94z    M130.471,42.889c-0.206,0-0.413-0.058-0.598-0.178c-0.506-0.332-0.649-1.01-0.318-1.517c0.838-1.284,1.778-2.495,2.796-3.599   c0.412-0.441,1.104-0.471,1.548-0.064c0.445,0.411,0.473,1.104,0.063,1.549c-0.935,1.014-1.8,2.129-2.573,3.312   C131.179,42.714,130.829,42.889,130.471,42.889z M179.722,41.678c-0.351,0-0.697-0.169-0.908-0.481   c-0.253-0.372-0.517-0.738-0.792-1.096c-0.153-0.015-0.304-0.062-0.445-0.145c-0.381-0.223-0.578-0.638-0.539-1.048   c-0.282-0.321-0.573-0.631-0.873-0.935c-0.426-0.43-0.422-1.123,0.009-1.549c0.431-0.426,1.124-0.422,1.549,0.009   c0.148,0.15,0.293,0.3,0.436,0.452c0.491-0.747,1.01-1.474,1.553-2.176c0.371-0.475,1.058-0.563,1.537-0.195   c0.478,0.37,0.566,1.059,0.196,1.539c-0.638,0.822-1.24,1.684-1.798,2.57c0.342,0.439,0.67,0.888,0.981,1.348   c0.339,0.501,0.209,1.181-0.293,1.521C180.146,41.616,179.933,41.678,179.722,41.678z M222.507,37.758   c-0.167,0-0.337-0.039-0.497-0.12c-0.539-0.274-0.753-0.933-0.478-1.472c0.424-0.832,0.899-1.66,1.42-2.474   c-0.225-0.22-0.452-0.436-0.681-0.651c-0.444-0.411-0.47-1.104-0.059-1.547c0.411-0.445,1.103-0.473,1.548-0.058   c0.183,0.169,0.364,0.34,0.543,0.514c0.354-0.176,0.793-0.161,1.135,0.09c0.454,0.327,0.582,0.935,0.321,1.412   c0.379,0.417,0.748,0.841,1.106,1.275c0.385,0.466,0.319,1.158-0.148,1.543c-0.468,0.387-1.158,0.319-1.543-0.148   c-0.218-0.265-0.442-0.527-0.669-0.785c-0.369,0.601-0.711,1.211-1.023,1.821C223.291,37.54,222.906,37.758,222.507,37.758z    M136.389,36.485c-0.331,0-0.657-0.148-0.872-0.43c-0.367-0.481-0.275-1.17,0.206-1.536c1.193-0.91,2.488-1.731,3.846-2.444   c0.537-0.276,1.2-0.073,1.479,0.464c0.28,0.535,0.074,1.198-0.462,1.479c-1.251,0.653-2.439,1.408-3.534,2.243   C136.854,36.412,136.62,36.485,136.389,36.485z M259.377,35.957c-0.449,0-0.87-0.278-1.031-0.725   c-0.464-1.293-1.083-2.529-1.837-3.678c-0.332-0.505-0.191-1.185,0.315-1.517c0.505-0.332,1.185-0.193,1.517,0.314   c0.848,1.293,1.544,2.685,2.068,4.141c0.204,0.569-0.091,1.196-0.66,1.401C259.625,35.935,259.5,35.957,259.377,35.957z    M173.592,35.488c-0.215,0-0.433-0.064-0.624-0.195c-1.127-0.783-2.348-1.479-3.633-2.071c-0.55-0.253-0.791-0.903-0.537-1.453   c0.251-0.552,0.904-0.796,1.453-0.537c1.402,0.644,2.736,1.406,3.967,2.259c0.497,0.347,0.621,1.029,0.275,1.526   C174.28,35.323,173.939,35.488,173.592,35.488z M183.484,33.194c-0.284,0-0.566-0.109-0.781-0.327   c-0.424-0.43-0.419-1.123,0.013-1.549c1.097-1.08,2.26-2.069,3.456-2.942c0.489-0.355,1.175-0.246,1.53,0.24   c0.357,0.49,0.249,1.175-0.24,1.532c-1.108,0.809-2.189,1.727-3.21,2.733C184.04,33.089,183.761,33.194,183.484,33.194z    M144.098,32.435c-0.458,0-0.884-0.289-1.038-0.747c-0.194-0.574,0.114-1.194,0.688-1.387c1.382-0.466,2.851-0.852,4.367-1.145   c0.601-0.115,1.169,0.274,1.284,0.869c0.116,0.593-0.273,1.168-0.868,1.284c-1.42,0.274-2.794,0.633-4.084,1.068   C144.332,32.415,144.214,32.435,144.098,32.435z M165.686,31.823c-0.097,0-0.196-0.013-0.294-0.041   c-1.32-0.366-2.713-0.648-4.141-0.843c-0.6-0.081-1.021-0.631-0.939-1.232c0.081-0.599,0.633-1.055,1.232-0.937   c1.526,0.206,3.017,0.509,4.433,0.903c0.583,0.161,0.924,0.764,0.763,1.348C166.606,31.506,166.165,31.823,165.686,31.823z    M152.656,30.753c-0.567,0-1.046-0.436-1.091-1.01c-0.047-0.603,0.404-1.132,1.008-1.177c1.155-0.09,2.359-0.137,3.612-0.137   l0.711,0.004l0.137,1.098l-0.049,1.093l-0.799-0.004c-1.193,0-2.341,0.043-3.443,0.128   C152.713,30.753,152.685,30.753,152.656,30.753z M227.615,30.669c-0.275,0-0.551-0.103-0.764-0.31   c-0.433-0.422-0.443-1.115-0.021-1.549c1.072-1.102,2.217-2.116,3.401-3.015c0.481-0.368,1.17-0.272,1.535,0.212   c0.366,0.481,0.271,1.168-0.212,1.534c-1.097,0.832-2.158,1.772-3.154,2.797C228.186,30.558,227.901,30.669,227.615,30.669z    M219.612,30.579c-0.216,0-0.434-0.064-0.626-0.197c-1.164-0.811-2.384-1.541-3.625-2.165c-0.54-0.272-0.757-0.931-0.486-1.47   c0.273-0.541,0.931-0.76,1.472-0.486c1.333,0.672,2.643,1.453,3.892,2.324c0.495,0.347,0.617,1.029,0.272,1.526   C220.299,30.417,219.958,30.579,219.612,30.579z M254.627,28.684c-0.275,0-0.549-0.103-0.762-0.308   c-0.96-0.929-2.057-1.804-3.262-2.602c-0.504-0.334-0.642-1.014-0.308-1.519c0.335-0.507,1.012-0.64,1.519-0.308   c1.316,0.873,2.519,1.834,3.575,2.854c0.434,0.422,0.446,1.115,0.026,1.549C255.2,28.572,254.914,28.684,254.627,28.684z    M190.538,28.052c-0.398,0-0.781-0.216-0.976-0.595c-0.276-0.537-0.064-1.198,0.473-1.474c1.35-0.695,2.767-1.282,4.21-1.746   c0.577-0.178,1.194,0.133,1.378,0.71c0.185,0.576-0.133,1.192-0.708,1.378c-1.33,0.426-2.634,0.965-3.876,1.605   C190.878,28.014,190.707,28.052,190.538,28.052z M211.812,26.664c-0.113,0-0.229-0.017-0.342-0.056   c-1.329-0.436-2.706-0.781-4.092-1.025c-0.596-0.103-0.994-0.672-0.89-1.267c0.104-0.597,0.667-1.016,1.269-0.89   c1.489,0.261,2.969,0.631,4.398,1.102c0.575,0.188,0.887,0.807,0.699,1.382C212.701,26.373,212.272,26.664,211.812,26.664z    M234.594,25.423c-0.398,0-0.782-0.216-0.976-0.595c-0.276-0.539-0.064-1.198,0.474-1.474c1.414-0.728,2.86-1.288,4.297-1.669   c0.583-0.16,1.184,0.19,1.339,0.779c0.155,0.584-0.193,1.183-0.779,1.339c-1.284,0.34-2.582,0.845-3.856,1.498   C234.933,25.384,234.762,25.423,234.594,25.423z M198.842,25.41c-0.538,0-1.008-0.396-1.084-0.943   c-0.083-0.599,0.334-1.153,0.933-1.237c1.26-0.176,2.555-0.265,3.85-0.265l0.701,0.009c0.606,0.017,1.082,0.522,1.064,1.128   c-0.017,0.603-0.538,1.1-1.126,1.063l-0.639-0.009c-1.193,0-2.386,0.081-3.546,0.244C198.944,25.406,198.893,25.41,198.842,25.41z    M247.306,23.998c-0.114,0-0.23-0.017-0.344-0.056c-1.271-0.422-2.608-0.642-3.975-0.659c-0.605-0.006-1.09-0.503-1.083-1.108   c0.007-0.601,0.497-1.083,1.096-1.083c0.004,0,0.009,0,0.013,0c1.592,0.019,3.153,0.278,4.638,0.77   c0.575,0.19,0.886,0.811,0.695,1.384C248.194,23.707,247.766,23.998,247.306,23.998z"/>
	<g>
		<g>
			<path style="fill:#76ADA1;" d="M213.02,71.089c90.994,12.348,62.343,95.455,0.097,103.687c0,0-0.097,25.729-4.372,26.587     c-6.75,1.355-24.796-15.842-24.796-15.842s-44.301,7.526-65.636-6.297C31.144,122.748,128.357,59.601,213.02,71.089z"/>
			<path style="fill:#FCFDFF;" d="M139.534,128.126c-2.863,0-5.908-2.412-9.368-5.148c-4.459-3.531-9.519-7.547-14.689-6.539     c-3.805,0.725-7.345,3.995-10.821,9.999c-0.305,0.52-0.975,0.7-1.497,0.398c-0.524-0.304-0.703-0.974-0.399-1.498     c3.814-6.586,7.839-10.2,12.307-11.052c6.167-1.162,11.634,3.154,16.459,6.973c3.34,2.645,6.491,5.133,8.656,4.596     c1.114-0.283,2.074-1.393,2.938-3.398c5.109-11.865,9.933-23.073,17.769-25.065c3.882-0.989,8.059,0.342,12.786,4.061     c8.478,6.663,16.185,9.364,22.912,8.031c6.103-1.213,11.443-5.818,15.875-13.692c2.751-4.887,6.44-7.677,10.964-8.289     c10.84-1.47,22.433,10.091,22.922,10.583c0.426,0.43,0.424,1.123-0.005,1.549c-0.43,0.424-1.123,0.426-1.549-0.004     c-0.112-0.114-11.353-11.321-21.077-9.956c-3.805,0.516-6.95,2.936-9.345,7.192c-4.758,8.456-10.598,13.425-17.357,14.766     c-7.386,1.466-15.69-1.38-24.694-8.456c-4.156-3.27-7.718-4.468-10.892-3.659c-6.789,1.725-11.407,12.451-16.295,23.805     c-1.152,2.675-2.595,4.198-4.415,4.658C140.326,128.079,139.931,128.126,139.534,128.126z"/>
			<path style="fill:#FCFDFF;" d="M126.574,170.299c-0.159,0-0.321-0.034-0.475-0.109c-0.544-0.263-0.773-0.918-0.51-1.461     c1.055-2.189,10.549-21.29,19.04-18.716c3.66,1.117,5.893,3.415,8.052,5.638c2.666,2.745,4.979,5.11,9.666,4.934     c3.368-0.126,7.545-5.287,11.585-10.279c6.104-7.541,13.021-16.089,20.719-12.486c5.13,2.403,7.378,5.899,9.02,8.452     c0.924,1.438,1.654,2.572,2.424,2.658c1.595,0.111,4.83-3.079,5.908-4.149c7.56-7.485,15.604-14.206,23.281-12.759     c4.902,0.931,8.884,5.013,12.171,12.481c0.244,0.552-0.007,1.201-0.56,1.444c-0.559,0.242-1.201-0.009-1.444-0.563     c-2.934-6.663-6.492-10.434-10.575-11.21c-6.698-1.247-14.537,5.439-21.33,12.165c-3.67,3.633-5.839,4.958-7.689,4.77     c-1.809-0.199-2.838-1.8-4.029-3.651c-1.58-2.458-3.548-5.518-8.105-7.652c-6.16-2.889-12.218,4.622-18.087,11.878     c-4.548,5.619-8.843,10.928-13.205,11.092c-5.664,0.212-8.543-2.741-11.32-5.598c-2.056-2.118-3.998-4.117-7.12-5.069     c-5.675-1.735-13.786,12.096-16.428,17.57C127.373,170.07,126.982,170.299,126.574,170.299z"/>
		</g>
		<g>
			<g>
				<path style="fill:#A17296;" d="M204.234,468.736c0,0-5.724-192.556,49.466-228.836c83.589-54.949,233.602-26.007,239.295,43.514      c2.705,33.038-13.401,177.962-13.401,177.962L204.234,468.736z"/>
				<g>
					<path style="fill:#DD988B;" d="M327.854,198.466c0,0,6.624,49.264,0.355,55.419c-5.416,5.317-36.476,10.544-39.448,29.948       c-2.971,19.404-7.635,60.448,47.746,61.669c75.467,1.664,93.352-63.779,76.665-74.295       c-24.746-15.594-38.453-9.058-42.128-16.083c-3.675-7.024,0.699-65.259,0.699-65.259L327.854,198.466z"/>
					<path style="fill:#E8C01B;" d="M317.462,256.206c0,0-10.692,24.6,17.176,31.912c29.866,7.836,46.866-31.912,46.866-31.912       s80.067,8.248,92.937,53.909c12.87,45.662-24.561,140.348-24.561,140.348H238.644c0,0,1.229-26.471-14.431-86.698       C196.771,258.22,317.462,256.206,317.462,256.206z"/>
					<path style="fill:#DD988B;" d="M365.455,110.395c0,0-19.15-24.842-54.144,5.608s-36.713,39.978-32.2,49.992       c4.513,10.014,15.302-0.987,16.534,9.509c1.231,10.496-5.29,21.812-1.512,35.45c7.434,26.832,49.701,22.378,83.367-9.976       C417.541,162.496,405.05,139.103,365.455,110.395z"/>
					<path style="fill:#261D2A;" d="M312.298,156.756c-1.076,0-2.01-0.415-2.725-1.22c-3.937-4.431,0.057-20.95,0.525-22.818       c0.145-0.59,0.74-0.939,1.329-0.798c0.586,0.148,0.943,0.742,0.796,1.329c-1.66,6.627-3.401,18.143-1.012,20.832       c0.353,0.398,0.781,0.537,1.376,0.465c5.483-0.704,9.139-13.823,10.085-18.819c0.112-0.595,0.681-0.984,1.28-0.873       c0.595,0.113,0.985,0.685,0.873,1.28c-0.378,1.999-3.922,19.553-11.959,20.586       C312.672,156.743,312.483,156.756,312.298,156.756z"/>
					<path style="fill:#261D2A;" d="M337.968,164.14c-1.076,0-2.009-0.415-2.724-1.22c-3.936-4.429,0.057-20.948,0.525-22.816       c0.147-0.59,0.738-0.942,1.329-0.798c0.586,0.148,0.944,0.742,0.796,1.329c-1.658,6.627-3.401,18.143-1.012,20.831       c0.353,0.398,0.772,0.537,1.376,0.464c5.483-0.704,9.14-13.823,10.086-18.819c0.112-0.595,0.682-0.984,1.28-0.873       c0.595,0.113,0.985,0.685,0.873,1.28c-0.378,1.998-3.922,19.553-11.96,20.586C338.344,164.127,338.153,164.14,337.968,164.14z"/>
					<path style="fill:#C35041;" d="M427.815,149.538c6.156-5.49,11.023-13.583,7.553-22.743       c-2.874-7.585-9.989-13.08-16.588-15.476c3.401-6.953,5.071-17.545-0.754-24.467c-21.958-26.09-53.73-11.734-62.403-4.684       l2.191,7.46l-8.774-8.667c-1.718-6.577-1.912-12.818-18.614-14.664c-8.106-0.896-13.464,1.493-16.773,5.261       c-5.554-4.511-12.944-6.453-19.85-1.907c-15.628,10.288-14.33,26.262-4.163,30.56c-1.135,6.552,2.072,13.626,14.793,20.045       c19.607,9.894,44.368-16.523,49.619-5.457c5.251,11.065,2.457,31.524,4.02,38.269c1.201,5.184,6.565,4.281,9.203,3.687       c-4.795,11.011-7.982,43.595-22.368,40.722c-18.164-3.627,13.226-29.951-29.164-34.386       c-25.991-2.719-65.536,68.951,18.993,73.595c33.995,1.869,29.963-48.386,32.214-61.526c1.269-7.408,7.105-8.756,11.956-8.524       c-3.003,7.534-6.33,13.758-5.918,18.233c1.045,11.371,10.692,34.802,36.083,26.489c15.559-5.094,15.918-17.894,11.567-25.608       c3.951-1.349,7.9-4.034,10.53-8.631C436.689,167.467,433.958,154.316,427.815,149.538z"/>
					<path style="fill:#FCFDFF;" d="M304.004,180.128c0,0,15.108,6.167,24.799-0.038c9.692-6.205,7.695,23.863-9.913,21.373       C301.283,198.973,299.979,178.829,304.004,180.128z"/>
					<path style="fill:#EEEBD5;" d="M370.435,253.181c0,0,43.832,3.025,12.628,54.734c-15.414,25.543-48.426-15.26-48.426-15.26       s-10.759,17.523-26.741,13.092s-7.551-59.373,20.313-51.862c0,0-9.918,20.183,7.318,28.432       C352.763,290.566,370.435,253.181,370.435,253.181z"/>
					<path style="fill:#DD988B;" d="M454.828,362.974c-10.008-9.481-49.138-10.778-49.138-10.778s-2.215,49.446-13.864,36.765       c-11.649-12.682,0.518-64.419-8.762-70.837c0,0-10.314-15.312-41.621-14.862c-62.991-14.028-63.038,74.873-74.687,87.554       c-11.649,12.681-1.584-43.895-1.584-43.895s-43.25-7.373-43.25,6.414c0,11.633-5.95,97.128,43.46,97.128       c60.765,0,56.753-106.387,56.753-106.387s7.349,1.543,13.643,1.235c6.294,0.308,13.642-1.235,13.642-1.235       s-6.923,97.513,41.613,106.771C439.568,460.106,464.837,372.455,454.828,362.974z"/>
					<path style="fill:#261D2A;" d="M358.953,363.853c-1.699,0-4.622-0.394-7.06-2.717c-3.268-3.113-4.505-8.548-3.682-16.161       c-6.936-1.26-30.196-6.075-29.964-13.891c0.035-1.179,0.575-2.225,1.561-3.026c1.17-0.95,2.995-1.551,5.173-1.9       c-3.781-0.989-6.834-2.215-7.984-3.702c-0.658-0.854-0.684-1.66-0.589-2.185c0.517-2.848,5.683-4.222,11.746-4.84       c-2.897-0.813-5.241-1.964-6.18-3.593c-0.506-0.877-0.878-2.311,0.216-4.171c2.253-3.826,9.596-5.056,13.771-5.45       c15.89-1.485,37.449,3.24,47.926,15.181c0.399,0.456,0.353,1.147-0.102,1.547c-0.452,0.396-1.145,0.353-1.546-0.101       c-9.886-11.27-31.112-15.862-46.073-14.445c-6.304,0.593-10.823,2.23-12.09,4.38c-0.605,1.029-0.408,1.613-0.205,1.964       c1.44,2.499,9.162,3.775,16.242,4.235c2.766,0.028,5.158,0.124,6.73,0.205c0.592,0.03,1.053,0.524,1.04,1.117       c-0.013,0.593-0.495,1.068-1.087,1.072c-0.729-0.002-3.313,0.009-6.569-0.19c-11.016-0.06-21.225,1.061-21.663,3.477       c-0.011,0.058-0.035,0.195,0.166,0.456c1.479,1.913,8.434,3.559,15.954,4.727c6.482,0.33,12.705,1.399,13.93,1.617       c0.574,0.103,0.968,0.638,0.894,1.218c-0.074,0.58-0.586,0.997-1.17,0.954c-1.302-0.101-7.322-0.591-13.782-1.579       c-5.698-0.298-11.234-0.03-13.367,1.705c-0.496,0.402-0.735,0.845-0.751,1.389c-0.148,4.939,17.813,9.89,29.169,11.848       c0.579,0.101,0.976,0.638,0.901,1.222c-0.943,7.305,0.052,12.601,2.876,15.314c2.79,2.677,6.562,2.071,6.602,2.063       c0.598-0.096,1.162,0.295,1.266,0.89c0.104,0.595-0.291,1.16-0.885,1.267C360.303,363.761,359.768,363.853,358.953,363.853z"/>
					<path style="fill:#261D2A;" d="M313.251,355.463c-3.718,0-6.172-3.796-6.279-3.965c-0.324-0.509-0.173-1.183,0.336-1.508       c0.506-0.325,1.184-0.176,1.512,0.332c0.02,0.034,2.087,3.197,4.756,2.934c1.793-0.176,4.557-1.981,7.539-9.58       c0.22-0.565,0.856-0.843,1.42-0.621c0.564,0.223,0.841,0.858,0.619,1.421c-2.723,6.937-5.878,10.626-9.376,10.962       C313.599,355.454,313.423,355.463,313.251,355.463z"/>
					<path style="fill:#261D2A;" d="M398.323,339.532c-0.554,0-1.029-0.417-1.088-0.98c-1.657-15.744,14.23-59.671,14.908-61.533       c0.206-0.567,0.833-0.86,1.404-0.655c0.568,0.206,0.862,0.835,0.655,1.404c-0.164,0.452-16.392,45.309-14.788,60.553       c0.064,0.603-0.372,1.143-0.975,1.205C398.4,339.53,398.361,339.532,398.323,339.532z"/>
					<path style="fill:#261D2A;" d="M463.49,363.767c-0.3,0-0.597-0.122-0.813-0.362c-21.154-23.449-61.164-11.925-61.567-11.805       c-0.583,0.169-1.19-0.16-1.362-0.738c-0.172-0.58,0.159-1.19,0.739-1.363c0.416-0.12,41.748-12.025,63.816,12.438       c0.405,0.449,0.37,1.143-0.079,1.547C464.014,363.673,463.752,363.767,463.49,363.767z"/>
					<path style="fill:#261D2A;" d="M413.173,442.642c-0.395,0-0.776-0.214-0.971-0.586c-2.397-4.575-5.47-7.234-9.137-7.902       c-6.902-1.245-13.84,4.849-13.909,4.911c-0.452,0.402-1.145,0.36-1.546-0.088c-0.403-0.452-0.365-1.143,0.086-1.547       c0.314-0.28,7.801-6.858,15.751-5.433c4.37,0.792,7.968,3.832,10.697,9.04c0.281,0.537,0.074,1.198-0.462,1.481       C413.517,442.602,413.344,442.642,413.173,442.642z"/>
					<path style="fill:#261D2A;" d="M270.902,447.591c-0.567,0-1.046-0.436-1.091-1.012c-0.009-0.109-0.921-10.968-7.027-14.242       c-3.034-1.628-6.956-1.115-11.659,1.506c-0.529,0.295-1.196,0.105-1.49-0.424c-0.295-0.529-0.106-1.194,0.423-1.489       c5.404-3.015,10.037-3.528,13.768-1.521c7.161,3.845,8.133,15.509,8.171,16.003c0.046,0.603-0.406,1.13-1.008,1.175       C270.959,447.589,270.93,447.591,270.902,447.591z"/>
					<path style="fill:#261D2A;" d="M271.085,342.815c-0.58,0-1.064-0.454-1.094-1.04c-1.946-38.434,12.025-55.37,12.621-56.072       c0.392-0.464,1.078-0.518,1.543-0.128c0.461,0.392,0.519,1.083,0.129,1.545c-0.14,0.165-14.004,17.062-12.104,54.544       c0.03,0.605-0.435,1.119-1.039,1.149C271.123,342.815,271.105,342.815,271.085,342.815z"/>
					<g>
						<path style="fill:#FCFDFF;" d="M461.518,335.018c-0.247,0-0.496-0.083-0.702-0.255c-0.462-0.387-0.525-1.076-0.141-1.538        c0.117-0.144,2.468-3.143-0.352-7.016c-0.356-0.488-0.248-1.173,0.241-1.53c0.489-0.355,1.174-0.248,1.531,0.242        c3.087,4.237,1.522,8.202,0.264,9.706C462.143,334.885,461.832,335.018,461.518,335.018z"/>
						<path style="fill:#FCFDFF;" d="M453.54,329.198c-0.247,0-0.496-0.083-0.702-0.255c-0.462-0.387-0.525-1.077-0.141-1.539        c0.117-0.143,2.468-3.143-0.352-7.016c-0.356-0.488-0.248-1.173,0.241-1.53c0.489-0.355,1.174-0.25,1.531,0.242        c3.087,4.237,1.522,8.201,0.264,9.706C454.165,329.065,453.854,329.198,453.54,329.198z"/>
						<path style="fill:#FCFDFF;" d="M460.838,319.894c-0.247,0-0.496-0.083-0.702-0.255c-0.462-0.387-0.525-1.076-0.141-1.539        c0.117-0.143,2.468-3.143-0.352-7.012c-0.356-0.49-0.248-1.175,0.241-1.532c0.49-0.355,1.174-0.248,1.531,0.24        c3.086,4.239,1.522,8.201,0.264,9.706C461.463,319.762,461.151,319.894,460.838,319.894z"/>
						<path style="fill:#FCFDFF;" d="M453.193,312.457c-0.247,0-0.496-0.083-0.702-0.255c-0.462-0.387-0.525-1.076-0.141-1.538        c0.117-0.144,2.468-3.143-0.352-7.016c-0.356-0.488-0.248-1.172,0.241-1.53c0.489-0.355,1.174-0.248,1.531,0.242        c3.087,4.237,1.522,8.202,0.264,9.706C453.818,312.324,453.506,312.457,453.193,312.457z"/>
						<path style="fill:#FCFDFF;" d="M446.167,321.732c-0.247,0-0.497-0.083-0.702-0.255c-0.462-0.387-0.525-1.076-0.141-1.538        c0.117-0.144,2.468-3.143-0.352-7.016c-0.356-0.488-0.248-1.172,0.241-1.53c0.489-0.353,1.174-0.25,1.531,0.242        c3.086,4.237,1.522,8.202,0.264,9.706C446.792,321.6,446.48,321.732,446.167,321.732z"/>
						<path style="fill:#FCFDFF;" d="M459.338,302.811c-0.247,0-0.496-0.083-0.702-0.255c-0.462-0.387-0.525-1.074-0.142-1.539l0,0        c0.103-0.126,2.479-3.133-0.351-7.014c-0.356-0.49-0.248-1.175,0.241-1.532c0.489-0.355,1.174-0.248,1.531,0.24        c3.087,4.239,1.523,8.202,0.265,9.706C459.963,302.678,459.652,302.811,459.338,302.811z"/>
						<path style="fill:#FCFDFF;" d="M452.524,298.073c-0.15,0-0.302-0.03-0.447-0.096c-0.55-0.246-0.797-0.89-0.554-1.44        c0.069-0.163,1.431-3.533-2.508-6.74c-0.469-0.383-0.539-1.072-0.157-1.541c0.381-0.471,1.073-0.537,1.542-0.158        c4.234,3.449,3.896,7.611,3.125,9.329C453.343,297.834,452.943,298.073,452.524,298.073z"/>
					</g>
					<path style="fill:#261D2A;" d="M310.964,117.917c-0.495,0-0.989-0.015-1.481-0.043c-7.043-0.417-14.253-4.003-14.408-10.05       c-0.069-2.767,0.95-4.973,2.866-6.344c-1.594-2.78-2.723-6.043-2.853-9.225c-0.202-4.97,2.088-8.891,6.449-11.039       c8.364-4.121,14.913-2.403,18.497,0.655c2.277-2.863,5.769-4.943,10.696-4.943c0.058,0,0.115,0,0.173,0       c4.036,0.039,7.195,1.444,9.392,4.177c5.473,6.809,2.905,19.433,2.792,19.966c-0.124,0.59-0.699,0.959-1.297,0.847       c-0.592-0.124-0.972-0.704-0.847-1.297c0.025-0.12,2.467-12.149-2.359-18.147c-1.765-2.193-4.358-3.323-7.703-3.355       c-4.761-0.062-7.6,2.142-9.298,4.378c2.399,3.137,2.571,7.151,0.392,10.399c-1.449,2.163-2.721,2.206-3.533,1.87       c-1.881-0.79-2.097-4.179-1.475-7.187c0.34-1.65,0.942-3.329,1.831-4.881c-2.977-2.69-8.733-4.241-16.291-0.518       c-4.533,2.234-5.346,6.12-5.228,8.985c0.115,2.855,1.155,5.818,2.596,8.324c0.171-0.06,0.348-0.118,0.529-0.167       c3.859-1.098,8.738,0.255,10.233,2.829c0.861,1.481,0.523,3.148-0.927,4.575c-1.245,1.224-2.956,1.496-4.812,0.76       c-1.914-0.757-4.011-2.653-5.773-5.153c-1.074,0.813-1.915,2.17-1.857,4.436c0.12,4.727,6.303,7.56,12.346,7.917       c7.548,0.492,15.692-2.833,16.896-11.165c0.085-0.597,0.638-0.986,1.241-0.929c0.598,0.088,1.013,0.642,0.926,1.241       C327.354,113.982,319.064,117.917,310.964,117.917z M301.114,102.398c1.444,1.975,3.096,3.46,4.587,4.051       c1.555,0.608,2.245-0.062,2.471-0.285c1.07-1.053,0.706-1.677,0.569-1.913C307.851,102.721,304.184,101.578,301.114,102.398z        M320.322,85.528c-0.298,0.593-0.516,1.132-0.671,1.569c-1.213,3.415-0.812,6.152-0.364,6.633       c0.023-0.075,0.357-0.291,0.868-1.053C321.66,90.432,321.695,87.792,320.322,85.528z"/>
					<path style="fill:#261D2A;" d="M318.061,234.122c-3.786,0-7.188-1.945-9.695-5.582c-1.202-1.746-2.141-3.82-2.766-5.936       c-0.28,0.19-0.566,0.37-0.856,0.537c-3.985,2.287-7.936,1.8-11.127-1.378c-2.702-2.692-3.872-5.548-3.478-8.484       c0.772-5.769,7.365-9.584,7.645-9.744c0.523-0.295,1.193-0.116,1.494,0.409c0.3,0.526,0.117,1.194-0.408,1.496       c-0.06,0.034-5.938,3.447-6.56,8.135c-0.295,2.223,0.665,4.455,2.854,6.635c3.106,3.096,6.329,2.266,8.488,1.031       c0.487-0.28,0.952-0.597,1.394-0.942c-0.584-3.145-0.437-6.162,0.599-8.112c0.732-1.376,1.892-2.133,3.268-2.133       c0.012,0,0.023,0,0.036,0c1.461,0.015,2.493,0.762,2.829,2.048c0.626,2.392-1.352,6.24-4.317,9.006       c0.526,2.135,1.426,4.329,2.708,6.188c1.647,2.39,4.548,5.112,9.037,4.562c4.528-0.567,7.721-2.874,9.679-5.548       c-0.792-0.674-1.508-1.395-2.141-2.135c-2.5-2.934-4.411-7.038-3.045-9.597c0.404-0.76,1.474-1.975,4.017-1.693       c3.524,0.411,5.724,3.023,5.74,6.822c0.009,1.99-0.565,4.106-1.646,6.088c2.567,1.742,6.283,3.173,10.683,1.658       c6.847-2.358,8.833-8.553,7.78-13.311c-0.76-3.432-3.33-6.717-7.31-6.295c-0.61,0.051-1.142-0.376-1.202-0.976       c-0.063-0.601,0.373-1.14,0.976-1.202c4.619-0.486,8.511,2.733,9.676,8.001c1.256,5.677-1.089,13.061-9.206,15.855       c-4.716,1.626-9.141,0.392-12.576-1.896c-2.404,3.216-6.245,5.79-11.153,6.404       C319.002,234.092,318.529,234.122,318.061,234.122z M326.956,215.031c-0.673,0-1.117,0.193-1.322,0.578       c-0.613,1.149,0.276,4.207,2.78,7.143c0.342,0.402,0.896,1.006,1.634,1.662c0.826-1.643,1.226-3.304,1.22-4.697       c-0.007-1.575-0.509-4.273-3.801-4.654C327.283,215.042,327.113,215.031,326.956,215.031z M308.913,212.245       c-0.355,0-0.872,0.107-1.331,0.972c-0.617,1.16-0.816,3.068-0.587,5.238c1.909-2.172,2.969-4.641,2.666-5.799       c-0.045-0.171-0.106-0.404-0.731-0.411C308.924,212.245,308.918,212.245,308.913,212.245z"/>
					<path style="fill:#261D2A;" d="M406.19,196.963c-0.118,0-0.236-0.002-0.356-0.006c-6.383-0.214-11.618-6.12-11.837-6.37       c-0.398-0.456-0.352-1.147,0.104-1.545c0.453-0.398,1.146-0.355,1.545,0.103c0.048,0.053,4.843,5.448,10.27,5.623       c2.325,0.036,4.543-0.869,6.486-2.81c2.556-2.555,2.059-6.434,1.194-9.239c-0.797-2.581-2.157-5.14-3.74-7.38       c-0.553,0.133-1.12,0.233-1.7,0.302c-4.538,0.539-9.141-1.16-10.689-3.937c-0.81-1.457-0.659-3.068,0.417-4.421       c0.921-1.155,2.318-1.618,3.917-1.32c2.745,0.518,6.091,3.235,8.893,6.83c2.958-1.102,6.466-3.758,8.233-10.044       c2.324-8.268-0.948-15.321-5.167-19.66c-1.167,0.728-2.348,1.314-3.479,1.757c-3.906,1.528-7.421,1.479-9.177-0.122       c-0.825-0.751-1.657-2.17-0.94-4.658c0.916-3.176,3.8-4.496,7.53-3.428c2.105,0.599,4.299,1.862,6.314,3.64       c3.275-2.441,6.121-6.137,6.533-10.947c0.505-5.889-4.288-9.406-7.189-10.979c-1.267-0.687-2.603-1.243-3.934-1.673       c-3.293,2.839-7.16,4.605-9.81,4.149c-1.529-0.257-2.579-1.209-2.958-2.681c-0.358-1.393,0.051-2.636,1.156-3.496       c2.052-1.6,6.523-1.658,11.062-0.421c1.014-0.98,1.96-2.089,2.759-3.297c2.061-3.116,3.843-7.887,0.628-12.918       c-1.916-3-4.411-4.763-7.415-5.24c-7.305-1.164-15.424,5.431-15.507,5.497c-0.468,0.385-1.156,0.314-1.542-0.152       c-0.384-0.466-0.317-1.158,0.15-1.541c0.364-0.297,8.973-7.279,17.235-5.97c3.652,0.578,6.656,2.672,8.926,6.224       c3.002,4.701,2.773,10.136-0.647,15.308c-0.659,0.997-1.425,1.952-2.26,2.837c1.099,0.409,2.177,0.892,3.201,1.449       c5.823,3.156,8.781,7.806,8.328,13.093c-0.461,5.386-3.544,9.535-7.133,12.301c4.69,5.041,7.85,12.969,5.447,21.522       c-1.552,5.525-4.747,9.466-9.014,11.281c1.578,2.341,2.887,4.924,3.668,7.451c1.497,4.846,0.896,8.801-1.739,11.435       C411.654,195.802,409.046,196.963,406.19,196.963z M400.86,168.062c-0.702,0-1.052,0.321-1.264,0.586       c-0.531,0.668-0.6,1.299-0.216,1.99c0.961,1.727,4.498,3.304,8.518,2.827c0.15-0.017,0.306-0.039,0.466-0.064       c-2.403-2.876-5.052-4.923-6.971-5.285C401.195,168.079,401.019,168.062,400.86,168.062z M405.243,138.457       c-1.284,0-2.486,0.518-2.976,2.217c-0.326,1.13-0.221,1.947,0.309,2.431c1.085,0.991,3.921,0.864,6.904-0.3       c0.846-0.332,1.726-0.751,2.601-1.26c-1.701-1.399-3.456-2.362-4.99-2.799C406.503,138.578,405.863,138.457,405.243,138.457z        M402.83,115.546c-1.657,0-2.979,0.282-3.68,0.83c-0.412,0.321-0.522,0.676-0.381,1.224c0.16,0.625,0.53,0.954,1.198,1.066       c1.606,0.282,4.261-0.768,6.831-2.681C405.372,115.69,404.016,115.546,402.83,115.546z"/>
					<path style="fill:#261D2A;" d="M361.69,243.918c-0.012,0-0.025,0-0.036,0l-53.794-1.793c-0.605-0.021-1.078-0.527-1.058-1.132       c0.02-0.606,0.531-1.061,1.131-1.059l52.883,1.763l9.159-41.84c0.128-0.593,0.709-0.965,1.304-0.837       c0.591,0.128,0.965,0.713,0.836,1.303l-9.354,42.733C362.65,243.561,362.204,243.918,361.69,243.918z"/>
					<path style="fill:#403955;" d="M316.344,241.75c0,2.768-3.462,5.013-7.733,5.013s-7.734-2.244-7.734-5.013       c0-2.768,3.463-5.013,7.734-5.013S316.344,238.982,316.344,241.75z"/>
					<path style="fill:#403955;" d="M385.272,158.194c6.667-21.173,16.02-69.973-36.232-77.232c0,0,0.625,10.392-1.718,16.014       c0,0,37.218,19.043,23.643,56.816c-8.528,0.653-16.576,6.51-20.086,15.598c-4.736,12.261,0.579,25.736,11.871,30.096       c11.291,4.361,24.284-2.042,29.02-14.303C395.67,175.08,392.738,164.167,385.272,158.194z"/>
					<path style="fill:#FCFDFF;" d="M372.51,194.679c-8.63,0-15.65-7.647-15.65-17.047c0-9.4,7.021-17.047,15.65-17.047       c8.629,0,15.649,7.647,15.649,17.047C388.159,187.031,381.138,194.679,372.51,194.679z M372.51,162.775       c-7.422,0-13.459,6.665-13.459,14.856c0,8.191,6.037,14.856,13.459,14.856c7.421,0,13.458-6.665,13.458-14.856       C385.968,169.441,379.93,162.775,372.51,162.775z"/>
				</g>
				<path style="fill:#FCFDFF;" d="M387.071,127.748c-0.597,0-1.086-0.479-1.096-1.078c-0.394-24.423-19.635-30.408-20.455-30.652      c-0.579-0.171-0.91-0.781-0.739-1.361c0.17-0.58,0.775-0.914,1.358-0.74c0.216,0.062,21.607,6.644,22.028,32.719      c0.01,0.603-0.473,1.102-1.078,1.113C387.082,127.748,387.076,127.748,387.071,127.748z"/>
			</g>
			<g>
				<path style="fill:#EEEBD5;" d="M81.359,396.375c0,0-30.093-157.642-23.239-159.206c21.586-4.924,206.005-6.985,206.005-6.985      c11.674,9.078,32.936,166.076,32.936,166.076C274.724,396.349,81.359,396.375,81.359,396.375z"/>
				<path style="fill:#261D2A;" d="M71.889,245.711c-0.584,0-1.069-0.462-1.093-1.051c-0.025-0.603,0.445-1.115,1.05-1.14      c6.535-0.265,160.26-6.526,178.833-1.885c0.587,0.148,0.945,0.743,0.797,1.329c-0.147,0.586-0.743,0.933-1.328,0.798      c-18.27-4.575-176.615,1.883-178.213,1.949C71.92,245.711,71.904,245.711,71.889,245.711z"/>
				<path style="fill:#261D2A;" d="M112.097,360.767c-0.52,0-0.969-0.366-1.073-0.877L95.752,285.05      c-0.065-0.319,0.015-0.653,0.22-0.905c0.205-0.255,0.512-0.404,0.84-0.409l119.175-1.419c0.517-0.017,0.99,0.37,1.089,0.888      l14.335,74.442c0.061,0.319-0.021,0.648-0.226,0.899c-0.204,0.25-0.51,0.4-0.833,0.404l-118.238,1.817      C112.108,360.767,112.103,360.767,112.097,360.767z M98.163,285.913l14.825,72.651l116.024-1.785l-13.916-72.259L98.163,285.913      z"/>
				<path style="fill:#403955;" d="M297.061,425.945H171.882c0,0-10.462-45.423,7.643-84.867h27.089l-7.838-44.34h-80.916      l7.203,44.34h10.85c-9.781,16.858-22.114,46.571-18.053,84.867H40.934v32.716l259.597,0.668L297.061,425.945z"/>
				<path style="fill:#FCFDFF;" d="M135.236,411.206c-0.605,0-1.096-0.49-1.096-1.096c0-22.692,5.52-39.166,10.15-48.989      c5.042-10.696,10.037-15.945,10.248-16.164c0.417-0.434,1.112-0.449,1.547-0.03c0.436,0.419,0.45,1.113,0.031,1.549      c-0.198,0.206-19.785,21.102-19.785,63.634C136.331,410.716,135.841,411.206,135.236,411.206z"/>
			</g>
			<g>
				<path style="fill:#D37E3A;" d="M26.388,454.349c0,0,468.308-9.9,470.826-5.955c2.518,3.945,0,38.508,0,38.508l-470.827,3.072      C26.387,485.365,26.388,454.349,26.388,454.349z"/>
				<path style="fill:#261D2A;" d="M178.319,482.771c-20.616,0-44.204-5.593-67.441-16.093c-50.462-22.805-77.965,7.412-78.235,7.72      c-0.401,0.454-1.092,0.496-1.547,0.096c-0.454-0.4-0.497-1.093-0.096-1.547c0.285-0.321,28.858-31.726,80.782-8.268      c66.411,30.012,111.08,14.236,125.887-14.715c0.276-0.537,0.938-0.749,1.474-0.477c0.539,0.276,0.752,0.935,0.477,1.474      c-9.465,18.507-27.628,29.385-52.526,31.454C184.237,482.653,181.309,482.771,178.319,482.771z"/>
				<path style="fill:#261D2A;" d="M175.939,465.324c-13.585,0-29.877-3.479-48.22-13.908c-0.526-0.3-0.71-0.967-0.411-1.493      c0.298-0.527,0.966-0.717,1.494-0.411c27.965,15.898,50.75,15.094,64.937,11.61c15.385-3.772,24.286-11.407,24.374-11.484      c0.457-0.396,1.148-0.349,1.546,0.107c0.397,0.456,0.35,1.147-0.106,1.545C219.311,451.499,203.008,465.324,175.939,465.324z"/>
				<path style="fill:#261D2A;" d="M31.237,486.571c-0.304,0-0.605-0.126-0.822-0.372c-0.4-0.454-0.356-1.145,0.098-1.545      c40.867-36.005,93.059-4.23,93.58-3.905c0.514,0.321,0.671,0.995,0.351,1.509c-0.32,0.514-0.997,0.67-1.509,0.353      c-0.507-0.317-51.343-31.225-90.974,3.687C31.753,486.481,31.495,486.571,31.237,486.571z"/>
				<path style="fill:#261D2A;" d="M51.079,490.908c-0.355,0-0.704-0.173-0.915-0.492c-0.334-0.505-0.195-1.183,0.31-1.517      c15.288-10.102,27.071-10.761,34.259-9.524c7.896,1.35,12.09,5.133,12.264,5.294c0.445,0.409,0.475,1.098,0.067,1.545      c-0.407,0.445-1.097,0.479-1.547,0.071c-0.638-0.578-15.945-13.983-43.837,4.442C51.496,490.851,51.287,490.908,51.079,490.908z      "/>
				<path style="fill:#261D2A;" d="M225.209,486.571c-0.233,0-0.47-0.075-0.669-0.229c-0.478-0.37-0.567-1.057-0.198-1.536      c0.155-0.199,15.763-20.052,45.224-26.625c15.541-3.466,30.975,2.617,45.902,8.499c13.779,5.431,28.033,11.039,42.386,9.212      c29.299-3.745,38.137-28.534,38.223-28.782c0.195-0.574,0.814-0.877,1.392-0.681c0.571,0.197,0.876,0.819,0.679,1.391      c-0.09,0.263-9.382,26.33-40.016,30.245c-14.914,1.896-29.43-3.817-43.468-9.346c-15.292-6.032-29.736-11.726-44.621-8.398      c-28.656,6.393-43.818,25.632-43.967,25.824C225.861,486.426,225.537,486.571,225.209,486.571z"/>
				<path style="fill:#261D2A;" d="M332.1,461.671c-10.363,0-21.625-2.919-32.262-11.578c-0.468-0.381-0.539-1.072-0.157-1.541      c0.382-0.471,1.072-0.537,1.542-0.158c31.202,25.405,68.289-0.787,68.661-1.053c0.489-0.353,1.174-0.244,1.529,0.246      c0.354,0.492,0.244,1.177-0.246,1.53C370.908,449.303,353.418,461.671,332.1,461.671z"/>
				<path style="fill:#261D2A;" d="M251.998,490.908c-0.303,0-0.604-0.124-0.821-0.37c-0.401-0.454-0.358-1.145,0.095-1.547      c35.937-31.771,72.166-4.662,72.528-4.384c0.48,0.368,0.57,1.055,0.203,1.534c-0.368,0.482-1.054,0.574-1.536,0.203      c-1.42-1.085-35.175-26.278-69.744,4.29C252.516,490.818,252.256,490.908,251.998,490.908z"/>
				<path style="fill:#261D2A;" d="M380.829,483.421c-1.057,0-1.64-0.141-1.747-0.169c-0.584-0.156-0.932-0.757-0.776-1.342      c0.155-0.582,0.75-0.927,1.33-0.779c0.196,0.041,12.74,2.608,37.009-24.47c14.391-16.057,28.983-7.808,43.095,0.167      c11.761,6.648,22.87,12.924,34.141,6.539c0.529-0.3,1.196-0.113,1.493,0.415c0.299,0.527,0.114,1.194-0.413,1.494      c-12.349,6.993-24.525,0.115-36.299-6.541c-13.974-7.893-27.172-15.355-40.385-0.61      C397.772,481.001,385.219,483.421,380.829,483.421z"/>
				<path style="fill:#261D2A;" d="M408.995,483.417c-0.274,0-0.549-0.103-0.761-0.308c-0.435-0.42-0.447-1.113-0.028-1.549      c29.022-30.059,74.636-1.096,75.093-0.8c0.508,0.33,0.654,1.008,0.325,1.515c-0.328,0.511-1.008,0.651-1.515,0.325      c-0.444-0.284-44.562-28.27-72.327,0.484C409.568,483.306,409.281,483.417,408.995,483.417z"/>
				<path style="fill:#261D2A;" d="M454.675,486.002c-0.176,0-0.356-0.043-0.523-0.133c-13.943-7.594-27.425-0.088-27.56-0.011      c-0.527,0.293-1.196,0.113-1.495-0.409c-0.3-0.524-0.118-1.194,0.407-1.493c0.592-0.338,14.654-8.197,29.696-0.013      c0.531,0.291,0.727,0.954,0.438,1.487C455.44,485.794,455.064,486.002,454.675,486.002z"/>
				<path style="fill:#261D2A;" d="M481.061,455.316c-11.058,0-19.648-6.77-19.774-6.871c-0.472-0.381-0.546-1.068-0.167-1.541      c0.381-0.466,1.07-0.543,1.541-0.167c0.706,0.567,17.476,13.727,33.875,0.796c0.476-0.372,1.164-0.291,1.539,0.182      c0.374,0.475,0.293,1.164-0.182,1.539C492.156,453.78,486.328,455.316,481.061,455.316z"/>
			</g>
		</g>
	</g>
	<g>
		<path style="fill:#FCFDFF;" d="M44.074,184.996c0,0-1.947-14.785,12.284-10.001c14.231,4.784,9.594,18.32,4.169,13.688    c-5.425-4.632,4.754-20.343,15.644-13.347c10.89,6.995,8.454,20.57,0.73,21.572c-7.724,1.002,4.676-15.805,14.407-5.425    c9.731,10.38-11.515,29.304-20.203,22.346c-8.688-6.958-1.889-18.188,0.195-11.344c2.084,6.844-3.536,13.556-18.946,13.29    c-15.41-0.265-8.396-23.973-3.009-17.072c5.386,6.901-3.556,14.69-14.426,6.56C24.046,197.133,36.447,180.326,44.074,184.996z"/>
		<path style="fill:#261D2A;" d="M53.204,216.879c-0.288,0-0.578-0.002-0.871-0.008c-5.086-0.088-8.667-2.682-9.945-7.157    c-2.464-0.321-5.24-1.414-8.127-3.573c-6.321-4.728-5.579-12.109-2.041-17.328c2.548-3.76,6.797-6.522,10.667-5.51    c-0.002-2.344,0.443-6.364,3.241-8.667c2.424-1.994,5.984-2.222,10.58-0.679c2.111,0.709,3.785,1.582,5.114,2.524    c3.639-3.779,9.3-5.691,14.941-2.067c5.502,3.535,7.603,8.436,7.835,12.594c2.701,0.119,5.307,1.377,7.51,3.726    c4.456,4.752,3.485,11.985-2.472,18.425c-5.389,5.823-13.954,9.737-19.214,5.525c-0.673-0.538-1.264-1.107-1.782-1.698    C65.218,215.521,59.891,216.879,53.204,216.879z M44.714,209.79c0.894,2.422,2.969,4.81,7.657,4.89    c6.616,0.115,11.83-1.099,14.974-3.454c-1.869-3.085-2.016-6.46-1.098-8.962c0.693-1.889,1.943-3.005,3.278-3.004    c0.73,0.02,2.065,0.426,2.821,2.907c0.936,3.077,0.436,6.119-1.409,8.565c-0.206,0.275-0.43,0.541-0.668,0.798    c0.432,0.493,0.936,0.977,1.519,1.444c4.021,3.221,11.558-0.247,16.236-5.303c4.071-4.401,6.861-10.768,2.482-15.439    c-2.051-2.187-4.117-2.975-5.959-3.054c-0.051,0.502-0.131,0.984-0.233,1.442c-0.919,4.087-3.706,6.912-7.274,7.375    c-2.552,0.337-3.3-1.01-3.507-1.601c-0.751-2.143,1.46-5.598,4.93-7.702c1.296-0.785,2.623-1.296,3.949-1.534    c-0.19-3.563-2.017-7.805-6.834-10.899c-4.775-3.067-9.222-1.256-12.066,1.625c2.798,2.721,3.294,5.627,3.375,6.764    c0.186,2.585-0.821,4.825-2.566,5.707c-1.408,0.71-3.051,0.406-4.507-0.837c-3.09-2.638-2.047-7.658,0.598-11.346    c-1.14-0.787-2.582-1.525-4.403-2.137c-3.828-1.289-6.683-1.19-8.485,0.29c-3.097,2.543-2.372,8.47-2.364,8.53    c0.055,0.418-0.136,0.83-0.49,1.06c-0.355,0.23-0.809,0.236-1.168,0.015c-3.1-1.9-7.109,0.634-9.468,4.112    c-2.954,4.357-3.624,10.482,1.539,14.344c2.285,1.709,4.457,2.663,6.385,3.05c-0.455-4.563,1.293-9.534,3.978-10.784    c0.705-0.33,2.533-0.849,4.271,1.377c2.482,3.18,2.477,6.877-0.013,9.418C48.929,208.738,47.026,209.626,44.714,209.79z     M69.463,201.45c-0.152,0-0.722,0.38-1.158,1.568c-0.528,1.441-0.744,4.039,0.672,6.663c0.073-0.089,0.143-0.178,0.212-0.269    c1.433-1.9,1.8-4.184,1.061-6.609C69.905,201.675,69.517,201.428,69.463,201.45z M47.248,198.54c-0.177,0-0.307,0.061-0.387,0.098    c-1.558,0.726-3.238,4.912-2.675,9.002c1.91-0.05,3.449-0.713,4.442-1.726c1.7-1.735,1.643-4.241-0.149-6.537    C47.951,198.7,47.537,198.54,47.248,198.54z M82.312,189.412c-1.075,0.269-2.003,0.722-2.712,1.152    c-2.914,1.767-4.263,4.345-3.998,5.103c0.051,0.144,0.471,0.243,1.156,0.154c2.631-0.341,4.707-2.518,5.418-5.683    C82.229,189.904,82.274,189.661,82.312,189.412z M62.104,179.573c-2.272,3.234-2.656,6.75-0.867,8.278    c0.54,0.462,1.342,0.93,2.096,0.548c0.756-0.382,1.507-1.67,1.368-3.594C64.638,183.926,64.253,181.727,62.104,179.573z"/>
	</g>
	<g>
		<path style="fill:#FCFDFF;" d="M458.851,71.279c0,0-1.948-14.785,12.283-10.001c14.231,4.784,9.594,18.32,4.169,13.688    c-5.425-4.632,4.754-20.343,15.644-13.347c10.89,6.996,8.454,20.57,0.73,21.572c-7.724,1.002,4.676-15.805,14.407-5.425    c9.731,10.38-11.515,29.304-20.203,22.346c-8.689-6.958-1.889-18.188,0.195-11.344c2.084,6.844-3.536,13.556-18.946,13.29    c-15.41-0.265-8.396-23.973-3.009-17.072c5.386,6.901-3.556,14.69-14.426,6.56C438.824,83.416,451.224,66.609,458.851,71.279z"/>
		<path style="fill:#261D2A;" d="M467.981,103.162c-0.288,0-0.578-0.002-0.871-0.007c-5.086-0.088-8.667-2.682-9.945-7.157    c-2.464-0.321-5.24-1.414-8.127-3.573c-6.321-4.728-5.579-12.109-2.041-17.328c2.548-3.76,6.797-6.522,10.667-5.51    c-0.002-2.344,0.443-6.364,3.241-8.667c2.424-1.994,5.984-2.222,10.58-0.679c2.111,0.709,3.785,1.582,5.114,2.524    c3.639-3.779,9.3-5.69,14.941-2.067c5.502,3.535,7.602,8.436,7.834,12.593c2.702,0.119,5.307,1.377,7.51,3.726    c4.456,4.752,3.484,11.985-2.472,18.425c-5.389,5.823-13.954,9.737-19.214,5.525c-0.673-0.538-1.264-1.107-1.782-1.698    C479.996,101.804,474.669,103.162,467.981,103.162z M459.492,96.073c0.894,2.422,2.969,4.81,7.657,4.89    c6.616,0.115,11.829-1.099,14.974-3.454c-1.869-3.086-2.016-6.46-1.098-8.962c0.693-1.889,1.943-3.005,3.278-3.004    c0.73,0.02,2.065,0.426,2.821,2.907c0.936,3.077,0.436,6.119-1.409,8.565c-0.206,0.275-0.43,0.541-0.669,0.798    c0.432,0.493,0.936,0.977,1.519,1.444c4.021,3.221,11.558-0.247,16.236-5.303c4.071-4.401,6.861-10.768,2.482-15.439    c-2.051-2.187-4.117-2.975-5.959-3.054c-0.052,0.502-0.131,0.984-0.233,1.442c-0.919,4.087-3.706,6.912-7.274,7.375    c-2.552,0.337-3.3-1.01-3.507-1.601c-0.751-2.143,1.46-5.598,4.93-7.702c1.296-0.785,2.623-1.296,3.949-1.534    c-0.19-3.563-2.017-7.805-6.834-10.899c-4.775-3.067-9.222-1.256-12.066,1.625c2.798,2.721,3.294,5.627,3.375,6.764    c0.186,2.585-0.821,4.825-2.566,5.707c-1.408,0.71-3.051,0.406-4.507-0.837c-3.09-2.638-2.047-7.658,0.598-11.346    c-1.14-0.787-2.582-1.525-4.403-2.137c-3.828-1.289-6.684-1.19-8.485,0.29c-3.097,2.543-2.372,8.47-2.364,8.53    c0.055,0.418-0.136,0.83-0.49,1.06c-0.355,0.23-0.809,0.236-1.168,0.015c-3.1-1.9-7.109,0.635-9.468,4.113    c-2.954,4.357-3.624,10.482,1.539,14.344c2.285,1.709,4.457,2.663,6.385,3.05c-0.455-4.563,1.293-9.534,3.978-10.784    c0.705-0.33,2.534-0.849,4.271,1.377c2.482,3.18,2.477,6.877-0.013,9.418C463.706,95.021,461.804,95.909,459.492,96.073z     M484.24,87.733c-0.152,0-0.722,0.38-1.158,1.568c-0.528,1.441-0.744,4.039,0.672,6.663c0.073-0.089,0.144-0.178,0.212-0.269    c1.433-1.9,1.8-4.184,1.061-6.609C484.683,87.958,484.294,87.711,484.24,87.733z M462.025,84.823    c-0.177,0-0.307,0.061-0.387,0.098c-1.558,0.726-3.238,4.912-2.675,9.002c1.91-0.05,3.449-0.713,4.442-1.726    c1.7-1.735,1.643-4.241-0.149-6.537C462.728,84.983,462.314,84.823,462.025,84.823z M497.089,75.695    c-1.075,0.269-2.003,0.722-2.712,1.152c-2.914,1.767-4.263,4.345-3.998,5.103c0.051,0.144,0.471,0.243,1.156,0.154    c2.631-0.341,4.707-2.518,5.418-5.683C497.007,76.187,497.052,75.944,497.089,75.695z M476.881,65.855    c-2.272,3.234-2.656,6.75-0.867,8.278c0.54,0.462,1.342,0.93,2.096,0.548c0.757-0.382,1.507-1.67,1.369-3.594    C479.416,70.209,479.031,68.01,476.881,65.855z"/>
	</g>
</g>
<g>
</g>
<g>
</g>
<g>
</g>
<g>
</g>
<g>
</g>
<g>
</g>
<g>
</g>
<g>
</g>
<g>
</g>
<g>
</g>
<g>
</g>
<g>
</g>
<g>
</g>
<g>
</g>
<g>
</g>
</svg>
