<svg enable-background="new 0 0 492 492" height="512" viewBox="0 0 492 492" width="512" xmlns="http://www.w3.org/2000/svg"><g id="Layer_2"><path clip-rule="evenodd" d="m246.26.98c135.21 0 245.76 110.549 245.76 245.76 0 135.21-110.549 245.76-245.76 245.76-135.21 0-245.76-110.55-245.76-245.76 0-135.21 110.55-245.76 245.76-245.76z" fill="#ffa726" fill-rule="evenodd"/></g><g id="Layer_1"><g><g><g clip-rule="evenodd" fill="#fffffe" fill-rule="evenodd"><path d="m333.475 184.245 47.185-40.558-.157 83.384z"/><path d="m328.961 188.126 46.836 42.65-123.697-.233 47.124-42.901 13.242 11.356c.551.474 1.237.712 1.922.712.686 0 1.374-.238 1.925-.714z"/><path d="m375.674 140.181-48.611 41.787-12.676 10.894-13.266-11.375-48.439-41.54z"/><path d="m247.625 143.394 47.078 40.373-47.236 43.004z"/><path d="m191.427 168.624c3.773 3.997 3.684 10.171-.203 14.056l-2.279 2.278-47.604-50.615 1.778-1.778c1.91-1.909 4.435-2.954 7.128-2.954.049 0 .1 0 .152.002 2.748.039 5.301 1.162 7.188 3.161z"/><path d="m346.113 325.331c.04 2.747-1.008 5.332-2.952 7.276l-1.699 1.699-50.618-47.602 2.202-2.201c3.885-3.887 10.059-3.976 14.056-.203l35.851 33.84c2 1.888 3.122 4.441 3.16 7.191z"/><path d="m337.283 338.487-10.992 10.992c-19.185 19.186-50.407 19.186-69.592 0l-130.45-130.449c-19.185-19.185-19.185-50.407 0-69.593l10.913-10.913 47.606 50.615-1.465 1.465c-7.933 7.931-7.933 20.837 0 28.768l73.054 73.052c3.841 3.843 8.949 5.959 14.383 5.959s10.541-2.116 14.383-5.959l1.542-1.542z"/></g></g></g></g></svg>