<svg viewBox="0 0 512 512" xmlns="http://www.w3.org/2000/svg"><g id="Customer_rating" data-name="Customer rating"><path d="m196.75 450.23 21.71 38.69h-89.46s6.07-11.11 27.46-15.3 6.39-23.39 6.39-23.39z" fill="#8f00cd"/><path d="m320.82 450.23 24 38.69h74.73s-11.5-12.58-33.06-19.34-28.26-19.35-28.26-19.35z" fill="#8f00cd"/><path d="m234.75 23.67c-20.45-5.82-35 20-104.18 56.23-2.48 27.1 39.83 38.67 39.83 38.67l63.29-62.93 16.49 14.85 19.38-8.81a75.14 75.14 0 0 0 -13.56-21.68c-5.23-5.87-12.33-13.79-21.25-16.33z" fill="#ff59cf"/><path d="m134.49 79.9a10.28 10.28 0 0 1 -16 2.46v-21l9.76-1.49z" fill="#ff59cf"/><path d="m130.57 67.38-2-6.54-10.06 1.54v6.8a16.41 16.41 0 0 0 12.06-1.8z" fill="#ff17b6"/><circle cx="121.68" cy="49.79" fill="#ff59cf" r="11.73"/><path d="m110.09 51.57s2.12 9.16 5.62 12.59a12 12 0 0 0 5.17 2.84 8.25 8.25 0 0 0 6.72-1 12.11 12.11 0 0 0 4.07-4.28c2.33-4.33 1.59-13.72 1.59-13.72-13.9 2.14-8.58 1.32-23.17 3.57z" fill="#ff59cf"/><path d="m120.69 61.62a14.23 14.23 0 0 0 5.6-1.09 3.23 3.23 0 0 1 -2.61 2.29 3.42 3.42 0 0 1 -2.99-1.2z" fill="#fff3ff"/><path d="m180.76 49.82-56.22 31.44 46.46 43.47 35.13-33c-8.43-30.67-25.37-41.91-25.37-41.91z" fill="#f7e00b"/><path d="m111.81 56.06-.81-7.56s6.59 3.76 6.23-3.91 3.51-4.23 3.51-4.23 3.56 10.66 8.15 3.91l4.21 8.53 4-2.54-2.57-7.11s4.17-4.59 1.17-8.46-5.46-1-10.3-4.47-7.62 2.78-7.62 2.78-10.46-3.27-13.33 1.6 1.71 7.94 0 11.18 3.8 11.42 3.8 11.42z" fill="#570b7f"/><ellipse cx="110.95" cy="56.04" fill="#ff59cf" rx="4.18" ry="5.43" transform="matrix(.78 -.626 .626 .78 -10.67 81.73)"/><ellipse cx="134.37" cy="52.45" fill="#ff59cf" rx="5.43" ry="4.18" transform="matrix(.363 -.932 .932 .363 36.74 158.63)"/><g fill="#570b7f"><path d="m109.63 56.72a1.25 1.25 0 0 1 1.15-1.17c-.46-.53-1.63-1.68-2-1a2.2 2.2 0 0 0 .1 1.32.5.5 0 1 1 -.93.35c-1-2.76 1.39-4.51 4.23-.39a.5.5 0 0 1 -.51.77 1.61 1.61 0 0 0 -1 .08c-.31.23.48 1.16 1.12 1.26.17 0 .32 0 .4-.33a.5.5 0 0 1 1 .24c-.56 2.23-3.66.47-3.56-1.13z"/><path d="m133.4 55.6c-.83 0-1.64-1-1-1.41a.5.5 0 0 1 .69.16c.19.31.33.27.48.2.57-.28 1.07-1.4.7-1.54a1.71 1.71 0 0 0 -1 .23.5.5 0 0 1 -.72-.59c.17-.54 1.08-3.25 2.55-3.33 1.21 0 1.67 1.24 1.61 2.44a.54.54 0 0 1 -.53.47.5.5 0 0 1 -.47-.53 2.22 2.22 0 0 0 -.3-1.29c-.49-.49-1.26 1-1.55 1.6a1.73 1.73 0 0 1 .75.06c1.65.6.39 3.53-1.21 3.53z"/><path d="m116.5 58.17a4.69 4.69 0 1 1 4.69-4.69 4.71 4.71 0 0 1 -4.69 4.69zm0-8.38a3.69 3.69 0 1 0 3.69 3.69 3.7 3.7 0 0 0 -3.69-3.69z"/><path d="m126.29 55.6a4.69 4.69 0 1 1 4.71-4.69 4.7 4.7 0 0 1 -4.71 4.69zm0-8.38a3.69 3.69 0 1 0 3.71 3.69 3.69 3.69 0 0 0 -3.71-3.69z"/><path d="m120.69 53a.5.5 0 0 1 -.39-.82 2.15 2.15 0 0 1 1.88-.7.5.5 0 0 1 -.15 1 1.16 1.16 0 0 0 -1 .35.49.49 0 0 1 -.34.17z"/><path d="m130.57 50.29a.5.5 0 0 1 -.39-.81l2.43-3.07a.49.49 0 0 1 .7-.08.49.49 0 0 1 .08.7c-2.66 3.35-2.49 3.26-2.82 3.26z"/><path d="m112.38 52.33c-.15 0 .07.08-3.24-1.37a.51.51 0 0 1 -.26-.66.5.5 0 0 1 .66-.26l3 1.34a.5.5 0 0 1 -.16.95z"/><path d="m95.78 206.46s-22.86 120.41-17.72 150.11 73.94 104.43 73.94 104.43l57.73.13-65.73-115.82q13.11-42.13 26.23-84.26l-18.23-54.59z"/><path d="m198.18 183.76 168.92 276-58.25 3.76-169.11-223.23 2.26-25.69z"/></g><path d="m94.7 117a179.72 179.72 0 0 1 -8.78 107.44 103 103 0 0 0 36.41 23c50.56 18.32 97.86-11.72 104.85-16.32l-59.66-144.22-33-7-16 2.46z" fill="#f7e00b"/><rect fill="#00e4e0" height="140.21" rx="8.99" width="202.11" x="185.7" y="65.23"/><rect fill="#fff3ff" height="4.01" rx="1.87" width="27.15" x="348.03" y="71.62"/><path d="m118.48 82.36a49 49 0 0 0 -20 10.64c-32.48 29.34-24.39 110.22 11.52 123.69 23.37 8.75 59.11-10.76 84.32-46.76l-15.32-19.48-55.57 24.08a117.33 117.33 0 0 1 -2.86-34.53c1-14.07 4.24-22 2.88-36.41a81.7 81.7 0 0 0 -4.97-21.23z" fill="#ff59cf"/><path d="m124.54 81.26c-6.65.58-30.45 4.24-40.11 27.39-11.28 27-8.73 59.19-8.73 59.19 16.37 6.42 33.7 5 48.81-2.55 0-50-.35-30.85 1.78-84.13 0 0-.63.01-1.75.1z" fill="#f7e00b"/><path d="m118.48 82.36c2.8 4.75 8 6.72 13.33 6.17 0 0 4.18-6.48 1.56-12.21-6.18-3.32-13.44-1.01-14.89 6.04z" fill="#ff59cf"/><path d="m172 155.09a22.92 22.92 0 0 0 6.15-11.41c1.19-6.13-.47-13.07-.56-13.45-1-4-2.32-6.32-1.19-7.47s3.76-.37 5.34.56c4.86 2.86 4.44 10.56 4.4 11.25a15.74 15.74 0 0 1 4.94-4.66 12.44 12.44 0 0 1 7.67-2.2c3.91.32 11.42 2.79 12.14 5.91s-4.77 3-4.77 3 5.33 1.76 5.57 5.11-5.57 1.92-5.57 1.92 6.2 2.39 6.36 4.95-6.36 1.27-6.36 1.27 5.65 1.76 5.73 4.95-7.6-.39-8.71 1c-.95 1.15-1.49 13.51-8.06 15.9a7.83 7.83 0 0 1 -4.15.2c-9.86-1.63-17.15-13.71-18.93-16.83z" fill="#ff59cf"/><path d="m196.43 151.06a.5.5 0 0 1 -.36-.85c3.89-3.87 10-.88 10.27-.75a.5.5 0 0 1 -.45.89c-.06 0-5.74-2.79-9.11.57a.54.54 0 0 1 -.35.14z" fill="#570b7f"/><path d="m205.86 144.11c-.07-.05-7-4.17-11.19-.69a.5.5 0 0 1 -.64-.76c4.69-3.94 12 .4 12.34.59a.5.5 0 0 1 -.51.86z" fill="#570b7f"/><path d="m191.16 138.11a.5.5 0 0 1 -.4-.8c5.23-6.9 15.5-1.15 15.6-1.09a.49.49 0 1 1 -.49.86c-.1-.05-9.61-5.37-14.32.83a.47.47 0 0 1 -.39.2z" fill="#570b7f"/><path d="m246.17 63.47s-10-1.79-11.42.48 7.15 12.78 9 11.74-.16-6.41-.16-6.41 4.56 7.51 6.79 6.48-.8-6.43-.8-6.43 4.79 7.44 7.19 6.12-1.12-7.19-1.12-7.19 6.27 7.87 8.06 6.39-2.55-9.42-2.55-9.42h10.84c-3.85-11.47-17-10.03-25.83-1.76z" fill="#ff59cf"/><path d="m243.61 69.78a.49.49 0 0 1 -.41-.22 21.19 21.19 0 0 1 -2.2-6.05.53.53 0 0 1 0-.25 4.1 4.1 0 0 1 6.51-2.07c.81-2 3.4-2 5.48-1.57 1.22-2.37 8.39-2.91 9.91-3a.5.5 0 0 1 .06 1c-3.7.21-9 1.18-9.14 2.65a.5.5 0 0 1 -.64.42c-.76-.22-3-.63-4.13.13s-.48 1.51-1.09 1.72a.48.48 0 0 1 -.51-.11c-1.81-1.77-4.58-1.46-5.45 1a20 20 0 0 0 2 5.57.5.5 0 0 1 -.39.78z" fill="#570b7f"/><path d="m249.18 69.6a14.26 14.26 0 0 1 -1.9-7.53.5.5 0 0 1 1 0 13.54 13.54 0 0 0 1.74 7 .5.5 0 0 1 -.84.53z" fill="#570b7f"/><path d="m255.67 68.76a.5.5 0 0 1 -.43-.25c-.12-.21-2.91-5.15-2.43-8.37a.5.5 0 0 1 1 .15c-.43 2.88 2.28 7.68 2.3 7.73a.49.49 0 0 1 -.44.74z" fill="#570b7f"/><path d="m260.73 65.44a8 8 0 0 0 -2.41-2.94.5.5 0 0 1 -.15-.69.49.49 0 0 1 .69-.16 9 9 0 0 1 2.77 3.35.5.5 0 0 1 -.9.44z" fill="#570b7f"/><path d="m118.46 73.89s-3.24-.8-4.35 3.36-3.12 5.33-3.16 7 8.12 15.2 14.54 16.94 6.32-12.68 6.32-12.68-6.56-.5-13.33-6.17z" fill="#ff9100"/><path d="m131.27 69.62 2.1 6.7s1.84 7.13-1.56 12.21c0 0 10.4 9.24 12.32 5.32s-2.06-21.13-3.13-21.78-2.24-1.45-4.78-3.29-4.95.84-4.95.84z" fill="#ff9100"/><path d="m165 274.69-7.34-14.05a.5.5 0 1 1 .88-.46l7.35 14.05a.5.5 0 0 1 -.89.46z" fill="#fff3ff"/><path d="m89.48 259.92c9.71-2.26 14.62-5.82 17-8.4a10.44 10.44 0 0 0 2.92-5.07.5.5 0 0 1 1 .13c0 .4-1.45 9.82-20.73 14.32a.5.5 0 0 1 -.19-.98z" fill="#fff3ff"/><path d="m229.9 253.09c-11.8 0-20.46-8-20.56-8.13a.5.5 0 0 1 .68-.72c.12.1 11.33 10.47 25.42 7.22a.5.5 0 0 1 .22 1 25.41 25.41 0 0 1 -5.76.63z" fill="#fff3ff"/><path d="m196.43 455.89c-.45 0 4.26 7.79-65.06-110.75-.18-.31-1.85 4.73 24.71-70.84a.51.51 0 0 1 .64-.31.49.49 0 0 1 .3.64l-24.67 70.2 64.51 110.31a.5.5 0 0 1 -.43.75z" fill="#fff3ff"/><path d="m355.16 455.89c-.43 0 5 8.5-120-190.9a.5.5 0 0 1 .84-.54l119.58 190.67a.5.5 0 0 1 -.42.77z" fill="#fff3ff"/><path d="m334.14 471.74c10.37-1.49 19.9 2.92 26.57 10.89l53.85 1.71s5.64-.63 4.95 4.58h-74.73z" fill="#570b7f"/><path d="m207 468.44s-11.07 2.28-12 15.27h-61.3s-6.37-.22-4.66 5.21h89.42z" fill="#570b7f"/><path d="m121.73 166.05a.5.5 0 0 1 -.5-.48c0-.25-1.18-25.66-3.24-40.24-2-14.37-8.3-19.54-8.36-19.59a.49.49 0 0 1 -.08-.7.5.5 0 0 1 .7-.08c.27.21 6.63 5.43 8.73 20.23 2.07 14.63 3.24 40.08 3.25 40.34a.51.51 0 0 1 -.5.52z" fill="#570b7f"/><path d="m179 115.1a.51.51 0 0 1 -.48-.35c-8.33-26.6-22-33.28-22.16-33.35a.5.5 0 1 1 .42-.9c.58.27 14.22 6.88 22.7 34a.51.51 0 0 1 -.48.6z" fill="#570b7f"/><path d="m108.25 201.35a.5.5 0 0 1 -.46-.7c5-12.14 15.15-26.27 15.25-26.41a.5.5 0 1 1 .81.58c-.1.14-10.14 14.18-15.14 26.22a.51.51 0 0 1 -.46.31z" fill="#570b7f"/><path d="m233.56 56.12c-.39-.1-9.64-2.63-15.86-14.9a.49.49 0 0 1 .22-.67.5.5 0 0 1 .67.22c6 11.84 15.13 14.36 15.22 14.38a.5.5 0 0 1 -.25.97z" fill="#570b7f"/><rect fill="#fff3ff" height="59.24" rx="10" width="209.36" x="227.18" y="101.53"/><path d="m257.53 139.83-10.29 5.42 1.96-11.47-8.33-8.12 11.51-1.68 5.15-10.43 5.15 10.43 11.52 1.68-8.33 8.12 1.96 11.47z" fill="#f7e00b"/><path d="m294.7 139.83-10.3 5.42 1.97-11.47-8.33-8.12 11.51-1.68 5.15-10.43 5.15 10.43 11.51 1.68-8.33 8.12 1.97 11.47z" fill="#f7e00b"/><path d="m331.87 139.83-10.3 5.42 1.96-11.47-8.33-8.12 11.52-1.68 5.15-10.43 5.14 10.43 11.52 1.68-8.33 8.12 1.96 11.47z" fill="#f7e00b"/><path d="m369.03 139.83-10.3 5.42 1.97-11.47-8.33-8.12 11.51-1.68 5.15-10.43 5.15 10.43 11.51 1.68-8.33 8.12 1.97 11.47z" fill="#f7e00b"/><path d="m406.2 139.83-10.3 5.42 1.97-11.47-8.34-8.12 11.52-1.68 5.15-10.43 5.14 10.43 11.52 1.68-8.33 8.12 1.96 11.47z" fill="#f7e00b"/><path d="m299.9 156.36s5.48 13.64-7.9 27.31c15.77 0 30.6-14.56 28-27.31z" fill="#fff3ff"/></g></svg>