<?xml version="1.0" encoding="iso-8859-1"?>
<!-- Generator: Adobe Illustrator 28.0.0, SVG Export Plug-In . SVG Version: 6.00 Build 0)  -->
<svg xmlns="http://www.w3.org/2000/svg" xmlns:xlink="http://www.w3.org/1999/xlink" version="1.1" id="Layer_1" x="0px" y="0px" viewBox="0 0 512 512" style="enable-background:new 0 0 512 512;" xml:space="preserve">
<g>
	<g>
		<path style="fill:#EFEBD5;" d="M240.439,353.908c0,0,0,83.864,0,87.748c0,3.884-104.774,16.314-118.074,47.227    c-13.3,30.912,297.703,19.667,315.464,2.442c17.761-17.225-126.192-40.574-125.615-46.035c0.577-5.462-1.832-88.528-5.387-88.883    C303.271,356.052,240.439,353.908,240.439,353.908z"/>
		<path style="fill:#413655;" d="M83.221,130.81c0,0,359.711-11.454,369.022,8.985c18.608,40.847,23.673,234.498,1.385,251.972    c-22.288,17.474-360.593,22.506-372.567,6.422C65.101,376.75,40.274,129.93,83.221,130.81z"/>
		<path style="fill:#51AEA3;" d="M114.286,371.404c0,0-30.726-183.242,0-193.422c15.795-5.233,303.172-30.237,311.784-11.912    c11.511,24.492,13.277,196.565-8.931,200.08C377.823,372.373,117.519,392.34,114.286,371.404z"/>
		<path style="fill:#FCFCFF;" d="M232.051,365.625c-44.33,0-86.162-2.335-99.271-8.135c-2.781-1.231-4.256-2.62-4.51-4.246    c-1.081-6.384-25.607-153.158,0.664-163.751c23.432-9.447,265.87-24.488,281.64-0.127c14.368,22.196,8.008,148.89-8.007,159.484    c-14.58,9.644-80.822,14.781-133.118,16.246C257.177,365.441,244.512,365.625,232.051,365.625z M309.517,178.387    c-11.17,0-23.136,0.162-35.844,0.49c-65.229,1.686-131.14,7.467-143.929,12.625c-7.012,2.827-14.265,19.71-8.994,84.08    c3.181,38.85,9.592,76.931,9.657,77.309c0,0.006,0.001,0.011,0.002,0.017c0.072,0.467,0.59,1.425,3.248,2.601    c32.833,14.529,243.004,7.883,267.716-8.464c6.53-4.32,12.523-34.494,14.577-73.38c1.75-33.141,0.204-71.694-7.194-83.122    C403.69,182.717,367.384,178.387,309.517,178.387z"/>
		<path style="fill:#241726;" d="M283.766,501.908c-68.903,0-118.793-13.334-119.561-13.544c-0.576-0.159-0.915-0.755-0.758-1.33    c0.157-0.579,0.755-0.911,1.331-0.759c1.185,0.326,120.008,32.062,244.592-3.028c0.578-0.159,1.172,0.173,1.336,0.749    c0.162,0.575-0.173,1.174-0.749,1.336C365.481,497.858,321.736,501.908,283.766,501.908z"/>
	</g>
	<g>
		<path style="fill:#FCFCFF;" d="M451.091,87.957c0,0-1.925-14.61,12.139-9.883c14.063,4.727,9.481,18.104,4.119,13.527    c-5.362-4.577,4.698-20.103,15.46-13.19c10.762,6.913,8.355,20.328,0.721,21.318c-7.633,0.99,4.621-15.619,14.237-5.362    c9.616,10.257-11.379,28.959-19.965,22.083c-8.586-6.876-1.867-17.973,0.193-11.21c2.06,6.763-3.495,13.396-18.723,13.134    c-15.228-0.262-8.297-23.691-2.974-16.871c5.323,6.82-3.514,14.517-14.256,6.483C431.299,99.951,443.554,83.342,451.091,87.957z"/>
		<path style="fill:#241726;" d="M460.113,119.464c-0.284,0-0.571-0.002-0.861-0.007c-5.026-0.087-8.565-2.651-9.829-7.072    c-2.434-0.317-5.178-1.398-8.03-3.531c-6.246-4.672-5.515-11.967-2.017-17.124c2.517-3.714,6.722-6.45,10.541-5.444    c-0.002-2.317,0.438-6.29,3.203-8.565c2.395-1.976,5.914-2.198,10.454-0.672c2.086,0.702,3.74,1.564,5.054,2.494    c3.597-3.732,9.189-5.624,14.766-2.042c5.438,3.493,7.513,8.337,7.742,12.445c2.67,0.117,5.245,1.361,7.421,3.683    c4.403,4.695,3.444,11.842-2.443,18.207c-5.324,5.755-13.786,9.626-18.988,5.461c-0.665-0.532-1.25-1.094-1.761-1.678    C471.985,118.122,466.722,119.464,460.113,119.464z M451.724,112.459c0.884,2.393,2.933,4.752,7.567,4.832    c6.521,0.115,11.689-1.086,14.796-3.413c-1.847-3.049-1.991-6.385-1.084-8.857c0.685-1.867,1.925-2.992,3.239-2.969    c0.721,0.02,2.04,0.421,2.788,2.873c0.925,3.041,0.431,6.047-1.392,8.463c-0.204,0.272-0.425,0.536-0.661,0.79    c0.427,0.487,0.924,0.965,1.5,1.427c3.972,3.178,11.421-0.243,16.045-5.242c4.023-4.35,6.78-10.64,2.454-15.256    c-2.027-2.161-4.068-2.94-5.889-3.02c-0.051,0.497-0.129,0.974-0.23,1.426c-0.908,4.039-3.662,6.831-7.188,7.288    c-2.525,0.322-3.262-0.999-3.466-1.583c-0.741-2.118,1.443-5.532,4.872-7.61c1.28-0.777,2.593-1.28,3.902-1.517    c-0.188-3.52-1.993-7.712-6.754-10.769c-4.717-3.031-9.116-1.241-11.924,1.605c2.765,2.69,3.255,5.562,3.336,6.685    c0.184,2.554-0.811,4.767-2.535,5.638c-1.395,0.704-3.016,0.402-4.454-0.827c-3.053-2.607-2.024-7.567,0.59-11.212    c-1.127-0.778-2.551-1.507-4.352-2.111c-3.785-1.274-6.608-1.177-8.388,0.291c-3.069,2.527-2.34,8.366-2.332,8.424    c0.055,0.415-0.133,0.823-0.483,1.05c-0.351,0.228-0.798,0.233-1.156,0.015c-3.061-1.878-7.026,0.623-9.357,4.064    c-2.919,4.305-3.581,10.358,1.521,14.175c2.258,1.688,4.404,2.632,6.31,3.014c-0.449-4.509,1.278-9.421,3.931-10.657    c0.697-0.325,2.501-0.842,4.221,1.361c2.453,3.142,2.448,6.795-0.013,9.307C455.888,111.419,454.009,112.298,451.724,112.459z     M476.18,104.217c-0.151,0-0.714,0.376-1.145,1.55c-0.522,1.424-0.735,3.991,0.664,6.585c0.073-0.088,0.143-0.177,0.21-0.266    c1.416-1.877,1.778-4.135,1.049-6.53C476.618,104.44,476.151,104.212,476.18,104.217z M454.228,101.342    c-0.176,0-0.305,0.06-0.383,0.096c-1.54,0.718-3.2,4.854-2.643,8.895c1.887-0.049,3.409-0.703,4.39-1.704    c1.68-1.716,1.624-4.191-0.147-6.46C454.922,101.5,454.513,101.342,454.228,101.342z M488.878,92.322    c-1.062,0.265-1.979,0.714-2.68,1.139c-2.88,1.746-4.213,4.294-3.951,5.043c0.05,0.142,0.459,0.245,1.143,0.151    c2.6-0.336,4.652-2.488,5.354-5.615C488.797,92.808,488.841,92.568,488.878,92.322z M468.908,82.597    c-2.246,3.196-2.624,6.67-0.855,8.18c0.534,0.456,1.329,0.92,2.071,0.541c0.748-0.377,1.49-1.649,1.352-3.55    C471.413,86.9,471.033,84.727,468.908,82.597z"/>
	</g>
	<g>
		<path style="fill:#FCFCFF;" d="M25.506,426.809c0,0-1.925-14.61,12.139-9.883c14.063,4.727,9.481,18.104,4.119,13.527    c-5.361-4.578,4.698-20.103,15.46-13.19c10.762,6.913,8.355,20.328,0.721,21.318c-7.633,0.99,4.621-15.619,14.237-5.362    c9.616,10.257-11.379,28.959-19.965,22.083c-8.586-6.876-1.867-17.973,0.193-11.21s-3.495,13.396-18.723,13.134    c-15.228-0.262-8.297-23.691-2.974-16.871s-3.514,14.517-14.256,6.483C5.714,438.803,17.969,422.193,25.506,426.809z"/>
		<path style="fill:#241726;" d="M34.529,458.315c-0.284,0-0.571-0.002-0.861-0.006c-5.027-0.087-8.566-2.652-9.829-7.073    c-2.434-0.317-5.178-1.398-8.03-3.531c-6.246-4.671-5.515-11.966-2.019-17.121c2.52-3.717,6.722-6.458,10.543-5.447    c-0.003-2.318,0.438-6.289,3.201-8.564c2.398-1.975,5.916-2.199,10.455-0.672c2.086,0.7,3.741,1.563,5.054,2.493    c3.6-3.734,9.192-5.62,14.767-2.04c5.435,3.493,7.511,8.335,7.74,12.442c2.671,0.118,5.245,1.362,7.422,3.683    c4.402,4.696,3.443,11.843-2.444,18.208c-5.323,5.758-13.787,9.623-18.987,5.462c-0.665-0.533-1.25-1.095-1.76-1.679    C46.401,456.974,41.138,458.315,34.529,458.315z M26.138,451.309c0.884,2.394,2.934,4.754,7.568,4.834    c6.538,0.091,11.689-1.087,14.796-3.415c-1.847-3.049-1.992-6.384-1.085-8.856c0.685-1.869,1.966-3.017,3.239-2.969    c0.721,0.019,2.041,0.421,2.788,2.871c0.926,3.041,0.432,6.048-1.391,8.464c-0.205,0.273-0.425,0.535-0.661,0.791    c0.427,0.486,0.924,0.964,1.5,1.425c3.972,3.187,11.421-0.241,16.044-5.24c4.024-4.35,6.782-10.642,2.455-15.258    c-2.027-2.161-4.068-2.939-5.889-3.02c-0.051,0.497-0.129,0.975-0.232,1.427c-0.907,4.039-3.661,6.832-7.187,7.289    c-2.516,0.313-3.261-1-3.466-1.584c-0.742-2.119,1.444-5.532,4.872-7.612c1.28-0.776,2.592-1.279,3.901-1.516    c-0.188-3.518-1.993-7.71-6.753-10.767c-4.719-3.028-9.114-1.246-11.925,1.605c2.766,2.688,3.255,5.561,3.336,6.684    c0.184,2.554-0.811,4.766-2.535,5.637c-1.394,0.704-3.016,0.402-4.454-0.827c-3.053-2.607-2.022-7.566,0.591-11.211    c-1.127-0.778-2.551-1.505-4.352-2.112c-3.785-1.271-6.609-1.173-8.389,0.292c-3.069,2.527-2.339,8.365-2.331,8.424    c0.055,0.414-0.133,0.823-0.483,1.049c-0.349,0.226-0.798,0.235-1.156,0.017c-3.061-1.88-7.028,0.626-9.358,4.064    c-2.919,4.305-3.58,10.357,1.522,14.174c2.258,1.689,4.403,2.63,6.309,3.013c-0.448-4.508,1.279-9.42,3.931-10.655    c0.697-0.328,2.502-0.844,4.222,1.36c2.453,3.142,2.446,6.794-0.014,9.306C30.303,450.271,28.423,451.149,26.138,451.309z     M50.595,443.067c-0.15,0-0.714,0.376-1.144,1.55c-0.522,1.425-0.735,3.992,0.664,6.587c0.073-0.089,0.143-0.178,0.21-0.266    c1.416-1.878,1.778-4.136,1.048-6.532C51.035,443.291,50.674,443.069,50.595,443.067z M28.643,440.193    c-0.176,0-0.305,0.059-0.384,0.097c-1.539,0.717-3.199,4.853-2.642,8.894c1.886-0.049,3.409-0.704,4.389-1.704    c1.681-1.717,1.625-4.191-0.146-6.46C29.337,440.352,28.928,440.193,28.643,440.193z M63.292,431.171    c-1.061,0.267-1.978,0.715-2.679,1.14c-2.879,1.747-4.213,4.294-3.951,5.043c0.05,0.144,0.458,0.241,1.143,0.152    c2.6-0.336,4.652-2.489,5.354-5.614C63.211,431.659,63.257,431.418,63.292,431.171z M43.323,421.448    c-2.246,3.197-2.625,6.669-0.856,8.181c0.534,0.455,1.323,0.926,2.072,0.539c0.746-0.376,1.489-1.649,1.352-3.55    C45.829,425.751,45.448,423.577,43.323,421.448z"/>
	</g>
	<path style="fill:#F2C100;" d="M459.309,428.107c0,0,5.912-20.108,7.524-17.653c1.612,2.455,6.449,15.932,6.449,15.932   s17.012,5.735,16.567,6.882c-0.445,1.147-15.266,7.169-15.266,7.169s-4.795,17.492-7.482,15.771   c-2.687-1.72-7.343-15.675-7.343-15.675s-15.229-1.471-13.348-4.941C448.292,432.122,459.309,428.107,459.309,428.107z"/>
	<path style="fill:#F2C100;" d="M25.451,314.426c0,0,5.912-20.108,7.524-17.653c1.612,2.455,6.449,15.932,6.449,15.932   s17.012,5.735,16.567,6.882c-0.445,1.147-15.266,7.169-15.266,7.169s-4.795,17.492-7.482,15.771   c-2.687-1.72-7.343-15.675-7.343-15.675s-15.229-1.471-13.348-4.941C14.434,318.441,25.451,314.426,25.451,314.426z"/>
	<path style="fill:#241726;" d="M494.862,275.288c-0.799,0-1.558,0-3.669-8.401c-7.117-1.371-7.741-2.208-7.951-2.489   c-0.203-0.27-0.29-0.766-0.197-1.089c0.129-0.456,0.427-1.513,8.562-4.793c2.922-7.616,3.912-7.616,4.572-7.616   c0.34,0,0.812,0.245,1.017,0.519c0.522,0.703,0.996,2.526,1.713,5.444c0.226,0.914,0.497,2.017,0.653,2.504   c0.427,0.19,1.37,0.528,2.153,0.809c4.183,1.499,5.261,2.01,5.455,3.008c0.074,0.374-0.116,0.92-0.4,1.175   c-0.85,0.763-4.893,2.264-7.014,3.018c-3.445,7.838-4.18,7.875-4.832,7.911C494.907,275.288,494.881,275.288,494.862,275.288z    M485.996,263.467c1.423,0.41,4.018,0.999,6.28,1.421c0.417,0.078,0.751,0.393,0.852,0.806c0.579,2.345,1.336,5.017,1.88,6.54   c0.789-1.419,1.983-3.932,2.954-6.153c0.12-0.276,0.349-0.49,0.632-0.589c1.935-0.68,4.117-1.516,5.479-2.111   c-0.954-0.401-2.25-0.866-3.089-1.167c-2.389-0.856-2.84-1.041-3.146-1.455c-0.269-0.359-0.436-0.961-1.03-3.378   c-0.224-0.908-0.567-2.301-0.871-3.343c-0.708,1.353-1.7,3.655-2.472,5.692c-0.108,0.283-0.33,0.509-0.611,0.622   C490.341,261.354,487.491,262.632,485.996,263.467z"/>
	<path style="fill:#241726;" d="M31.66,125.533c-0.799,0-1.558,0-3.669-8.401c-7.118-1.371-7.741-2.208-7.951-2.489   c-0.203-0.27-0.29-0.765-0.197-1.089c0.129-0.455,0.427-1.513,8.562-4.793c2.922-7.616,3.912-7.616,4.571-7.616   c0.34,0,0.812,0.245,1.017,0.519c0.522,0.703,0.996,2.526,1.713,5.444c0.226,0.914,0.497,2.017,0.653,2.504   c0.427,0.19,1.37,0.528,2.153,0.809c4.182,1.499,5.261,2.01,5.455,3.008c0.074,0.374-0.116,0.92-0.4,1.175   c-0.85,0.763-4.893,2.264-7.014,3.018c-3.445,7.838-4.181,7.876-4.832,7.911C31.704,125.533,31.679,125.533,31.66,125.533z    M22.794,113.712c1.423,0.41,4.018,0.999,6.28,1.421c0.417,0.078,0.751,0.393,0.852,0.806c0.579,2.345,1.336,5.017,1.88,6.54   c0.789-1.419,1.983-3.932,2.954-6.153c0.12-0.276,0.349-0.49,0.632-0.589c1.935-0.68,4.117-1.516,5.479-2.111   c-0.954-0.4-2.25-0.866-3.089-1.167c-2.389-0.856-2.84-1.041-3.146-1.455c-0.269-0.359-0.436-0.961-1.03-3.378   c-0.224-0.908-0.567-2.301-0.871-3.343c-0.708,1.353-1.7,3.655-2.472,5.692c-0.108,0.283-0.33,0.509-0.611,0.622   C27.139,111.598,24.289,112.877,22.794,113.712z"/>
	<path style="fill:#241726;" d="M130.723,446.571h-0.006l-4.189-0.014l4.437-3.008c0.495-0.336,0.624-1.009,0.288-1.504   c-0.338-0.497-1.015-0.62-1.504-0.288l-5.986,4.058l0.133-6.993c0.012-0.598-0.464-1.091-1.062-1.103l-0.006,0   c-0.594-0.008-1.085,0.466-1.097,1.062l-0.117,6.172l-3.661-3.971c-0.407-0.437-1.089-0.469-1.53-0.062   c-0.439,0.404-0.467,1.091-0.062,1.53l3.767,4.085l-6.937-0.024c-0.599-0.001-1.085,0.481-1.086,1.079   c-0.002,0.594,0.474,1.078,1.069,1.086l0.011,0l6.328,0.022l-4.944,3.352c-0.495,0.336-0.624,1.009-0.288,1.504   c0.208,0.305,0.542,0.47,0.882,0.475c0.216,0.003,0.432-0.058,0.622-0.186l5.737-3.889l-0.134,7.046   c-0.012,0.598,0.464,1.091,1.062,1.103h0.007c0.594,0.008,1.084-0.466,1.097-1.062l0.126-6.654l3.902,4.233   c0.211,0.227,0.494,0.345,0.782,0.349c0.267,0.003,0.536-0.09,0.748-0.286c0.439-0.405,0.467-1.091,0.062-1.53l-4.086-4.432   l5.624,0.02c0.598,0.001,1.085-0.481,1.086-1.079C131.797,447.064,131.321,446.579,130.723,446.571z"/>
	<path style="fill:#241726;" d="M453.132,34.933h-0.006l-4.188-0.014l4.437-3.008c0.495-0.336,0.625-1.009,0.288-1.504   c-0.338-0.497-1.015-0.62-1.504-0.288l-5.986,4.058l0.133-6.993c0.012-0.599-0.464-1.091-1.062-1.103l-0.006,0   c-0.594-0.008-1.085,0.466-1.097,1.062l-0.117,6.172l-3.661-3.971c-0.407-0.437-1.089-0.469-1.53-0.062   c-0.439,0.404-0.467,1.091-0.062,1.53l3.767,4.085l-6.937-0.024c-0.598-0.002-1.085,0.481-1.086,1.079   c-0.001,0.594,0.474,1.078,1.069,1.086l0.011,0l6.328,0.022l-4.944,3.352c-0.495,0.336-0.624,1.009-0.288,1.504   c0.207,0.305,0.542,0.47,0.882,0.475c0.216,0.003,0.432-0.058,0.622-0.186l5.737-3.889l-0.134,7.046   c-0.012,0.598,0.464,1.091,1.062,1.103h0.007c0.594,0.008,1.084-0.466,1.096-1.062l0.126-6.654l3.902,4.233   c0.211,0.227,0.495,0.345,0.782,0.349c0.267,0.003,0.536-0.09,0.748-0.286c0.439-0.404,0.467-1.091,0.062-1.53l-4.086-4.432   l5.624,0.02c0.598,0.001,1.085-0.481,1.086-1.079C454.206,35.426,453.73,34.941,453.132,34.933z"/>
	<g>
		<path style="fill:#D65F7B;" d="M43.563,40.051c4.897-6.733,48.144-4.981,75.149,22.581c0,0-2.882,3.042-7.081,7.422    c-9.595-7.043-37.296-25.54-68.378-29.54C43.358,40.363,43.458,40.196,43.563,40.051z"/>
		<path style="fill:#B07398;" d="M43.254,40.514c31.082,4,58.782,22.498,68.378,29.54c-3.136,3.272-7.005,7.288-10.967,11.352    c-10.737-9.219-38.299-31.066-61.13-33.67C40.621,45.086,41.877,42.522,43.254,40.514z"/>
		<path style="fill:#51AEA3;" d="M37.077,54.581c0.667-2.105,1.497-4.499,2.457-6.844c22.831,2.604,50.393,24.45,61.13,33.67    c-4.213,4.322-8.522,8.687-12.157,12.259C81.965,85.335,63.165,63.844,37.077,54.581z"/>
		<path style="fill:#EC7F31;" d="M37.077,54.581c26.088,9.263,44.888,30.754,51.431,39.086c-4.458,4.381-7.899,7.565-8.876,7.976    c-3.527,1.483-16.95-25.737-44.395-40.584C35.237,61.058,35.908,58.27,37.077,54.581z"/>
		<path style="fill:#241726;" d="M111.63,71.137c-0.244,0-0.49-0.082-0.691-0.251c-0.279-0.233-28.373-23.307-67.848-29.302    c-0.591-0.09-0.997-0.642-0.907-1.233c0.089-0.591,0.642-1,1.233-0.907c40.092,6.088,68.624,29.542,68.907,29.778    c0.46,0.383,0.522,1.066,0.14,1.525C112.249,71.004,111.941,71.137,111.63,71.137z"/>
		<path style="fill:#241726;" d="M100.664,82.489c-0.252,0-0.504-0.087-0.709-0.264c-0.401-0.347-40.27-34.646-61.966-32.88    c-0.6,0.066-1.12-0.393-1.168-0.988c-0.05-0.596,0.393-1.12,0.989-1.168c22.612-1.88,61.901,31.959,63.565,33.4    c0.451,0.392,0.5,1.076,0.109,1.528C101.268,82.362,100.967,82.489,100.664,82.489z"/>
		<path style="fill:#241726;" d="M88.509,94.749c-0.329,0-0.653-0.149-0.866-0.431c-0.212-0.281-21.514-28.235-50.929-38.717    c-0.562-0.201-0.856-0.82-0.656-1.384c0.201-0.562,0.816-0.856,1.384-0.657C67.48,64.265,89.157,92.729,89.373,93.015    c0.359,0.478,0.264,1.157-0.214,1.516C88.964,94.678,88.735,94.749,88.509,94.749z"/>
		<path style="fill:#F2C100;" d="M51.113,32.753c0,0-10.052-20.961-15.433-15.438c-5.114,5.249-6.978,19.117-6.978,19.117    s-17.877,2.572-16.62,6.08c1.257,3.508,12.201,10.307,12.201,10.307s-1.98,21.727,0.624,24.884    c2.603,3.157,19.322-15.75,19.322-15.75s17.987,9.248,20.088,7.619c2.1-1.629-7.259-20.646-7.259-20.646    s15.131-13.2,11.234-15.754C64.394,30.618,51.113,32.753,51.113,32.753z"/>
		<path style="fill:#FCFCFF;" d="M47.662,35.64c-0.391,0-0.77-0.213-0.962-0.584c-2.333-4.497-6.699-12.059-8.479-13.214    c-0.501-0.325-0.645-0.995-0.319-1.497c0.326-0.501,0.996-0.647,1.497-0.319c2.844,1.843,8.579,12.79,9.224,14.032    c0.275,0.531,0.069,1.184-0.462,1.46C48,35.601,47.83,35.64,47.662,35.64z"/>
	</g>
	<path style="fill:#241726;" d="M495.607,391.726c-0.284,0-0.566-0.087-0.815-0.256c-0.783-0.529-2.918-4.026-5.229-8.409   c-5.705,0.637-10.472,0.848-11.136-0.078c-0.292-0.406-0.365-1.059,0.13-1.609c1.083-1.199,3.629-3.994,6.702-7.189   c-2.224-5.049-3.785-9.6-3.201-11.036c0.281-0.691,0.94-1.055,1.677-0.92c1.384,0.25,5.399,2.199,9.313,4.235   c4.044-3.758,7.78-6.726,9.533-6.764c0.666-0.021,1.079,0.266,1.313,0.503c0.242,0.245,0.353,0.594,0.296,0.935   c-0.503,3.053-1.137,6.703-1.848,10.397c9.476,5.411,9.589,6.38,9.653,6.923c0.055,0.476-0.289,1.064-0.726,1.254   c-0.107,0.046-5.061,0.966-11.095,1.901c-1.317,5.339-2.715,9.445-3.978,9.989C496.003,391.684,495.804,391.726,495.607,391.726z    M491.779,382.799c1.553,2.975,2.961,5.407,3.788,6.43c0.611-1.078,1.413-3.722,2.283-7.263   C495.848,382.262,493.782,382.549,491.779,382.799z M486.222,376.314c-1.654,1.723-3.317,3.502-4.93,5.267   c1.575-0.004,4.188-0.222,7.22-0.552C487.734,379.496,486.956,377.897,486.222,376.314z M487.82,374.662   c0.925,2.038,1.934,4.145,2.923,6.113c2.473-0.294,5.11-0.641,7.626-0.996c0.501-2.176,1.017-4.595,1.526-7.141   c-2.112-1.193-4.344-2.417-6.468-3.544C491.662,370.78,489.762,372.67,487.82,374.662z M501.899,373.785   c-0.387,1.931-0.793,3.842-1.211,5.661c3.41-0.505,6.399-0.996,8.167-1.349C507.447,377.079,504.883,375.508,501.899,373.785z    M484.07,364.57c0.173,1.457,1.297,4.485,2.801,7.953c1.461-1.495,2.997-3.03,4.523-4.495   C488.229,366.388,485.502,365.077,484.07,364.57z M495.082,367.534c1.395,0.742,2.71,1.457,3.811,2.066   c0.499,0.277,0.979,0.543,1.44,0.801c0.522-2.707,1.029-5.515,1.498-8.287C500.475,362.791,498.045,364.789,495.082,367.534z    M502.629,361.865h0.022H502.629z"/>
	<path style="fill:#241726;" d="M34.715,384.811l-0.024-0.019c-3.149-2.441-3.724-6.99-1.281-10.14   c2.431-3.136,6.968-3.719,10.114-1.301c1.55,1.202,2.525,2.909,2.767,4.825c0.241,1.913-0.276,3.809-1.458,5.334   C42.399,386.645,37.859,387.229,34.715,384.811z M42.268,375.023c-2.254-1.733-5.478-1.317-7.206,0.91   c-1.737,2.239-1.328,5.473,0.909,7.208l0.018,0.014c2.235,1.718,5.46,1.303,7.191-0.924c0.841-1.084,1.209-2.431,1.035-3.792   C44.044,377.076,43.352,375.863,42.268,375.023z"/>
	<path style="fill:#241726;" d="M495.827,171.801l-0.024-0.019c-3.149-2.441-3.723-6.99-1.281-10.14   c2.431-3.136,6.968-3.72,10.115-1.301c1.55,1.202,2.525,2.909,2.766,4.825c0.242,1.913-0.276,3.809-1.458,5.334   C503.512,173.634,498.972,174.218,495.827,171.801z M503.381,162.012c-2.255-1.733-5.478-1.317-7.206,0.91   c-1.737,2.239-1.328,5.473,0.909,7.208l0.018,0.014c2.235,1.718,5.46,1.303,7.191-0.924c0.841-1.084,1.209-2.43,1.035-3.792   C505.157,164.065,504.464,162.853,503.381,162.012z"/>
	<path style="fill:#241726;" d="M168.096,16.17c-0.757-1.469-2.944-0.629-5.12,0.357c-9.282,4.208-37.626,22.583-40.498,26.616   c-0.032,0.039-0.06,0.078-0.086,0.118c-0.039,0.059-0.071,0.124-0.098,0.193c-0.012,0.029-0.023,0.057-0.031,0.084   c-0.031,0.102-0.048,0.209-0.053,0.316c-0.007,0.085-0.004,0.173,0.01,0.259c0.097,0.629,0.625,0.992,1.128,1.265   c4.549,2.459,46.189,13.259,49.803,11.621c0.128-0.058,0.341-0.206,0.438-0.309c0.456-0.484,1.659-1.811-4.63-11.202   c1.973-0.052,4.557-0.255,6.046-0.93c0.324-0.147,0.594-0.316,0.795-0.51c0.454-0.438,0.553-0.913,0.557-1.234   c0.021-1.834-5.949-8.299-11.079-13.513C166.45,26.673,169.594,19.079,168.096,16.17z M163.87,18.5   c1.34-0.608,2.068-0.832,2.438-0.913c0.39,2.038-1.44,7.353-3.083,10.995c-3.379,1.091-23.13,7.485-33.73,11.408   C138.302,33.557,155.863,22.13,163.87,18.5z M171.832,55.051c-4.733,0.052-33.107-6.668-43.773-10.135   c5.123-0.401,15.077-1.616,34.619-4.538c1.051,1.419,2.107,2.896,3.111,4.351c0.064,0.206,0.186,0.377,0.349,0.51   C169.068,49.52,171.477,53.512,171.832,55.051z M167.484,43.336c-1.004-1.435-2.135-3.004-3.457-4.773   c-0.239-0.319-0.633-0.481-1.027-0.422c-10.767,1.614-26.804,3.85-34.699,4.612c9.543-3.659,31.168-10.679,35.341-12.029   c4.654,4.729,9.765,10.417,10.478,11.883C173.26,43.084,170.424,43.358,167.484,43.336z"/>
	<g>
		<path style="fill:#EC7F31;" d="M139.707,276.543c0,0,250.762-7.126,256.595,0c5.832,7.126,0,52.759,0,52.759    s-233.989,5.07-246.766,2.028C136.758,328.288,139.707,276.543,139.707,276.543z"/>
		<g>
			<path style="fill:#FCFCFF;" d="M162.964,302.483c-4.287-2.584-8.338-5.026-7.724-8.543c0.317-1.821,1.154-3.176,2.559-4.142     c3.706-2.559,9.974-1.379,10.036-1.366c0.593,0.112,1.157-0.271,1.27-0.856c0.114-0.588-0.269-1.155-0.855-1.269     c-0.291-0.057-7.21-1.364-11.672,1.702c-1.885,1.296-3.052,3.168-3.47,5.559c-0.867,4.978,4.017,7.923,8.74,10.769     c4.221,2.546,8.584,5.176,8.447,9.008c-0.053,1.48-0.614,2.635-1.716,3.525c-4.32,3.502-14.917,1.687-15.025,1.671     c-0.583-0.116-1.15,0.29-1.253,0.878c-0.104,0.59,0.289,1.15,0.878,1.254c0.232,0.042,3.014,0.518,6.395,0.518     c3.55,0,7.759-0.526,10.365-2.635c1.595-1.292,2.443-3.017,2.518-5.134C172.64,308.317,167.721,305.352,162.964,302.483z"/>
			<path style="fill:#FCFCFF;" d="M196.125,317.902c-6.642,0.605-14.467,0.882-15.935,0.311c-0.564-1.427-1.352-8.618-1.988-15.586     h15.019c0.598,0,1.083-0.484,1.083-1.083c0-0.599-0.484-1.083-1.083-1.083h-15.213c-0.432-4.942-0.766-9.449-0.857-11.262     c2.047-0.442,9.265-0.869,15.767-1.051c0.597-0.017,1.068-0.516,1.052-1.112c-0.017-0.598-0.534-1.053-1.113-1.053     c-17.895,0.499-17.895,1.406-17.895,2.552c0,0.273,1.817,29.273,3.632,31.189c0.677,0.715,3.129,0.973,6.309,0.971     c3.402,0,7.638-0.294,11.418-0.637c0.595-0.055,1.034-0.582,0.98-1.176C197.247,318.287,196.733,317.866,196.125,317.902z"/>
			<path style="fill:#FCFCFF;" d="M221.126,284.125c-0.594,0.061-1.027,0.594-0.965,1.188c1.305,12.556,2.315,26.294,2.109,30.181     c-1.966-2.254-6.292-8.822-9.58-13.814c-7.841-11.905-10.343-15.406-11.816-15.679c-0.445-0.076-0.892,0.057-1.224,0.381     c-1.894,1.852,0.228,17.887,2.342,31.009c0.095,0.592,0.651,1.004,1.241,0.897c0.59-0.093,0.992-0.649,0.896-1.239     c-1.882-11.691-3.406-24.558-3.075-28.305c1.955,2.176,6.434,8.976,9.826,14.127c8.385,12.732,10.363,15.337,11.755,15.478     c0.028,0.002,0.056,0.004,0.086,0.004c0.318-0.002,0.739-0.156,0.949-0.368c1.238-1.237,0.782-12.307-1.355-32.896     C222.253,284.495,221.729,284.049,221.126,284.125z"/>
			<path style="fill:#FCFCFF;" d="M252.995,299.734c-1.932-14.573-21.838-15.605-22.039-15.616c-0.273,0-0.58,0.097-0.795,0.3     c-0.214,0.205-0.334,0.486-0.334,0.782c0,34.101,1.686,34.101,2.917,34.101c1.601,0,11.443-2.294,16.815-8.424     C252.39,307.645,253.547,303.895,252.995,299.734z M247.93,309.45c-4.339,4.952-12.275,7.236-14.638,7.625     c-0.794-2.912-1.273-17.242-1.299-30.694c4.016,0.446,17.411,2.74,18.855,13.637C251.315,303.534,250.333,306.708,247.93,309.45z     "/>
		</g>
		<g>
			<path style="fill:#FCFCFF;" d="M290.646,317.902c-6.644,0.605-14.463,0.884-15.936,0.311c-0.564-1.427-1.351-8.618-1.987-15.586     h15.02c0.598,0,1.083-0.484,1.083-1.083c0-0.599-0.484-1.083-1.083-1.083H272.53c-0.432-4.942-0.766-9.449-0.856-11.262     c2.047-0.442,9.265-0.869,15.766-1.051c0.597-0.017,1.068-0.516,1.052-1.112c-0.018-0.598-0.519-1.053-1.113-1.053     c-17.894,0.499-17.894,1.406-17.894,2.552c0,0.273,1.817,29.276,3.632,31.189c0.677,0.715,3.129,0.973,6.308,0.973     c3.403,0,7.638-0.296,11.419-0.639c0.595-0.055,1.034-0.582,0.98-1.176C291.769,318.287,291.261,317.866,290.646,317.902z"/>
			<path style="fill:#FCFCFF;" d="M320.887,287.631c-0.651-0.07-2.341-0.233-9.674,12.135     c-11.026-14.529-13.059-13.941-13.749-13.738c-0.972,0.283-2.995,0.875,0.924,34.204c0.065,0.55,0.533,0.956,1.074,0.956     c0.042,0,0.085-0.002,0.128-0.008c0.593-0.07,1.018-0.607,0.948-1.201c-1.578-13.427-2.752-28.187-2.199-31.6     c2.064,1.391,7.631,7.993,12.119,13.981c0.218,0.29,0.574,0.469,0.928,0.431c0.363-0.021,0.69-0.222,0.873-0.535     c2.769-4.751,6.239-10.052,7.938-11.877c0.365,4.212,0.147,18.663-0.108,27.81c-0.016,0.596,0.455,1.095,1.053,1.112     c0.52,0.017,1.095-0.455,1.112-1.053c0.125-4.487,0.703-27.009-0.161-29.601C321.903,288.068,321.45,287.688,320.887,287.631z"/>
			<path style="fill:#FCFCFF;" d="M336.566,285.983c-0.015,0-0.031,0-0.047,0.002c-0.908,0.051-3.672,0.203-9.736,32.031     c-0.112,0.588,0.274,1.155,0.861,1.267c0.596,0.108,1.154-0.275,1.267-0.861c0.805-4.223,1.708-8.558,2.621-12.588h13.237     c0.123,0,0.237-0.032,0.347-0.07c1.681,4.092,3.409,8.512,5.017,12.833c0.163,0.436,0.576,0.704,1.015,0.704     c0.126,0,0.253-0.021,0.378-0.068c0.56-0.209,0.846-0.833,0.637-1.393C344.296,296.7,339.049,285.983,336.566,285.983z      M332.029,303.669c1.791-7.648,3.559-13.82,4.644-15.337c1.374,1.37,4.324,7.572,7.574,15.337H332.029z"/>
			<path style="fill:#FCFCFF;" d="M357.775,284.913c-0.595,0.055-1.034,0.582-0.98,1.176l2.933,32.227     c0.052,0.562,0.523,0.985,1.077,0.985c0.033,0,0.066-0.002,0.099-0.004c0.595-0.055,1.034-0.582,0.98-1.176l-2.933-32.227     C358.896,285.298,358.381,284.873,357.775,284.913z"/>
			<path style="fill:#FCFCFF;" d="M389.281,314.836c-0.141,0.011-12.759,0.962-17.055,1.142l-0.754-28.939     c-0.016-0.598-0.578-1.059-1.111-1.055c-0.597,0.017-1.069,0.514-1.054,1.11l0.782,30.024c0.016,0.588,0.496,1.055,1.083,1.055     c2.642,0,17.635-1.129,18.272-1.176c0.596-0.047,1.044-0.567,0.998-1.163C390.397,315.24,389.875,314.802,389.281,314.836z"/>
		</g>
	</g>
	<g>
		<path style="fill:#FCFCFF;" d="M185.125,231.608c-0.144,0-0.289-0.028-0.429-0.089c-0.549-0.237-0.801-0.873-0.564-1.423    l14.822-34.364c0.237-0.551,0.873-0.801,1.423-0.565c0.549,0.237,0.801,0.873,0.564,1.423l-14.822,34.364    C185.942,231.363,185.544,231.608,185.125,231.608z"/>
		<path style="fill:#FCFCFF;" d="M211.628,262.495c-0.118,0-0.239-0.019-0.356-0.061c-0.565-0.197-0.863-0.814-0.666-1.379    l19.281-55.234c0.199-0.566,0.817-0.863,1.379-0.666c0.564,0.198,0.863,0.815,0.666,1.379l-19.281,55.236    C212.494,262.216,212.076,262.495,211.628,262.495z"/>
		<path style="fill:#FCFCFF;" d="M251.728,252.853c-0.105,0-0.21-0.015-0.315-0.047c-0.572-0.175-0.894-0.78-0.721-1.351    l8.109-26.612c0.174-0.573,0.784-0.891,1.351-0.721c0.572,0.174,0.894,0.779,0.721,1.351l-8.109,26.612    C252.622,252.553,252.192,252.853,251.728,252.853z"/>
		<path style="fill:#FCFCFF;" d="M280.655,267.739c-0.131,0-0.264-0.023-0.393-0.074c-0.557-0.218-0.832-0.844-0.615-1.402    l16.473-42.261c0.218-0.558,0.846-0.832,1.402-0.615c0.557,0.217,0.832,0.845,0.615,1.402l-16.473,42.261    C281.496,267.477,281.087,267.739,280.655,267.739z"/>
		<path style="fill:#FCFCFF;" d="M316.586,262.495c-0.129,0-0.26-0.023-0.388-0.072c-0.558-0.214-0.837-0.84-0.623-1.398    l11.261-29.345c0.215-0.56,0.839-0.837,1.399-0.624c0.558,0.214,0.837,0.84,0.623,1.398L317.597,261.8    C317.432,262.231,317.02,262.495,316.586,262.495z"/>
		<g>
			<g>
				<path style="fill:#F2C100;" d="M208.065,71.155c0,0,190.694,53.259,190.828,61.331c0.134,8.072-38.077,114.627-41.328,125.057      c-3.251,10.43-187.423-61.15-193.074-69.18C155.983,176.273,208.065,71.155,208.065,71.155z"/>
				<path style="fill:#241726;" d="M399.828,131.939c-0.303-0.518-0.967-0.689-1.481-0.388      c-32.577,19.066-119.448,66.433-130.013,56.731c-13.159-12.061-58.816-116.506-59.275-117.559      c-0.238-0.549-0.875-0.799-1.425-0.56c-0.549,0.24-0.799,0.878-0.56,1.425c1.026,2.351,14.647,33.509,29.026,63.419      l-72.244,52.481c-0.483,0.351-0.591,1.028-0.239,1.512c0.211,0.292,0.541,0.446,0.876,0.446c0.22,0,0.443-0.068,0.635-0.207      l71.926-52.25c11.749,24.336,23.828,47.4,29.816,52.89c1.251,1.146,3.28,1.671,5.945,1.671c11.571,0,35.115-9.875,58.874-21.529      l25.023,88.103c0.135,0.476,0.569,0.787,1.04,0.787c0.098,0,0.198-0.013,0.297-0.04c0.575-0.165,0.909-0.763,0.745-1.339      l-25.133-88.488c29.941-14.802,59.708-32.07,65.777-35.622C399.956,133.118,400.13,132.455,399.828,131.939z"/>
				<path style="fill:#FCFCFF;" d="M363.862,126.037c-1.878,0-14.575-2.556-120.579-30.858c-0.578-0.154-0.921-0.747-0.767-1.325      c0.154-0.578,0.754-0.919,1.325-0.767c46.092,12.306,115.695,30.604,119.657,30.877c0.42-0.068,0.859,0.125,1.092,0.513      c0.308,0.513,0.142,1.178-0.371,1.485C364.163,125.998,364.096,126.037,363.862,126.037z"/>
			</g>
			<g>
				
					<ellipse transform="matrix(0.9893 -0.1457 0.1457 0.9893 -23.585 41.8764)" style="fill:#413655;" cx="274.049" cy="181.926" rx="39.023" ry="39.023"/>
				<path style="fill:#FCFCFF;" d="M270.132,208.441c-3.655,0-11.627-1.484-19.093-12.855c-4.862-7.407-3.55-21.017,2.866-29.721      c5.832-7.909,14.793-10.603,25.235-7.599c16.154,4.658,19.029,19.913,16.583,31.561c-1.562,7.432-5.608,14.622-10.387,13.986      c-1.706-0.228-3.081-1.092-4.084-2.567c-2.518-3.704-2.096-10.756-1.379-15.706c-4.378,5.553-9.681,8.074-13.494,8.065      c-2.33-0.02-4.093-0.979-4.964-2.7c-1.396-2.758-0.188-7.014,3.399-11.982c3.211-4.444,6.514-6.524,9.809-6.212      c5.21,0.51,8.197,6.892,8.322,7.164c0.083,0.183,0.112,0.378,0.092,0.565c-0.004,0.049-0.014,0.098-0.025,0.147      c-0.979,3.956-2.881,15.162,0.031,19.442c0.651,0.957,1.495,1.492,2.581,1.638c2.535,0.352,6.348-4.518,7.98-12.285      c2.255-10.741-0.337-24.79-15.065-29.036c-12.185-3.512-19.173,1.761-22.891,6.802c-6.449,8.748-6.651,21.381-2.8,27.248      c9.07,13.814,18.731,11.777,18.827,11.751c0.585-0.131,1.164,0.229,1.298,0.812c0.134,0.583-0.229,1.164-0.812,1.298      C272.051,208.284,271.318,208.441,270.132,208.441z M273.969,174.846c-2.348,0-4.834,1.795-7.399,5.347      c-4.324,5.987-3.694,8.804-3.221,9.736c0.624,1.234,2.002,1.503,3.05,1.512c0.018,0,0.037,0,0.056,0      c4.103,0,10.246-3.806,14.285-11.127c-0.725-1.342-3.052-5.13-6.332-5.447C274.262,174.852,274.115,174.846,273.969,174.846z"/>
			</g>
		</g>
	</g>
	<path style="fill:#B07398;" d="M356.722,439.601c0,0-60.715-98.921-51.54-100.089c9.174-1.168,112.332,30.654,110.884,34.775   c-1.447,4.12-26.296,25.049-26.296,25.049s50.075,24.635,49.344,29.075c-0.732,4.44-29.427,29.097-29.427,29.097l-38.831-41.297   C370.856,416.211,359.885,444.798,356.722,439.601z"/>
	<path style="fill:#FCFCFF;" d="M385.931,373.605c-0.091,0-0.183-0.011-0.274-0.036c-4.463-1.161-55.739-17.918-57.919-18.631   c-0.569-0.186-0.879-0.797-0.693-1.366c0.185-0.569,0.794-0.878,1.365-0.694c0.534,0.176,53.394,17.451,57.792,18.597   c0.578,0.15,0.925,0.74,0.775,1.32C386.85,373.281,386.412,373.605,385.931,373.605z"/>
	<g>
		<path style="fill:#D65F7B;" d="M31.926,141.416c0,0,51.005-29.075,80.812,6.879c29.808,35.954,3.25,65.841-23.659,71.36    c0,0,7.249,18.082,2.206,18.827c-5.043,0.746-22.928-8.651-22.928-8.651s-48.966,19.425-62.928-15.258    C-15.766,161.919,31.926,141.416,31.926,141.416z"/>
		<path style="fill:#FCFCFF;" d="M71.847,212.125c0,0-49.83-13.756-50.623-35.683c-0.793-21.927,35.677,0,35.677,0    s-7.949-27.922,10.307-27.613C90.2,149.22,71.847,212.125,71.847,212.125z"/>
		<path style="fill:#FCFCFF;" d="M106.55,185.392c-0.172,0-0.346-0.041-0.509-0.128c-0.527-0.281-0.727-0.937-0.445-1.464    c5.391-10.105,4.028-20.132-4.049-29.803c-6.137-7.347-14.035-11.72-14.114-11.763c-0.523-0.286-0.717-0.945-0.429-1.47    c0.286-0.524,0.942-0.717,1.469-0.429c0.336,0.183,8.295,4.583,14.699,12.228c8.609,10.281,10.108,21.434,4.335,32.256    C107.312,185.184,106.937,185.392,106.55,185.392z"/>
	</g>
	<g>
		<path style="fill:#DF4F3E;" d="M360.628,39.934c0,0-19.835-30.951-11.428-28.883c8.407,2.068,77.937,21.115,73.089,35.052    c-4.849,13.937-36.449,64.172-37.441,59.648c-0.993-4.524-9.659-26.191-9.659-26.191c-1.25,4.318-42.596,11.539-54.265,44.712    C317.35,134.429,268.464,65.637,360.628,39.934z"/>
		<path style="fill:#FCFCFF;" d="M319.748,85.348c-0.03,0-0.06-0.001-0.091-0.004c-0.595-0.049-1.038-0.572-0.988-1.168    c1.694-20.41,34.729-32.626,36.135-33.137c0.562-0.198,1.183,0.086,1.386,0.649c0.204,0.562-0.086,1.182-0.648,1.387    c-0.331,0.119-33.136,12.25-34.716,31.28C320.779,84.921,320.305,85.348,319.748,85.348z"/>
		<path style="fill:#FCFCFF;" d="M408.635,47.47c-0.313,0-0.623-0.134-0.836-0.394c-8.291-10.064-30.728-14.599-30.955-14.643    c-0.586-0.116-0.967-0.686-0.851-1.273c0.115-0.586,0.69-0.967,1.271-0.852c0.953,0.188,23.422,4.728,32.205,15.392    c0.381,0.461,0.315,1.144-0.147,1.523C409.121,47.389,408.877,47.47,408.635,47.47z"/>
	</g>
	<path style="fill:#241726;" d="M236.643,45.861c-0.002,0-0.003,0-0.004,0c-0.125,0-0.253-0.005-0.383-0.015   c-0.596-0.041-1.046-0.559-1.003-1.156c0.042-0.597,0.561-1.048,1.156-1.003l0.232,0.008c0.001,0,0.001,0,0.002,0   c0.958,0,1.61-0.5,1.995-1.528c0.209-0.558,0.835-0.841,1.393-0.634c0.56,0.209,0.844,0.833,0.634,1.394   C239.967,44.792,238.501,45.861,236.643,45.861z M232.382,44.195c-0.222,0-0.445-0.068-0.637-0.208   c-1.279-0.935-2.306-2.184-3.053-3.712c-0.262-0.537-0.04-1.186,0.497-1.448c0.537-0.263,1.185-0.04,1.448,0.497   c0.591,1.209,1.394,2.191,2.385,2.915c0.483,0.353,0.588,1.031,0.236,1.513C233.045,44.042,232.716,44.195,232.382,44.195z    M282.507,41.56c-0.575,0-1.054-0.453-1.081-1.033c-0.027-0.597,0.434-1.104,1.032-1.131c1.102-0.051,1.843-0.624,2.264-1.752   c0.209-0.559,0.832-0.843,1.392-0.635c0.56,0.208,0.845,0.832,0.635,1.392c-0.725,1.945-2.214,3.067-4.192,3.158   C282.541,41.56,282.524,41.56,282.507,41.56z M188.553,40.774c-0.052,0-0.104-0.004-0.157-0.012   c-0.592-0.086-1.001-0.634-0.915-1.225c0.01-0.074,0.271-1.842,1.066-4.394c0.179-0.57,0.783-0.885,1.356-0.712   c0.571,0.179,0.889,0.786,0.712,1.356c-0.741,2.375-0.989,4.043-0.992,4.059C189.544,40.386,189.081,40.774,188.553,40.774z    M278.521,40.154c-0.251,0-0.502-0.087-0.706-0.262c-1.134-0.977-2.023-2.338-2.642-4.044c-0.203-0.562,0.087-1.183,0.649-1.387   c0.56-0.197,1.184,0.089,1.387,0.649c0.491,1.353,1.169,2.41,2.018,3.141c0.453,0.39,0.504,1.074,0.114,1.527   C279.127,40.026,278.825,40.154,278.521,40.154z M239.929,39.35c-0.531,0-0.994-0.39-1.071-0.929   c-0.177-1.244-0.543-2.56-1.088-3.912c-0.223-0.555,0.046-1.186,0.6-1.409c0.556-0.221,1.185,0.044,1.409,0.599   c0.61,1.514,1.021,3,1.223,4.415c0.085,0.592-0.328,1.141-0.919,1.225C240.032,39.346,239.98,39.35,239.929,39.35z M317.183,38.817   c-0.205,0-0.412-0.058-0.596-0.18c-0.499-0.33-0.636-1.002-0.306-1.5c0.653-0.987,1.18-2.213,1.565-3.644   c0.156-0.577,0.756-0.916,1.327-0.764c0.577,0.155,0.92,0.75,0.764,1.327c-0.446,1.657-1.069,3.096-1.85,4.277   C317.879,38.647,317.534,38.817,317.183,38.817z M228.483,36.736c-0.538,0-1.003-0.4-1.073-0.947   c-0.099-0.786-0.149-1.61-0.148-2.449c0-0.687,0.033-1.391,0.097-2.106c0.054-0.595,0.584-1.046,1.176-0.981   c0.595,0.054,1.035,0.579,0.981,1.176c-0.058,0.649-0.089,1.288-0.089,1.913c-0.001,0.75,0.043,1.481,0.131,2.177   c0.075,0.593-0.346,1.134-0.939,1.209C228.574,36.733,228.529,36.736,228.483,36.736z M286.092,34.829   c-0.547,0-1.016-0.412-1.075-0.968c-0.131-1.236-0.43-2.583-0.889-4.005c-0.184-0.57,0.128-1.18,0.697-1.363   c0.572-0.182,1.181,0.129,1.363,0.697c0.505,1.564,0.835,3.059,0.982,4.443c0.064,0.594-0.368,1.128-0.962,1.19   C286.168,34.827,286.13,34.829,286.092,34.829z M191.109,32.492c-0.148,0-0.298-0.031-0.442-0.095   c-0.546-0.244-0.79-0.885-0.544-1.431c0.629-1.402,1.336-2.734,2.103-3.958c0.319-0.506,0.989-0.659,1.493-0.343   c0.506,0.317,0.66,0.985,0.342,1.493c-0.715,1.14-1.374,2.383-1.963,3.694C191.918,32.254,191.522,32.492,191.109,32.492z    M275.351,32.326c-0.566,0-1.041-0.439-1.079-1.011c-0.031-0.469-0.047-0.948-0.047-1.434c0-1.01,0.069-2.052,0.203-3.099   c0.077-0.592,0.613-0.996,1.213-0.936c0.593,0.077,1.012,0.62,0.936,1.213c-0.124,0.956-0.186,1.905-0.186,2.822   c0,0.437,0.014,0.867,0.042,1.29c0.039,0.597-0.412,1.112-1.009,1.152C275.399,32.325,275.375,32.326,275.351,32.326z    M236.791,31.344c-0.358,0-0.709-0.178-0.916-0.502c-0.732-1.154-1.575-2.268-2.505-3.309c-0.399-0.446-0.36-1.13,0.087-1.529   c0.444-0.396,1.131-0.361,1.529,0.087c1.008,1.129,1.922,2.338,2.718,3.59c0.32,0.505,0.17,1.175-0.334,1.495   C237.191,31.29,236.99,31.344,236.791,31.344z M319.559,30.583c-0.021,0-0.042-0.001-0.063-0.002   c-0.596-0.034-1.053-0.546-1.018-1.143c0.024-0.42,0.036-0.848,0.036-1.279c0-0.942-0.058-1.901-0.173-2.851   c-0.071-0.594,0.352-1.133,0.945-1.205c0.594-0.069,1.133,0.352,1.205,0.945c0.125,1.036,0.188,2.083,0.188,3.111   c0,0.474-0.014,0.942-0.04,1.404C320.606,30.138,320.129,30.583,319.559,30.583z M229.185,28.15c-0.089,0-0.18-0.01-0.27-0.034   c-0.579-0.148-0.928-0.738-0.78-1.317c0.265-1.037,0.589-2.082,0.965-3.117c-0.69-0.5-1.408-0.972-2.145-1.407   c-0.514-0.305-0.684-0.968-0.379-1.482c0.304-0.515,0.969-0.684,1.483-0.381c0.776,0.46,1.533,0.955,2.264,1.482   c0.202-0.043,0.418-0.028,0.623,0.057c0.399,0.161,0.648,0.532,0.675,0.934c0.04,0.032,0.079,0.064,0.118,0.096   c0.463,0.378,0.532,1.062,0.153,1.524c-0.234,0.285-0.586,0.419-0.925,0.394c-0.281,0.811-0.527,1.626-0.734,2.437   C230.108,27.824,229.667,28.15,229.185,28.15z M283.531,26.594c-0.402,0-0.788-0.224-0.975-0.609   c-0.6-1.234-1.294-2.467-2.063-3.663c-0.323-0.503-0.177-1.173,0.327-1.496c0.501-0.327,1.172-0.178,1.496,0.327   c0.814,1.268,1.55,2.576,2.188,3.885c0.261,0.538,0.037,1.185-0.5,1.447C283.851,26.559,283.689,26.594,283.531,26.594z    M195.724,25.191c-0.256,0-0.512-0.09-0.718-0.272c-0.447-0.396-0.49-1.08-0.093-1.529c1.027-1.16,2.142-2.2,3.316-3.092   c0.476-0.364,1.156-0.271,1.517,0.206c0.362,0.476,0.27,1.156-0.206,1.517c-1.061,0.807-2.072,1.751-3.005,2.805   C196.321,25.067,196.023,25.191,195.724,25.191z M276.417,23.775c-0.105,0-0.21-0.015-0.316-0.048   c-0.572-0.174-0.893-0.779-0.719-1.351c0.441-1.447,1-2.856,1.662-4.187c0.047-0.093,0.104-0.175,0.17-0.248   c-0.645-0.745-1.318-1.466-2.013-2.155c-0.424-0.421-0.427-1.106-0.006-1.531s1.106-0.427,1.531-0.006   c1.047,1.037,2.05,2.146,2.984,3.298c0.376,0.465,0.305,1.147-0.16,1.524c-0.19,0.153-0.418,0.233-0.644,0.24   c-0.575,1.179-1.064,2.421-1.454,3.698C277.311,23.475,276.881,23.775,276.417,23.775z M318.521,22.026   c-0.463,0-0.891-0.299-1.035-0.764c-0.41-1.335-0.941-2.615-1.576-3.8c-0.283-0.528-0.085-1.183,0.442-1.465   c0.528-0.285,1.184-0.083,1.465,0.442c0.702,1.309,1.287,2.717,1.739,4.187c0.176,0.572-0.145,1.178-0.717,1.353   C318.733,22.012,318.625,22.026,318.521,22.026z M223.632,20.505c-0.137,0-0.276-0.025-0.41-0.08   c-1.271-0.52-2.605-0.962-3.966-1.312c-0.579-0.149-0.928-0.74-0.779-1.318c0.149-0.578,0.747-0.925,1.318-0.779   c1.457,0.375,2.885,0.848,4.247,1.405c0.553,0.227,0.818,0.859,0.592,1.413C224.462,20.251,224.059,20.505,223.632,20.505z    M232.413,20.135c-0.179,0-0.36-0.044-0.528-0.137c-0.522-0.292-0.708-0.951-0.416-1.474c0.73-1.305,1.546-2.567,2.423-3.752   c0.356-0.481,1.035-0.582,1.514-0.226c0.481,0.356,0.581,1.034,0.226,1.514c-0.824,1.112-1.588,2.297-2.273,3.522   C233.161,19.935,232.793,20.135,232.413,20.135z M202.582,20.016c-0.409,0-0.801-0.233-0.984-0.629   c-0.251-0.542-0.014-1.186,0.53-1.437c1.362-0.628,2.811-1.115,4.308-1.448c0.586-0.119,1.163,0.238,1.292,0.823   c0.129,0.584-0.239,1.162-0.823,1.292c-1.347,0.298-2.648,0.736-3.871,1.3C202.888,19.984,202.734,20.016,202.582,20.016z    M215.278,18.336c-0.044,0-0.09-0.002-0.134-0.008c-1.195-0.148-2.339-0.215-3.498-0.219c-0.224,0-0.442,0.004-0.658,0.01   c-0.514,0.012-1.096-0.451-1.114-1.051c-0.017-0.597,0.454-1.096,1.051-1.114c0.265-0.007,0.54-0.013,0.801-0.011   c1.187,0,2.428,0.079,3.684,0.236c0.594,0.074,1.015,0.614,0.941,1.207C216.283,17.935,215.816,18.336,215.278,18.336z    M280.264,16.059c-0.223,0-0.449-0.069-0.643-0.212c-0.481-0.355-0.583-1.033-0.226-1.514c0.913-1.235,1.934-2.368,3.032-3.371   c0.441-0.402,1.127-0.371,1.53,0.071c0.403,0.442,0.371,1.127-0.071,1.53c-0.995,0.907-1.921,1.936-2.751,3.058   C280.922,15.907,280.596,16.059,280.264,16.059z M314.426,14.464c-0.305,0-0.608-0.128-0.823-0.378   c-0.886-1.035-1.89-1.966-2.984-2.768c-0.482-0.354-0.586-1.032-0.233-1.514c0.354-0.481,1.031-0.588,1.514-0.233   c1.226,0.901,2.352,1.945,3.347,3.106c0.389,0.454,0.336,1.138-0.118,1.527C314.926,14.378,314.675,14.464,314.426,14.464z    M272.723,13.23c-0.235,0-0.471-0.076-0.67-0.234c-1.101-0.869-2.258-1.681-3.442-2.412c-0.509-0.313-0.666-0.98-0.352-1.49   c0.312-0.509,0.977-0.668,1.49-0.352c1.254,0.774,2.481,1.634,3.647,2.556c0.469,0.37,0.549,1.051,0.178,1.52   C273.36,13.089,273.044,13.23,272.723,13.23z M237.568,13.203c-0.274,0-0.548-0.103-0.758-0.31   c-0.427-0.419-0.434-1.104-0.015-1.531c1.07-1.091,2.209-2.087,3.385-2.959c0.479-0.358,1.157-0.258,1.514,0.224   c0.356,0.48,0.256,1.158-0.224,1.514c-1.086,0.807-2.139,1.727-3.13,2.737C238.13,13.094,237.848,13.203,237.568,13.203z    M286.635,10.284c-0.372,0-0.735-0.192-0.936-0.537c-0.301-0.516-0.128-1.179,0.389-1.48c1.304-0.762,2.701-1.388,4.152-1.861   c0.566-0.184,1.179,0.125,1.365,0.695c0.185,0.569-0.126,1.18-0.695,1.365c-1.305,0.424-2.56,0.987-3.731,1.671   C287.008,10.237,286.82,10.284,286.635,10.284z M307.511,9.379c-0.144,0-0.29-0.029-0.43-0.09c-1.22-0.531-2.536-0.952-3.913-1.254   c-0.585-0.128-0.954-0.705-0.826-1.289c0.128-0.586,0.702-0.955,1.289-0.826c1.514,0.331,2.965,0.796,4.312,1.383   c0.549,0.238,0.8,0.877,0.561,1.424C308.328,9.136,307.93,9.379,307.511,9.379z M265.365,8.701c-0.151,0-0.306-0.032-0.452-0.099   c-1.267-0.585-2.581-1.096-3.908-1.519c-0.57-0.183-0.884-0.792-0.703-1.361c0.181-0.571,0.792-0.885,1.361-0.703   c1.412,0.451,2.811,0.995,4.157,1.617c0.543,0.251,0.78,0.894,0.53,1.437C266.166,8.468,265.774,8.701,265.365,8.701z    M244.508,8.087c-0.399,0-0.782-0.221-0.971-0.601c-0.266-0.536-0.048-1.185,0.488-1.451c1.374-0.682,2.802-1.222,4.244-1.606   c0.572-0.151,1.17,0.189,1.325,0.769c0.153,0.577-0.19,1.17-0.769,1.325c-1.302,0.346-2.593,0.835-3.838,1.452   C244.834,8.052,244.67,8.087,244.508,8.087z M294.795,7.606c-0.542,0-1.011-0.407-1.074-0.958c-0.069-0.594,0.357-1.131,0.951-1.2   c1.418-0.164,2.873-0.209,4.392-0.129l0.054,1.088l-0.06,1.081c-0.562-0.03-1.008-0.041-1.445-0.041   c-0.911,0-1.816,0.052-2.691,0.152C294.878,7.604,294.836,7.606,294.795,7.606z M257.132,6.114c-0.054,0-0.109-0.004-0.164-0.013   c-1.372-0.208-2.761-0.279-4.099-0.211c-0.608,0.037-1.107-0.429-1.138-1.026c-0.031-0.597,0.428-1.106,1.026-1.138   c1.48-0.079,3.02,0.003,4.537,0.235c0.591,0.09,0.997,0.642,0.907,1.233C258.119,5.73,257.658,6.114,257.132,6.114z"/>
</g>
<g>
</g>
<g>
</g>
<g>
</g>
<g>
</g>
<g>
</g>
<g>
</g>
<g>
</g>
<g>
</g>
<g>
</g>
<g>
</g>
<g>
</g>
<g>
</g>
<g>
</g>
<g>
</g>
<g>
</g>
</svg>
