<svg id="Layer_1" height="512" viewBox="0 0 256 256" width="512" xmlns="http://www.w3.org/2000/svg"><g><g fill="#f0c020"><path d="m59.27 87.67h26.5v67.36h-26.5z"/><path d="m114.75 87.67h26.5v67.36h-26.5z"/><path d="m170.23 87.67h26.5v67.36h-26.5z"/></g><path d="m126.856 9.204-83.19 54.49h169.667l-83.189-54.49c-.998-.654-2.289-.654-3.288 0z" fill="#f0c020"/><path d="m210.333 87.667h-163.666c-1.657 0-3-1.343-3-3v-20.973h169.667v20.973c-.001 1.657-1.344 3-3.001 3z" fill="#72c2e9"/><g><g><path d="m233.236 118.998c-3.468-1.142-6.176-1.881-7.989-9.691-.59-2.545-4.229-2.538-4.818 0-1.773 7.637-4.246 8.455-7.99 9.692-2.254.745-2.259 3.951 0 4.697 6.218 2.054 6.922 5.092 7.989 9.691.593 2.551 4.227 2.55 4.819 0 1.771-7.637 4.379-8.499 7.989-9.691 2.255-.745 2.26-3.951 0-4.698z"/><path d="m226.545 121.373c-1.37.96-2.6 2.25-3.66 4.12-.87-1.47-2.09-2.87-3.87-4.09 1.44-.99 2.73-2.33 3.83-4.31 1.12 2.01 2.39 3.34 3.7 4.28z" fill="#f0c020"/></g></g><g><g><path d="m46.058 118.998c-3.468-1.142-6.176-1.881-7.989-9.691-.59-2.545-4.229-2.538-4.818 0-1.773 7.637-4.246 8.455-7.99 9.692-2.254.745-2.259 3.951 0 4.697 6.218 2.054 6.922 5.092 7.989 9.691.593 2.551 4.227 2.55 4.819 0 1.771-7.637 4.379-8.499 7.989-9.691 2.254-.745 2.26-3.951 0-4.698z"/><path d="m39.367 121.373c-1.37.96-2.6 2.25-3.66 4.12-.87-1.47-2.09-2.87-3.87-4.09 1.44-.99 2.73-2.33 3.83-4.31 1.12 2.01 2.39 3.34 3.7 4.28z" fill="#f0c020"/></g></g><path d="m213.33 158.03v17.97c0 1.53-1.14 2.79-2.62 2.97-.13.02-.25.03-.38.03h-6.66c.31-2.29-.37-4.68-2.07-6.46-3.1-3.23-8.2-3.26-11.33-.13l-6.59 6.59h-111.36l-6.59-6.59c-3.13-3.12-8.23-3.1-11.33.13-1.7 1.78-2.38 4.17-2.07 6.46h-5.66c-.51 0-.98-.13-1.4-.34 0-.01 0-.01 0-.01-.95-.5-1.6-1.5-1.6-2.65v-17.97c0-1.66 1.34-3 3-3h163.66c1.66 0 3 1.34 3 3z" fill="#72c2e9"/><g><path d="m210.71 178.97c-.13.02-.25.03-.38.03h-6.66c.31-2.29-.37-4.68-2.07-6.46-3.1-3.23-8.2-3.26-11.33-.13l-6.59 6.59h-9.9l11.54-11.54c5.88-5.88 15.48-5.86 21.33.23 3.02 3.17 4.34 7.28 4.06 11.28z" fill="#4ba5c8"/><path d="m249.91 146.19-.31 38.97c0 2.53-1.01 4.95-2.8 6.75l-43.78 43.78c-1.88 1.88-2.93 4.42-2.93 7.07v7.18h-42.62v-30.16h.02c-.31-8.97 3.11-17.71 9.5-24.1l16.69-16.68 6.59-6.59c3.13-3.13 8.23-3.1 11.33.13 1.7 1.78 2.38 4.17 2.07 6.46-.21 1.73-1 3.41-2.32 4.72l-11.01 11.01c-3.43 3.44-3.4 9.04.11 12.43 3.39 3.28 9.08 3.03 12.42-.3l27.15-27.16c1.39-1.4 2.18-3.29 2.18-5.27l.31-28.24c0-4.81 3.89-8.71 8.7-8.71 4.8.01 8.7 3.9 8.7 8.71z" fill="#ffb69f"/><path d="m82.22 179h-9.9l-6.59-6.59c-3.13-3.12-8.23-3.1-11.33.13-1.7 1.78-2.38 4.17-2.07 6.46h-5.66c-.51 0-.98-.13-1.4-.34 0-.01 0-.01 0-.01-.19-3.88 1.11-7.84 4.07-10.94 5.9-6.16 15.49-6.08 21.33-.26z" fill="#4ba5c8"/><path d="m98.53 219.78v30.16h-42.62v-7.18c0-2.65-1.05-5.19-2.93-7.07l-43.78-43.78c-1.79-1.8-2.8-4.22-2.8-6.75l-.31-38.97c0-4.81 3.9-8.7 8.7-8.71 4.81 0 8.7 3.9 8.7 8.71l.31 28.25c0 1.97.79 3.86 2.18 5.26l27.15 27.16c3.34 3.33 9.03 3.58 12.42.3 3.51-3.39 3.54-8.99.11-12.42l-11.01-11.01c-1.32-1.32-2.11-3-2.32-4.73-.31-2.29.37-4.68 2.07-6.46 3.1-3.23 8.2-3.25 11.33-.13l6.59 6.59 16.69 16.68c6.39 6.39 9.81 15.13 9.5 24.1z" fill="#ffb69f"/></g><g fill="#e8a61e"><path d="m59.27 87.67h26.5v7h-26.5z"/><path d="m114.75 87.67h26.5v7h-26.5z"/><path d="m170.23 87.67h26.5v7h-26.5z"/><path d="m59.27 148.03h26.5v7h-26.5z"/><path d="m114.75 148.03h26.5v7h-26.5z"/><path d="m170.23 148.03h26.5v7h-26.5z"/></g><circle cx="128" cy="41.75" fill="#efefef" r="9.417"/><path d="m202.678 78.18h-136.356c-1.381 0-2.5-1.119-2.5-2.5s1.119-2.5 2.5-2.5h136.356c1.381 0 2.5 1.119 2.5 2.5s-1.119 2.5-2.5 2.5zm-146.356 0h-3c-1.381 0-2.5-1.119-2.5-2.5s1.119-2.5 2.5-2.5h3c1.381 0 2.5 1.119 2.5 2.5s-1.119 2.5-2.5 2.5z" fill="#c5e5fe"/><path d="m30.02 212.73c.997-.977.976-2.574 0-3.53-.94-.95-2.59-.95-3.53 0-1.022 1.023-.93 2.6 0 3.53.971.97 2.551.978 3.53 0z"/><path d="m55.91 252.44c1.38 0 2.5-1.12 2.5-2.5v-7.18c0-3.34-1.3-6.48-3.66-8.84l-17.66-17.65c-.94-.95-2.59-.95-3.53 0-.967.966-.979 2.552 0 3.53l17.65 17.66c1.42 1.41 2.2 3.3 2.2 5.3v7.18c0 1.38 1.12 2.5 2.5 2.5z"/><path d="m7.43 193.67 11.99 11.99c.94.95 2.59.95 3.53 0 .98-.97.98-2.56 0-3.53l-11.98-11.99c-1.34-1.34-2.07-3.11-2.07-4.98l-.31-38.99c0-3.41 2.78-6.18 6.21-6.19 3.41.01 6.18 2.79 6.19 6.21l.31 28.28c.01 2.63 1.04 5.11 2.91 6.99l27.15 27.17c4.337 4.297 11.535 4.551 15.93.33 4.435-4.292 4.634-11.475.14-15.99l-11.01-11.01c-2.05-2.05-2.298-5.515-.21-7.69 2.103-2.206 5.593-2.236 7.76-.09l23.27 23.27c5.59 5.58 8.79 13.31 8.79 21.21v31.28c0 1.38 1.12 2.5 2.5 2.5s2.5-1.12 2.5-2.5c0-3.007 0-26.809 0-31.28 0-9.036-3.483-17.962-10.25-24.75l-12.415-12.41h99.275l-12.418 12.412c-6.508 6.508-10.253 15.09-10.253 25.868v30.16c0 1.381 1.119 2.5 2.5 2.5s2.5-1.119 2.5-2.5v-29.84c.128-1-1.077-12.787 8.788-22.651 13.542-13.536 9.639-9.635 23.281-23.271 2.128-2.127 5.616-2.138 7.754.089 2.031 2.126 1.903 5.588-.209 7.686l-11.013 11.013c-4.386 4.399-4.406 11.599.143 15.992 4.289 4.151 11.582 4.001 15.926-.33l27.156-27.166c1.874-1.888 2.906-4.385 2.906-7.004l.31-28.268c0-3.424 2.781-6.21 6.195-6.21 3.422.007 6.206 2.793 6.206 6.19l-.31 38.99c0 1.872-.736 3.643-2.068 4.982l-43.78 43.78c-2.362 2.361-3.663 5.5-3.663 8.837v7.18c0 1.381 1.119 2.5 2.5 2.5s2.5-1.119 2.5-2.5v-7.18c0-2.002.781-3.885 2.198-5.302l43.785-43.785c2.274-2.288 3.527-5.311 3.527-8.493l.31-38.99c0-6.168-5.022-11.197-11.2-11.21-6.176 0-11.2 5.029-11.2 11.183l-.31 28.268c0 1.318-.517 2.564-1.448 3.502l-27.147 27.157c-2.414 2.406-6.58 2.535-8.918.272-2.508-2.422-2.522-6.414-.08-8.864l11.003-11.003c1.139-1.13 1.994-2.509 2.518-3.994h4.701c3.017 0 5.5-2.448 5.5-5.5v-17.97c0-3.033-2.467-5.5-5.5-5.5h-11.1v-62.363h11.104c3.033 0 5.5-2.467 5.5-5.5v-20.974c0-.824-.428-1.633-1.134-2.093l-83.19-54.49c-1.766-1.171-4.133-1.233-6.03.01l-14.28 9.35c-1.15.75-1.47 2.31-.72 3.46.73 1.11 2.34 1.45 3.46.72l14.29-9.36c.17-.11.38-.1.54 0l76.188 49.903h-152.916l45.168-29.583c1.16-.76 1.48-2.31.72-3.46-.72-1.12-2.34-1.46-3.46-.73l-52.17 34.18c-.717.469-1.125 1.275-1.131 2.072 0 .007-.002.014-.002.021v20.973c0 3.033 2.467 5.5 5.5 5.5h10.103v62.363h-10.1c-3.033 0-5.5 2.467-5.5 5.5v17.971c0 3.018 2.439 5.5 5.5 5.5h3.704c.526 1.49 1.375 2.869 2.506 4l11.01 11.01c2.427 2.426 2.446 6.406-.08 8.85-2.411 2.344-6.579 2.081-8.91-.27l-27.15-27.16c-.92-.92-1.45-2.2-1.45-3.49l-.31-28.28c-.02-6.16-5.04-11.18-11.2-11.18-6.17.02-11.2 5.04-11.2 11.21l.31 38.99c0 3.14 1.28 6.24 3.53 8.49zm162.8-82.28c1.38 0 2.5-1.12 2.5-2.5v-18.72h21.5v62.36h-21.5v-23.64c0-1.38-1.12-2.5-2.5-2.5s-2.5 1.12-2.5 2.5v23.64h-23.98v-62.363h23.98v18.723c0 1.38 1.12 2.5 2.5 2.5zm-52.98-21.22h21.5v62.36h-21.5zm-71.083-5.503v-18.474h164.667v18.473c0 .276-.224.5-.5.5h-163.667c-.276.001-.5-.224-.5-.499zm66.083 5.5v62.363h-23.98v-62.363zm-50.48.003h21.5v62.36h-21.5zm-15.6 85.83v-17.97c0-.28.22-.5.5-.5h163.66c.28 0 .5.22.5.5v17.97c0 .249-.181.459-.5.5h-4.198c-.29-2.121-1.218-4.109-2.728-5.691-4.073-4.244-10.777-4.292-14.901-.167l-5.86 5.857h-109.28l-5.863-5.86c-4.223-4.18-10.908-4.006-14.9.17-1.509 1.567-2.449 3.554-2.736 5.69h-3.194c-.258.001-.5-.212-.5-.499z"/><path d="m102.84 21.95c-1.112.716-1.513 2.26-.72 3.46.76 1.173 2.324 1.469 3.46.72 1.163-.768 1.479-2.311.72-3.46-.73-1.12-2.34-1.46-3.46-.72z"/><circle cx="170.23" cy="118.89" r="2.5"/><path d="m139.917 41.75c0-6.571-5.346-11.917-11.917-11.917s-11.917 5.346-11.917 11.917 5.346 11.917 11.917 11.917 11.917-5.346 11.917-11.917zm-18.834 0c0-3.814 3.103-6.917 6.917-6.917s6.917 3.103 6.917 6.917-3.103 6.917-6.917 6.917-6.917-3.103-6.917-6.917z"/></g></svg>