<svg viewBox="0 0 512 512" xmlns="http://www.w3.org/2000/svg" xmlns:xlink="http://www.w3.org/1999/xlink"><linearGradient id="linear-gradient" gradientUnits="userSpaceOnUse" x1="74.98" x2="437.02" y1="74.98" y2="437.02"><stop offset="0" stop-color="#ffd945"/><stop offset="1" stop-color="#ffa626"/></linearGradient><linearGradient id="linear-gradient-2" gradientUnits="userSpaceOnUse" x1="152.38" x2="436.68" y1="153.04" y2="437.35"><stop offset="0" stop-color="#cc7b11"/><stop offset="1" stop-color="#cc7b11" stop-opacity="0"/></linearGradient><g id="Layer_2" data-name="Layer 2"><g id="Layer_2_copy_4" data-name="Layer 2 copy 4"><g id="_47" data-name="47"><circle id="background" cx="256" cy="256" fill="url(#linear-gradient)" r="256"/><path d="m508.58 297.88c-17.8 108.21-103.47 193.57-211.84 210.89l-150-150-27.74-51.77-8-41-.38-35.6 11.38-33.4 21.55-35.13 25.28-23.23 32.56-18.56 40.79-11.69 51.32 5.61 39.3 17.78 39.77 30.09z" fill="url(#linear-gradient-2)"/><path d="m256 106a150 150 0 1 0 150 150 150 150 0 0 0 -150-150zm95.73 172.78a180.24 180.24 0 0 1 -31.73 10.22c1-10.6 1.59-21.63 1.59-32.95s-.55-22.35-1.59-32.95a180.24 180.24 0 0 1 31.7 10.17c20.79 9.03 28.52 18.73 28.52 22.73s-7.73 13.7-28.49 22.78zm-95.73 101.44c-4 0-13.7-7.73-22.78-28.49a180.24 180.24 0 0 1 -10.17-31.73c10.6 1 21.63 1.59 32.95 1.59s22.35-.55 32.95-1.59a180.24 180.24 0 0 1 -10.17 31.7c-9.08 20.79-18.78 28.52-22.78 28.52zm0-84.38a306.92 306.92 0 0 1 -37.56-2.28 310.52 310.52 0 0 1 0-75.12 310.52 310.52 0 0 1 75.12 0 306.92 306.92 0 0 1 2.28 37.56 306.92 306.92 0 0 1 -2.28 37.56 306.92 306.92 0 0 1 -37.56 2.28zm-124.22-39.84c0-4 7.73-13.7 28.49-22.78a180.24 180.24 0 0 1 31.73-10.17c-1 10.6-1.59 21.63-1.59 32.95s.55 22.35 1.59 32.95a180.24 180.24 0 0 1 -31.7-10.17c-20.79-9.08-28.52-18.78-28.52-22.78zm124.22-124.22c4 0 13.7 7.73 22.78 28.49a180.24 180.24 0 0 1 10.22 31.73c-10.6-1-21.63-1.59-32.95-1.59s-22.35.55-32.95 1.59a180.24 180.24 0 0 1 10.17-31.7c9.03-20.79 18.73-28.52 22.73-28.52zm117.36 83.35c-15.11-8.29-34.73-14.95-57.23-19.26-4.31-22.5-11-42.12-19.26-57.23a124.71 124.71 0 0 1 76.49 76.49zm-205.2-47a123.71 123.71 0 0 1 47-29.52c-8.29 15.11-14.95 34.73-19.26 57.23-22.5 4.31-42.12 11-57.23 19.26a123.71 123.71 0 0 1 29.49-46.94zm-29.52 128.74c15.11 8.29 34.73 14.95 57.23 19.26 4.31 22.5 11 42.12 19.26 57.23a124.71 124.71 0 0 1 -76.49-76.49zm205.2 47a123.71 123.71 0 0 1 -47 29.52c8.29-15.11 14.95-34.73 19.26-57.23 22.5-4.31 42.12-11 57.23-19.26a123.71 123.71 0 0 1 -29.49 46.94z" fill="#fff"/></g></g></g></svg>