<svg height="512" viewBox="0 0 64 64" width="512" xmlns="http://www.w3.org/2000/svg"><g id="_05-jawahar_circle" data-name="05-jawahar circle"><path d="m55 51v7h-6v-7a3 3 0 0 1 6 0z" fill="#fff4f2"/><path d="m54 36v-5a2.015 2.015 0 0 0 -2-2 2.006 2.006 0 0 0 -2 2v7h4zm1-10v25a3 3 0 0 0 -6 0v-9h-8v7a3 3 0 0 0 -6 0v-8h3v-16h-1v-1h5v3h6v-3h7zm-8 12v-6a2 2 0 0 0 -4 0v6z" fill="#ff829d"/><path d="m49 51v7h-8v-10c0-1.66 1.79-3 4-3s4 1.34 4 3z" fill="#fff4f2"/><path d="m49 42v6c0-1.66-1.79-3-4-3s-4 1.34-4 3v-6z" fill="#ff73a5"/><path d="m41 49v9h-6v-9a3 3 0 0 1 6 0z" fill="#fff4f2"/><path d="m35 49v9h-6v-11a2.653 2.653 0 0 1 .16-.94 2.995 2.995 0 0 1 5.84.94z" fill="#fff4f2"/><path d="m9 36v-12h7v3h6v-3h5v1h-1v16h3v5l.16.06a2.653 2.653 0 0 0 -.16.94v2a3 3 0 0 0 -6 0v-7h-8v9a3 3 0 0 0 -6 0zm1 0v2h4v-7a2.006 2.006 0 0 0 -2-2 2.015 2.015 0 0 0 -2 2zm11 2v-6a2 2 0 0 0 -4 0v6z" fill="#ff829d"/><path d="m29 49v9h-6v-9a3 3 0 0 1 6 0z" fill="#fff4f2"/><path d="m23 49v9h-8v-10c0-1.66 1.79-3 4-3s4 1.34 4 3z" fill="#fff4f2"/><path d="m23 42v6c0-1.66-1.79-3-4-3s-4 1.34-4 3v-6z" fill="#ff73a5"/><path d="m17 34h4v4h-4z" fill="#f25a6b"/><path d="m21 32v2h-4v-2a2 2 0 0 1 4 0z" fill="#ffb3c3"/><path d="m43 34h4v4h-4z" fill="#f25a6b"/><path d="m47 32v2h-4v-2a2 2 0 0 1 4 0z" fill="#ffb3c3"/><path d="m15 51v7h-6v-7a3 3 0 0 1 6 0z" fill="#fff4f2"/><path d="m10 36v-1h4v3h-4z" fill="#f25a6b"/><path d="m14 31v4h-4v-4a2.015 2.015 0 0 1 2-2 2.006 2.006 0 0 1 2 2z" fill="#ffb3c3"/><path d="m50 36v-1h4v3h-4z" fill="#f25a6b"/><path d="m54 31v4h-4v-4a2.015 2.015 0 0 1 2-2 2.006 2.006 0 0 1 2 2z" fill="#ffb3c3"/><path d="m55 24v1h-2v1h-5v-2z" fill="#ffccd7"/><path d="m48 26h5v1h-5z" fill="#ff5a7d"/><path d="m9 24v1h2v1h5v-2z" fill="#ffccd7"/><path d="m11 26h5v1h-5z" fill="#ff5a7d" transform="matrix(-1 0 0 -1 27 53)"/><path d="m22 24h5v1h-5z" fill="#ffccd7"/><path d="m37 24h5v1h-5z" fill="#ffccd7"/><path d="m29 41v6a2.653 2.653 0 0 1 .16-.94 2.995 2.995 0 0 1 5.84.94v-6z" fill="#ff73a5"/><path d="m28 41 1 1h6l1-1z" fill="#ffccd7"/><path d="m48 21v6h-6v-6h1 4z" fill="#ffb3c3"/><path d="m43 17h4v4h-4z" fill="#ff73a5"/><path d="m47 16v1h-4v-1a2.006 2.006 0 0 1 2-2 2.015 2.015 0 0 1 2 2z" fill="#ffb3c3"/><path d="m46 14.279v-1.279a1 1 0 0 0 -1-1 1 1 0 0 0 -1 1v1.279a1.932 1.932 0 0 1 2 0z" fill="#be1964"/><path d="m44 14.279a2.009 2.009 0 0 1 .433-.187c.023-.007.046-.015.069-.021a1.951 1.951 0 0 1 .498-.071 2 2 0 0 1 .5.07c.023.006.045.014.067.021a1.959 1.959 0 0 1 .435.188v-1a1.932 1.932 0 0 0 -2 0v1z" fill="#850c48"/><path d="m47 16a2.015 2.015 0 0 0 -2-2 1.994 1.994 0 0 0 -1.394.572 4.4 4.4 0 0 0 3.394 1.428z" fill="#ffccd7"/><path d="m43 20h1v1h-1z" fill="#d72878"/><path d="m46 20h1v1h-1z" fill="#d72878"/><path d="m44 23a1 1 0 0 1 1 1v2a0 0 0 0 1 0 0h-2a0 0 0 0 1 0 0v-2a1 1 0 0 1 1-1z" fill="#a30034"/><path d="m44 23a1 1 0 0 0 -1 1v1a1 1 0 0 1 2 0v-1a1 1 0 0 0 -1-1z" fill="#850c48"/><path d="m46 23a1 1 0 0 1 1 1v2a0 0 0 0 1 0 0h-2a0 0 0 0 1 0 0v-2a1 1 0 0 1 1-1z" fill="#a30034"/><path d="m46 23a1 1 0 0 0 -1 1v1a1 1 0 0 1 2 0v-1a1 1 0 0 0 -1-1z" fill="#850c48"/><path d="m42 22h6v1h-6z" fill="#ff73a5"/><path d="m42 23h1v3h-1z" fill="#d72878"/><path d="m47 23h1v3h-1z" fill="#d72878"/><path d="m22 21v6h-6v-6h1 4z" fill="#ffb3c3"/><path d="m17 17h4v4h-4z" fill="#ff73a5"/><path d="m21 16v1h-4v-1a2.006 2.006 0 0 1 2-2 2.015 2.015 0 0 1 2 2z" fill="#ffb3c3"/><path d="m20 14.279v-1.279a1 1 0 0 0 -1-1 1 1 0 0 0 -1 1v1.279a1.932 1.932 0 0 1 2 0z" fill="#be1964"/><path d="m18 14.279a2.009 2.009 0 0 1 .433-.187l.069-.021a1.951 1.951 0 0 1 .498-.071 2 2 0 0 1 .5.07c.023.006.045.014.067.021a1.959 1.959 0 0 1 .435.188v-1a1.932 1.932 0 0 0 -2 0v1z" fill="#850c48"/><path d="m21 16a2.015 2.015 0 0 0 -2-2 1.994 1.994 0 0 0 -1.394.572 4.4 4.4 0 0 0 3.394 1.428z" fill="#ffccd7"/><path d="m17 20h1v1h-1z" fill="#d72878"/><path d="m20 20h1v1h-1z" fill="#d72878"/><path d="m18 23a1 1 0 0 1 1 1v2a0 0 0 0 1 0 0h-2a0 0 0 0 1 0 0v-2a1 1 0 0 1 1-1z" fill="#a30034"/><path d="m18 23a1 1 0 0 0 -1 1v1a1 1 0 0 1 2 0v-1a1 1 0 0 0 -1-1z" fill="#850c48"/><path d="m20 23a1 1 0 0 1 1 1v2a0 0 0 0 1 0 0h-2a0 0 0 0 1 0 0v-2a1 1 0 0 1 1-1z" fill="#a30034"/><path d="m20 23a1 1 0 0 0 -1 1v1a1 1 0 0 1 2 0v-1a1 1 0 0 0 -1-1z" fill="#850c48"/><path d="m16 22h6v1h-6z" fill="#ff73a5"/><path d="m16 23h1v3h-1z" fill="#d72878"/><path d="m21 23h1v3h-1z" fill="#d72878"/><path d="m54 36v2h-4v-3h4z" fill="#ffb3c3"/><path d="m54 31v4h-4v-4a2.006 2.006 0 0 1 2-2 2.015 2.015 0 0 1 2 2z" fill="#ffb3c3"/><path d="m54 31a2.015 2.015 0 0 0 -2-2 1.994 1.994 0 0 0 -1.394.572 4.4 4.4 0 0 0 3.394 1.428z" fill="#ffccd7"/><path d="m52 32a1 1 0 0 1 1 1v2a0 0 0 0 1 0 0h-2a0 0 0 0 1 0 0v-2a1 1 0 0 1 1-1z" fill="#a30034"/><path d="m52 32a1 1 0 0 0 -1 1v1a1 1 0 0 1 2 0v-1a1 1 0 0 0 -1-1z" fill="#850c48"/><path d="m49 35h4v1h-4z" fill="#ff468c"/><path d="m61 44v14h-6v-14c0-2.21 1.34-4 3-4s3 1.79 3 4z" fill="#fff4f2"/><path d="m61 36v8c0-2.21-1.34-4-3-4s-3 1.79-3 4v-8z" fill="#e02f56"/><path d="m58 39c-1.66 0-3 1.79-3 4v1c0-2.21 1.34-4 3-4s3 1.79 3 4v-1c0-2.21-1.34-4-3-4z" fill="#ff468c"/><path d="m55 26h6v10h-6z" fill="#ff73a5"/><path d="m61 22v4h-6v-2-2z" fill="#ff73a5"/><path d="m61 20v2h-6v-2c0-1.1 1.34-2 3-2a3.786 3.786 0 0 1 2.12.59 1.748 1.748 0 0 1 .88 1.41z" fill="#ffb3c3"/><path d="m56 20a1 1 0 0 1 1 1v1a0 0 0 0 1 0 0h-2a0 0 0 0 1 0 0v-1a1 1 0 0 1 1-1z" fill="#a30034"/><path d="m60 20a1 1 0 0 1 1 1v1a0 0 0 0 1 0 0h-2a0 0 0 0 1 0 0v-1a1 1 0 0 1 1-1z" fill="#a30034"/><path d="m58 20a1 1 0 0 1 1 1v1a0 0 0 0 1 0 0h-2a0 0 0 0 1 0 0v-1a1 1 0 0 1 1-1z" fill="#c2294a"/><path d="m58 23a1 1 0 0 1 1 1v1a0 0 0 0 1 0 0h-2a0 0 0 0 1 0 0v-1a1 1 0 0 1 1-1z" fill="#c2294a"/><path d="m53 25h10v2h-10z" fill="#ffb3c3"/><path d="m53 26h10v1h-10z" fill="#c2294a"/><path d="m53 35h10v2h-10z" fill="#c2294a"/><path d="m53 36h10v1h-10z" fill="#9c1936"/><path d="m55 27h6v1h-6z" fill="#d72878"/><path d="m58 29a1 1 0 0 1 1 1v1a0 0 0 0 1 0 0h-2a0 0 0 0 1 0 0v-1a1 1 0 0 1 1-1z" fill="#c2294a"/><path d="m57 31h2v2h-2z" fill="#ff468c"/><path d="m60 28h1v7h-1z" fill="#ffb3c3"/><path d="m55 28h1v7h-1z" fill="#ffb3c3"/><path d="m60 22h1v3h-1z" fill="#ffb3c3"/><path d="m55 22h1v3h-1z" fill="#ffb3c3"/><path d="m60 27h1v1h-1z" fill="#ff468c"/><path d="m55 27h1v1h-1z" fill="#ff468c"/><path d="m58 23a1 1 0 0 0 -1 1v1a1 1 0 0 1 2 0v-1a1 1 0 0 0 -1-1z" fill="#850c48"/><path d="m58 29a1 1 0 0 0 -1 1v1a1 1 0 0 1 2 0v-1a1 1 0 0 0 -1-1z" fill="#850c48"/><path d="m55 37h6v1h-6z" fill="#850c48"/><path d="m43 34h4v4h-4z" fill="#ffb3c3"/><path d="m47 32v2h-4v-2a2 2 0 0 1 4 0z" fill="#ffb3c3"/><path d="m42 33h6v1h-6z" fill="#ff468c"/><path d="m47 32a2.015 2.015 0 0 0 -2-2 1.994 1.994 0 0 0 -1.394.572 4.4 4.4 0 0 0 3.394 1.428z" fill="#ffccd7"/><path d="m43 34h4v1h-4z" fill="#ff8fb8"/><path d="m17 34h4v4h-4z" fill="#ffb3c3"/><path d="m21 32v2h-4v-2a2 2 0 0 1 4 0z" fill="#ffb3c3"/><path d="m16 33h6v1h-6z" fill="#ff468c"/><path d="m21 32a2.015 2.015 0 0 0 -2-2 1.994 1.994 0 0 0 -1.394.572 4.4 4.4 0 0 0 3.394 1.428z" fill="#ffccd7"/><path d="m17 34h4v1h-4z" fill="#ff8fb8"/><path d="m10 36v2h4v-3h-4z" fill="#ffb3c3"/><path d="m10 31v4h4v-4a2.006 2.006 0 0 0 -2-2 2.015 2.015 0 0 0 -2 2z" fill="#ffb3c3"/><path d="m11 32h2a0 0 0 0 1 0 0v2a1 1 0 0 1 -1 1 1 1 0 0 1 -1-1v-2a0 0 0 0 1 0 0z" fill="#a30034" transform="matrix(-1 0 0 -1 24 67)"/><path d="m12 32a1 1 0 0 1 1 1v1a1 1 0 0 0 -2 0v-1a1 1 0 0 1 1-1z" fill="#850c48"/><path d="m11 35h4v1h-4z" fill="#ff468c" transform="matrix(-1 0 0 -1 26 71)"/><path d="m14 31a2.006 2.006 0 0 0 -2-2 1.959 1.959 0 0 0 -.961.257c.191.983 1.435 1.743 2.961 1.743z" fill="#ffccd7"/><path d="m9 44v14h-6v-14c0-2.21 1.34-4 3-4s3 1.79 3 4z" fill="#fff4f2"/><path d="m9 36v8c0-2.21-1.34-4-3-4s-3 1.79-3 4v-8z" fill="#e02f56"/><path d="m6 39c-1.66 0-3 1.79-3 4v1c0-2.21 1.34-4 3-4s3 1.79 3 4v-1c0-2.21-1.34-4-3-4z" fill="#ff468c"/><path d="m3 26h6v10h-6z" fill="#ff73a5"/><path d="m9 22v4h-6v-2-2z" fill="#ff73a5"/><path d="m9 20v2h-6v-2c0-1.1 1.34-2 3-2a3.786 3.786 0 0 1 2.12.59 1.748 1.748 0 0 1 .88 1.41z" fill="#ffb3c3"/><path d="m4 20a1 1 0 0 1 1 1v1a0 0 0 0 1 0 0h-2a0 0 0 0 1 0 0v-1a1 1 0 0 1 1-1z" fill="#a30034"/><path d="m8 20a1 1 0 0 1 1 1v1a0 0 0 0 1 0 0h-2a0 0 0 0 1 0 0v-1a1 1 0 0 1 1-1z" fill="#a30034"/><path d="m6 20a1 1 0 0 1 1 1v1a0 0 0 0 1 0 0h-2a0 0 0 0 1 0 0v-1a1 1 0 0 1 1-1z" fill="#c2294a"/><path d="m6 23a1 1 0 0 1 1 1v1a0 0 0 0 1 0 0h-2a0 0 0 0 1 0 0v-1a1 1 0 0 1 1-1z" fill="#c2294a"/><path d="m1 25h10v2h-10z" fill="#ffb3c3"/><path d="m1 26h10v1h-10z" fill="#c2294a"/><path d="m1 35h10v2h-10z" fill="#c2294a"/><path d="m1 36h10v1h-10z" fill="#9c1936"/><path d="m3 27h6v1h-6z" fill="#d72878"/><path d="m6 29a1 1 0 0 1 1 1v1a0 0 0 0 1 0 0h-2a0 0 0 0 1 0 0v-1a1 1 0 0 1 1-1z" fill="#c2294a"/><path d="m5 31h2v2h-2z" fill="#ff468c"/><path d="m8 28h1v7h-1z" fill="#ffb3c3"/><path d="m3 28h1v7h-1z" fill="#ffb3c3"/><path d="m8 22h1v3h-1z" fill="#ffb3c3"/><path d="m3 22h1v3h-1z" fill="#ffb3c3"/><path d="m8 27h1v1h-1z" fill="#ff468c"/><path d="m3 27h1v1h-1z" fill="#ff468c"/><path d="m6 23a1 1 0 0 0 -1 1v1a1 1 0 0 1 2 0v-1a1 1 0 0 0 -1-1z" fill="#850c48"/><path d="m6 29a1 1 0 0 0 -1 1v1a1 1 0 0 1 2 0v-1a1 1 0 0 0 -1-1z" fill="#850c48"/><path d="m3 37h6v1h-6z" fill="#850c48"/><path d="m38 37v4h-3v-4.5a1.5 1.5 0 0 1 3 0z" fill="#a30034"/><path d="m38 25v9a6.009 6.009 0 0 0 -6-6 6 6 0 0 0 -6 6v-9z" fill="#ff6e7c"/><path d="m35 36.5v4.5h-6v-5a3 3 0 0 1 6 0z" fill="#a30034"/><path d="m29 36.5v4.5h-3v-4.5a1.5 1.5 0 0 1 3 0z" fill="#a30034"/><path d="m36.5 35a1.5 1.5 0 0 0 -1.5 1.5v2a1.5 1.5 0 0 1 3 0v-2a1.5 1.5 0 0 0 -1.5-1.5z" fill="#850c48"/><path d="m32 35a3 3 0 0 1 3 3v-2a3 3 0 0 0 -6 0v2a3 3 0 0 1 3-3z" fill="#850c48"/><path d="m27.5 37a1.5 1.5 0 0 1 1.5 1.5v-2a1.5 1.5 0 0 0 -3 0v2a1.5 1.5 0 0 1 1.5-1.5z" fill="#850c48"/><path d="m35 34a3 3 0 0 0 -6 0v2a3 3 0 0 1 6 0z" fill="#ff73a5"/><path d="m32 27a6 6 0 0 0 -6 6v1a6 6 0 0 1 6-6 6.009 6.009 0 0 1 6 6v-1a6.009 6.009 0 0 0 -6-6z" fill="#e02f56"/><path d="m37.633 31.948a5.98 5.98 0 0 0 -8.133-3.395c1.167 1.792 4.3 3.133 8.133 3.395z" fill="#ffccd7"/><path d="m34 13.77a2.94 2.94 0 0 1 1 2.23v5h-6v-5a3 3 0 0 1 5-2.23z" fill="#ff73a5"/><path d="m34 13.77a3 3 0 0 0 -5 2.23v2a3 3 0 0 1 6 0v-2a2.94 2.94 0 0 0 -1-2.23z" fill="#ffb3c3"/><path d="m39 13v3h-4v-3a2.006 2.006 0 0 1 2-2 2.015 2.015 0 0 1 2 2z" fill="#ffb3c3"/><path d="m38 16v5h-1-2v-5z" fill="#f25a6b"/><path d="m37 24v1h-10v-1-3h2 3 3 2z" fill="#ff829d"/><path d="m34 11v2.77a2.982 2.982 0 0 0 -4 0v-2.77a2.006 2.006 0 0 1 2-2 2.015 2.015 0 0 1 2 2z" fill="#ffb3c3"/><path d="m32 13a2.965 2.965 0 0 1 2 .77v-1a2.982 2.982 0 0 0 -4 0v1a2.965 2.965 0 0 1 2-.77z" fill="#ff73a5"/><path d="m29 16v5h-2-1v-5z" fill="#f25a6b"/><path d="m29 13v3h-4v-3a2.006 2.006 0 0 1 2-2 2.015 2.015 0 0 1 2 2z" fill="#ffb3c3"/><path d="m39 13a2.015 2.015 0 0 0 -2-2 1.994 1.994 0 0 0 -1.394.572 4.4 4.4 0 0 0 3.394 1.428z" fill="#ffccd7"/><path d="m34 11a2.015 2.015 0 0 0 -2-2 1.994 1.994 0 0 0 -1.394.572 4.4 4.4 0 0 0 3.394 1.428z" fill="#ffccd7"/><path d="m29 13a2.015 2.015 0 0 0 -2-2 1.994 1.994 0 0 0 -1.394.572 4.4 4.4 0 0 0 3.394 1.428z" fill="#ffccd7"/><path d="m24 20h16v2h-16z" fill="#ff829d"/><path d="m27 22h10v1h-10z" fill="#ff5a7d"/><path d="m28 22h2v2h-2z" fill="#ffb3c3"/><path d="m34 22h2v2h-2z" fill="#ffb3c3"/><path d="m31 22h2v2h-2z" fill="#ffb3c3"/><path d="m34 22h2v1h-2z" fill="#ff829d"/><path d="m31 22h2v1h-2z" fill="#ff829d"/><path d="m28 22h2v1h-2z" fill="#ff829d"/><path d="m24 21h16v1h-16z" fill="#d6475c"/><path d="m41 15h-6.186a2.988 2.988 0 0 1 .186 1v1h6z" fill="#ffb3c3"/><path d="m29.186 15h-6.186v2h6v-1a2.988 2.988 0 0 1 .186-1z" fill="#ffb3c3"/><path d="m34.814 15a2.89 2.89 0 0 0 -.814-1.23 2.982 2.982 0 0 0 -4 0 2.89 2.89 0 0 0 -.814 1.23h-6.186v1h6.186a2.89 2.89 0 0 1 .814-1.23 2.982 2.982 0 0 1 4 0 2.89 2.89 0 0 1 .814 1.23h6.186v-1z" fill="#ffccd7"/><path d="m32 17a1 1 0 0 1 1 1v2a0 0 0 0 1 0 0h-2a0 0 0 0 1 0 0v-2a1 1 0 0 1 1-1z" fill="#a30034"/><path d="m32 17a1 1 0 0 0 -1 1v1a1 1 0 0 1 2 0v-1a1 1 0 0 0 -1-1z" fill="#850c48"/><path d="m28 17h1v3h-1z" fill="#ffb3c3"/><path d="m35 17h1v3h-1z" fill="#ffb3c3"/><path d="m38 11.279v-1.279a1 1 0 0 0 -1-1 1 1 0 0 0 -1 1v1.279a1.932 1.932 0 0 1 2 0z" fill="#be1964"/><path d="m36 11.279a2.009 2.009 0 0 1 .433-.187c.023-.007.046-.015.069-.021a1.951 1.951 0 0 1 .498-.071 2 2 0 0 1 .5.07c.023.006.045.014.067.021a1.959 1.959 0 0 1 .435.188v-1a1.932 1.932 0 0 0 -2 0v1z" fill="#850c48"/><path d="m33 9.279v-2.279a1 1 0 0 0 -1-1 1 1 0 0 0 -1 1v2.279a1.932 1.932 0 0 1 2 0z" fill="#be1964"/><path d="m31 9.279a2.009 2.009 0 0 1 .433-.187l.069-.021a1.951 1.951 0 0 1 .498-.071 2 2 0 0 1 .5.07c.023.006.045.014.067.021a1.959 1.959 0 0 1 .433.188v-1a1.932 1.932 0 0 0 -2 0z" fill="#850c48"/><path d="m28 11.279v-1.279a1 1 0 0 0 -1-1 1 1 0 0 0 -1 1v1.279a1.932 1.932 0 0 1 2 0z" fill="#be1964"/><path d="m26 11.279a2.009 2.009 0 0 1 .433-.187l.069-.021a1.951 1.951 0 0 1 .498-.071 2 2 0 0 1 .5.07c.023.006.045.014.067.021a1.959 1.959 0 0 1 .435.188v-1a1.932 1.932 0 0 0 -2 0v1z" fill="#850c48"/><path d="m35 14h4v1h-4z" fill="#ff73a5"/><path d="m25 14h4v1h-4z" fill="#ff73a5"/><g fill="#f6fafd"><ellipse cx="35" cy="30" rx=".825" ry="1.148" transform="matrix(.707 -.707 .707 .707 -10.961 33.551)"/><ellipse cx="32.746" cy="29.5" rx=".413" ry=".574" transform="matrix(.707 -.707 .707 .707 -11.268 31.81)"/><ellipse cx="19.746" cy="31.5" rx=".413" ry=".574" transform="matrix(.707 -.707 .707 .707 -16.493 23.201)"/><ellipse cx="45.746" cy="31.5" rx=".413" ry=".574" transform="matrix(.707 -.707 .707 .707 -8.872 41.592)"/><ellipse cx="59.746" cy="19.5" rx=".413" ry=".574" transform="matrix(.707 -.707 .707 .707 3.72 47.977)"/><ellipse cx="7.746" cy="19.5" rx=".413" ry=".574" transform="matrix(.707 -.707 .707 .707 -11.523 11.195)"/><ellipse cx="12.746" cy="30.5" rx=".413" ry=".574" transform="matrix(.707 -.707 .707 .707 -17.838 17.957)"/><ellipse cx="52.746" cy="30.5" rx=".413" ry=".574" transform="matrix(.707 -.707 .707 .707 -6.113 46.25)"/><ellipse cx="32.746" cy="14.5" rx=".413" ry=".574" transform="matrix(.707 -.707 .707 .707 -.658 27.413)"/><ellipse cx="37.746" cy="12.5" rx=".413" ry=".574" transform="matrix(.707 -.707 .707 .707 2.223 30.364)"/><ellipse cx="27.746" cy="12.5" rx=".413" ry=".574" transform="matrix(.707 -.707 .707 .707 -.709 23.29)"/></g><path d="m38 36v4h-3v-4.5a1.5 1.5 0 0 1 3 0z" fill="#f25a6b"/><path d="m29 35.5v4.5h-3v-4.5a1.5 1.5 0 0 1 3 0z" fill="#f25a6b"/><path d="m38 36v.5a1.5 1.5 0 0 0 -3 0v-.5a3 3 0 0 0 -6 0v.5a1.5 1.5 0 0 0 -3 0v-2.5a6 6 0 0 1 6-6 6.009 6.009 0 0 1 6 6z" fill="#ffb3c3"/><ellipse cx="35" cy="31" fill="#f6fafd" rx=".825" ry="1.148" transform="matrix(.707 -.707 .707 .707 -11.668 33.844)"/><ellipse cx="32.746" cy="30.5" fill="#f6fafd" rx=".413" ry=".574" transform="matrix(.707 -.707 .707 .707 -11.975 32.103)"/><path d="m45 29a3 3 0 0 0 -3 3v6a1 1 0 0 0 1 1h4a1 1 0 0 0 1-1v-6a3 3 0 0 0 -3-3zm-1 3a1 1 0 0 1 2 0v1h-2zm2 5h-2v-2h2z"/><path d="m62 47h-2v10h-1v2h2 2v-2h-1z"/><path d="m62 29v-2h1v-2h-1v-5c0-1.682-1.757-3-4-3s-4 1.318-4 3v3h-5v-2a1 1 0 0 0 -1-1v-4a3 3 0 0 0 -2-2.816v-1.184h-2v1.184a3 3 0 0 0 -2 2.816v4a1 1 0 0 0 -1 1v2h-3v-1h2v-2h-1v-3h2v-2h-1v-2a3 3 0 0 0 -2-2.816v-1.184h-2v1.184a3 3 0 0 0 -1.021.613 2.986 2.986 0 0 0 -1.979-2.613v-2.184h-2v2.184a2.986 2.986 0 0 0 -1.979 2.616 3 3 0 0 0 -1.021-.616v-1.184h-2v1.184a3 3 0 0 0 -2 2.816v2h-1v2h2v3h-1v2h2v1h-3v-2a1 1 0 0 0 -1-1v-4a3 3 0 0 0 -2-2.816v-1.184h-2v1.184a3 3 0 0 0 -2 2.816v4a1 1 0 0 0 -1 1v2h-5v-3c0-1.682-1.757-3-4-3s-4 1.318-4 3v5h-1v2h1v2h2v-2h4v8h-4v-4h-2v4h-1v2h1v8h2v-1c0-1.626.916-3 2-3s2 1.374 2 3v13h-1v2h50v-2h-1v-13c0-1.626.916-3 2-3s2 1.374 2 3v1h2v-8h1v-2h-1v-4h-2v4h-4v-8h4v2zm-4-10c1.221 0 2 .592 2 1v1h-4v-1c0-.408.779-1 2-1zm-7 17h2v1h-2zm2-2h-2v-3a1 1 0 0 1 2 0zm-8-19a1 1 0 0 1 1 1h-2a1 1 0 0 1 1-1zm-1 3h2v2h-2zm-1 4h4v1h-4zm0 3h4v1h-4zm-16 12v-.5a.5.5 0 0 1 1 0v3.5h-1zm7-.5v3.5h-4v-4a2 2 0 0 1 4 0zm-4 5.5h4v1.556a3.875 3.875 0 0 0 -4 0zm6-5.5a.5.5 0 0 1 1 0v3.5h-1zm-5-20.5v4h-1v-4a2 2 0 0 1 4 0v4h-1v-4zm6 4h-1v-3h1zm0-8a1 1 0 0 1 1 1v2h-2v-2a1 1 0 0 1 1-1zm-5-2a1 1 0 0 1 1 1v1.142a3.592 3.592 0 0 0 -2 0v-1.142a1 1 0 0 1 1-1zm-6 3a1 1 0 0 1 2 0v2h-2zm1 4h1v3h-1zm2 5h7v2h-1v2h2v3.111a6.994 6.994 0 0 0 -7.333-1.711l.666 1.886a5.005 5.005 0 0 1 6.667 4.714v.051a2.474 2.474 0 0 0 -1.453.14 3.967 3.967 0 0 0 -7.094 0 2.474 2.474 0 0 0 -1.453-.14v-.051a5 5 0 0 1 2.236-4.168l-1.107-1.665a6.982 6.982 0 0 0 -1.129.949v-3.116h6v-2h-5v-2zm-10-7a1 1 0 0 1 1 1h-2a1 1 0 0 1 1-1zm-1 3h2v2h-2zm-1 4h4v1h-4zm0 3h4v1h-4zm-4 9h-2v-3a1 1 0 0 1 2 0zm0 2v1h-2v-1zm-7-17c1.221 0 2 .592 2 1v1h-4v-1c0-.408.779-1 2-1zm-2 6v-2h4v2zm2 14a3.388 3.388 0 0 0 -2 .7v-2.7h4v2.7a3.388 3.388 0 0 0 -2-.7zm4 0h4a1 1 0 0 0 1-1v-7a2.987 2.987 0 0 0 -5-2.22v-1.78h1v-2h4v2a1 1 0 0 0 1 1h6a1 1 0 0 0 1-1v-2h2v16a1 1 0 0 0 1 1h2v3.556a3.875 3.875 0 0 0 -4 0v-3.556a1 1 0 0 0 -1-1h-8a1 1 0 0 0 -1 1v5.556a3.875 3.875 0 0 0 -4 0zm12 5.82a5.9 5.9 0 0 0 -6 0v-1.82h6zm-12 6.18a2 2 0 0 1 4 0v6h-4zm6 0v-3c0-1.084 1.374-2 3-2s3 .916 3 2v9h-6zm20 4h-2v2h-4v-2h-2v2h-4v-8a2 2 0 0 1 4 0v4h2v-6a2 2 0 0 1 4 0v6h2v-4a2 2 0 0 1 4 0v8h-4zm12-10.18a5.9 5.9 0 0 0 -6 0v-1.82h6zm-6 4.18v-1c0-1.084 1.374-2 3-2s3 .916 3 2v9h-6zm8 2a2 2 0 0 1 4 0v6h-4zm4-3.444a3.875 3.875 0 0 0 -4 0v-5.556a1 1 0 0 0 -1-1h-8a1 1 0 0 0 -1 1v3.556a3.875 3.875 0 0 0 -4 0v-3.556h2a1 1 0 0 0 1-1v-16h2v2a1 1 0 0 0 1 1h6a1 1 0 0 0 1-1v-2h4v2h1v1.78a2.987 2.987 0 0 0 -5 2.22v7a1 1 0 0 0 1 1h4zm6-10.556v2.7a3.225 3.225 0 0 0 -4 0v-2.7zm-4-12v-2h4v2z"/><path d="m17 39h4a1 1 0 0 0 1-1v-6a3 3 0 0 0 -6 0v6a1 1 0 0 0 1 1zm3-2h-2v-2h2zm-2-5a1 1 0 0 1 2 0v1h-2z"/><path d="m4 47h-2v10h-1v2h2 2v-2h-1z"/><path d="m57 29h2v4h-2z"/><path d="m5 29h2v4h-2z"/></g></svg>