<svg id="Capa_1" enable-background="new 0 0 512 512" height="512" viewBox="0 0 512 512" width="512" xmlns="http://www.w3.org/2000/svg"><g><g><g><path d="m307.36 90.624c-4.258 0-7.716-3.447-7.726-7.708l-.198-75.171c-.01-4.266 3.441-7.734 7.708-7.744h.018c4.258 0 7.716 3.447 7.726 7.708l.198 75.171c.01 4.266-3.441 7.734-7.708 7.744-.006 0-.012 0-.018 0z" fill="#596c76"/></g></g><g><path d="m476.874 39.285h-68.258v-31.285c0-4.418 3.582-8 8-8h52.258c4.418 0 8 3.582 8 8z" fill="#8d9ca8"/><path d="m468.632 0h-23.986c4.712 0 8.533 3.82 8.533 8.533v30.752h23.694v-31.044c.001-4.551-3.689-8.241-8.241-8.241z" fill="#7e8d9e"/><g><path d="m383.983 329.418v-286.751c0-4.713 3.82-8.533 8.532-8.533h100.459c4.712 0 8.532 3.82 8.532 8.533v286.751z" fill="#596c76"/><path d="m492.974 34.133h-23.694c4.712 0 8.532 3.82 8.532 8.533v286.751h23.694v-286.75c.001-4.713-3.82-8.534-8.532-8.534z" fill="#516570"/></g><path d="m378.832 324.267h124.602c4.712 0 8.532 3.82 8.532 8.533v25.6l-10.46 5.151h-122.674z" fill="#fff2e2"/><path d="m464.075 363.551h-42.661v-65.418c0-4.418 3.582-8 8-8h26.661c4.418 0 8 3.582 8 8z" fill="#2ed1e2"/><path d="m503.434 324.267h-23.694c4.712 0 8.532 3.82 8.532 8.533v30.751h13.234l10.46-5.151v-25.6c0-4.713-3.82-8.533-8.532-8.533z" fill="#fee6cf"/><g><path d="m319.991 93.867-55.425-7.391v277.075h100.425v-227.679z" fill="#2ed1e2"/><path d="m360.289 363.551h23.694v-209.951l-23.694-22.117z" fill="#03bed7"/><path d="m264.566 46.762v43.141l100.425 53.567v-56.877l-88.305-47.103c-5.49-2.928-12.12 1.05-12.12 7.272z" fill="#8d9ca8"/><path d="m383.983 153.6v-46.637c0-6.303-3.473-12.093-9.034-15.059l-19.853-10.589c3.27 3.169 5.193 7.569 5.193 12.255v47.392z" fill="#7e8d9e"/></g><g><path d="m221.871 361.491v-156.691h90.315c4.712 0 8.532 3.82 8.532 8.533v148.157h-98.847z" fill="#596c76"/><path d="m332.79 204.8h-23.694c4.712 0 8.532 3.82 8.532 8.533v148.157h23.694v-148.157c0-4.713-3.82-8.533-8.532-8.533z" fill="#516570"/></g><path d="m303.273 426.667h200.161c4.712 0 8.532-3.82 8.532-8.533v-59.734h-244.98z" fill="#8d9ca8"/><path d="m488.272 358.4v59.733c0 4.713-3.82 8.533-8.532 8.533h23.694c4.712 0 8.532-3.82 8.532-8.533v-59.733z" fill="#7e8d9e"/></g><g><g><path d="m319.993 400.259h-22.405c-4.267 0-7.726-3.459-7.726-7.726s3.459-7.726 7.726-7.726h22.405c4.268 0 7.726 3.459 7.726 7.726s-3.459 7.726-7.726 7.726z" fill="#fff2e2"/></g></g><g><g><path d="m415.74 400.259h-25.597c-4.267 0-7.726-3.459-7.726-7.726s3.459-7.726 7.726-7.726h25.597c4.267 0 7.726 3.459 7.726 7.726s-3.458 7.726-7.726 7.726z" fill="#fff2e2"/></g></g><path d="m486.371 384.807c-4.268 0-7.726 3.459-7.726 7.726s3.459 7.726 7.726 7.726h25.596v-15.453h-25.596z" fill="#fff2e2"/><g><path d="m243.126 349.646-18.366-5.595.005.022h-142.198l-34.164 10.409c-28.735 8.755-48.371 35.264-48.371 65.303v58.082l59.734 34.133h187.733l59.733-34.133v-51.2l-31.882-61.284z" fill="#97d729"/><path d="m283.538 412.463v78.943l23.694-13.539v-58.123c0-30.039-19.636-56.548-48.371-65.303l-21.001-6.398c27.263 9.549 45.678 35.329 45.678 64.42z" fill="#8bc727"/><path d="m224.765 344.073-46.997 46.997c-13.33 13.33-34.942 13.33-48.272 0l-46.996-46.997 36.999-11.273h68.267z" fill="#fff2e2"/><path d="m224.765 344.073-46.997 46.997c-13.33 13.33-34.942 13.33-48.272 0l-46.996-46.997 36.999-11.273h68.267z" fill="#fff2e2"/><path d="m135.724 349.025h18.788l33.254-16.225v-29.319l-68.267-.001v29.32z" fill="#ffcebf"/><path d="m164.072 303.481v16.093c0 2.186-.868 4.282-2.414 5.828l-19.652 19.652c-1.836 1.836-3.991 3.147-6.282 3.971l5.841 5.841c6.665 6.665 17.471 6.665 24.136 0l22.066-22.066v-29.319z" fill="#ffb8ad"/><path d="m.033 477.867v17.067c0 9.426 7.641 17.067 17.067 17.067h42.667v-34.133h-59.734z" fill="#ffcebf"/><path d="m283.538 477.867h-36.039v34.133h42.667c9.426 0 17.067-7.641 17.067-17.067v-12.162z" fill="#ffcebf"/><path d="m307.233 494.933v-17.067h-23.694v17.067c0 9.426-7.641 17.067-17.067 17.067h23.694c9.426 0 17.067-7.641 17.067-17.067z" fill="#ffb8ad"/></g><path d="m42.699 128.588h221.867v53.041h-221.867z" fill="#596c76"/><g><g><path d="m248.821 170.667h-197.588c-9.426 0-17.067 7.641-17.067 17.067v17.066c0 14.139 11.462 25.6 25.6 25.6h180.522c14.138 0 25.6-11.461 25.6-25.6v-17.067c0-9.425-7.642-17.066-17.067-17.066z" fill="#ffcebf"/><path d="m229.708 120.233-31.575-17.833h-85.244-10.456c-18.851 0-34.133 15.282-34.133 34.133v93.867c0 47.128 38.205 85.333 85.333 85.333 3.553 0 7.046-.243 10.485-.664l9.443-6.438h14.163c30.156-13.16 51.242-43.226 51.242-78.231l-9.258-10.305z" fill="#ffcebf"/><g fill="#ffb8ad"><path d="m256.033 170.667h-15.558c5.319 2.89 8.93 8.527 8.93 15.006v24.278c0 8.357-4.005 15.776-10.2 20.449h8.294c14.138 0 25.6-11.461 25.6-25.6v-17.067c0-9.425-7.641-17.066-17.066-17.066z"/><path d="m204.833 102.4h-6.7-16.994c18.851 0 34.133 15.282 34.133 34.133v93.867c0 43.106-31.968 78.726-73.486 84.496 3.874.538 7.825.837 11.847.837 47.128 0 85.333-38.205 85.333-85.333v-93.867c0-18.851-15.282-34.133-34.133-34.133z"/></g></g></g><path d="m284.517 86.434-35.117-5.403c-1.711-.263-3.075-1.567-3.414-3.265l-10.066-50.327c-3.191-15.955-17.2-27.439-33.47-27.439h-12.883c-6.739 0-13.326 1.995-18.933 5.733l-7.534 5.023c-5.733 3.822-13.201 3.822-18.934 0l-7.534-5.023c-5.607-3.738-12.195-5.733-18.934-5.733h-12.883c-16.271 0-30.279 11.484-33.47 27.439l-10.066 50.327c-.339 1.697-1.703 3.001-3.414 3.265l-35.117 5.403c-15.97 2.457-19.901 23.67-5.872 31.686 11.424 6.528 23.979 10.836 37.004 12.696h.002c66.165 9.452 133.338 9.452 199.504 0 13.025-1.861 25.581-6.169 37.005-12.697 14.028-8.016 10.096-29.228-5.874-31.685z" fill="#ae6c6c"/><g><g fill="#9b5e5e"><path d="m212.226 27.439 9.342 46.473c.339 1.697 1.703 3.001 3.414 3.265l23.606 3.632c-1.317-.492-2.32-1.626-2.603-3.043l-10.065-50.327c-3.191-15.955-17.199-27.439-33.47-27.439h-12.883c-1.812 0-3.61.156-5.384.439 13.876 2.228 25.214 12.853 28.043 27z"/><path d="m284.517 86.434-22.989-3.537c14.398 4.155 18.534 35.914 6.249 44.813 7.872-2.291 15.464-5.506 22.612-9.59 14.03-8.017 10.098-29.229-5.872-31.686z"/></g></g><g fill="#2ed1e2"><path d="m453.931 93.059h-17.064c-4.268 0-7.726-3.459-7.726-7.726s3.459-7.726 7.726-7.726h17.064c4.268 0 7.726 3.459 7.726 7.726s-3.458 7.726-7.726 7.726z"/><path d="m453.931 144.26h-17.064c-4.268 0-7.726-3.459-7.726-7.726 0-4.268 3.459-7.726 7.726-7.726h17.064c4.268 0 7.726 3.459 7.726 7.726.001 4.267-3.458 7.726-7.726 7.726z"/><path d="m453.931 195.46h-17.064c-4.268 0-7.726-3.459-7.726-7.726 0-4.268 3.459-7.726 7.726-7.726h17.064c4.268 0 7.726 3.459 7.726 7.726.001 4.267-3.458 7.726-7.726 7.726z"/><path d="m453.931 246.66h-17.064c-4.268 0-7.726-3.459-7.726-7.726 0-4.268 3.459-7.726 7.726-7.726h17.064c4.268 0 7.726 3.459 7.726 7.726.001 4.267-3.458 7.726-7.726 7.726z"/></g><g><path d="m294.396 263.726h-8.532c-4.268 0-7.726-3.459-7.726-7.726s3.459-7.726 7.726-7.726h8.532c4.268 0 7.726 3.459 7.726 7.726 0 4.268-3.458 7.726-7.726 7.726z" fill="#2ed1e2"/></g><g><path d="m260.267 263.726h-8.533c-4.267 0-7.726-3.459-7.726-7.726s3.459-7.726 7.726-7.726h8.533c4.268 0 7.726 3.459 7.726 7.726.001 4.268-3.458 7.726-7.726 7.726z" fill="#2ed1e2"/></g><g><path d="m294.396 297.86h-8.532c-4.268 0-7.726-3.459-7.726-7.726 0-4.268 3.459-7.726 7.726-7.726h8.532c4.268 0 7.726 3.459 7.726 7.726s-3.458 7.726-7.726 7.726z" fill="#2ed1e2"/></g><g><path d="m260.267 297.86h-8.533c-4.267 0-7.726-3.459-7.726-7.726 0-4.268 3.459-7.726 7.726-7.726h8.533c4.268 0 7.726 3.459 7.726 7.726.001 4.267-3.458 7.726-7.726 7.726z" fill="#2ed1e2"/></g><g><g><path d="m119.5 204.094c-4.268 0-7.726-3.459-7.726-7.726v-8.531c0-4.267 3.459-7.726 7.726-7.726 4.268 0 7.726 3.459 7.726 7.726v8.531c.001 4.266-3.458 7.726-7.726 7.726z" fill="#485c63"/></g><g><path d="m187.767 204.094c-4.268 0-7.726-3.459-7.726-7.726v-8.531c0-4.267 3.459-7.726 7.726-7.726s7.726 3.459 7.726 7.726v8.531c0 4.266-3.459 7.726-7.726 7.726z" fill="#485c63"/></g><g><path d="m153.634 246.749c-8.809 0-17.031-4.744-21.46-12.382-2.141-3.691-.883-8.419 2.809-10.559 3.689-2.138 8.42-.883 10.559 2.809 1.674 2.886 4.775 4.68 8.092 4.68s6.418-1.793 8.091-4.68c2.14-3.692 6.868-4.947 10.559-2.809 3.692 2.14 4.95 6.868 2.809 10.559-4.428 7.638-12.65 12.382-21.459 12.382z" fill="#ffb09e"/></g></g><g fill="#8bc727"><path d="m59.767 512v-76.8c0-4.267 3.459-7.726 7.726-7.726s7.726 3.459 7.726 7.726v76.8z"/><path d="m247.461 512v-76.8c0-4.267-3.459-7.726-7.726-7.726s-7.726 3.459-7.726 7.726v76.8z"/></g></g></svg>