<svg viewBox="0 0 2000 2000" xmlns="http://www.w3.org/2000/svg"><g id="Marketing_planning" data-name="Marketing planning"><path d="m586.75 1385.2s-120.59-73.77-202.29 0-129.87 45.5-129.87 45.5 14.4 38.22 50.41 54.15c-33.26-1.47-83.79 11.61-115.35 92.48-50.28 128.84-117.31 115.22-117.31 115.22s66 63.89 119.4 35.61 103.82-41.9 137.8-37.71c0 0-54 7.93-51.91 99.28 0 0 27.23-71 92.17-61.57s125.69-60.75 125.69-60.75l-37.71 96.36s54.47 4.62 88-61.58 106.07 2.93 144.16-66.2-103.19-250.79-103.19-250.79z" fill="#ff9100"/><path d="m367.11 1712.47c-1.11-48.46 19-66.4 31.27-72.83-30.14 0-65.92 14.43-92.55 28.53-40.74 21.58-89.53-25-91.59-27a2 2 0 0 1 1.78-3.39c.48.08 49 8.46 85.45-84.9 21.28-54.54 53.86-69 80-70.38-22.06-13.38-31.08-36.73-31.49-37.82a2 2 0 0 1 2.88-2.43c.09 0 8.92 5 24.81 3.37 14.82-1.51 39-9.19 69.94-37.14 25.48-23 60.15-30.31 100.3-21.15 26.83 6.13 52.58 19.78 53.84 21.41 4.35 5.58 106.09 137.44 77.31 189.68-29.19 53-83.46 1.46-107.74 49.43-13.22 26.12-30.86 37.54-43.32 42.53-13.6 5.44-24 4.64-24.41 4.6a2 2 0 0 1 -1.53-.94c-.8-1.29-2.06 3.06 24.34-64.4-14.74 14.43-50.42 44.26-88.7 38.7-46.35-6.73-66.56 44.25-66.75 44.77a2 2 0 0 1 -3.84-.64zm41.05-76.24a2 2 0 0 1 0 4c-1.5.23-35.26 6.07-37.07 63.48 8.17-14.88 29.49-44.73 67.16-39.25 46.9 6.8 91.72-44.23 92.17-44.74a2 2 0 0 1 3.37 2l-27.14 69.37c9.39-.21 40.39-4.13 61.08-45 25.7-50.74 80.18.6 107.81-49.55 26.89-48.81-71.28-177.89-76.74-185-5.82-3.43-91-52-148.53 0-49.28 44.49-82.49 40.23-94.5 36.33 4.21 8.38 15.09 26.24 34.56 34.85a2 2 0 0 1 -.89 3.83c-25.89-1.13-61.59 9.7-84.29 67.87-30.54 78.25-69.13 87.36-83.9 87.75 12.67 10.68 51.11 39.22 82.66 22.51 28.95-15.34 71.82-32.47 104.25-28.45z" fill="#570b7f"/><path d="m1012.51 692.73s146.9-36.67 226.85-91.27l137.91-168.46 55 36s-77 185.88-144.92 245.84-227.85 115.93-227.85 115.93-68.85-74.87-47-138" fill="#ff83df"/><path d="m926.64 988.09c-15.45 12.32-45.28 39.94-55.23 83.32-7.12 31-1.26 57.68 6.79 83.55 27.22 87.46 79.18 164.44 113.9 210.23l-296.41 227 104.89 154.51c323.27-171.29 390.49-302.14 387.56-392.4-2.47-76.23-58.82-241.5-58.82-241.51.4.03.19.15-202.68-124.7z" fill="#570b7f"/><path d="m957.58 686.72a2300.16 2300.16 0 0 1 -245.88 335.84 274.27 274.27 0 0 0 70 64c117.33 74.22 253.53 30.89 279.81 22a666 666 0 0 0 43.88-361.76l-92.84-54z" fill="#e524ff"/><path d="m1373.73 447.28s-4.34-55 5.79-71.18 23.72-8.68 23.72-8.68 16.63-46.87 29-49.18-4.12 52.08-4.12 52.08 19.39-7.81 15.05 19.09c0 0 17.07-10.41 13.31 14.47 0 0 13.31-7.52 11 14.47s-27.56 65.67-47.2 63.07-46.55-34.14-46.55-34.14z" fill="#ff83df"/><path d="m1404.56 432.23c8.61-22.48-8.41-35.29-8.58-35.42a2 2 0 0 1 2.28-3.29c5.86 3.83 25.94 15 28.27 8.52 2.4-6.64-13.81-23.83-24.59-33.1a2 2 0 0 1 2.61-3c3.06 2.64 29.85 26.11 25.75 37.49-3.06 8.45-16.12 3.28-24.15-.76 4.13 6.84 7.37 17.38 2.14 31a2 2 0 0 1 -3.73-1.44z" fill="#570b7f"/><path d="m1418.52 383.74 7.85-14.38a2 2 0 1 1 3.51 1.92l-7.88 14.37a2 2 0 0 1 -3.48-1.91z" fill="#570b7f"/><path d="m1446.05 442.68a5.92 5.92 0 0 1 -5.81-4.25c-.91-2.81-.32-6.92.93-11.24-2.87 2.12-6.12 3.12-9.63 1.81-5.49-2.05-4.44-9.09-2.72-14.73-2.81 2.62-5.72 4.38-8.51 4.44-8.22.25-9.64-7.44-6.49-15a2 2 0 1 1 3.69 1.54c-.61 1.47-2 6.15-.6 8.24.21.31.76 1.27 3.32 1.19 4-.08 9.54-6.67 14.3-14 3.11-6.14 6.21-11.17 6.94-12.33a2 2 0 0 1 3.5 1.94 127.55 127.55 0 0 1 -6.91 12.3c-2.32 4.62-10 20.84-5.12 22.66 4.5 1.67 9.24-3.95 12.62-9.6 1.92-4.23 3.68-7.5 4.15-8.35a2 2 0 0 1 3.61 1.7 65.05 65.05 0 0 1 -4.37 8.89c-3.29 7.42-6.07 15.71-4.91 19.32.47 1.43 1.78 1.77 3.17 1.23 5-2 10.68-13.55 12.43-17.86a2 2 0 1 1 3.7 1.51c-2.82 6.91-9.83 20.59-17.29 20.59z" fill="#570b7f"/><path d="m1830.09 913.27c3.89-22.81 3.54-46.25-6.28-64.75-33.34-65.56-169.46-59.87-256.51-131.28-35-29.22-55.53-63-54.63-108.71 2.85-103.65 123.74-217.76 214.15-265.11a20 20 0 1 1 18.3 35.57c-63.23 32.08-125.44 87-161.27 137.64-25.33 35.81-46.85 82.19-33.72 124.09 12.26 41.42 57.71 70.87 97 88.37 97.19 43.22 233.77 51 206.26 188.62-15.46 73.88-73.81 135.46-134 181.56-40.76 31-87 58.46-128.13 77.54a4 4 0 0 1 -3.56-7.16c95.81-50.99 224.05-150.05 242.39-256.38z" fill="#00e4e0"/><path d="m1683.35 340.19c-6-8.09-2.33-18.75 6.7-19.2l87-4.28c9-.44 16.59 9.67 13.61 18.2-.18.52-29.88 85.71-28.69 82.28-3 8.53-14.25 9.09-20.3 1z" fill="#00e4e0"/><path d="m1539.42 955.59a91.93 91.93 0 1 1 91.92-91.93 92 92 0 0 1 -91.92 91.93zm0-155.85a63.93 63.93 0 1 0 63.92 63.92 64 64 0 0 0 -63.92-63.92z" fill="#570b7f"/><path d="m1861.88 617.58a14 14 0 0 1 -9.9-4.1l-112.98-112.94a14 14 0 0 1 19.8-19.81l113 112.95c8.84 8.86 2.42 23.9-9.92 23.9z" fill="#570b7f"/><path d="m1748.93 617.58c-12.34 0-18.76-15-9.9-23.9l113-112.95a14 14 0 0 1 19.8 19.81l-113 112.94a14 14 0 0 1 -9.9 4.1z" fill="#570b7f"/><path d="m1752 180.7 86.45 132.85 83.82-124.65s-33.11-30.41-83.82-31.47-86.45 23.27-86.45 23.27z" fill="#ff9100"/><circle cx="1838.46" cy="157.43" fill="#ff9100" r="89.52"/><circle cx="1838.46" cy="157.43" fill="#f7e00b" r="56.45"/><path d="m1002.89 1826.11-120.35 99.19a29.54 29.54 0 0 1 -40.53-2.68 1252.38 1252.38 0 0 1 -231.44-357.33c-.23-.4.53-.78 64.86-81.81a29.57 29.57 0 0 1 48.2 2.64c76 120.17 171.1 217.74 277.66 293.12a29.51 29.51 0 0 1 1.6 46.87z" fill="#00c1d7"/><path d="m1525.74 1499.81-921.02 108.49-69.49-188.72 771.43-514.73z" fill="#f7e00b"/><path d="m773.37 1588.43-127.55 32.2c-36.74 10.89-74.49-5-85.58-35.13l-43.44-118c-12.33-33.48 8.2-74.16 47.35-91.52l109.09-48.36q50.07 130.38 100.13 260.81z" fill="#00c1d7"/><ellipse cx="1415.89" cy="1201.46" fill="#00c1d7" rx="55.21" ry="316.08" transform="matrix(.938 -.346 .346 .938 -327.95 563.26)"/><path d="m1398.45 1315.89a2 2 0 0 1 -1.33-3.49l51.54-46-49.49-125.75-59.05 11.28a2 2 0 1 1 -.75-3.93l60.68-11.59a2 2 0 0 1 2.23 1.24l50.61 128.58a2 2 0 0 1 -.52 2.23c-56.04 50.01-52.76 47.43-53.92 47.43z" fill="#570b7f"/><ellipse cx="1427.61" cy="1202.91" fill="#f7e00b" rx="20.27" ry="74.71" transform="matrix(.938 -.346 .346 .938 -327.72 567.4)"/><path d="m548.21 1477.93a8.48 8.48 0 0 1 -8-5.57l-7.5-20.35a8.49 8.49 0 0 1 5-10.9l84.63-31.11a8.49 8.49 0 0 1 10.9 5l7.5 20.36a8.49 8.49 0 0 1 -5 10.9c-92.54 34.07-85.37 31.67-87.53 31.67zm77.06-64.48c-1.18 0 4.78-2.06-86.1 31.41a4.48 4.48 0 0 0 -2.67 5.76l7.5 20.38a4.49 4.49 0 0 0 5.77 2.66c91.08-33.54 84.15-31.13 84.55-31.13a4.5 4.5 0 0 0 2.67-5.77l-7.5-20.36a4.5 4.5 0 0 0 -4.22-2.95z" fill="#570b7f"/><path d="m565.9 1525.94a8.5 8.5 0 0 1 -8-5.56l-7.5-20.35a8.5 8.5 0 0 1 5-10.91l84.6-31.12a8.51 8.51 0 0 1 10.91 5l7.49 20.35a8.49 8.49 0 0 1 -5 10.91c-91.87 33.84-85.32 31.68-87.5 31.68zm77.1-64.48c-1.18 0 4.77-2-86.11 31.42a4.47 4.47 0 0 0 -2.66 5.76l7.49 20.36a4.5 4.5 0 0 0 5.77 2.66c91.08-33.54 84.15-31.14 84.55-31.14a4.48 4.48 0 0 0 2.67-5.76l-7.5-20.36a4.48 4.48 0 0 0 -4.21-2.94z" fill="#570b7f"/><path d="m575.61 1568.4-7.5-20.36a8.48 8.48 0 0 1 5-10.9l84.6-31.14a8.51 8.51 0 0 1 10.9 5l7.49 20.35a8.48 8.48 0 0 1 -5 10.9c.4 0-3.24 1.2-84.56 31.14a8.48 8.48 0 0 1 -10.93-4.99zm85-58.92c-1.18 0 4.77-2-86.11 31.41a4.49 4.49 0 0 0 -2.66 5.77l7.49 20.36a4.51 4.51 0 0 0 5.77 2.66l84.56-31.14a4.48 4.48 0 0 0 2.66-5.76l-7.5-20.36a4.49 4.49 0 0 0 -4.18-2.94z" fill="#570b7f"/><path d="m957.58 686.72c1 1.62 9.28 14.45 25.76 16.38 16.77 1.95 27.89-9.05 29.17-10.37l-3-71.49-33.51-3.67z" fill="#ff83df"/><path d="m974.86 629.82.27-9 34.51 3.78q.72 17.22 1.45 34.43a30.57 30.57 0 0 1 -16.58-1.77c-16.36-6.76-19.46-26.09-19.65-27.44z" fill="#ff59cf"/><circle cx="998.3" cy="586.94" fill="#ff83df" r="40.03"/><path d="m1038.29 586.73c-.15 7.72-.4 14.35-.65 19.56-.7 15-1.36 18.93-3.24 23.36-1.22 2.87-3.58 8.43-8.52 12.42-11.73 9.46-31.68 5-43.84-2.68-13.17-8.35-18.33-21.22-20.12-26.6 0 0-1-3.33-3.6-25.59 47.99-.32 29.62-.2 79.97-.47z" fill="#ff83df"/><path d="m689.93 1636-108.19 67.26a531.86 531.86 0 0 0 28.55 208.84 13.81 13.81 0 0 0 20 7.54c12.28-7.17 26.16-18 36.36-34.3 25.88-41.31 4.6-80 29.32-121.9 8.11-13.74 24.28-33.09 60.18-47.84z" fill="#8f00cd"/><path d="m711.7 1022.56c-12.17 15.58-34.77 49.36-34.37 93.87.28 31.79 12.17 56.4 26 79.69 46.79 78.75 115.21 141.55 159.62 178l-235.56 289.69 137.91 125.92c274.64-241.73 309.63-384.58 285.82-471.73-20.12-73.57-113.31-221.23-113.32-221.23.41.04-2.29-.72-226.1-74.21z" fill="#570b7f"/><g fill="#e524ff"><path d="m974.19 1135.47-3.12.1z"/><path d="m970.79 1135.57-3.15.1z"/><path d=""/><path d="m975 1135.45h-.84z"/><path d="m975.52 1135.43h-.49z"/><path d=""/><path d="m1030.49 1008.59-63.72-103.74-159.15-46s-59.34 98.83-95.92 129.28-16 58.71-16 58.71 11-28.78 77.68 14.16 151.26 76 187 74.93l63.11-42.1z"/><path d=""/><path d="m964.37 1135.77-3.62.11z"/><path d="m967.64 1135.67-2.93.09z"/><path d=""/></g><path d="m957.58 686.72c-45.27 12.86-250.79 74.95-280.17 202.55-2.23 9.7-4.22 18.7-3.08 30.87 11.18 119.72 292.43 195.1 292.44 195.1.4 0-5.25 3.76 56.73-40.71l-193.32-177.53a539.39 539.39 0 0 0 64.44-38c34.3-23.53 50.82-35.72 63-54.34 31.9-48.93-.04-117.94-.04-117.94z" fill="#ff83df"/><path d="m957.58 686.72s-108.06 16-201.28 79.92c0 0 50.27 90.07 130.92 127.78 0 0 75.73-29.85 97.83-80.65s1-98.04-27.47-127.05z" fill="#e524ff"/><path d="m1161.82 642.4c-57.82 28.6-168.82 48.19-168.82 48.19l51.46 153.56c81.87-1.54 175.79-66 175.79-66-.09-60.74-58.43-135.75-58.43-135.75z" fill="#e524ff"/><path d="m1012.51 686.72s-27-34.88-54.93 0c0 0 9.36 33.31 40.72 44.57 0 0 15.63-16.93 14.21-44.57z" fill="#ff83df"/><path d="m964.58 660.45s-11.11-4.05-19.49 8-14.62 15.2-13.86 23.55 42.4 73.83 51.57 75.93 15.5-36.66 15.5-36.66c-19.7-9.69-32.65-27.06-38.29-47.64q2.3-11.63 4.57-23.18z" fill="#8f00cd"/><path d="m1011.34 665-1.08 19.13a85.56 85.56 0 0 1 -12 47.12s26.19 23.56 32.19 16.49 0-32.31 5.47-46.53 2.33-20 2.33-20-12.06-10-14.79-16.25-12.12.04-12.12.04z" fill="#8f00cd"/><path d="m971.5 602.49s11.82-3.18 10-24.39 12.76-16.76 12.76-16.76 14.47-10.73 20.76 9.95 53.15 10 53.94-33-64.42-61-80.65-51.85 4.9 33-16.8 34-24.32 12.8-22.51 26.46-21.73 5-25.14 32.77 44.76 65.53 44.76 65.53 18.03-16.75 2.88-42.71z" fill="#570b7f"/><ellipse cx="966.1" cy="601.46" fill="#ff83df" rx="14.25" ry="18.53" transform="matrix(.927 -.376 .376 .927 -155.31 407.7)"/><path d="m970.62 612.39c-4.19 0-8.34-5.9-7.16-9.62a4.45 4.45 0 0 1 4.55-3.13c-.92-1.71-3.58-6.07-4.88-4.61-.7.79-.83 3-.69 4.23a2 2 0 1 1 -4 .45c-1.18-10.25 8.72-14.36 14.91 2.08a2 2 0 0 1 -2.73 2.51 5.35 5.35 0 0 0 -3.2-.57c-.46 1.15 1 3.84 2.69 4.55.41.16.73.3 1.23-.64a2 2 0 0 1 2.7-.83c2.72 1.42-.17 5.58-3.42 5.58z" fill="#570b7f"/><path d="m613.55 1834c10.87-15.62 8.8-35.29-5.38-49.76s-12.17-22.24 6.36-42.24 12.86-67.15 12.86-67.15l-45.47 23.93a14.2 14.2 0 0 0 -7.54 10.59c-11.28 83.84 24.48 178.11 37.08 208a18.24 18.24 0 0 0 20.73 10.93c16.6-3.88 19.65-24.87 19.65-24.87-32.72-7.82-49.17-53.78-38.29-69.43z" fill="#e524ff"/><path d="m682.21 1712.43s-21.67 21.49-24.28 51 24.28 44.57 24.28 44.57 6.58-40.35 36-61.26z" fill="#e524ff"/><path d="m885.43 1676.87a2 2 0 0 1 -1.53-3.29l90.1-107.46a2 2 0 1 1 3.07 2.57c-96.31 114.87-90.2 108.18-91.64 108.18z" fill="#fff3ff"/><path d="m859.09 879.62c.93-.35 92.75-36.46 99.09-94.1a2 2 0 0 1 4 .44c-2.75 24.94-21.25 49.72-53.5 71.64a270.18 270.18 0 0 1 -48.13 25.76 2 2 0 0 1 -1.46-3.74z" fill="#570b7f"/><path d="m1110.25 829.55a2 2 0 0 1 -2-1.91c-2.48-52.55-30.37-109-30.65-109.52a2 2 0 1 1 3.57-1.79c.29.57 28.56 57.71 31.07 111.13a2 2 0 0 1 -1.99 2.09z" fill="#570b7f"/><path d="m1057.29 1051.68c-16.58-2.89-48.69 15.63-48.69 15.63l-48.21 34.14s8 30.31 24.48 34 33.56-3.29 41.67-3.29 32.69 22 38.77 13.88-22.57-30.76-22.57-30.76 35 25.56 41.66 16.88-27.11-30.67-27.11-30.67 36.08 23.24 42.16 13.79-38.19-35.2-38.19-35.2 44.28 24 52.23 13.31-39.62-38.81-56.2-41.71z" fill="#ff83df"/><path d="m1066.16 1108.72a2 2 0 0 1 -1.39-.56c-.14-.14-14.55-13.79-27.28-13.11a2 2 0 1 1 -.21-4c14.58-.76 29.64 13.61 30.27 14.23a2 2 0 0 1 -1.39 3.44z" fill="#570b7f"/><path d="m1070.85 1086.85a2 2 0 0 1 -1.38-.55c-.12-.12-12.51-11.77-23.66-9.68a2 2 0 0 1 -.74-3.93c13.22-2.45 26.6 10.18 27.17 10.71a2 2 0 0 1 -1.39 3.45z" fill="#570b7f"/><path d="m1046.08 1120.62c-.08-.09-7.8-9.26-17-6.09a2 2 0 0 1 -1.31-3.79c11.8-4.06 21 6.87 21.35 7.33a2 2 0 0 1 -3.04 2.55z" fill="#570b7f"/><path d="m760.77 899.12c32.63-13.07 68.38-4.44 69.89-4.07a2 2 0 1 1 -1 3.88c-.36-.08-36-8.67-67.44 3.91a2 2 0 0 1 -1.45-3.72z" fill="#570b7f"/><ellipse cx="1024.24" cy="622.33" fill="#570b7f" rx="5.49" ry="9.49"/><path d="m863 1376.15a2 2 0 0 1 -1.41-3.42c1.68-1.67 41.53-40.86 80.1-47a2 2 0 1 1 .63 3.94c-37.3 6-77.51 45.55-77.92 46a2 2 0 0 1 -1.4.48z" fill="#fff3ff"/></g></svg>