<?xml version="1.0" encoding="UTF-8"?>
<!-- Generator: Adobe Illustrator 26.0.1, SVG Export Plug-In . SVG Version: 6.00 Build 0)  -->
<svg xmlns="http://www.w3.org/2000/svg" xmlns:xlink="http://www.w3.org/1999/xlink" version="1.1" id="Capa_1" x="0px" y="0px" viewBox="0 0 512 512" style="enable-background:new 0 0 512 512;" xml:space="preserve" width="512" height="512">
<g>
	<path style="fill:#FFFFFF;" d="M14.91,501.849c-8.234,0-14.91-6.676-14.91-14.91V266.151c0-46.478,12.57-91.96,36.35-131.53v0.001   c0.194-0.343,0.4-0.688,0.612-1.027c0.107-0.184,0.238-0.399,0.388-0.633c1.762-2.899,3.543-5.706,5.29-8.342   c6.965-10.474,14.783-20.535,23.248-29.925c11.342-12.563,23.92-24.004,37.391-34.015c3.363-2.522,6.904-5.018,10.481-7.385   c0.354-0.252,0.825-0.579,1.393-0.924c41.844-27.622,90.538-42.22,140.849-42.22c58.6,0,115.543,20.187,160.976,56.95h54.155   c8.234,0,14.91,6.676,14.91,14.91v71.7C503.269,188.863,512,226.673,512,266.151v220.788c0,8.234-6.676,14.91-14.91,14.91H14.91z"/>
	<g>
		<g>
			<path style="fill:#AE85A6;" d="M497.091,266.151v63.29l-15.282,66.095l15.282,85.537v5.866H14.91V266.151     c0-45.301,12.474-87.669,34.218-123.85c0.025-0.075,4.404-0.197,4.553-0.396c0.025-0.05,1.386-9.047,1.386-9.047     c6.61-9.94,13.941-19.358,21.892-28.18c10.66-11.804,22.439-22.539,35.212-32.031c3.28-2.46,6.635-4.821,10.064-7.082     c0.273-0.199,0.547-0.398,0.82-0.547c38.119-25.247,83.817-39.958,132.945-39.958c66.572,0,126.857,26.987,170.468,70.597     C470.104,139.294,497.091,199.554,497.091,266.151z"/>
		</g>
		<g>
			<g>
				<g>
					<path style="fill:#FFE8D1;" d="M192.833,252.21L55.39,256.509h-0.323l-2.361-0.671l-0.646-0.174l-2.46-0.696V141.506       c0.124-0.199,0.224-0.398,0.373-0.596c0.025-0.05,0.05-0.124,0.099-0.174c1.615-2.659,3.28-5.293,4.995-7.877       c25.148-0.919,128.447-2.634,128.447-2.634L192.833,252.21z"/>
				</g>
				<g>
					<g>
						<g>
							<path style="fill:#5A2250;" d="M182.918,227.585v-0.025l-0.124-1.168l-1.715-14.711l-0.149-1.193l-1.69-14.711l-0.149-1.193         l-1.715-14.711l-0.124-1.193l-1.889-16.202c-0.075-0.273-0.273-0.497-0.572-0.472c0,0-27.981,0.845-55.986,1.739         c-2.535,0.124-4.97,0.199-7.306,0.273h-0.199c-0.025,0-0.05,0-0.05,0c-6.262,0.199-11.704,0.398-16.475,0.547h-0.025         c-0.224,0-0.422,0-0.646,0.05h-0.025c-0.025-0.025-0.025,0-0.025,0c-6.685,0.199-11.928,0.398-16.103,0.572l-0.944,0.025         h-0.025c-14.612,0.596-14.711,0.77-14.81,1.093c-0.025,0.075-0.05,0.149-0.05,0.224l0.422,15.332l0.05,1.168v0.025         l0.398,14.736l0.025,1.193l0.398,14.761l0.05,1.193l0.398,14.736l0.05,1.193l0.447,16.749         c0.025,0.323,0.298,0.546,0.572,0.546l14.313-0.397l1.019-0.025h0.025l15.929-0.472h0.025l0.994-0.025h0.025l15.904-0.422         h0.025l1.019-0.025h0.025l15.904-0.447l1.044-0.025l15.929-0.447l1.019-0.025h0.025l19.383-0.546h0.398         c0.025,0,0.05,0,0.05,0l16.376-0.472c0.174,0,0.298-0.05,0.398-0.174c0.099-0.124,0.149-0.273,0.124-0.423L182.918,227.585z          M168.282,244.184l-1.168,0.049l-18.935,0.522h-0.025l-1.168,0.025l-15.755,0.422l-1.193,0.05l-15.779,0.422l-1.168,0.05         h-0.025l-15.779,0.422l-1.168,0.025h-0.025l-15.779,0.447l-1.168,0.05l-13.717,0.372l-0.422-16.202l-0.05-1.193         l-0.422-14.736l-0.025-1.193l-0.398-14.761l-0.025-1.193l-0.422-14.736v-0.025l-0.025-1.168l-0.422-14.885         c1.466-0.124,6.461-0.373,13.717-0.646c0.373,0,0.77-0.025,1.168-0.049c4.572-0.174,9.89-0.373,15.779-0.547         c0.398-0.05,0.795-0.05,1.193-0.05c4.945-0.174,10.263-0.372,15.779-0.546l1.168-0.025h0.025         c5.169-0.174,10.437-0.348,15.73-0.522h0.025l1.168-0.025h0.025c4.597-0.149,9.194-0.298,13.717-0.448l1.193-0.025         c5.517-0.174,10.884-0.348,15.978-0.497l1.193-0.05c4.721-0.149,9.194-0.298,13.245-0.422l1.814,15.605l0.149,1.193         l1.715,14.711l0.149,1.193l1.69,14.711l0.149,1.193l1.715,14.711l0.124,1.168l1.889,16.177L168.282,244.184z"/>
						</g>
					</g>
					<g>
						<g>
							<path style="fill:#5A2250;" d="M79.774,248.058c-0.326,0.009-0.599-0.249-0.608-0.575L76.9,165.545         c-0.009-0.326,0.249-0.599,0.575-0.608c0.326-0.009,0.599,0.249,0.608,0.575l2.267,81.938         C80.359,247.776,80.101,248.049,79.774,248.058z"/>
						</g>
					</g>
					<g>
						<g>
							<path style="fill:#5A2250;" d="M96.74,247.589c-0.326,0.009-0.599-0.249-0.608-0.575l-2.267-81.938         c-0.009-0.326,0.249-0.599,0.575-0.608c0.326-0.009,0.599,0.249,0.608,0.575l2.267,81.938         C97.324,247.307,97.066,247.58,96.74,247.589z"/>
						</g>
					</g>
					<g>
						<g>
							<path style="fill:#5A2250;" d="M113.705,247.119c-0.326,0.009-0.599-0.249-0.608-0.575l-2.267-81.938         c-0.009-0.326,0.249-0.599,0.575-0.608c0.326-0.009,0.599,0.249,0.608,0.575l2.267,81.938         C114.289,246.838,114.032,247.11,113.705,247.119z"/>
						</g>
					</g>
					<g>
						<g>
							<path style="fill:#5A2250;" d="M130.671,246.65c-0.326,0.009-0.599-0.249-0.608-0.575l-2.267-81.938         c-0.009-0.326,0.249-0.599,0.575-0.608c0.326-0.009,0.599,0.249,0.608,0.575l2.267,81.938         C131.255,246.368,130.997,246.641,130.671,246.65z"/>
						</g>
					</g>
					<g>
						<g>
							<path style="fill:#5A2250;" d="M147.636,246.181c-0.32,0.009-0.59-0.24-0.608-0.56l-4.312-81.695         c-0.018-0.326,0.234-0.605,0.56-0.622c0.005,0,0.011,0,0.015,0c0.32-0.009,0.59,0.24,0.607,0.56l4.312,81.695         c0.017,0.326-0.234,0.605-0.56,0.622C147.646,246.18,147.64,246.181,147.636,246.181z"/>
						</g>
					</g>
					<g>
						<g>
							<path style="fill:#5A2250;" d="M167.762,245.344c-0.309,0.009-0.577-0.226-0.605-0.539l-7.293-81.518         c-0.029-0.326,0.211-0.613,0.537-0.642c0.319-0.026,0.614,0.211,0.642,0.537l7.293,81.518         c0.029,0.326-0.211,0.613-0.537,0.642C167.787,245.343,167.775,245.343,167.762,245.344z"/>
						</g>
					</g>
					<g>
						<g>
							<polygon style="fill:#5A2250;" points="177.372,179.861 62.584,183.037 62.552,181.854 177.251,178.681        "/>
						</g>
					</g>
					<g>
						<g>
							<polygon style="fill:#5A2250;" points="179.237,195.77 63.026,198.984 62.993,197.801 179.095,194.59        "/>
						</g>
					</g>
					<g>
						<g>
							<polygon style="fill:#5A2250;" points="181.08,211.678 63.467,214.932 63.434,213.749 180.938,210.499        "/>
						</g>
					</g>
					<g>
						<g>
							<polygon style="fill:#5A2250;" points="182.923,227.565 63.907,230.857 63.874,229.675 182.802,226.385        "/>
						</g>
					</g>
				</g>
				<g>
					<path style="fill:#5A2250;" d="M122.806,143.989c0,2.704-2.192,4.896-4.896,4.896c-2.704,0-4.896-2.192-4.896-4.896       c0-2.704,2.192-4.896,4.896-4.896C120.614,139.093,122.806,141.285,122.806,143.989z"/>
				</g>
			</g>
			<g>
				<path style="fill:#FF9FC6;" d="M55.39,256.509v0.075l-0.323-0.075l-2.361-0.671l-0.646-0.174l-2.46-0.696l-1.764-0.596      l-0.621-0.223l-2.435-0.845l4.249-106.132l0.224-5.069c0.099-0.199,0.224-0.397,0.348-0.596      c0.124-0.199,0.224-0.398,0.373-0.596l0.199,4.647L55.39,256.509z"/>
			</g>
			<g>
				<path style="fill:#5A2250;" d="M52.707,255.839v0.422l-0.621,0.025l-0.025-0.621l-2.41-106.828l-0.05,2.907l-1.764,102.629      v0.224l-0.621-0.025v-0.422l1.814-106.977l0.099-4.87c0.025-0.075,0.075-0.149,0.124-0.199c0.099-0.199,0.224-0.397,0.348-0.596      c0.124-0.199,0.224-0.398,0.373-0.596c0.025-0.05,0.05-0.124,0.099-0.174l0.099,4.821L52.707,255.839z"/>
			</g>
		</g>
		<polygon style="opacity:0.45;fill:#5A2250;" points="497.091,392.884 484.529,421.488 497.091,481.073 497.091,486.939     14.91,486.939 14.91,392.884   "/>
		<path style="fill:#FFE8D1;" d="M25.108,463.107l53.717-58.793l90.939,0.423l-46.527,58.37    C123.237,463.107,25.108,461.839,25.108,463.107z"/>
		<g>
			<g>
				<path style="fill:#FFB05C;" d="M203.601,239.568c0,0-20.303,8.671-31.3,25.59c-10.997,16.919-57.524,75.289-57.524,75.289      s-32.78,30.666-34.261,37.856c-0.857,4.164,2.961,7.402,2.961,7.402l-3.384,4.23c0,0,20.303,7.19,22.84,16.496l5.922-2.115      c0,0,6.344,2.538,10.997,1.692c4.653-0.846,38.913-22.418,54.14-39.336C189.22,349.751,203.601,239.568,203.601,239.568z"/>
				<path style="fill:#FF8D9E;" d="M80.094,389.934c0,0-6.979,1.269-18.188,4.23c-11.209,2.961-21.994,9.094-22.629,12.477      c-0.635,3.384-0.212,5.922-0.212,5.922s-5.076,2.326-5.71,4.864c-0.634,2.538,0.634,9.094,0.634,9.094s-4.441,3.172-4.441,6.133      s5.498,12.266,14.169,13.112s10.363,0.211,10.363-3.595c0,0,1.48,0.423,3.172-1.903c1.692-2.326,0.423-5.287,0.423-5.287      s2.538,3.384,5.71,0.211c0,0,4.23,6.133,8.248,2.961c4.018-3.172,6.556-13.958,10.151-16.707      c3.467-2.651,20.11-11.792,24.328-18.32c0.156-0.242,0.295-0.48,0.416-0.714C109.913,395.855,87.919,385.492,80.094,389.934z"/>
			</g>
			<g>
				<path style="fill:#5A2250;" d="M69.562,439.27c-0.807,0-1.644-0.182-2.504-0.544c-1.718-0.726-3.634-4.375-0.437-27.611      c0.067-0.48,0.116-0.845,0.143-1.06c-0.671-0.209-3.059-0.012-5.477,0.473c-0.322,0.058-0.662-0.15-0.73-0.488      c-0.067-0.335,0.15-0.662,0.488-0.73c2.077-0.415,5.706-0.985,6.656-0.138c0.234,0.209,0.348,0.493,0.323,0.798      c-0.012,0.148-0.075,0.609-0.172,1.315c-3.101,22.544-1.251,25.9-0.311,26.296c1.275,0.536,2.47,0.582,3.551,0.143      c1.939-0.798,3.065-2.939,3.564-4.145l0.262-0.636c2.455-5.97,5.004-11.624,7.024-12.587      c2.393-1.141,21.725-12.512,24.011-18.178c0.129-0.32,0.49-0.476,0.809-0.342c0.318,0.126,0.472,0.49,0.343,0.808      c-2.597,6.436-22.993,18.055-24.63,18.834c-1.866,0.888-5.166,8.918-6.409,11.939l-0.263,0.638      c-0.573,1.383-1.884,3.849-4.239,4.817C70.921,439.136,70.253,439.27,69.562,439.27z"/>
				<path style="fill:#5A2250;" d="M60.601,436.976c-2.819,0-5.722-2.73-8.353-5.205c-0.599-0.563-1.185-1.114-1.75-1.611      c-3.718-3.283-9.561-11.194-11.048-14.487c-1.57-3.477-2.152-5.057-0.763-9.229c1.764-5.29,15.027-10.525,15.592-10.743      c0.318-0.124,0.681,0.034,0.804,0.352c0.125,0.32-0.033,0.68-0.353,0.803c-0.132,0.053-13.283,5.239-14.864,9.981      c-1.292,3.878-0.704,5.179,0.717,8.326c1.422,3.15,7.216,10.957,10.737,14.065c0.573,0.507,1.168,1.065,1.779,1.638      c3.047,2.866,6.5,6.108,9.206,4.334c2.429-1.597,0.869-12.371-0.686-18.79c-0.08-0.332,0.125-0.67,0.457-0.75      c0.347-0.083,0.671,0.126,0.751,0.459c0.432,1.786,4.111,17.523,0.159,20.12C62.205,436.753,61.406,436.976,60.601,436.976z"/>
				<g>
					<g>
						<g>
							<g>
								<polygon style="fill:#BACDE5;" points="63.393,441.724 63.384,441.715 46.085,354.384 47.31,354.02 47.91,353.839           49.033,353.505 50.267,353.14 50.859,352.97 52.427,352.501 69.727,439.842 69.718,439.842 68.184,440.298 67.541,440.493           66.332,440.846 65.236,441.177 64.593,441.363         "/>
							</g>
						</g>
						<g>
							<g>
								<g>
									<path style="fill:#5A2250;" d="M67.933,440.743c-0.18,0.048-0.35-0.065-0.392-0.25l0-0.01l-17.277-87.22l-0.002-0.057           c-0.001-0.019-0.002-0.047,0.006-0.067l0.592-0.17c0.028,0.035,0.038,0.072,0.048,0.109l17.277,87.22           C68.226,440.483,68.113,440.685,67.933,440.743z"/>
								</g>
							</g>
							<g>
								<g>
									<path style="fill:#5A2250;" d="M64.976,441.614c-0.171,0.057-0.349-0.056-0.383-0.251l-17.277-87.22           c-0.001-0.019-0.01-0.037-0.011-0.056c-0.001-0.019-0.002-0.047,0.006-0.067l0.6-0.181           c0.018,0.026,0.037,0.062,0.048,0.108l17.277,87.22l0,0.009C65.27,441.363,65.156,441.565,64.976,441.614z"/>
								</g>
							</g>
						</g>
						<g>
							<g>
								<polygon style="fill:#FF8D9E;" points="68.914,451.238 66.393,446.891 63.383,441.718 69.717,439.841 69.277,446.066                   "/>
							</g>
						</g>
						<g>
							<g>
								<path style="fill:#5A2250;" d="M68.914,451.238l-2.52-4.347c0.909-0.491,1.912-0.788,2.884-0.825L68.914,451.238z"/>
							</g>
						</g>
					</g>
					<g>
						<path style="fill:#FF8D9E;" d="M52.427,352.501c0,0-0.459,3.393-2.376,3.91c-1.917,0.517-3.966-2.027-3.966-2.027        L52.427,352.501z"/>
					</g>
				</g>
				<path style="fill:#5A2250;" d="M54.012,442.791c-4.553,0.002-16.691-9.35-18.834-12.311c-2.263-3.126-2.435-6.795-2.635-11.042      l-0.018-0.396c-0.232-4.849,5.66-6.977,5.911-7.067c0.324-0.104,0.677,0.058,0.792,0.381c0.114,0.323-0.056,0.677-0.38,0.791      c-0.052,0.019-5.271,1.912-5.084,5.836l0.019,0.396c0.198,4.215,0.356,7.545,2.401,10.372      c2.074,2.864,14.039,11.796,17.818,11.796c0.021,0,0.041,0,0.061,0c3.385-0.087,3.624-5.271,3.626-5.324      c0.015-0.34,0.325-0.607,0.644-0.597c0.342,0.015,0.61,0.301,0.598,0.643c-0.081,2.216-1.195,6.426-4.835,6.521      C54.069,442.791,54.041,442.791,54.012,442.791z"/>
				<path style="fill:#5A2250;" d="M47.942,446.943c-0.854,0-1.816-0.046-2.901-0.136c-6.904-0.575-12.602-4.596-15.63-11.034      c-2.203-4.684,1.837-8.457,4.282-9.797c0.302-0.17,0.677-0.056,0.842,0.245c0.166,0.298,0.056,0.677-0.244,0.842      c-0.246,0.136-6.012,3.385-3.757,8.18c1.666,3.541,5.78,9.59,14.61,10.326c7.702,0.648,8.018-1.199,8.326-2.978      c0.058-0.337,0.371-0.58,0.718-0.505c0.337,0.058,0.564,0.379,0.505,0.718C54.238,445.428,52.935,446.943,47.942,446.943z"/>
			</g>
		</g>
		<g>
			<path style="fill:#FFB05C;" d="M309.344,215.564c0,0,49.911,6.873,81.211,35.212c31.3,28.339,32.146,76.558,34.683,103.628     c2.538,27.07,8.46,51.179,0.846,64.714c-7.613,13.535-177.225,27.07-177.225,27.07v-50.756l-70.213-1.269     c0,0-12.922-119.846,6.768-141.272c17.976-19.562,56.361-25.907,56.361-25.907l21.254,6.45L309.344,215.564z"/>
			<path style="fill:#5A2250;" d="M365.811,387.207c-0.358,0-0.65-0.286-0.656-0.646l-1.904-100.878     c-0.006-0.363,0.283-0.662,0.646-0.67c0.342-0.064,0.663,0.283,0.669,0.646l1.904,100.878c0.006,0.362-0.283,0.663-0.646,0.67     C365.819,387.207,365.814,387.207,365.811,387.207z"/>
			<path style="fill:#5A2250;" d="M178.646,394.822c-0.322,0-0.603-0.238-0.649-0.565c-4.607-32.246-3.403-101.765-3.391-102.464     c0.007-0.359,0.3-0.646,0.658-0.646c0.004,0,0.007,0,0.012,0c0.363,0.007,0.652,0.307,0.646,0.67     c-0.013,0.698-1.216,70.111,3.377,102.256c0.051,0.359-0.198,0.692-0.557,0.743C178.709,394.819,178.677,394.822,178.646,394.822     z"/>
			<g>
				<g>
					<path style="fill:#5A2250;" d="M290.947,191.796c7.529-0.595,15.04-2.779,21.247-7.082       c6.207-4.303,11.014-10.846,12.434-18.264c1.42-7.418-0.846-15.631-6.442-20.703c3.504-5.193,5.825-11.391,5.41-17.642       c-0.415-6.251-3.913-12.472-9.581-15.141c-8.992,11.518-19.798,22.621-24.977,36.284       C283.858,162.91,286.755,177.798,290.947,191.796z"/>
					<path style="fill:#5A2250;" d="M278.325,76.136c-21.375-4.503-43.828-3.266-64.829,2.745c-6.673,1.91-13.437,4.433-18.37,9.315       c-4.933,4.882-7.573,12.67-4.678,18.977c-5.641,2.842-11.578,8.976-12.104,15.27s3.133,12.907,9.016,15.203       c-2.665,3.626-1.126,9.975,2.058,13.154c3.184,3.179,7.816,4.458,12.298,4.867c12.323,1.126,24.465-3.365,35.563-8.838       c14.6-7.199,28.796-16.759,36.882-30.886c7.076-12.363,9.337-25.603,5.152-39.219       C278.723,76.958,278.915,75.902,278.325,76.136z"/>
					<g>
						<g>
							<g>
								<g>
									<g>
										<path style="fill:#FF8D9E;" d="M203.923,155.051c0.748,8.642,2.012,18.383,4.131,26.607            c1.989,7.743,4.741,14.136,8.526,17.028c4.764,3.634,18.101,6.121,29.201,5.724l0,0l1.262,12.151l1.285,12.219            c0,0,6.427,10.244,24.663,10.003c18.237-0.24,26.9-20.883,26.9-20.883s-0.973-28.533-2.204-35.445            c10.939,1.199,22.479-5.286,24.778-16.531c1.375-6.68-0.647-14.596-6.578-18.498c-0.448-0.296-4.459-2.341-6.3-3.29            c-0.57-0.285-0.921-0.483-0.921-0.483c0.895-4.703,1.21-9.603,0.776-14.613c-2.541-29.383-28.432-51.136-57.815-48.594            c-2.479,0.214-4.891,0.599-7.254,1.137c-0.898,0.201-1.776,0.417-2.651,0.669c-4.206,1.191-8.194,2.872-11.881,4.985            c-14.082,8.008-23.991,22.18-26.411,38.536c-0.328,2.104-0.512,4.248-0.571,6.416l-0.054-0.013            C202.807,132.176,202.835,142.463,203.923,155.051z"/>
										<g>
											<path style="fill:#5A2250;" d="M205.214,132.324c-1.516,0.918-2.77,2.43-3.264,4.303             c-0.421,1.598-0.206,3.438,0.728,4.738c1.606,2.235,4.318,2.109,6.629,1.912c2.994-0.255,7.548-0.959,9.589-3.725             c1.375-1.863,1.296-4.83-0.109-6.665c-1.919-2.506-5.045-2.808-7.791-2.377             C209.109,130.806,206.973,131.259,205.214,132.324z"/>
											<path style="fill:#5A2250;" d="M247.739,128.768c1.681,0.561,3.238,1.759,4.133,3.477             c0.764,1.466,0.959,3.308,0.335,4.782c-1.073,2.534-3.746,3.01-6.044,3.328c-2.977,0.412-7.573,0.73-10.175-1.518             c-1.752-1.513-2.33-4.425-1.365-6.525c1.319-2.867,4.301-3.852,7.075-4.037             C243.605,128.147,245.789,128.117,247.739,128.768z"/>
										</g>
										<g style="opacity:0.15;">
											<path style="fill:#5A2250;" d="M244.992,167.416c0.702,8.125,7.858,14.141,15.982,13.438             c8.124-0.702,14.14-7.858,13.437-15.982c-0.703-8.124-7.858-14.14-15.982-13.438             C250.306,152.137,244.289,159.292,244.992,167.416z"/>
											<path style="fill:#5A2250;" d="M203.923,155.051c0.748,8.642,2.012,18.383,4.131,26.607             c0.263-0.005,0.525-0.028,0.787-0.05c7.472-0.646,13.007-7.228,12.36-14.701c-0.647-7.472-7.227-12.989-14.699-12.343             C205.612,154.641,204.746,154.804,203.923,155.051z"/>
										</g>
										<g>
											<path style="fill:#5A2250;" d="M241.026,148.19c0.297,2.598,2.396,4.492,4.688,4.229c2.291-0.262,3.907-2.581,3.61-5.179             c-0.297-2.598-2.396-4.492-4.687-4.23C242.345,143.273,240.728,145.592,241.026,148.19z"/>
											<path style="fill:#5A2250;" d="M210.1,149.479c0.297,2.598,2.197,4.515,4.243,4.281c2.046-0.234,3.463-2.53,3.166-5.129             c-0.297-2.598-2.197-4.514-4.243-4.28C211.22,144.585,209.802,146.881,210.1,149.479z"/>
											<g>
												<path style="fill:#5A2250;" d="M297.279,177.607c-0.354,0-0.647-0.283-0.656-0.639              c-0.22-7.681,2.112-15.36,6.565-21.622c2.095-2.948,6.533-7.963,12.699-8.424c0.34-0.038,0.677,0.244,0.704,0.607              c0.027,0.362-0.244,0.677-0.607,0.704c-5.63,0.421-9.763,5.116-11.726,7.876c-4.288,6.03-6.534,13.426-6.323,20.824              c0.011,0.363-0.275,0.665-0.638,0.675C297.291,177.607,297.285,177.607,297.279,177.607z"/>
											</g>
											<path style="fill:#5A2250;" d="M230.655,175.105c-0.502,0-1.005-0.05-1.497-0.152c-2.558-0.525-4.801-2.445-5.717-4.889             c-0.127-0.34,0.045-0.718,0.385-0.846c0.34-0.131,0.718,0.044,0.846,0.385c0.761,2.031,2.627,3.626,4.751,4.064             c2.121,0.434,4.468-0.295,5.971-1.858c0.809-0.844,1.4-1.92,1.97-2.961c0.176-0.317,0.575-0.431,0.893-0.26             c0.318,0.175,0.434,0.574,0.26,0.893c-0.612,1.114-1.245,2.267-2.174,3.237             C234.882,174.24,232.762,175.105,230.655,175.105z"/>
										</g>
										<path style="fill:#5A2250;" d="M230.171,164.819c-0.038,0-0.074-0.004-0.112-0.01c-3.078-0.527-5.589-3.27-5.842-6.382            c-0.181-2.24,0.701-4.344,1.48-6.199c0.142-0.335,0.528-0.491,0.859-0.352c0.335,0.14,0.493,0.525,0.352,0.859            c-0.72,1.718-1.537,3.666-1.381,5.585c0.203,2.491,2.29,4.772,4.753,5.193c0.358,0.062,0.598,0.4,0.538,0.758            C230.763,164.592,230.485,164.819,230.171,164.819z"/>
									</g>
								</g>
							</g>
							<path style="fill:#5A2250;" d="M245.781,204.409l1.262,12.151c2.448,0.246,7.864-0.363,15.103-2.82         c13.884-4.712,14.521-16.453,14.521-16.453C267.248,203.08,251.038,204.184,245.781,204.409z"/>
						</g>
						<path style="fill:#5A2250;" d="M308.948,143.474c-6.86,0.637-14.637,5.107-17.174,11.513        c-5.422,1.007-11.286-0.761-15.248-4.598c-3.962-3.837-5.917-9.641-5.084-15.092c-6.728,1.656-14.229,1.118-20.029-2.673        c-5.8-3.792-9.411-11.193-7.645-17.894c-6.227-0.492-12.201-3.633-16.136-8.485c-3.935-4.851-6.434-14.656-5.63-20.851        c16.955-5.508,34.345-8.514,52.165-9.004c3.966-0.109,8.029-0.076,11.764,1.263c3.735,1.34,7.134,4.228,8.07,8.084        c6.905-1.475,14.55,1.417,18.75,7.094c4.2,5.677,4.729,13.833,1.297,20.005c3.14,2.173,6.006,5.035,7.153,8.677        c1.375,4.366,0.035,9.233-2.517,13.032C316.132,138.345,312.602,140.717,308.948,143.474z"/>
					</g>
				</g>
				<polygon style="fill:#FFE8D1;" points="247.273,217.467 263.346,231.743 298.876,198.116 309.344,215.564 276.987,263.148       262.711,235.232 253.512,262.514 241.775,226.984     "/>
			</g>
		</g>
		<g>
			<path style="fill:#5A2250;" d="M174.205,326.911l24.11,136.408h196.681l26.013-140.849     C421.008,322.47,174.839,326.911,174.205,326.911z"/>
			<ellipse style="fill:#FFE8D1;" cx="296.232" cy="396.913" rx="10.997" ry="20.514"/>
		</g>
		<g>
			<g>
				<polygon style="fill:#5A2250;" points="470.487,329.441 470.487,481.073 435.599,481.073 435.599,329.441 439.501,329.441       451.653,331.667 466.437,329.441     "/>
				<path style="fill:#FFE8D1;" d="M466.437,329.441L466.437,329.441c-1.404,2.731-4.217,4.448-7.287,4.448h-12.343      c-2.883,0-5.554-1.515-7.033-3.99l-0.274-0.458H466.437z"/>
				<circle style="fill:#FFE8D1;" cx="454" cy="459.83" r="8.565"/>
			</g>
			<g>
				<polygon style="fill:#5A2250;" points="497.091,333.742 497.091,454.799 489.933,459.166 497.091,465.121 497.091,481.075       471.968,481.075 471.968,329.443 475.869,329.443     "/>
				<path style="fill:#FFE8D1;" d="M497.091,329.443v4.299c-0.497,0.1-1.044,0.149-1.566,0.149h-12.35      c-2.883,0-5.541-1.516-7.032-4.001l-0.273-0.447H497.091z"/>
				<path style="fill:#FFE8D1;" d="M497.091,454.56v10.561c-1.566,1.988-3.976,3.28-6.709,3.28c-4.746,0-8.573-3.851-8.573-8.573      c0-4.721,3.827-8.573,8.573-8.573C493.115,451.255,495.55,452.547,497.091,454.56z"/>
			</g>
		</g>
		<g>
			<g>
				<rect x="344.874" y="82.011" style="fill:#FF9FC6;" width="126.257" height="126.257"/>
				<g>
					<polygon style="fill:#AE85A6;" points="456.536,96.603 456.536,100.206 363.052,193.665 359.474,193.665 359.474,96.603             "/>
					<rect x="363.052" y="100.206" style="fill:#FFE8D1;" width="93.484" height="93.459"/>
				</g>
			</g>
			<g>
				<path style="fill:#7EB291;" d="M402.917,171.637c-2.451-4.738-8.072-6.658-12.513-9.613c-7.049-4.69-11.538-12.62-13.27-20.908      c-1.733-8.288-0.925-16.929,0.948-25.186c6.984,2.637,14.125,5.537,19.113,11.092c5.224,5.817,7.769,13.657,8.434,21.447      C406.294,156.259,404.154,163.917,402.917,171.637z"/>
				<path style="fill:#7EB291;" d="M412.657,167.655c-0.33-9.466,2.521-19.016,7.986-26.752      c5.465-7.737,13.512-13.615,22.544-16.469c2.269,8.416,4.291,18.128-0.018,25.704c-3.079,5.412-8.867,8.662-14.582,11.135      C422.873,163.746,417.408,163.63,412.657,167.655z"/>
			</g>
		</g>
		<g>
			<path style="fill:#FFE8D1;" d="M459.787,252.298l2.801,0.848c0.661,0.2,0.678,1.13,0.025,1.326l-2.715,0.814     c-4.401,1.319-7.866,4.665-9.335,9.015l-1.227,3.633c-0.214,0.634-1.123,0.602-1.319-0.047l-0.887-2.931     c-1.444-4.773-5.205-8.535-9.979-9.979l-2.737-0.828c-0.666-0.201-0.676-1.142-0.014-1.329l2.72-0.769     c4.743-1.34,8.423-5.021,9.763-9.764l0.769-2.72c0.187-0.662,1.127-0.652,1.329,0.014l0.828,2.737     C451.252,247.093,455.014,250.854,459.787,252.298z"/>
		</g>
		<g>
			<path style="fill:#FFE8D1;" d="M249.147,457.862l2.801,0.848c0.661,0.2,0.678,1.13,0.025,1.326l-2.715,0.814     c-4.401,1.319-7.866,4.665-9.335,9.015l-1.227,3.633c-0.215,0.634-1.123,0.602-1.319-0.047l-0.887-2.931     c-1.444-4.773-5.205-8.535-9.978-9.979l-2.737-0.828c-0.666-0.201-0.676-1.142-0.014-1.329l2.72-0.769     c4.743-1.34,8.423-5.021,9.763-9.764l0.769-2.72c0.187-0.662,1.128-0.652,1.329,0.014l0.828,2.737     C240.613,452.657,244.374,456.418,249.147,457.862z"/>
		</g>
		<g>
			<path style="fill:#FFE8D1;" d="M309.209,57.732l2.801,0.848c0.661,0.2,0.678,1.13,0.025,1.326l-2.715,0.814     c-4.401,1.319-7.866,4.666-9.335,9.015l-1.227,3.633c-0.214,0.634-1.123,0.602-1.319-0.047l-0.887-2.931     c-1.444-4.773-5.206-8.535-9.979-9.979l-2.737-0.828c-0.666-0.201-0.676-1.142-0.014-1.329l2.72-0.769     c4.743-1.34,8.423-5.021,9.763-9.764l0.769-2.72c0.187-0.662,1.127-0.652,1.329,0.014l0.828,2.737     C300.675,52.526,304.436,56.288,309.209,57.732z"/>
		</g>
		<g>
			<path style="fill:#FFE8D1;" d="M98.147,304.324l2.801,0.848c0.661,0.2,0.678,1.13,0.025,1.326l-2.715,0.814     c-4.401,1.319-7.866,4.665-9.335,9.015l-1.227,3.633c-0.214,0.634-1.123,0.602-1.319-0.047l-0.887-2.931     c-1.444-4.773-5.205-8.535-9.979-9.979l-2.737-0.828c-0.666-0.201-0.676-1.142-0.014-1.329l2.72-0.769     c4.743-1.34,8.423-5.021,9.763-9.764l0.769-2.72c0.187-0.662,1.127-0.652,1.329,0.014l0.828,2.737     C89.612,299.118,93.374,302.88,98.147,304.324z"/>
		</g>
		<g>
			<path style="fill:#FFE8D1;" d="M156.94,96.645l2.801,0.848c0.661,0.2,0.678,1.13,0.025,1.326l-2.715,0.814     c-4.401,1.319-7.866,4.666-9.335,9.015l-1.227,3.633c-0.214,0.634-1.123,0.602-1.319-0.047l-0.887-2.931     c-1.444-4.773-5.205-8.535-9.979-9.979l-2.737-0.828c-0.666-0.201-0.676-1.142-0.014-1.329l2.72-0.769     c4.743-1.34,8.423-5.021,9.763-9.764l0.769-2.72c0.187-0.662,1.127-0.652,1.329,0.014l0.828,2.737     C148.405,91.44,152.167,95.201,156.94,96.645z"/>
		</g>
	</g>
</g>















</svg>
