<?xml version="1.0" encoding="iso-8859-1"?>
<!-- Generator: Adobe Illustrator 28.2.0, SVG Export Plug-In . SVG Version: 6.00 Build 0)  -->
<svg xmlns="http://www.w3.org/2000/svg" xmlns:xlink="http://www.w3.org/1999/xlink" version="1.1" id="Capa_1" x="0px" y="0px" viewBox="0 0 512 512" style="enable-background:new 0 0 512 512;" xml:space="preserve">
<g>
	<path style="fill:#F5C000;" d="M12.185,287.859c0,0,5.516-18.762,7.02-16.471c1.504,2.291,6.017,14.866,6.017,14.866   s15.873,5.351,15.458,6.421c-0.415,1.07-14.244,6.689-14.244,6.689s-4.474,16.32-6.981,14.715   c-2.507-1.605-6.851-14.625-6.851-14.625s-14.209-1.372-12.454-4.611C1.905,291.604,12.185,287.859,12.185,287.859z"/>
	<path style="fill:#F5C000;" d="M443.733,430.177c0,0,5.516-18.762,7.02-16.471c1.504,2.291,6.017,14.866,6.017,14.866   s15.873,5.351,15.458,6.421c-0.415,1.07-14.244,6.689-14.244,6.689s-4.474,16.32-6.981,14.715   c-2.507-1.605-6.851-14.625-6.851-14.625s-14.209-1.372-12.454-4.61C433.454,433.922,443.733,430.177,443.733,430.177z"/>
	<path style="fill:#241726;" d="M450.731,84.232c-0.265,0-0.528-0.08-0.761-0.238c-0.731-0.493-2.723-3.755-4.879-7.847   c-5.321,0.593-9.771,0.796-10.391-0.071c-0.272-0.379-0.34-0.989,0.121-1.501c1.01-1.12,3.387-3.727,6.254-6.71   c-2.076-4.71-3.532-8.957-2.987-10.298c0.262-0.644,0.879-0.978,1.565-0.857c1.291,0.233,5.039,2.051,8.691,3.952   c3.772-3.507,7.258-6.275,8.894-6.309c0.604-0.029,1.007,0.248,1.224,0.469c0.226,0.23,0.329,0.554,0.276,0.873   c-0.47,2.848-1.06,6.251-1.723,9.699c8.843,5.049,8.947,5.952,9.006,6.46c0.051,0.442-0.269,0.99-0.678,1.168   c-0.1,0.043-4.722,0.904-10.352,1.776c-1.229,4.981-2.533,8.813-3.712,9.32C451.101,84.193,450.915,84.232,450.731,84.232z    M447.159,75.902c1.449,2.778,2.763,5.046,3.535,6.001c0.57-1.006,1.318-3.471,2.13-6.777   C450.955,75.402,449.028,75.67,447.159,75.902z M441.975,69.853c-1.543,1.608-3.095,3.265-4.601,4.915   c1.472-0.005,3.908-0.208,6.738-0.516C443.386,72.821,442.66,71.331,441.975,69.853z M443.466,68.311   c0.862,1.902,1.803,3.866,2.727,5.703c2.308-0.273,4.769-0.597,7.116-0.929c0.468-2.03,0.949-4.287,1.423-6.662   c-1.972-1.115-4.052-2.256-6.034-3.308C447.051,64.689,445.277,66.453,443.466,68.311z M456.602,67.491   c-0.361,1.8-0.741,3.587-1.13,5.281c3.181-0.47,5.97-0.929,7.62-1.259C461.778,70.566,459.386,69.099,456.602,67.491z    M439.967,58.893c0.162,1.359,1.21,4.185,2.613,7.42c1.363-1.394,2.797-2.826,4.221-4.193   C443.847,60.589,441.303,59.367,439.967,58.893z M450.243,61.66c1.3,0.692,2.527,1.358,3.555,1.927   c0.466,0.257,0.913,0.506,1.344,0.747c0.486-2.525,0.96-5.142,1.397-7.729C455.274,57.235,453.006,59.099,450.243,61.66z    M457.282,56.371h0.02H457.282z"/>
	<path style="fill:#241726;" d="M468.322,364.342c-0.742,0-1.462-0.441-3.228-7.885c-6.625-1.366-7.197-2.154-7.389-2.419   c-0.184-0.254-0.259-0.717-0.17-1.018c0.125-0.424,0.417-1.407,8.047-4.367c2.733-6.855,3.68-6.975,4.191-7.04   c0.385-0.04,0.892,0.189,1.108,0.487c0.48,0.662,0.9,2.37,1.534,5.103c0.198,0.853,0.438,1.884,0.577,2.339   c0.397,0.183,1.271,0.51,1.997,0.78c3.885,1.45,4.885,1.939,5.056,2.874c0.063,0.35-0.121,0.858-0.389,1.092   c-0.802,0.7-4.593,2.052-6.581,2.731c-3.309,7.27-3.996,7.297-4.605,7.32C468.42,364.34,468.371,364.342,468.322,364.342z    M460.287,353.203c1.322,0.4,3.735,0.982,5.841,1.403c0.389,0.078,0.695,0.376,0.785,0.762c0.511,2.194,1.185,4.696,1.674,6.124   c0.753-1.314,1.898-3.644,2.829-5.705c0.115-0.255,0.331-0.451,0.598-0.541c1.812-0.612,3.861-1.365,5.137-1.904   c-0.883-0.386-2.087-0.836-2.868-1.127c-2.219-0.829-2.636-1.007-2.918-1.396c-0.246-0.339-0.394-0.902-0.917-3.16   c-0.197-0.851-0.5-2.156-0.772-3.134c-0.679,1.254-1.632,3.39-2.376,5.281c-0.104,0.263-0.314,0.472-0.578,0.573   C464.366,351.284,461.691,352.441,460.287,353.203z M466.358,349.436h0.02H466.358z"/>
	<path style="fill:#241726;" d="M59.898,471.948c-0.743,0-1.464-0.442-3.23-7.886c-6.625-1.366-7.197-2.154-7.389-2.419   c-0.184-0.254-0.259-0.717-0.17-1.018c0.125-0.424,0.417-1.407,8.047-4.367c2.734-6.855,3.68-6.975,4.191-7.04   c0.381-0.041,0.891,0.189,1.108,0.487c0.479,0.662,0.9,2.368,1.533,5.099c0.199,0.856,0.439,1.889,0.579,2.344   c0.397,0.183,1.272,0.51,1.998,0.78c3.884,1.45,4.883,1.939,5.054,2.874c0.063,0.35-0.121,0.857-0.39,1.092   c-0.801,0.699-4.591,2.051-6.579,2.73c-3.309,7.269-3.996,7.297-4.603,7.321C59.998,471.946,59.948,471.948,59.898,471.948z    M51.862,460.808c1.322,0.4,3.735,0.982,5.841,1.403c0.389,0.078,0.695,0.376,0.785,0.762c0.511,2.194,1.185,4.696,1.675,6.124   c0.753-1.315,1.898-3.644,2.829-5.705c0.115-0.255,0.331-0.451,0.598-0.541c1.812-0.612,3.859-1.364,5.135-1.903   c-0.883-0.387-2.085-0.836-2.865-1.127c-2.22-0.829-2.637-1.007-2.919-1.396c-0.246-0.339-0.394-0.903-0.919-3.165   c-0.197-0.849-0.499-2.153-0.771-3.13c-0.679,1.254-1.632,3.389-2.376,5.281c-0.104,0.263-0.314,0.472-0.578,0.573   C55.941,458.889,53.265,460.046,51.862,460.808z M57.933,457.041h0.02H57.933z"/>
	<path style="fill:#241726;" d="M415.917,380.551c-1.025-0.283-1.957,0.367-2.754,1.33c-0.63,0.761-1.177,1.719-1.617,2.565   c-1.424,2.73-5.874,14.016-4.214,15.391c0.527,0.436,1.41,1.132,9.233-4.445c1.887,11.926-3.665,21.271-10.251,27.887   c-2.567-0.756-7.907-2.124-10.486-1.282c-2.525,0.826-13.478,7.468-16.209,10.765c-0.255,0.308-0.438,0.586-0.536,0.828   c-0.234,0.578-0.118,1.015,0.021,1.279c0.832,1.582,5.221,2.034,8.721,2.137c-1.924,2.794-4.74,7.59-3.302,9.972   c0.228,0.377,0.7,0.842,1.654,0.919c4.032,0.324,16.898-7.878,19.484-10.928c4.53-5.248,2.756-12.276,2.678-12.569   c-0.02-0.076-0.075-0.133-0.112-0.201c6.633-6.839,12.149-16.392,10.428-28.56c2.974,1.759,6.128,3.35,7.332,3.012   c0.365-0.104,0.659-0.337,0.818-0.663c0.255-0.51,0.224-1.167-0.669-3.174C424.535,391.221,418.968,381.393,415.917,380.551z    M390.443,436.831c1.446-0.665,9.087-4.353,16.111-10.977c0.273,1.892,0.503,6.387-2.434,9.808   c-2.771,3.267-15.989,11.132-17.948,10.19C385.542,444.757,387.827,440.328,390.443,436.831z M404.614,424.905   c-6.698,6.139-13.839,9.554-15.043,10.105c-3.701-0.009-7.35-0.431-8.446-0.955c1.569-2.224,12.34-9.159,15.331-10.137   C398.103,423.379,401.863,424.165,404.614,424.905z M424.656,396.458c-1.512-0.586-4.413-2.176-6.829-3.688   c-0.009-0.005-0.019-0.002-0.028-0.007c-0.142-0.084-0.303-0.121-0.473-0.127c-0.045-0.001-0.084-0.003-0.129,0.001   c-0.038,0.003-0.075-0.007-0.113,0.001c-0.061,0.013-0.093,0.067-0.149,0.09c-0.08,0.031-0.169,0.031-0.24,0.083   c-2.783,2.032-6.124,4.234-7.736,5.01c0.592-3.654,4.644-14.912,6.499-15.315C417.427,383.062,423.331,393.037,424.656,396.458z"/>
	<path style="fill:#241726;" d="M449.255,321.58h-0.006l-3.908-0.014l4.14-2.807c0.462-0.314,0.583-0.941,0.269-1.403   c-0.316-0.464-0.947-0.579-1.403-0.269l-5.585,3.786l0.124-6.525c0.011-0.558-0.433-1.018-0.991-1.029l-0.006,0   c-0.554-0.007-1.012,0.435-1.023,0.991l-0.109,5.759l-3.416-3.705c-0.379-0.407-1.016-0.438-1.428-0.058   c-0.409,0.377-0.436,1.018-0.058,1.428l3.514,3.812l-6.472-0.023c-0.558-0.001-1.012,0.448-1.013,1.007   c-0.001,0.554,0.443,1.006,0.997,1.013l0.01,0l5.904,0.021l-4.613,3.127c-0.462,0.314-0.582,0.941-0.269,1.403   c0.194,0.285,0.505,0.439,0.823,0.443c0.201,0.003,0.403-0.054,0.58-0.174l5.352-3.629l-0.125,6.574   c-0.011,0.558,0.433,1.018,0.991,1.029l0.006,0c0.554,0.007,1.012-0.435,1.023-0.991l0.118-6.209l3.641,3.949   c0.197,0.212,0.461,0.322,0.73,0.325c0.249,0.003,0.5-0.084,0.698-0.267c0.409-0.377,0.436-1.018,0.058-1.428l-3.812-4.135   l5.247,0.018c0.558,0.001,1.012-0.449,1.014-1.007C450.257,322.039,449.814,321.587,449.255,321.58z"/>
	<path style="fill:#241726;" d="M37.296,224.037H37.29l-3.908-0.014l4.14-2.807c0.462-0.314,0.583-0.941,0.269-1.403   c-0.316-0.464-0.947-0.579-1.403-0.269l-5.585,3.786l0.124-6.525c0.011-0.558-0.433-1.018-0.991-1.029l-0.006,0   c-0.554-0.007-1.012,0.435-1.023,0.991l-0.109,5.758l-3.416-3.705c-0.379-0.407-1.016-0.438-1.428-0.058   c-0.409,0.377-0.436,1.018-0.058,1.428l3.514,3.812l-6.472-0.023c-0.558-0.001-1.012,0.448-1.013,1.007   c-0.001,0.554,0.443,1.006,0.997,1.013l0.01,0l5.904,0.021l-4.613,3.127c-0.462,0.314-0.583,0.941-0.269,1.403   c0.194,0.285,0.505,0.439,0.823,0.443c0.201,0.003,0.403-0.054,0.58-0.174l5.352-3.629l-0.125,6.574   c-0.011,0.558,0.433,1.018,0.991,1.029l0.006,0c0.554,0.007,1.012-0.435,1.023-0.991l0.118-6.209l3.641,3.949   c0.197,0.212,0.461,0.322,0.73,0.325c0.249,0.003,0.5-0.084,0.698-0.267c0.409-0.377,0.436-1.018,0.058-1.428l-3.812-4.135   l5.247,0.018c0.558,0.001,1.012-0.449,1.014-1.007C38.298,224.496,37.854,224.044,37.296,224.037z"/>
	<path style="fill:#241726;" d="M400.354,58.534l-0.023-0.018c-3.044-2.36-3.599-6.755-1.238-9.801   c2.35-3.031,6.735-3.595,9.776-1.257c1.498,1.162,2.44,2.811,2.674,4.663c0.233,1.849-0.267,3.682-1.41,5.155   C407.781,60.307,403.393,60.871,400.354,58.534z M407.654,49.073c-2.179-1.675-5.295-1.273-6.965,0.88   c-1.678,2.164-1.284,5.289,0.879,6.966l0.017,0.013c2.16,1.661,5.278,1.26,6.95-0.893c0.813-1.048,1.169-2.349,1.001-3.665   C409.371,51.058,408.702,49.886,407.654,49.073z"/>
	<path style="fill:#241726;" d="M19.372,427.042l-0.023-0.018c-3.044-2.36-3.599-6.755-1.238-9.801   c2.35-3.031,6.735-3.595,9.776-1.257c1.498,1.162,2.44,2.811,2.674,4.663c0.233,1.849-0.267,3.682-1.41,5.155   C26.799,428.814,22.411,429.378,19.372,427.042z M26.672,417.581c-2.179-1.675-5.295-1.273-6.965,0.88   c-1.678,2.164-1.284,5.289,0.879,6.966l0.017,0.013c2.16,1.66,5.278,1.26,6.95-0.893c0.813-1.048,1.169-2.349,1.001-3.665   C28.389,419.565,27.719,418.393,26.672,417.581z"/>
	<g>
		<path style="fill:#FFFFFF;" d="M309.095,449.966c0,0-1.993-15.133,12.572-10.236c14.566,4.896,9.82,18.751,4.267,14.01    c-5.553-4.741,4.866-20.822,16.012-13.661c11.146,7.16,8.653,21.054,0.747,22.079c-7.906,1.025,4.786-16.177,14.746-5.553    c9.96,10.624-11.786,29.994-20.679,22.872s-1.934-18.616,0.2-11.611c2.133,7.005-3.62,13.875-19.392,13.603    c-15.772-0.271-8.593-24.537-3.08-17.474s-3.64,15.036-14.766,6.714C288.597,462.389,301.289,445.186,309.095,449.966z"/>
		<path style="fill:#241726;" d="M318.441,482.488c-0.294,0-0.59-0.003-0.89-0.008c-5.179-0.089-8.817-2.742-10.096-7.315    c-2.52-0.315-5.371-1.427-8.338-3.646c-6.411-4.795-5.655-12.286-2.064-17.584c2.614-3.857,6.994-6.69,10.937-5.555    c-0.022-2.356,0.387-6.554,3.276-8.932c2.449-2.016,6.056-2.243,10.722-0.676c2.191,0.737,3.92,1.645,5.284,2.624    c3.691-3.879,9.466-5.864,15.219-2.168c5.643,3.624,7.766,8.658,7.974,12.905c2.774,0.094,5.452,1.37,7.711,3.781    c4.517,4.818,3.523,12.161-2.531,18.706c-5.48,5.925-14.179,9.921-19.515,5.645c-0.713-0.57-1.337-1.175-1.877-1.802    C330.778,481.083,325.316,482.487,318.441,482.488z M309.596,475.243c0.899,2.561,3.037,5.133,7.99,5.217    c6.861,0.121,12.244-1.152,15.475-3.619c-1.943-3.149-2.103-6.606-1.165-9.162c0.693-1.889,1.952-3.041,3.247-3.002    c0.716,0.021,2.03,0.423,2.784,2.896c0.948,3.114,0.443,6.193-1.423,8.667c-0.23,0.305-0.478,0.599-0.746,0.882    c0.461,0.536,1.002,1.06,1.635,1.568c4.221,3.381,11.842-0.111,16.769-5.44c4.201-4.541,7.075-11.116,2.541-15.953    c-2.163-2.307-4.345-3.111-6.281-3.169c-0.052,0.547-0.136,1.073-0.248,1.57c-0.929,4.135-3.746,6.995-7.35,7.463    c-2.527,0.326-3.267-0.986-3.47-1.566c-0.739-2.111,1.55-5.66,4.999-7.752c1.345-0.816,2.724-1.338,4.099-1.571    c-0.169-3.697-2.04-8.124-7.051-11.342c-4.988-3.206-9.631-1.269-12.569,1.759c2.907,2.781,3.419,5.767,3.503,6.929    c0.187,2.6-0.82,4.85-2.565,5.733c-1.401,0.706-3.037,0.401-4.491-0.841c-3.137-2.678-2.03-7.813,0.695-11.555    c-1.19-0.837-2.703-1.619-4.629-2.266c-3.957-1.331-6.914-1.225-8.79,0.317c-3.218,2.643-2.467,8.769-2.459,8.83    c0.05,0.386-0.125,0.766-0.452,0.979c-0.327,0.212-0.746,0.218-1.077,0.014c-3.231-1.979-7.397,0.635-9.841,4.242    c-3.053,4.503-3.742,10.835,1.601,14.833c2.411,1.802,4.702,2.79,6.728,3.17c-0.515-4.668,1.254-9.798,3.992-11.074    c0.697-0.324,2.507-0.843,4.238,1.377c2.504,3.208,2.502,6.934-0.006,9.494C313.975,474.199,312,475.105,309.596,475.243z     M335.082,466.696c-0.215,0-0.828,0.417-1.29,1.678c-0.558,1.522-0.78,4.286,0.773,7.054c0.113-0.132,0.222-0.267,0.326-0.404    c1.488-1.973,1.869-4.346,1.103-6.863c-0.322-1.057-0.727-1.459-0.907-1.465C335.085,466.696,335.084,466.696,335.082,466.696z     M312.347,463.716c-0.204,0-0.355,0.07-0.447,0.113c-1.634,0.761-3.442,5.042-2.788,9.425c2.032-0.031,3.672-0.727,4.723-1.8    c1.783-1.819,1.727-4.439-0.143-6.836C313.125,463.889,312.67,463.716,312.347,463.716z M348.366,454.338    c-1.18,0.273-2.197,0.765-2.966,1.232c-3.029,1.837-4.421,4.551-4.139,5.357c0.098,0.28,0.765,0.297,1.303,0.231    c2.74-0.356,4.902-2.618,5.64-5.903C348.269,454.96,348.324,454.654,348.366,454.338z M327.534,444.244    c-2.426,3.388-2.839,7.109-0.943,8.728c0.578,0.494,1.435,0.992,2.268,0.575c0.984-0.498,1.585-2.055,1.461-3.785    C330.254,448.838,329.844,446.506,327.534,444.244z"/>
	</g>
	<g>
		<path style="fill:#FFFFFF;" d="M169.055,35.311c0,0-1.993-15.133,12.572-10.236c14.566,4.896,9.82,18.751,4.267,14.01    s4.866-20.821,16.012-13.661c11.146,7.16,8.653,21.054,0.747,22.08c-7.906,1.025,4.786-16.177,14.746-5.553    c9.96,10.624-11.786,29.994-20.679,22.872s-1.934-18.616,0.2-11.611c2.133,7.005-3.62,13.875-19.392,13.603    c-15.772-0.271-8.593-24.537-3.08-17.474c5.513,7.063-3.64,15.036-14.766,6.714S161.249,30.532,169.055,35.311z"/>
		<path style="fill:#241726;" d="M178.401,67.834c-0.295,0-0.59-0.003-0.89-0.008c-5.179-0.09-8.817-2.742-10.096-7.316    c-2.52-0.314-5.371-1.427-8.338-3.646c-6.411-4.794-5.656-12.285-2.065-17.583c2.615-3.857,6.987-6.697,10.938-5.555    c-0.022-2.356,0.387-6.554,3.276-8.932c2.449-2.018,6.058-2.245,10.722-0.677c2.191,0.737,3.92,1.645,5.284,2.625    c3.692-3.878,9.468-5.864,15.219-2.168c5.643,3.624,7.766,8.658,7.974,12.905c2.773,0.094,5.451,1.37,7.71,3.781    c4.517,4.818,3.524,12.16-2.53,18.705c-5.479,5.926-14.179,9.92-19.516,5.646c-0.713-0.57-1.337-1.175-1.877-1.802    C190.737,66.429,185.276,67.833,178.401,67.834z M169.556,60.587c0.899,2.562,3.037,5.133,7.99,5.218    c6.869,0.13,12.243-1.152,15.474-3.619c-1.943-3.149-2.103-6.605-1.165-9.161c0.692-1.888,1.948-2.979,3.247-3.003    c0.717,0.021,2.031,0.423,2.785,2.896c0.948,3.114,0.442,6.192-1.424,8.667c-0.23,0.305-0.478,0.599-0.746,0.882    c0.461,0.536,1.002,1.06,1.635,1.567c4.22,3.38,11.841-0.111,16.77-5.44c4.2-4.542,7.074-11.117,2.54-15.953    c-2.163-2.307-4.344-3.112-6.281-3.169c-0.051,0.547-0.135,1.073-0.248,1.57c-0.929,4.135-3.746,6.995-7.35,7.463    c-2.524,0.314-3.267-0.986-3.469-1.567c-0.74-2.11,1.549-5.659,4.997-7.751c1.346-0.816,2.726-1.338,4.1-1.572    c-0.168-3.696-2.039-8.123-7.05-11.341c-4.985-3.203-9.629-1.269-12.569,1.758c2.907,2.781,3.419,5.768,3.502,6.929    c0.187,2.601-0.82,4.851-2.565,5.734c-1.4,0.706-3.036,0.401-4.491-0.841c-3.137-2.679-2.029-7.814,0.695-11.555    c-1.19-0.836-2.702-1.619-4.628-2.266c-3.958-1.331-6.914-1.223-8.79,0.317c-3.219,2.644-2.467,8.77-2.459,8.831    c0.05,0.386-0.125,0.766-0.452,0.979c-0.327,0.212-0.746,0.218-1.077,0.014c-3.237-1.981-7.398,0.637-9.842,4.242    c-3.053,4.503-3.742,10.835,1.602,14.832c2.411,1.803,4.702,2.791,6.728,3.17c-0.516-4.667,1.254-9.797,3.992-11.073    c0.695-0.326,2.506-0.842,4.237,1.377c2.504,3.208,2.502,6.934-0.005,9.493C173.935,59.543,171.959,60.451,169.556,60.587z     M195.043,52.041c-0.215,0-0.829,0.418-1.291,1.679c-0.558,1.522-0.78,4.285,0.773,7.053c0.113-0.132,0.222-0.267,0.326-0.404    c1.489-1.974,1.87-4.346,1.104-6.863c-0.322-1.057-0.727-1.459-0.908-1.465C195.045,52.041,195.044,52.041,195.043,52.041z     M172.307,49.061c-0.205,0-0.355,0.07-0.447,0.112c-1.634,0.762-3.442,5.042-2.788,9.426c2.032-0.031,3.672-0.727,4.723-1.8    c1.783-1.819,1.727-4.439-0.144-6.836C173.084,49.235,172.629,49.061,172.307,49.061z M208.325,39.684    c-1.18,0.273-2.197,0.765-2.966,1.232c-3.029,1.837-4.421,4.55-4.138,5.356c0.098,0.282,0.765,0.298,1.302,0.231    c2.74-0.356,4.902-2.617,5.64-5.902C208.229,40.305,208.284,39.999,208.325,39.684z M187.494,29.589    c-2.426,3.387-2.84,7.109-0.944,8.728c0.578,0.494,1.439,0.994,2.268,0.575c0.985-0.498,1.586-2.055,1.462-3.786    C190.213,34.183,189.804,31.85,187.494,29.589z"/>
	</g>
	<g>
		<path style="fill:#D5647E;" d="M454.337,143.429c0,0-32.291-18.776-39.906-23.417l-1.46-15.626l14.565-9.137    c0,0,36.598,21.319,40.881,24.156C473.105,122.51,454.337,143.429,454.337,143.429z"/>
		<path style="fill:#EFEBD5;" d="M427.536,95.25c0,0-3.937-1.539-12.141-2.127l-12.925,3.509l4.055,14.897    c2.816,4.859,2.928,4.978,5.375,7.225c8.117,7.457,4.688-6.694,4.688-6.694s6.233,1.806,7.6-1.446s-2.723-8.99-2.723-8.99    S437.971,106.092,427.536,95.25z"/>
		<path style="fill:#241726;" d="M463.687,126.523c-0.169,0-0.339-0.042-0.496-0.131l-36.475-20.638    c-0.485-0.274-0.657-0.891-0.382-1.376c0.274-0.485,0.891-0.656,1.376-0.382l36.475,20.638c0.485,0.274,0.657,0.891,0.382,1.376    C464.382,126.339,464.039,126.523,463.687,126.523z"/>
		<path style="fill:#241726;" d="M455.729,136.255c-0.174,0-0.35-0.044-0.511-0.139l-35.66-20.947    c-0.48-0.282-0.641-0.902-0.359-1.383c0.284-0.48,0.902-0.643,1.383-0.359l35.66,20.947c0.48,0.282,0.641,0.902,0.359,1.383    C456.413,136.076,456.076,136.255,455.729,136.255z"/>
		<path style="fill:#54ADA0;" d="M454.337,143.429l14.08-24.024c1.129,0.937,14.607,7.415,14.789,8.896    c0.312,2.537-14.136,24.283-14.223,24.416C468.897,152.849,454.337,143.429,454.337,143.429z"/>
		<path style="fill:#241726;" d="M460.407,146.436c-0.157,0-0.316-0.036-0.465-0.113c-0.495-0.257-0.688-0.867-0.431-1.362    l11.724-22.586c0.255-0.495,0.864-0.69,1.362-0.431c0.495,0.257,0.688,0.867,0.431,1.362l-11.724,22.586    C461.125,146.238,460.772,146.436,460.407,146.436z"/>
		<path style="fill:#413655;" d="M415.395,93.123l-8.87,18.405c0,0-11.462-13.942-11.023-17.195    C395.941,91.08,415.395,93.123,415.395,93.123z"/>
	</g>
	<g>
		<path style="fill:#D5647E;" d="M58.699,351.96c0,0,17.938,32.765,22.058,40.673l-6.827,14.131l-17.191,0.293    c0,0-20.31-37.167-22.511-41.81C31.819,360.167,58.699,351.96,58.699,351.96z"/>
		<path style="fill:#EFEBD5;" d="M56.739,407.058c0,0,2.575,3.352,9.294,8.096l12.878,3.677l4.228-14.848    c0.101-5.615,0.066-5.775-0.867-8.963c-3.094-10.579-7.474,3.307-7.474,3.307s-4.403-4.768-7.254-2.69    c-2.851,2.078-2.315,9.103-2.315,9.103S53.41,392.382,56.739,407.058z"/>
		<path style="fill:#241726;" d="M61.992,399.994c-0.353,0-0.695-0.185-0.881-0.515l-20.558-36.52    c-0.274-0.486-0.102-1.102,0.385-1.375c0.484-0.277,1.101-0.102,1.375,0.385l20.558,36.52c0.274,0.486,0.102,1.102-0.385,1.375    C62.33,399.952,62.159,399.994,61.992,399.994z"/>
		<path style="fill:#241726;" d="M72.977,395.62c-0.359,0-0.706-0.191-0.889-0.529l-19.701-36.363    c-0.266-0.49-0.084-1.104,0.406-1.369c0.491-0.267,1.104-0.084,1.369,0.406l19.701,36.363c0.266,0.49,0.084,1.104-0.406,1.369    C73.305,395.58,73.14,395.62,72.977,395.62z"/>
		<path style="fill:#54ADA0;" d="M58.699,351.96l-24.471,13.288c-0.482-1.385-8.672-13.898-8.062-15.26    c1.044-2.333,24.653-13.481,24.795-13.55C51.104,336.37,58.699,351.96,58.699,351.96z"/>
		<path style="fill:#241726;" d="M32.824,361.397c-0.34,0-0.673-0.172-0.863-0.483c-0.291-0.475-0.141-1.098,0.335-1.389    l21.711-13.274c0.476-0.291,1.098-0.14,1.389,0.335c0.291,0.475,0.141,1.098-0.335,1.389L33.35,361.249    C33.185,361.35,33.003,361.397,32.824,361.397z"/>
		<path style="fill:#413655;" d="M66.033,415.153l17.107-11.171c0,0,2.606,17.86,0.549,20.418    C81.631,426.958,66.033,415.153,66.033,415.153z"/>
	</g>
	<path style="fill:#241726;" d="M208.396,489.387l-0.626-0.005c-0.558-0.011-1.001-0.473-0.99-1.03   c0.011-0.557,0.378-1.027,1.03-0.99l0.582,0.005c1.084,0,2.205-0.056,3.336-0.168c0.558-0.041,1.05,0.352,1.104,0.907   c0.054,0.555-0.351,1.05-0.907,1.104C210.728,489.326,209.542,489.387,208.396,489.387z M203.772,489.035   c-0.052,0-0.105-0.004-0.158-0.012c-1.4-0.221-2.771-0.547-4.076-0.97c-0.531-0.172-0.822-0.741-0.65-1.272   c0.172-0.531,0.743-0.823,1.272-0.65c1.205,0.39,2.473,0.691,3.768,0.895c0.551,0.087,0.928,0.605,0.841,1.155   C204.69,488.68,204.261,489.035,203.772,489.035z M215.819,488.614c-0.474,0-0.897-0.334-0.99-0.817   c-0.107-0.547,0.251-1.078,0.798-1.185c1.361-0.265,2.655-0.556,3.883-0.87c0.547-0.137,1.091,0.188,1.229,0.728   c0.138,0.541-0.188,1.091-0.728,1.229c-1.266,0.324-2.596,0.622-3.997,0.896C215.948,488.608,215.883,488.614,215.819,488.614z    M223.635,486.601c-0.424,0-0.819-0.268-0.959-0.693c-0.176-0.53,0.111-1.101,0.641-1.276c1.289-0.427,2.531-0.898,3.691-1.399   c0.511-0.224,1.107,0.015,1.328,0.527c0.221,0.512-0.015,1.107-0.527,1.328c-1.214,0.525-2.512,1.017-3.857,1.462   C223.847,486.584,223.741,486.601,223.635,486.601z M196.13,486.539c-0.158,0-0.319-0.038-0.469-0.116   c-1.241-0.652-2.432-1.419-3.54-2.278c-0.44-0.342-0.521-0.977-0.179-1.418c0.342-0.441,0.976-0.521,1.418-0.179   c1.014,0.787,2.105,1.489,3.241,2.086c0.494,0.259,0.685,0.87,0.424,1.363C196.844,486.342,196.493,486.539,196.13,486.539z    M231.025,483.376c-0.351,0-0.692-0.182-0.878-0.509c-0.277-0.484-0.109-1.102,0.376-1.378c1.174-0.671,2.264-1.395,3.239-2.153   c0.439-0.344,1.074-0.265,1.418,0.177c0.342,0.44,0.263,1.075-0.177,1.418c-1.051,0.818-2.221,1.596-3.477,2.313   C231.366,483.334,231.195,483.376,231.025,483.376z M189.778,481.622c-0.273,0-0.547-0.11-0.746-0.329   c-0.931-1.019-1.796-2.133-2.573-3.31c-0.307-0.466-0.179-1.093,0.287-1.4c0.47-0.304,1.094-0.177,1.4,0.287   c0.718,1.089,1.518,2.119,2.377,3.061c0.377,0.411,0.347,1.051-0.065,1.426C190.265,481.535,190.021,481.622,189.778,481.622z    M237.343,478.407c-0.241,0-0.482-0.086-0.676-0.259c-0.414-0.373-0.448-1.012-0.075-1.426c0.87-0.966,1.627-2.004,2.251-3.084   c0.279-0.484,0.899-0.65,1.38-0.37c0.483,0.279,0.649,0.898,0.37,1.38c-0.695,1.202-1.536,2.355-2.5,3.425   C237.895,478.295,237.619,478.407,237.343,478.407z M185.334,474.914c-0.38,0-0.744-0.215-0.915-0.582   c-0.581-1.241-1.09-2.548-1.512-3.887c-0.169-0.532,0.126-1.099,0.659-1.267c0.139-0.044,0.283-0.054,0.417-0.041   c-0.006-0.01-0.011-0.02-0.017-0.03c-0.259-0.493-0.069-1.104,0.425-1.364c1.143-0.6,2.279-1.278,3.375-2.015   c0.462-0.314,1.09-0.187,1.402,0.275c0.311,0.463,0.188,1.09-0.275,1.402c-1.156,0.777-2.355,1.493-3.562,2.128   c-0.186,0.097-0.388,0.13-0.583,0.109c0.035,0.06,0.063,0.125,0.085,0.195c0.397,1.253,0.873,2.477,1.416,3.638   c0.237,0.505,0.019,1.107-0.486,1.343C185.623,474.883,185.477,474.914,185.334,474.914z M169.984,473.459l-0.674-0.007   c-0.558-0.013-1-0.475-0.987-1.033c0.013-0.557,0.4-0.968,1.033-0.987l0.628,0.007c1.08,0,2.179-0.063,3.265-0.187   c0.553-0.072,1.056,0.333,1.119,0.888c0.064,0.554-0.333,1.056-0.888,1.119C172.317,473.391,171.141,473.459,169.984,473.459z    M165.313,473.085c-0.053,0-0.108-0.004-0.162-0.013c-1.357-0.219-2.725-0.535-4.064-0.937c-0.535-0.161-0.838-0.725-0.677-1.259   c0.161-0.534,0.72-0.838,1.259-0.677c1.255,0.378,2.534,0.674,3.804,0.878c0.55,0.089,0.925,0.608,0.837,1.158   C166.23,472.732,165.801,473.085,165.313,473.085z M177.334,472.542c-0.453,0-0.864-0.306-0.979-0.766   c-0.136-0.541,0.193-1.089,0.735-1.224c1.247-0.313,2.502-0.711,3.729-1.185c0.52-0.202,1.104,0.058,1.306,0.578   c0.201,0.52-0.057,1.105-0.578,1.306c-1.304,0.504-2.64,0.928-3.968,1.26C177.498,472.532,177.415,472.542,177.334,472.542z    M241.33,471.457c-0.099,0-0.198-0.014-0.298-0.045c-0.533-0.164-0.832-0.73-0.667-1.263c0.369-1.196,0.613-2.457,0.724-3.748   c0.047-0.556,0.52-0.977,1.093-0.919c0.556,0.048,0.968,0.538,0.919,1.093c-0.123,1.433-0.396,2.837-0.807,4.17   C242.161,471.179,241.762,471.457,241.33,471.457z M157.575,470.82c-0.127,0-0.255-0.024-0.38-0.074   c-1.289-0.524-2.552-1.102-3.754-1.719c-0.496-0.255-0.692-0.864-0.437-1.36c0.255-0.494,0.864-0.692,1.36-0.437   c1.149,0.591,2.357,1.144,3.59,1.644c0.517,0.21,0.766,0.799,0.556,1.316C158.351,470.582,157.973,470.82,157.575,470.82z    M182.897,467.232c-0.478,0-0.904-0.341-0.992-0.83c-0.249-1.365-0.415-2.756-0.493-4.134c-0.033-0.556,0.394-1.034,0.951-1.065   c0.531-0.03,1.034,0.393,1.065,0.951c0.074,1.295,0.231,2.603,0.464,3.888c0.101,0.548-0.263,1.074-0.813,1.174   C183.017,467.227,182.957,467.232,182.897,467.232z M150.403,467.125c-0.187,0-0.376-0.051-0.546-0.161   c-1.168-0.751-2.3-1.564-3.365-2.415c-0.435-0.349-0.506-0.984-0.158-1.421c0.35-0.432,0.984-0.507,1.421-0.158   c1.01,0.809,2.084,1.58,3.195,2.295c0.469,0.302,0.605,0.926,0.303,1.396C151.061,466.961,150.735,467.125,150.403,467.125z    M191.557,465.147c-0.289,0-0.576-0.123-0.775-0.362c-0.358-0.427-0.302-1.064,0.126-1.422c1.008-0.844,1.977-1.747,2.878-2.682   c0.389-0.401,1.027-0.412,1.428-0.026c0.401,0.387,0.413,1.026,0.026,1.428c-0.95,0.985-1.971,1.937-3.035,2.828   C192.016,465.07,191.785,465.147,191.557,465.147z M242.06,463.464c-0.513,0-0.953-0.39-1.004-0.911   c-0.124-1.257-0.358-2.54-0.694-3.816c-0.142-0.54,0.18-1.092,0.719-1.234c0.532-0.144,1.091,0.18,1.234,0.719   c0.364,1.378,0.617,2.768,0.752,4.131c0.055,0.555-0.35,1.05-0.906,1.105C242.127,463.462,242.093,463.464,242.06,463.464z    M144.115,462.078c-0.258,0-0.517-0.099-0.714-0.296c-0.983-0.983-1.912-2.026-2.764-3.101c-0.346-0.438-0.272-1.073,0.165-1.42   c0.442-0.346,1.074-0.27,1.42,0.165c0.804,1.016,1.681,2.001,2.608,2.928c0.395,0.395,0.395,1.034,0,1.428   C144.632,461.979,144.374,462.078,144.115,462.078z M119.669,461.113c-0.323,0-0.646-0.005-0.974-0.017   c-0.557-0.019-0.994-0.486-0.975-1.044c0.02-0.557,0.486-1.027,1.044-0.975c1.322,0.04,2.617-0.009,3.881-0.153   c0.551-0.069,1.055,0.333,1.119,0.888c0.064,0.554-0.334,1.056-0.888,1.119C121.826,461.052,120.748,461.113,119.669,461.113z    M114.715,460.709c-0.054,0-0.109-0.004-0.165-0.014c-1.442-0.237-2.814-0.578-4.078-1.015c-0.528-0.182-0.808-0.758-0.625-1.284   c0.182-0.528,0.76-0.805,1.284-0.625c1.156,0.4,2.417,0.713,3.747,0.932c0.55,0.09,0.923,0.61,0.833,1.16   C115.63,460.358,115.202,460.709,114.715,460.709z M126.718,460.167c-0.441,0-0.846-0.291-0.972-0.738   c-0.151-0.537,0.163-1.094,0.7-1.245c1.239-0.347,2.459-0.8,3.626-1.346c0.505-0.234,1.106-0.018,1.343,0.488   c0.236,0.505,0.018,1.106-0.488,1.343c-1.266,0.591-2.589,1.082-3.936,1.46C126.9,460.155,126.809,460.167,126.718,460.167z    M197.15,459.33c-0.214,0-0.429-0.068-0.613-0.207c-0.443-0.339-0.528-0.973-0.189-1.417c0.823-1.076,1.55-2.169,2.161-3.248   c0.274-0.483,0.889-0.654,1.377-0.381c0.485,0.275,0.656,0.892,0.381,1.377c-0.657,1.159-1.435,2.33-2.313,3.479   C197.754,459.194,197.453,459.33,197.15,459.33z M182.448,459.183c-0.025,0-0.048-0.001-0.073-0.003   c-0.556-0.039-0.976-0.523-0.935-1.079c0.102-1.424,0.301-2.818,0.593-4.142c0.119-0.546,0.662-0.886,1.203-0.769   c0.545,0.12,0.89,0.659,0.769,1.203c-0.27,1.229-0.456,2.525-0.551,3.852C183.417,458.776,182.973,459.183,182.448,459.183z    M107.157,458.023c-0.182,0-0.364-0.048-0.53-0.151c-1.237-0.764-2.358-1.672-3.329-2.699c-0.384-0.405-0.366-1.045,0.039-1.428   c0.405-0.381,1.044-0.366,1.428,0.039c0.851,0.9,1.835,1.697,2.923,2.37c0.474,0.293,0.621,0.915,0.328,1.39   C107.827,457.853,107.496,458.023,107.157,458.023z M134.003,456.762c-0.323,0-0.639-0.154-0.835-0.439   c-0.315-0.461-0.197-1.089,0.262-1.405c1.054-0.721,2.071-1.541,3.023-2.435c0.064-0.06,0.133-0.11,0.207-0.151   c-0.119-0.25-0.236-0.499-0.348-0.75c-0.228-0.51,0-1.107,0.509-1.336c0.511-0.225,1.107,0.001,1.336,0.509   c0.525,1.174,1.138,2.338,1.823,3.46c0.291,0.475,0.14,1.097-0.336,1.388c-0.473,0.291-1.097,0.142-1.388-0.336   c-0.222-0.363-0.437-0.731-0.644-1.102c-0.962,0.884-1.983,1.697-3.038,2.42C134.398,456.705,134.199,456.762,134.003,456.762z    M201.055,452.291c-0.107,0-0.214-0.017-0.321-0.052c-0.529-0.177-0.814-0.749-0.637-1.278c0.412-1.235,0.622-2.376,0.623-3.392   l-0.003-0.213c-0.021-0.558,0.415-1.026,0.973-1.046c0.554-0.022,1.026,0.415,1.046,0.973l0.005,0.287   c-0.001,1.235-0.246,2.591-0.728,4.033C201.872,452.024,201.477,452.291,201.055,452.291z M101.668,452.228   c-0.357,0-0.703-0.189-0.887-0.525c-0.657-1.201-1.199-2.524-1.61-3.934c-0.156-0.536,0.151-1.097,0.687-1.253   c0.543-0.159,1.097,0.152,1.253,0.687c0.37,1.271,0.855,2.457,1.442,3.53c0.268,0.489,0.089,1.104-0.401,1.371   C101.999,452.189,101.832,452.228,101.668,452.228z M184.217,451.332c-0.129,0-0.26-0.025-0.387-0.077   c-0.516-0.214-0.761-0.805-0.547-1.32c0.573-1.382,1.268-2.639,2.064-3.736c0.328-0.452,0.957-0.552,1.412-0.224   c0.451,0.328,0.551,0.96,0.224,1.412c-0.703,0.969-1.32,2.086-1.833,3.321C184.988,451.097,184.613,451.332,184.217,451.332z    M139.873,451.255c-0.219,0-0.441-0.071-0.626-0.218c-0.437-0.346-0.511-0.982-0.165-1.42c0.804-1.014,1.543-2.097,2.198-3.218   c0.281-0.478,0.9-0.643,1.382-0.362c0.481,0.281,0.643,0.9,0.362,1.382c-0.702,1.202-1.495,2.364-2.358,3.453   C140.467,451.123,140.171,451.255,139.873,451.255z M135.836,448.394c-0.437,0-0.84-0.286-0.97-0.726   c-0.401-1.368-0.695-2.746-0.877-4.098c-0.074-0.552,0.314-1.061,0.867-1.135c0.552-0.079,1.061,0.314,1.135,0.867   c0.168,1.25,0.442,2.528,0.814,3.798c0.157,0.536-0.15,1.097-0.686,1.254C136.025,448.381,135.929,448.394,135.836,448.394z    M188.997,444.947c-0.315,0-0.625-0.147-0.823-0.422c-0.325-0.454-0.22-1.085,0.234-1.41c1.224-0.875,2.572-1.489,4.007-1.825   c0.542-0.122,1.085,0.21,1.213,0.754c0.127,0.543-0.21,1.086-0.754,1.213c-1.176,0.275-2.284,0.78-3.291,1.501   C189.406,444.886,189.201,444.947,188.997,444.947z M200.293,444.66c-0.257,0-0.516-0.098-0.713-0.295   c-0.694-0.691-1.719-1.126-3.047-1.29c-0.553-0.068-0.947-0.573-0.878-1.127c0.069-0.552,0.569-0.951,1.127-0.878   c1.784,0.221,3.205,0.848,4.225,1.864c0.395,0.394,0.397,1.033,0.002,1.428C200.811,444.561,200.553,444.66,200.293,444.66z    M99.357,444.536c-0.507,0-0.943-0.38-1.002-0.895c-0.129-1.128-0.195-2.314-0.195-3.528l0.006-0.643   c0.011-0.55,0.461-0.99,1.01-0.99c0.006,0,0.013,0,0.02,0c0.557,0.011,1.001,0.472,0.99,1.03l-0.006,0.604   c0,1.136,0.061,2.246,0.182,3.297c0.064,0.554-0.333,1.056-0.888,1.119C99.434,444.534,99.396,444.536,99.357,444.536z    M143.933,444.294c-0.126,0-0.254-0.024-0.378-0.073c-0.517-0.208-0.767-0.797-0.559-1.314c0.5-1.242,0.887-2.484,1.149-3.693   c0.119-0.546,0.659-0.895,1.202-0.773c0.546,0.118,0.892,0.657,0.773,1.202c-0.287,1.321-0.707,2.673-1.25,4.02   C144.711,444.055,144.332,444.294,143.933,444.294z M134.81,440.413c-0.018,0-0.035,0-0.052-0.001   c-0.556-0.029-0.985-0.503-0.958-1.06c0.077-1.527,0.321-2.949,0.724-4.224c0.168-0.532,0.737-0.828,1.267-0.659   c0.533,0.168,0.828,0.735,0.659,1.267c-0.351,1.112-0.563,2.364-0.631,3.719C135.79,439.994,135.344,440.413,134.81,440.413z    M99.48,436.471c-0.043,0-0.088-0.003-0.132-0.009c-0.552-0.072-0.943-0.579-0.87-1.132c0.319-2.445,0.762-4.045,0.78-4.111   c0.15-0.538,0.704-0.852,1.244-0.701c0.537,0.15,0.851,0.706,0.701,1.244c-0.004,0.015-0.423,1.539-0.723,3.83   C100.414,436.1,99.98,436.471,99.48,436.471z M145.531,436.425c-0.54,0-0.987-0.427-1.008-0.972   c-0.053-1.396-0.363-2.534-0.899-3.292c-0.322-0.457-0.213-1.086,0.243-1.409c0.459-0.32,1.087-0.211,1.409,0.243   c0.771,1.094,1.198,2.568,1.266,4.381c0.022,0.558-0.413,1.027-0.971,1.048C145.556,436.425,145.544,436.425,145.531,436.425z    M137.415,432.93c-0.246,0-0.491-0.089-0.686-0.268c-0.409-0.378-0.435-1.017-0.056-1.427c1.134-1.229,2.564-1.969,4.134-2.141   c0.559-0.062,1.053,0.339,1.114,0.895c0.06,0.554-0.34,1.054-0.895,1.114c-1.093,0.119-2.059,0.625-2.87,1.503   C137.959,432.82,137.687,432.93,137.415,432.93z"/>
	<path style="fill:#241726;" d="M345.204,82.841c-0.814,0-1.649-0.144-2.482-0.429c-0.528-0.181-0.809-0.755-0.628-1.283   c0.182-0.528,0.756-0.807,1.283-0.628c1.156,0.398,2.279,0.426,3.322,0.082c0.535-0.173,1.102,0.116,1.275,0.645   c0.174,0.531-0.115,1.101-0.645,1.275C346.641,82.726,345.927,82.841,345.204,82.841z M339.614,80.389   c-0.247,0-0.493-0.09-0.688-0.27c-1.272-1.181-2.03-2.541-2.255-4.042c-0.083-0.551,0.298-1.066,0.849-1.149   c0.565-0.075,1.067,0.299,1.149,0.849c0.155,1.037,0.704,2,1.632,2.862c0.408,0.38,0.432,1.019,0.052,1.427   C340.155,80.281,339.885,80.389,339.614,80.389z M350.275,80.259c-0.235,0-0.471-0.081-0.662-0.247   c-0.421-0.365-0.467-1.003-0.102-1.424c0.737-0.851,1.393-1.92,1.949-3.176c0.227-0.51,0.826-0.74,1.332-0.515   c0.511,0.225,0.741,0.822,0.515,1.332c-0.637,1.441-1.401,2.68-2.269,3.681C350.838,80.141,350.557,80.259,350.275,80.259z    M373.45,78.257c-0.414,0-0.804-0.257-0.951-0.67c-0.453-1.268-0.977-2.468-1.556-3.568c-0.26-0.494-0.07-1.105,0.423-1.364   c0.493-0.258,1.104-0.071,1.364,0.423c0.623,1.185,1.186,2.472,1.67,3.828c0.188,0.526-0.086,1.104-0.611,1.291   C373.678,78.238,373.562,78.257,373.45,78.257z M338.432,73.043c-0.156,0-0.315-0.036-0.464-0.113   c-0.495-0.255-0.689-0.865-0.432-1.361c0.617-1.191,1.516-2.35,2.675-3.443c0.405-0.384,1.045-0.364,1.428,0.041   c0.383,0.406,0.364,1.046-0.041,1.428c-0.993,0.937-1.757,1.913-2.269,2.902C339.151,72.844,338.798,73.043,338.432,73.043z    M353.642,72.996c-0.075,0-0.151-0.008-0.227-0.026c-0.545-0.125-0.884-0.667-0.759-1.21c0.282-1.228,0.479-2.522,0.585-3.847   c0.044-0.555,0.526-0.957,1.088-0.926c0.556,0.044,0.971,0.532,0.926,1.088c-0.114,1.422-0.327,2.814-0.63,4.137   C354.518,72.679,354.101,72.996,353.642,72.996z M298.026,72.028c-0.444,0-0.85-0.295-0.974-0.744   c-0.147-0.538,0.17-1.094,0.708-1.241c1.021-0.279,1.805-0.959,2.333-2.021c0.247-0.5,0.854-0.706,1.353-0.456   c0.5,0.248,0.704,0.854,0.456,1.353c-0.783,1.578-2.031,2.641-3.609,3.073C298.204,72.016,298.115,72.028,298.026,72.028z    M294.049,71.784c-0.101,0-0.202-0.015-0.304-0.046c-0.308-0.098-0.624-0.209-0.948-0.338c-1.19-0.472-2.18-1.125-2.941-1.938   c-0.381-0.407-0.359-1.047,0.048-1.427c0.406-0.382,1.048-0.36,1.427,0.048c0.555,0.594,1.299,1.078,2.212,1.44   c0.277,0.11,0.547,0.206,0.809,0.288c0.532,0.168,0.828,0.735,0.66,1.268C294.877,71.509,294.478,71.784,294.049,71.784z    M369.663,71.163c-0.301,0-0.598-0.133-0.797-0.389c-0.806-1.032-1.697-1.956-2.646-2.747c-0.429-0.357-0.487-0.994-0.13-1.422   c0.358-0.429,0.994-0.485,1.422-0.13c1.06,0.883,2.051,1.912,2.946,3.057c0.343,0.439,0.265,1.074-0.175,1.418   C370.099,71.093,369.88,71.163,369.663,71.163z M344.137,67.454c-0.344,0-0.68-0.176-0.868-0.492   c-0.286-0.479-0.129-1.099,0.349-1.385c1.191-0.71,2.47-1.324,3.804-1.824c0.519-0.191,1.104,0.068,1.3,0.592   c0.195,0.522-0.069,1.104-0.592,1.3c-1.22,0.457-2.39,1.018-3.476,1.666C344.491,67.407,344.314,67.454,344.137,67.454z    M289.067,66.129c-0.525,0-0.968-0.405-1.006-0.936c-0.016-0.213-0.024-0.429-0.024-0.646c0-1.152,0.215-2.4,0.64-3.71   c0.172-0.53,0.739-0.823,1.273-0.649c0.531,0.172,0.822,0.742,0.649,1.273c-0.359,1.108-0.542,2.147-0.542,3.087   c0,0.168,0.006,0.334,0.018,0.498c0.041,0.556-0.377,1.041-0.933,1.081C289.116,66.128,289.091,66.129,289.067,66.129z    M363.488,66.065c-0.15,0-0.302-0.034-0.446-0.105c-1.121-0.552-2.324-0.977-3.577-1.259c-0.544-0.123-0.885-0.664-0.763-1.208   c0.123-0.545,0.663-0.883,1.208-0.763c1.407,0.318,2.761,0.795,4.025,1.419c0.5,0.247,0.706,0.852,0.459,1.352   C364.219,65.858,363.861,66.065,363.488,66.065z M301.835,65.562c-0.004,0-0.009,0-0.013,0c-0.557-0.007-1.004-0.465-0.997-1.023   l0.002-0.222c0-1.109-0.143-2.303-0.424-3.551c-0.122-0.544,0.219-1.084,0.764-1.207c0.543-0.124,1.085,0.219,1.207,0.764   c0.314,1.393,0.474,2.737,0.474,3.995l-0.002,0.248C302.839,65.118,302.388,65.562,301.835,65.562z M354.306,64.965   c-0.399,0-0.749-0.234-0.911-0.576c-0.522,0.055-1.035,0.13-1.547,0.225c-0.555,0.105-1.076-0.261-1.177-0.81   c-0.102-0.548,0.261-1.075,0.81-1.177c0.565-0.105,1.13-0.186,1.695-0.248c-0.077-0.758-0.182-1.514-0.315-2.262   c-0.098-0.549,0.268-1.073,0.818-1.171c0.56-0.097,1.074,0.27,1.171,0.818c0.146,0.823,0.261,1.655,0.344,2.49   c0.109-0.002,0.22-0.003,0.329-0.003l0.16,1.011l-0.019,1.01c-0.139-0.011-0.267,0.001-0.4,0.003   c-0.128,0.384-0.481,0.668-0.909,0.689C354.339,64.965,354.322,64.965,354.306,64.965z M243.637,64.84   c-0.093,0-0.187-0.013-0.281-0.04c-0.536-0.155-0.844-0.714-0.69-1.25c0.019-0.064,0.466-1.599,1.436-3.923   c0.214-0.516,0.809-0.76,1.322-0.543c0.515,0.215,0.758,0.807,0.543,1.322c-0.922,2.208-1.355,3.69-1.359,3.705   C244.479,64.553,244.076,64.84,243.637,64.84z M291.303,58.485c-0.171,0-0.343-0.043-0.502-0.134   c-0.484-0.278-0.651-0.896-0.373-1.379c0.658-1.145,1.446-2.31,2.343-3.462c0.343-0.439,0.978-0.521,1.418-0.177   c0.44,0.342,0.519,0.977,0.177,1.418c-0.839,1.078-1.573,2.164-2.185,3.228C291.993,58.303,291.653,58.485,291.303,58.485z    M300.155,57.711c-0.396,0-0.772-0.235-0.933-0.623c-0.485-1.172-1.074-2.341-1.751-3.475c-0.286-0.479-0.129-1.1,0.349-1.385   c0.483-0.287,1.1-0.129,1.385,0.349c0.727,1.218,1.36,2.476,1.883,3.738c0.213,0.516-0.032,1.107-0.547,1.32   C300.415,57.687,300.284,57.711,300.155,57.711z M246.737,57.353c-0.155,0-0.312-0.036-0.459-0.11   c-0.497-0.255-0.693-0.863-0.44-1.359c0.633-1.238,1.316-2.448,2.028-3.598c0.294-0.473,0.916-0.619,1.391-0.326   c0.474,0.294,0.62,0.916,0.326,1.391c-0.683,1.102-1.338,2.263-1.945,3.452C247.459,57.152,247.104,57.353,246.737,57.353z    M352.897,57.028c-0.429,0-0.827-0.275-0.963-0.705c-0.399-1.259-0.879-2.479-1.427-3.627c-0.241-0.503-0.028-1.106,0.476-1.347   c0.499-0.243,1.105-0.029,1.347,0.476c0.589,1.232,1.104,2.54,1.53,3.888c0.169,0.532-0.126,1.1-0.658,1.268   C353.1,57.013,352.998,57.028,352.897,57.028z M296.222,52.093c-0.254,0-0.506-0.095-0.702-0.284   c-0.352-0.341-0.403-0.877-0.147-1.274c-0.044-0.039-0.086-0.083-0.124-0.131c-0.81-1.015-1.695-1.988-2.629-2.888   c-0.402-0.387-0.414-1.026-0.027-1.427c0.386-0.402,1.028-0.413,1.427-0.027c0.984,0.947,1.916,1.969,2.77,3.036   c0.556-0.529,1.13-1.047,1.718-1.55c0.424-0.362,1.061-0.316,1.423,0.11c0.364,0.423,0.315,1.06-0.109,1.423   c-1.008,0.865-1.975,1.775-2.875,2.704C296.75,51.99,296.487,52.093,296.222,52.093z M251.01,50.491   c-0.212,0-0.426-0.067-0.609-0.205c-0.445-0.336-0.533-0.97-0.195-1.415c0.851-1.126,1.752-2.193,2.676-3.172   c0.384-0.404,1.022-0.423,1.428-0.041c0.405,0.383,0.424,1.022,0.041,1.428c-0.875,0.926-1.727,1.937-2.536,3.005   C251.617,50.353,251.316,50.491,251.01,50.491z M349.411,49.766c-0.324,0-0.64-0.155-0.836-0.442   c-0.734-1.076-1.55-2.091-2.428-3.016c-0.384-0.404-0.367-1.044,0.038-1.428c0.405-0.384,1.044-0.366,1.428,0.037   c0.952,1.003,1.837,2.103,2.631,3.27c0.315,0.461,0.195,1.089-0.266,1.403C349.804,49.71,349.606,49.766,349.411,49.766z    M302.347,46.828c-0.315,0-0.624-0.146-0.822-0.421c-0.326-0.454-0.221-1.084,0.232-1.41c1.115-0.8,2.278-1.561,3.454-2.261   c0.48-0.287,1.102-0.126,1.385,0.351c0.285,0.479,0.128,1.1-0.351,1.385c-1.128,0.671-2.241,1.4-3.31,2.166   C302.757,46.767,302.552,46.828,302.347,46.828z M290.235,45.194c-0.208,0-0.419-0.064-0.6-0.197   c-1.041-0.769-2.147-1.481-3.285-2.114c-0.488-0.271-0.664-0.886-0.393-1.373c0.271-0.487,0.886-0.667,1.373-0.393   c1.215,0.675,2.395,1.433,3.506,2.254c0.448,0.332,0.544,0.965,0.211,1.414C290.85,45.052,290.544,45.194,290.235,45.194z    M256.568,44.645c-0.293,0-0.583-0.126-0.783-0.371c-0.353-0.431-0.289-1.068,0.143-1.422c1.099-0.899,2.251-1.709,3.424-2.407   c0.478-0.287,1.1-0.129,1.385,0.351c0.285,0.479,0.128,1.1-0.351,1.385c-1.088,0.647-2.157,1.399-3.179,2.235   C257.018,44.57,256.792,44.645,256.568,44.645z M343.868,43.942c-0.211,0-0.423-0.066-0.606-0.202   c-1.019-0.765-2.12-1.457-3.274-2.058c-0.495-0.256-0.688-0.867-0.43-1.361c0.255-0.495,0.864-0.69,1.361-0.43   c1.253,0.651,2.448,1.403,3.556,2.233c0.446,0.335,0.536,0.968,0.201,1.415C344.478,43.803,344.175,43.942,343.868,43.942z    M309.284,42.697c-0.376,0-0.736-0.21-0.911-0.57c-0.243-0.502-0.033-1.106,0.47-1.349c1.249-0.604,2.525-1.152,3.794-1.63   c0.524-0.197,1.106,0.067,1.301,0.589c0.197,0.523-0.067,1.105-0.589,1.301c-1.212,0.457-2.433,0.981-3.626,1.559   C309.581,42.665,309.431,42.697,309.284,42.697z M283.193,41.279c-0.125,0-0.252-0.023-0.374-0.072   c-1.198-0.477-2.447-0.89-3.716-1.224c-0.54-0.142-0.861-0.694-0.719-1.234c0.142-0.54,0.701-0.861,1.234-0.719   c1.348,0.355,2.676,0.793,3.95,1.301c0.518,0.207,0.77,0.794,0.563,1.313C283.974,41.038,283.594,41.279,283.193,41.279z    M263.493,40.558c-0.405,0-0.788-0.246-0.942-0.647c-0.201-0.52,0.058-1.105,0.579-1.305c1.31-0.506,2.669-0.898,4.042-1.166   c0.546-0.113,1.077,0.251,1.185,0.798c0.107,0.547-0.251,1.077-0.798,1.185c-1.256,0.246-2.502,0.605-3.702,1.067   C263.737,40.536,263.615,40.558,263.493,40.558z M336.741,40.217c-0.107,0-0.215-0.017-0.323-0.053   c-0.478-0.161-0.968-0.312-1.469-0.451c-0.768-0.213-1.538-0.396-2.306-0.547c-0.547-0.109-0.903-0.64-0.795-1.188   c0.109-0.547,0.646-0.905,1.188-0.795c0.818,0.162,1.637,0.356,2.454,0.583c0.537,0.149,1.061,0.312,1.573,0.484   c0.529,0.178,0.813,0.751,0.634,1.279C337.556,39.951,337.163,40.217,336.741,40.217z M316.837,39.863   c-0.445,0-0.853-0.297-0.975-0.748c-0.145-0.539,0.175-1.093,0.713-1.238c1.346-0.362,2.708-0.654,4.05-0.869   c0.549-0.094,1.068,0.286,1.157,0.838c0.089,0.55-0.287,1.069-0.838,1.157c-1.274,0.204-2.567,0.482-3.845,0.826   C317.012,39.852,316.923,39.863,316.837,39.863z M275.402,39.23c-0.043,0-0.087-0.003-0.131-0.009   c-1.118-0.144-2.232-0.218-3.314-0.218l-0.561,0.007c-0.567-0.037-1.022-0.428-1.036-0.984c-0.014-0.557,0.427-1.021,0.984-1.036   l0.613-0.007c1.167,0,2.37,0.079,3.574,0.235c0.553,0.072,0.943,0.579,0.872,1.132C276.337,38.859,275.902,39.23,275.402,39.23z    M328.839,38.647c-0.025,0-0.048-0.001-0.073-0.003c-0.805-0.058-1.618-0.078-2.405-0.084c-0.507,0-1.011,0.013-1.513,0.036   c-0.574,0.025-1.031-0.403-1.057-0.961c-0.027-0.557,0.403-1.031,0.961-1.057c0.555-0.027,1.142-0.034,1.669-0.038   c0.825,0,1.656,0.03,2.49,0.09c0.556,0.039,0.976,0.523,0.935,1.079C329.808,38.241,329.364,38.647,328.839,38.647z"/>
	<g>
		<g>
			<circle style="fill:#EFEBD5;" cx="243.593" cy="263.886" r="149.993"/>
			<path style="fill:#EB7F31;" d="M243.593,84.715c-98.954,0-179.171,80.218-179.171,179.171s80.218,179.171,179.171,179.171     s179.171-80.218,179.171-179.171S342.547,84.715,243.593,84.715z M243.593,400.689c-75.554,0-136.803-61.249-136.803-136.803     s61.249-136.803,136.803-136.803s136.803,61.249,136.803,136.803S319.147,400.689,243.593,400.689z"/>
			<path style="fill:#D5647E;" d="M240.464,269.602c0,0-43.343-32.668-46.305-43.568c-2.963-10.899-7.83-29.015-4.104-29.985     c3.726-0.97,27.803,15.428,30.118,21.615S251.517,276.124,240.464,269.602z"/>
			<path style="fill:#D5647E;" d="M244.72,268.264c0,0,35.799-65.623,49.01-73.474c13.211-7.851,35.175-20.831,36.791-16.657     c1.616,4.174-16.098,39.948-23.528,45.178C299.564,228.542,237.837,284.296,244.72,268.264z"/>
			<circle style="fill:#413655;" cx="243.593" cy="270.508" r="15.062"/>
			<g>
				<path style="fill:#241726;" d="M240.559,170.256h-5.204c0.072-0.144,0.121-0.299,0.116-0.471      c-0.327-11.553-0.922-31.065-1.229-31.95c-0.116-0.336-0.482-0.659-0.831-0.731c-0.539-0.119-1.355-0.292-7.534,6.436      c-0.378,0.411-0.35,1.051,0.06,1.427c0.411,0.379,1.05,0.352,1.427-0.06c1.737-1.891,3.804-3.992,5.052-5.095      c0.267,4.705,0.742,19.703,1.034,30.03c0.004,0.15,0.046,0.287,0.108,0.413h-6.937c-0.558,0-1.01,0.452-1.01,1.01      c0,0.558,0.452,1.01,1.01,1.01h13.938c0.558,0,1.01-0.452,1.01-1.01C241.569,170.708,241.117,170.256,240.559,170.256z"/>
				<path style="fill:#241726;" d="M264.659,171.713h-17.335c-0.39,0-0.745-0.225-0.912-0.577s-0.116-0.769,0.129-1.071      c4.867-5.968,16.446-22.856,11.644-29.242c-1.392-1.85-2.813-2.715-4.274-2.596c-2.878,0.255-5.561,4.366-6.352,5.93      c-0.251,0.497-0.859,0.697-1.356,0.446c-0.498-0.252-0.698-0.858-0.447-1.356c0.136-0.27,3.388-6.622,7.974-7.032      c2.179-0.184,4.229,0.947,6.07,3.394c5.745,7.639-6.283,24.678-10.4,30.084h15.261c0.558,0,1.01,0.452,1.01,1.01      S265.217,171.713,264.659,171.713z"/>
			</g>
			<path style="fill:#241726;" d="M127.487,284.45c-4.898,0-7.385-3.022-8.041-4.759c-0.197-0.522,0.066-1.105,0.588-1.302     c0.52-0.199,1.102,0.064,1.3,0.583c0.072,0.181,1.675,3.988,7.295,3.395c4.399-0.47,6.622-7.924,6.826-14.652     c0.067-2.184-0.074-4.444-0.419-6.565c-1.411,1.864-3.806,4.337-6.863,4.867c-2.368,0.415-4.682-0.396-6.883-2.395     c-2.422-2.201-3.044-6.767-1.386-10.179c1.651-3.395,5.11-4.917,9.492-4.183c3.564,0.602,5.859,4.224,7.064,8.808     c0.065,0.13,0.102,0.273,0.107,0.419c0.714,2.912,1.002,6.178,0.908,9.289c-0.221,7.256-2.614,15.957-8.631,16.599     C128.373,284.426,127.92,284.45,127.487,284.45z M127.297,251.097c-2.599,0-4.547,1.114-5.575,3.229     c-1.25,2.572-0.816,6.217,0.928,7.801c1.715,1.559,3.462,2.199,5.173,1.901c3.339-0.575,5.894-4.4,6.629-5.615     c-1.029-3.811-2.832-6.728-5.391-7.16C128.445,251.149,127.856,251.097,127.297,251.097z"/>
			<path style="fill:#241726;" d="M247.592,396.534c-0.671,0-1.371-0.06-2.097-0.182c-3.564-0.602-5.859-4.224-7.064-8.808     c-0.064-0.13-0.102-0.273-0.107-0.419c-0.714-2.911-1.002-6.176-0.908-9.287c0.22-7.256,2.613-15.959,8.631-16.601     c5.804-0.615,8.684,2.795,9.398,4.685c0.197,0.522-0.066,1.105-0.588,1.302c-0.522,0.195-1.102-0.065-1.3-0.583     c-0.073-0.182-1.684-3.992-7.295-3.395c-4.399,0.47-6.622,7.925-6.826,14.654c-0.067,2.184,0.074,4.443,0.419,6.563     c1.411-1.864,3.806-4.337,6.863-4.867c2.375-0.409,4.683,0.397,6.883,2.395c2.422,2.201,3.044,6.767,1.386,10.179     C253.609,395.003,250.972,396.534,247.592,396.534z M240.439,387.199c1.029,3.811,2.832,6.728,5.391,7.16     c3.479,0.588,6.089-0.503,7.339-3.073c1.25-2.572,0.816-6.217-0.928-7.801c-1.713-1.558-3.458-2.2-5.173-1.901     C243.729,382.159,241.174,385.984,240.439,387.199z"/>
			<path style="fill:#241726;" d="M359.795,272.53c-0.241,0-0.454-0.008-0.632-0.02c-4.422-0.291-8.301-3.056-8.301-5.919     c0-0.558,0.452-1.01,1.01-1.01c0.558,0,1.01,0.452,1.01,1.01c0,1.568,2.959,3.676,6.414,3.902     c2.132,0.149,7.198-0.367,8.217-8.097c0.244-1.849-0.174-3.384-1.276-4.691c-3.274-3.882-11.281-4.232-11.361-4.235     c-0.412-0.016-0.773-0.28-0.912-0.669c-0.139-0.388-0.029-0.822,0.28-1.096c4.503-4,9.492-8.954,10.301-10.529     c-1.311-0.623-6.562-0.908-11.032-0.776c-0.54,0.019-1.023-0.423-1.04-0.981c-0.016-0.558,0.423-1.023,0.981-1.04     c3.265-0.094,11.045-0.14,12.713,1.482c0.41,0.398,0.496,0.828,0.496,1.119c0,1.818-5.28,6.977-9.373,10.704     c2.92,0.419,7.842,1.576,10.492,4.717c1.47,1.742,2.054,3.848,1.735,6.258C368.347,271.528,362.407,272.53,359.795,272.53z"/>
			<path style="fill:#241726;" d="M184.625,172.277c-0.316,0-0.627-0.148-0.825-0.425l-14.832-20.869     c-0.323-0.455-0.216-1.085,0.239-1.409c0.456-0.323,1.086-0.215,1.409,0.239l14.832,20.869c0.323,0.455,0.216,1.085-0.239,1.409     C185.032,172.217,184.828,172.277,184.625,172.277z"/>
			<path style="fill:#241726;" d="M143.554,212.649c-0.127,0-0.257-0.024-0.382-0.075l-22.265-9.097     c-0.517-0.211-0.765-0.801-0.553-1.317c0.211-0.517,0.806-0.765,1.317-0.553l22.265,9.097c0.517,0.211,0.765,0.801,0.553,1.317     C144.329,212.412,143.951,212.649,143.554,212.649z"/>
			<path style="fill:#241726;" d="M125.992,334.809c-0.328,0-0.65-0.16-0.844-0.454c-0.307-0.466-0.179-1.092,0.287-1.4     l20.985-13.852c0.466-0.307,1.092-0.178,1.4,0.287c0.307,0.466,0.179,1.092-0.287,1.4l-20.985,13.852     C126.376,334.755,126.183,334.809,125.992,334.809z"/>
			<path style="fill:#241726;" d="M173.186,382.208c-0.213,0-0.427-0.067-0.61-0.205c-0.445-0.337-0.532-0.972-0.194-1.416     l13.149-17.323c0.338-0.443,0.972-0.53,1.416-0.194c0.445,0.337,0.532,0.972,0.194,1.416l-13.149,17.323     C173.793,382.07,173.492,382.208,173.186,382.208z"/>
			<path style="fill:#241726;" d="M314.008,382.208c-0.322,0-0.638-0.154-0.835-0.439l-11.871-17.323     c-0.315-0.461-0.197-1.089,0.262-1.405c0.461-0.314,1.089-0.196,1.405,0.262l11.871,17.323c0.315,0.461,0.197,1.089-0.262,1.405     C314.404,382.151,314.205,382.208,314.008,382.208z"/>
			<path style="fill:#241726;" d="M360.185,336.481c-0.147,0-0.297-0.033-0.439-0.101L335.92,324.85     c-0.502-0.244-0.712-0.847-0.47-1.349c0.243-0.5,0.846-0.712,1.349-0.47l23.826,11.531c0.502,0.244,0.712,0.847,0.47,1.349     C360.921,336.271,360.561,336.481,360.185,336.481z"/>
			<path style="fill:#241726;" d="M340.923,218.918c-0.264,0-0.529-0.104-0.727-0.309c-0.388-0.401-0.376-1.041,0.026-1.428     l21.898-21.133c0.402-0.388,1.042-0.375,1.428,0.026c0.388,0.401,0.376,1.041-0.026,1.428l-21.898,21.133     C341.428,218.824,341.176,218.918,340.923,218.918z"/>
			<path style="fill:#241726;" d="M302.132,172.277c-0.196,0-0.395-0.057-0.569-0.177c-0.461-0.315-0.579-0.943-0.263-1.404     l14.261-20.869c0.315-0.461,0.942-0.578,1.404-0.263c0.461,0.315,0.579,0.943,0.263,1.404l-14.261,20.869     C302.772,172.123,302.455,172.277,302.132,172.277z"/>
			<path style="fill:#241726;" d="M249.681,431.657c-16.09,0-30.844-2.49-43.28-5.759c-35.526-9.337-60.298-26.883-60.543-27.059     c-0.454-0.325-0.558-0.956-0.234-1.41c0.325-0.452,0.955-0.557,1.41-0.234c0.244,0.175,24.763,17.531,59.947,26.766     c32.398,8.504,80.747,11.655,127.103-21.605c0.453-0.327,1.084-0.222,1.41,0.232c0.326,0.454,0.221,1.084-0.232,1.41     C306.053,424.955,276.071,431.657,249.681,431.657z"/>
			<g>
				<path style="fill:#FFFFFF;" d="M87.106,306.376c-0.244,0-0.487-0.087-0.681-0.263c-3.804-3.468-2.591-7.379-1.42-8.962      c0.332-0.45,0.966-0.542,1.413-0.211s0.543,0.96,0.215,1.408c-0.234,0.325-2.174,3.239,1.153,6.272      c0.412,0.376,0.442,1.015,0.066,1.427C87.654,306.265,87.38,306.376,87.106,306.376z"/>
				<path style="fill:#FFFFFF;" d="M96.223,310.521c-0.244,0-0.487-0.087-0.681-0.263c-3.804-3.468-2.592-7.379-1.421-8.962      c0.332-0.449,0.966-0.544,1.413-0.211c0.447,0.33,0.543,0.96,0.215,1.408l0,0c-0.233,0.323-2.174,3.239,1.154,6.272      c0.412,0.376,0.442,1.015,0.066,1.427C96.771,310.41,96.497,310.521,96.223,310.521z"/>
				<path style="fill:#FFFFFF;" d="M89.565,320.137c-0.244,0-0.486-0.087-0.681-0.263c-3.805-3.468-2.593-7.38-1.421-8.963      c0.332-0.448,0.966-0.542,1.413-0.211c0.447,0.33,0.543,0.96,0.215,1.408c-0.234,0.324-2.174,3.24,1.154,6.273      c0.412,0.376,0.442,1.015,0.066,1.427C90.112,320.026,89.839,320.137,89.565,320.137z"/>
				<path style="fill:#FFFFFF;" d="M98.515,325.815c-0.244,0-0.487-0.087-0.681-0.263c-3.804-3.468-2.592-7.379-1.421-8.962      c0.332-0.449,0.966-0.543,1.413-0.211c0.447,0.33,0.543,0.96,0.215,1.408l0,0c-0.233,0.323-2.174,3.239,1.154,6.272      c0.412,0.376,0.442,1.015,0.066,1.427C99.062,325.704,98.789,325.815,98.515,325.815z"/>
				<path style="fill:#FFFFFF;" d="M104.887,316.263c-0.244,0-0.486-0.087-0.681-0.263c-3.804-3.467-2.592-7.379-1.42-8.962      c0.332-0.449,0.966-0.544,1.413-0.211c0.447,0.33,0.543,0.96,0.215,1.408c-0.234,0.324-2.174,3.24,1.153,6.272      c0.412,0.376,0.442,1.015,0.066,1.427C105.435,316.152,105.162,316.263,104.887,316.263z"/>
				<path style="fill:#FFFFFF;" d="M93.116,335.575c-0.244,0-0.486-0.087-0.681-0.263c-3.805-3.468-2.592-7.379-1.421-8.962      c0.332-0.449,0.966-0.544,1.413-0.211c0.447,0.33,0.543,0.96,0.215,1.408c-0.234,0.325-2.174,3.239,1.154,6.272      c0.412,0.376,0.442,1.015,0.066,1.427C93.663,335.463,93.39,335.575,93.116,335.575z"/>
				<path style="fill:#FFFFFF;" d="M103.491,338.225c-0.157,0-0.315-0.036-0.464-0.113c-6.137-3.179-4.409-8.134-4.391-8.184      c0.192-0.525,0.776-0.79,1.296-0.602c0.521,0.191,0.79,0.765,0.605,1.287c-0.049,0.145-1.088,3.369,3.419,5.705      c0.495,0.256,0.689,0.866,0.432,1.361C104.21,338.027,103.856,338.225,103.491,338.225z"/>
			</g>
			<g>
				<path style="fill:#FFFFFF;" d="M383.883,356.196c-0.393,0-0.765-0.23-0.929-0.615c-0.218-0.512,0.019-1.104,0.53-1.323      c0.372-0.165,3.511-1.698,2.18-5.993c-0.166-0.533,0.133-1.099,0.666-1.264c0.537-0.163,1.099,0.134,1.264,0.666      c1.524,4.918-1.501,7.676-3.315,8.447C384.149,356.17,384.015,356.196,383.883,356.196z"/>
				<path style="fill:#FFFFFF;" d="M378.122,348.004c-0.393,0-0.766-0.23-0.929-0.615c-0.218-0.512,0.019-1.104,0.53-1.323      c0.372-0.165,3.511-1.698,2.18-5.993c-0.166-0.533,0.133-1.099,0.666-1.264c0.534-0.161,1.099,0.134,1.264,0.666      c1.524,4.918-1.501,7.676-3.315,8.447C378.388,347.978,378.254,348.004,378.122,348.004z"/>
				<path style="fill:#FFFFFF;" d="M388.733,343.086c-0.393,0-0.766-0.23-0.929-0.615c-0.218-0.511,0.019-1.102,0.528-1.323l0,0      c0.364-0.16,3.516-1.691,2.182-5.993c-0.166-0.533,0.133-1.099,0.666-1.264c0.539-0.164,1.099,0.133,1.264,0.666      c1.525,4.918-1.501,7.676-3.315,8.447C389,343.06,388.866,343.086,388.733,343.086z"/>
				<path style="fill:#FFFFFF;" d="M383.892,333.656c-0.393,0-0.766-0.23-0.929-0.615c-0.218-0.512,0.019-1.104,0.53-1.323      c0.372-0.165,3.511-1.698,2.18-5.993c-0.166-0.533,0.133-1.099,0.666-1.264c0.539-0.164,1.099,0.135,1.264,0.666      c1.524,4.918-1.501,7.676-3.315,8.447C384.158,333.63,384.024,333.656,383.892,333.656z"/>
				<path style="fill:#FFFFFF;" d="M373.56,338.664c-0.393,0-0.766-0.23-0.929-0.615c-0.218-0.512,0.019-1.104,0.53-1.323      c0.372-0.165,3.511-1.698,2.18-5.993c-0.166-0.533,0.133-1.099,0.666-1.264c0.536-0.161,1.1,0.134,1.264,0.666      c1.524,4.918-1.501,7.676-3.315,8.447C373.826,338.639,373.692,338.664,373.56,338.664z"/>
				<path style="fill:#FFFFFF;" d="M393.49,327.975c-0.393,0-0.766-0.23-0.929-0.615c-0.218-0.511,0.019-1.102,0.528-1.323l0,0      c0.364-0.16,3.515-1.691,2.182-5.992c-0.166-0.533,0.133-1.099,0.666-1.264c0.539-0.162,1.099,0.134,1.264,0.666      c1.524,4.917-1.501,7.675-3.315,8.446C393.756,327.949,393.622,327.975,393.49,327.975z"/>
				<path style="fill:#FFFFFF;" d="M388.485,321.177c-0.292,0-0.581-0.125-0.781-0.368c-0.352-0.428-0.293-1.06,0.131-1.417      c0.118-0.102,2.643-2.355-0.059-6.65c-0.297-0.472-0.155-1.096,0.318-1.393c0.473-0.296,1.096-0.155,1.393,0.318      c3.681,5.85-0.32,9.245-0.36,9.279C388.938,321.102,388.711,321.177,388.485,321.177z"/>
			</g>
		</g>
		<g>
			<path style="fill:#54ADA0;" d="M505.401,183.652c-8.681-18.357-102.43-12.301-102.43-12.301     c-25,4.055-24.305,65.371-17.708,80.502c2.896,6.642,24.054,10.196,47.795,11.304c-2.616,11.537-5.586,27.379-1.847,26.207     c3.922-1.229,18.113-16.212,27.006-25.914c21.951-0.486,41.405-2.89,45.794-6.701     C514.775,247.403,514.081,202.009,505.401,183.652z"/>
			<path style="fill:#FFFFFF;" d="M410.148,211.597c0,0,15.337-18.947,18.919-15.537c3.581,3.41,14.317,20.33,14.317,20.33     s25.235-37.011,28.312-34.146c3.077,2.865,15.421,13.816,15.421,13.816s-41.612,52.361-45.647,48.948     S410.148,211.597,410.148,211.597z"/>
		</g>
		<g>
			<g>
				<path style="fill:#F5C000;" d="M27.562,68.546c0,0,51.331-49.07,101.503-12.919s38.294,82.063,11.534,105.855      c0,0,8.766,22.187,2.307,27.73c-6.459,5.543-27.761-8.285-27.761-8.285s-35.435,19.334-71.883,5.707      S-12.116,100.381,27.562,68.546z"/>
			</g>
			<g>
				<path style="fill:#241726;" d="M71.59,166.59c-0.261,0-0.514-0.102-0.702-0.284c-0.194-0.187-0.305-0.445-0.308-0.715      c0,0-0.046-4.24-0.109-10.951c-3.979-0.998-7.708-2.625-11.105-4.847c-8.22,7.576-8.72,7.576-9.25,7.576      c-2.29,0-8.433-7.193-11.891-11.481c-0.277-0.343-0.299-0.827-0.054-1.195c0.368-0.552,1.657-2.1,8.5-9.078      c-1.574-3.115-2.691-6.472-3.324-10.002c-13.152-0.429-13.801-1.166-14.233-1.656c-0.185-0.209-0.326-0.618-0.299-0.896      c0.276-2.947-0.002-15.461-0.005-15.587c-0.006-0.27,0.097-0.531,0.284-0.725c0.187-0.194,0.445-0.305,0.715-0.308      c0,0,6.094-0.066,15.222-0.147c0.951-2.576,2.152-4.993,3.581-7.202c-10.061-10.653-9.998-11.68-9.956-12.364      c0.017-0.279,0.206-0.668,0.421-0.846c2.28-1.887,10.932-10.934,11.02-11.026c0.186-0.194,0.443-0.307,0.713-0.312      c0.272-0.025,0.531,0.099,0.723,0.288c0,0,4.667,4.567,11.563,11.343c2.228-1.108,4.597-1.991,7.06-2.631      c0.087-14.953,0.354-16.29,0.443-16.733c0.087-0.433,0.444-0.76,0.883-0.806c5.478-0.587,14.908-1.328,16.526,0.29      c0.4,0.4,0.851,0.852,1.384,17.435c2.432,0.679,4.726,1.567,6.839,2.65c7.013-6.89,11.772-11.548,11.772-11.548      c0.192-0.188,0.47-0.268,0.723-0.288c0.27,0.005,0.527,0.117,0.713,0.312c0.088,0.092,8.74,9.139,11.02,11.026      c0.216,0.179,0.404,0.568,0.421,0.848c0.041,0.694,0.103,1.739-10.353,12.782c1.266,2.017,2.347,4.205,3.223,6.522      c11.789,0.085,14.118,0.284,14.837,0.428c0.432,0.087,0.76,0.444,0.806,0.883c0.587,5.477,1.33,14.907-0.29,16.527      c-0.376,0.376-0.764,0.765-13.478,1.246c-0.584,3.514-1.66,6.886-3.205,10.045c7.221,7.352,8.567,8.964,8.945,9.531      c0.245,0.368,0.223,0.851-0.054,1.195c-3.458,4.287-9.601,11.481-11.892,11.481c-0.537,0-1.045,0-9.535-7.837      c-3.129,2.101-6.558,3.697-10.212,4.755c-0.436,10.998-1.096,11.577-1.581,12.002c-0.209,0.183-0.611,0.316-0.892,0.297      c-2.944-0.279-15.46,0.001-15.587,0.004C71.605,166.59,71.598,166.59,71.59,166.59z M59.266,147.501      c0.199,0,0.399,0.058,0.571,0.178c3.582,2.456,7.572,4.198,11.861,5.178c0.456,0.104,0.781,0.507,0.785,0.976      c0.047,5.17,0.087,8.991,0.106,10.717c2.888-0.059,11.013-0.198,14.192-0.019c0.221-0.841,0.616-3.386,0.901-11.056      c0.016-0.443,0.32-0.824,0.748-0.938c3.961-1.06,7.65-2.784,10.966-5.12c0.389-0.274,0.917-0.241,1.269,0.085      c6.457,5.977,8.346,7.448,8.89,7.807c1.353-0.544,5.894-5.433,9.679-10.064c-0.91-1.066-3.241-3.568-8.76-9.18      c-0.306-0.311-0.378-0.783-0.179-1.171c1.746-3.392,2.91-7.059,3.46-10.897c0.07-0.483,0.475-0.848,0.964-0.866      c9.718-0.356,12.316-0.669,13.009-0.808c0.582-1.425,0.336-8.05-0.258-13.963c-1.507-0.12-5.342-0.25-14.431-0.31      c-0.424-0.003-0.801-0.27-0.944-0.67c-0.957-2.675-2.197-5.175-3.686-7.431c-0.259-0.392-0.214-0.911,0.11-1.252      c7.665-8.067,9.675-10.768,10.193-11.657c-2.374-2.121-8.021-7.965-10.023-10.048c-1.638,1.603-5.91,5.79-11.564,11.346      c-0.318,0.313-0.8,0.38-1.189,0.169c-2.358-1.276-4.975-2.291-7.78-3.017c-0.434-0.112-0.742-0.497-0.756-0.946      c-0.411-13.076-0.798-16.165-0.943-16.885c-1.345-0.573-8.012-0.325-13.959,0.273c-0.13,1.624-0.268,5.923-0.323,16.409      c-0.002,0.467-0.324,0.87-0.776,0.978c-2.824,0.672-5.522,1.675-8.021,2.983c-0.388,0.203-0.864,0.133-1.177-0.175      c-5.546-5.45-9.732-9.552-11.349-11.135c-2.003,2.083-7.649,7.927-10.023,10.049c0.508,0.872,2.457,3.494,9.804,11.247      c0.327,0.344,0.369,0.87,0.103,1.263c-1.655,2.432-3.013,5.151-4.035,8.082c-0.14,0.402-0.519,0.674-0.945,0.678      c-7.276,0.064-12.736,0.119-14.903,0.142c0.058,2.889,0.196,11.014,0.019,14.192c0.925,0.244,3.891,0.689,13.366,0.977      c0.485,0.015,0.892,0.374,0.968,0.853c0.607,3.862,1.816,7.513,3.594,10.853c0.207,0.389,0.138,0.868-0.171,1.183      c-5.212,5.306-7.44,7.699-8.323,8.734c3.761,4.601,8.271,9.458,9.69,10.055c0.55-0.366,2.407-1.818,8.587-7.53      C58.773,147.591,59.019,147.501,59.266,147.501z M49.818,155.404L49.818,155.404L49.818,155.404z M128.261,123.225h0.02H128.261      z"/>
				<path style="fill:#241726;" d="M79.442,139.287c-11.085,0-20.103-9.018-20.103-20.103s9.018-20.103,20.103-20.103      s20.103,9.018,20.103,20.103S90.527,139.287,79.442,139.287z M79.442,101.101c-9.971,0-18.083,8.112-18.083,18.083      s8.112,18.083,18.083,18.083s18.083-8.112,18.083-18.083S89.414,101.101,79.442,101.101z"/>
			</g>
			<path style="fill:#FFFFFF;" d="M142.461,91.07c-0.404,0-0.786-0.245-0.941-0.644c-12.968-33.333-35.312-31.495-35.541-31.474     c-0.557,0.045-1.05-0.349-1.106-0.905c-0.055-0.555,0.349-1.051,0.905-1.106c0.248-0.027,6.176-0.565,13.819,3.245     c6.976,3.477,16.769,11.419,23.805,29.507c0.202,0.52-0.055,1.105-0.575,1.307C142.706,91.048,142.583,91.07,142.461,91.07z"/>
		</g>
	</g>
	<path style="fill:#FFFFFF;" d="M357.482,145.576c-0.319,0-0.632-0.15-0.829-0.431c-29.15-41.616-79.617-42.126-80.123-42.126   c-0.558,0-1.01-0.453-1.01-1.01c0-0.558,0.453-1.01,1.01-1.01c0.517,0,52.011,0.491,81.778,42.988   c0.32,0.457,0.209,1.086-0.249,1.407C357.885,145.517,357.682,145.576,357.482,145.576z"/>
	<path style="fill:#FFFFFF;" d="M378.121,174.989c-0.475,0-0.899-0.336-0.991-0.82c-1.113-5.808-12.193-18.924-12.304-19.057   c-0.361-0.425-0.309-1.062,0.117-1.423c0.423-0.358,1.062-0.309,1.423,0.117c0.471,0.554,11.536,13.656,12.748,19.982   c0.105,0.548-0.255,1.077-0.802,1.183C378.248,174.983,378.184,174.989,378.121,174.989z"/>
</g>
<g>
</g>
<g>
</g>
<g>
</g>
<g>
</g>
<g>
</g>
<g>
</g>
<g>
</g>
<g>
</g>
<g>
</g>
<g>
</g>
<g>
</g>
<g>
</g>
<g>
</g>
<g>
</g>
<g>
</g>
</svg>
