<svg id="Layer_1" enable-background="new 0 0 66 66" viewBox="0 0 66 66" xmlns="http://www.w3.org/2000/svg"><g><g><g><g><path d="m33.3 63.88c-.84 0-1.7-.42-2.22-1.13-.62-.84-.81-2.01-.52-3.22.18-.75.53-1.46 1.01-2.07-.61-.47-1.3-.84-2.02-1.07-1.45-.47-3.08-.41-4.51.12.11.24.21.47.3.72.22.57.46 1.34.38 2.17-.09.98-.64 1.81-1.44 2.18-1.12.52-2.54.02-3.19-1.11-.52-.92-.48-2.13.09-3.15.31-.56.78-1.06 1.39-1.51-1.42-1.98-3.61-3.44-5.98-3.94-.01.16-.02.31-.04.46-.18 1.18-.89 2.19-1.87 2.61-1.23.54-2.72.03-3.27-1.1-.6-1.24.08-2.66 1.09-3.32.62-.4 1.31-.56 1.93-.6-.59-1.58-1.54-3.06-2.68-4.18-2.95-2.91-4.87-6.13-5.68-9.57-.49-2.08-.74-4.24-.74-6.4 0-7.54 2.98-14.59 8.39-19.85 5.41-5.25 12.55-8.04 20.09-7.81 14.18.4 25.95 11.8 26.81 25.94.3 4.87-.68 9.72-2.83 14.04l2.34 8.63c.14.52-.01 1.08-.4 1.45-.39.38-.95.51-1.46.36l-6.61-1.98-2.86 2.73c-.35.34-.92.33-1.25-.03-.34-.35-.32-.92.03-1.25l2.98-2.84c.38-.37.94-.5 1.45-.35l6.27 1.88-2.23-8.23c-.09-.35-.06-.72.11-1.05 2.04-4.06 2.98-8.64 2.7-13.24-.81-13.22-11.84-23.88-25.1-24.26-7.06-.19-13.74 2.4-18.81 7.31-5.06 4.92-7.85 11.52-7.85 18.57 0 2.02.23 4.04.7 5.99.74 3.11 2.49 6.05 5.2 8.71 1.37 1.35 2.5 3.13 3.17 5.02.06.18.12.35.17.52 3.15.47 6.02 2.31 7.81 4.93 1.87-.77 4.02-.87 5.94-.26 1.03.33 1.98.86 2.8 1.53.3-.2.62-.37.96-.5 1.41-.56 2.93-.43 4.36-.24.88.12 1.69.28 2.52.47.41-.77.79-1.51.91-2.28.39-2.41-3.29-4.75-5.34-5.46-.46-.16-.71-.67-.55-1.13s.67-.71 1.13-.55c2.82.98 7.09 3.86 6.52 7.42-.14.89-.5 1.67-.88 2.42.51.15 1.02.36 1.48.7.84.6 1.34 1.5 1.33 2.41-.01.88-.49 1.64-1.33 2.08-.98.52-2.26.48-3.11-.09-1.57-1.05-1.38-2.65-.94-3.88-.66-.14-1.31-.27-1.98-.36-1.25-.16-2.45-.28-3.47.13-.11.05-.22.1-.33.15.53.66.96 1.39 1.26 2.18.32.81.37 1.63.15 2.36-.29.96-.97 1.6-1.86 1.76-.13.05-.28.06-.42.06zm-.46-5.16c-.26.37-.45.79-.56 1.23-.16.68-.08 1.33.22 1.74.21.28.61.46.91.4.14-.02.35-.11.47-.52.1-.35.07-.77-.1-1.2-.22-.59-.54-1.14-.94-1.65zm8.86-.7c-.5 1.21-.3 1.69.17 2.01.31.21.89.21 1.29 0 .38-.2.38-.45.38-.53 0-.32-.23-.69-.59-.95-.34-.26-.79-.41-1.25-.53zm-18.23-.64c-.33.26-.57.54-.74.83-.26.47-.3 1.04-.09 1.41.18.32.62.5.88.38.22-.1.39-.41.42-.75.04-.46-.12-.98-.27-1.37-.05-.18-.12-.34-.2-.5zm-8.65-5.68c-.58.01-1.02.12-1.35.33-.38.25-.6.76-.46 1.05.13.27.62.4.96.25.41-.18.74-.67.82-1.25.02-.12.03-.25.03-.38z" fill="#ffce3b"/></g></g></g><g><g><path d="m41.43 46.57-3.65 3.69c-1.07 1.08-2.61 1.59-4.1 1.33-6.21-1.07-11.22-3.22-15-6.45-4.26-3.65-6.97-8.68-8.09-15.14-.06-.34-.08-.69-.05-1.03.05-1.09.5-2.14 1.26-2.94l2.96-3.15c.45-.48 1.24-.41 1.59.15l3.51 5.49 1.69 2.64c.23.35.21.81-.04 1.15l-1.13 1.5c-.19.25-.26.58-.17.87 1.13 3.91 3.92 6.54 8.38 7.89.35.1.73.01.99-.25l1.34-1.29c.3-.29.74-.37 1.11-.2l7.23 3.26 1.87.84c.64.3.8 1.14.3 1.64z" fill="#6695ce"/></g></g><g><g><path d="m19.86 28.53c-.05.15-.1.3-.19.44-.28.45-.91.72-1.37.45-.39-.23-.6-.77-1.05-.78-.31 0-.55.28-.71.53-.17.26-.34.57-.64.66-.39.12-.78-.18-1.06-.48s-.59-.65-1-.66c-.32 0-.59.21-.82.44-.22.23-.42.48-.71.62-.62.3-1.38-.1-1.72-.68-.02-.03-.03-.06-.05-.09.05-1.09.5-2.14 1.26-2.94l2.96-3.15c.45-.48 1.24-.41 1.59.15z" fill="#4d86c5"/></g></g><g><g><path d="m16.58 32.84h-.01c-.52 0-.81-.42-1.06-.79-.2-.29-.39-.56-.64-.61-.26-.05-.52.14-.81.37-.16.12-.32.24-.49.34-.86.45-1.91.05-2.51-.58-.19-.2-.36-.44-.54-.74-.07-.12-.02-.26.09-.33.12-.07.26-.03.33.09.15.27.3.48.47.65.47.49 1.3.82 1.94.49.14-.07.28-.18.42-.29.34-.26.71-.55 1.19-.46.45.09.71.47.95.81.25.36.45.58.68.58.28 0 .5-.33.64-.6.2-.42.41-.85.84-1.03.36-.15.73-.06 1.05.01.17.04.33.08.48.08.45.04.88-.32 1.03-.79.04-.13.18-.2.3-.16.13.04.2.18.16.3-.22.68-.85 1.15-1.51 1.13-.2-.01-.39-.05-.57-.09-.28-.06-.54-.12-.76-.04-.26.11-.42.43-.57.75 0 0-.03.06-.03.06-.29.55-.65.85-1.07.85z" fill="#4d86c5"/></g></g><g><g><path d="m41.43 46.57-3.65 3.69c-1.07 1.08-2.61 1.59-4.1 1.33-6.21-1.07-11.22-3.22-15-6.45.66.26 1.4.32 2.07.12.53-.15 1.02-.45 1.56-.53.87-.14 1.73.3 2.43.84.69.54 1.29 1.21 2.03 1.68.75.47 1.72.72 2.51.33.87-.43 1.42-1.56 2.39-1.56.71-.01 1.24.61 1.73 1.11.5.51 1.25.98 1.87.64.71-.39.71-1.58 1.47-1.86.52-.19 1.09.16 1.64.06.62-.12.98-.81.95-1.44-.01-.15-.03-.3-.06-.44l1.87.84c.63.3.79 1.14.29 1.64z" fill="#4d86c5"/></g></g><g><g><path d="m40.57 47.69c-.06 0-.12-.02-.17-.07-.09-.09-.1-.25 0-.34l.87-.88c.18-.18.26-.43.21-.68s-.21-.45-.44-.56l-9.1-4.1c-.28-.13-.62-.07-.84.15l-1.34 1.29c-.32.31-.8.44-1.23.31-4.52-1.37-7.4-4.08-8.54-8.05-.11-.37-.02-.78.21-1.09l1.12-1.5c.19-.26.2-.6.03-.88l-5.2-8.14c-.13-.2-.34-.33-.58-.35s-.47.07-.63.24l-2.96 3.15c-.95 1.01-1.38 2.42-1.15 3.76.93 5.35 2.98 9.78 6.12 13.18.09.1.08.25-.01.34-.1.09-.25.08-.34-.01-3.2-3.47-5.3-7.99-6.24-13.43-.26-1.49.22-3.05 1.27-4.18l2.96-3.15c.26-.28.64-.42 1.02-.39.39.04.73.24.94.57l5.2 8.14c.28.44.26 1-.05 1.42l-1.13 1.5c-.15.19-.2.44-.13.66 1.09 3.8 3.86 6.4 8.21 7.72.26.08.56 0 .75-.19l1.34-1.3c.36-.35.92-.45 1.38-.25l9.1 4.1c.37.17.64.51.72.91.07.4-.05.82-.34 1.11l-.87.88c-.04.09-.1.11-.16.11z" fill="#010101"/></g></g><g><g><g><path d="m28.18 27.45c2.44-1.23 2.68-3.08 2.68-3.79v-.17c-.01-2.01-1.67-3.65-3.67-3.65-2.03 0-3.68 1.65-3.68 3.68 0 .59.46 1.05 1.05 1.05s1.05-.46 1.05-1.05c0-.87.71-1.58 1.58-1.58s1.58.71 1.58 1.58v.18c0 .28-.15 1.15-1.53 1.87-1.65.82-2.56 1.99-3.08 3.07-.64 1.34-.66 2.51-.66 2.6 0 .59.46 1.05 1.05 1.05h5.26c.39 0 .71-.19.89-.49.06-.1.11-.23.14-.35.01-.06.02-.14.02-.21 0-.44-.26-.82-.66-.97-.12-.05-.25-.08-.39-.08h-4.01c.27-.86.91-2.01 2.38-2.74z" fill="#f05360"/></g></g><g><g><path d="m30.71 31.8c-.19.3-.51.49-.89.49h-5.26c-.59 0-1.05-.46-1.05-1.05 0-.09.01-1.26.66-2.6-.03.16-.03.32-.04.48-.01.32.07.72.38.78.28.06.55-.21.82-.14.28.08.35.44.33.73s-.04.64.18.82c.21.17.53.09.78-.03s.52-.26.79-.19c.44.13.6.82 1.06.86.34.03.6-.32.93-.41.24-.08.5 0 .75.08.17.08.36.16.56.18z" fill="#ef4050"/></g></g><g><g><path d="m38.38 27.61h-.51v-6.73c0-.57-.46-1.04-1.05-1.04h-.52c-.37 0-.73.22-.9.55l-3.72 6.97-.42.8c-.09.16-.12.32-.12.5s.03.37.14.53c.19.3.53.5.89.5h3.62v1.56c0 .57.46 1.03 1.04 1.03.59 0 1.05-.46 1.05-1.03v-1.56h.51c.57 0 1.03-.46 1.03-1.04-.01-.56-.48-1.04-1.04-1.04zm-2.6-3.55v3.55h-1.9z" fill="#f05360"/></g></g><g><g><path d="m37.86 30.73v.52c0 .57-.46 1.03-1.05 1.03-.57 0-1.04-.46-1.04-1.03v-1.56h-3.62c-.35 0-.69-.2-.89-.5-.11-.16-.14-.35-.14-.53 0-.17.03-.33.12-.5l.42-.8c-.03.23-.04.45.02.67.1.4.48.76.89.69.35-.06.64-.41.98-.34.48.09.54.84 1 1 .28.1.57-.06.82-.21.24-.15.55-.29.81-.17.25.11.35.42.37.69.02.28-.01.57.12.82.2.41.82.53 1.16.23z" fill="#ef4050"/></g></g><g><g><g><path d="m46.01 20.47c-.1-.04-.18-.05-.28-.07-.71-.11-1.43.29-1.68 1l-5.13 13.95-.28.75c-.04.1-.05.17-.07.28-.11.73.28 1.46.99 1.7.1.04.21.06.28.07.73.11 1.43-.28 1.67-1l1.79-4.86 3.62-9.84c.05-.1.06-.18.07-.28.12-.73-.27-1.45-.98-1.7z" fill="#2c449c"/></g></g></g><g><g><g><path d="m43.31 32.3-1.79 4.86c-.24.71-.95 1.11-1.67 1-.08-.01-.18-.03-.28-.07-.71-.24-1.1-.97-.99-1.7.02-.1.03-.18.07-.28l.28-.75c.06.28.3.54.58.62.37.11.8-.08.96-.42.16-.33.13-.78.44-.98.18-.11.42-.08.6-.18.31-.16.37-.56.38-.91.01-.34.03-.74.3-.95.26-.21.64-.15.97-.19.05-.02.1-.03.15-.05z" fill="#28387f"/></g></g></g><g><g><path d="m53.47 26.57c-.17-.32-.51-.5-.87-.5h-5.19c-.57 0-1.04.46-1.04 1.03 0 .59.46 1.05 1.04 1.05h3.5l-4.07 8.14-.36.73c-.07.15-.11.3-.11.46 0 .37.2.73.57.93.14.07.3.1.46.1.37 0 .75-.21.92-.57l2.32-4.64c.01-.01 0-.01 0-.01l.36-.71 2.51-5.02c.07-.14.1-.28.1-.44.03-.2-.03-.4-.14-.55z" fill="#f05360"/></g></g><g><g><path d="m50.66 33.29-2.32 4.64c-.17.35-.55.57-.92.57-.16 0-.32-.03-.46-.1-.37-.19-.57-.55-.57-.93 0-.16.04-.32.11-.46l.36-.73c.1.08.23.14.35.16.3.05.63-.12.78-.38.09-.17.12-.35.17-.53.06-.18.16-.36.33-.42.24-.09.55.06.76-.1.19-.15.14-.43.07-.66-.06-.23-.12-.51.06-.66.15-.13.37-.09.56-.09.27-.01.52-.13.72-.31z" fill="#ef4050"/></g></g></g><g><g><g><path d="m32.72 7.68c-.49 0-.89-.4-.89-.89v-3.78c0-.49.4-.89.89-.89s.89.4.89.89v3.79c-.01.49-.4.88-.89.88z" fill="#ffce3b"/></g></g></g><g><g><g><path d="m30.81 31.16c-.1 0-.2-.07-.23-.17-.07-.23-.24-.41-.46-.5-.1-.04-.2-.06-.31-.06h-4.01c-.08 0-.15-.04-.19-.1-.05-.06-.06-.14-.04-.22.28-.89.94-2.11 2.5-2.88 2.3-1.16 2.55-2.89 2.55-3.57v-.17c-.01-1.88-1.55-3.41-3.43-3.41-1.9 0-3.44 1.54-3.44 3.44 0 .45.35.81.81.81.45 0 .81-.35.81-.81 0-1.01.82-1.82 1.82-1.82s1.82.82 1.82 1.82v.18c0 .29-.12 1.28-1.66 2.08-1.35.67-2.35 1.67-2.97 2.96-.06.12-.2.17-.32.11s-.17-.2-.11-.32c.67-1.39 1.74-2.46 3.19-3.18 1.33-.69 1.4-1.49 1.4-1.65v-.18c0-.74-.6-1.34-1.34-1.34s-1.34.6-1.34 1.34c0 .72-.57 1.29-1.29 1.29s-1.29-.57-1.29-1.29c0-2.16 1.76-3.92 3.92-3.92 2.14 0 3.9 1.74 3.91 3.89v.17c0 .78-.27 2.72-2.82 4.01-1.23.61-1.84 1.52-2.15 2.28h3.67c.18 0 .35.03.49.1.35.13.63.43.74.8.04.13-.03.26-.16.3-.02.01-.04.01-.07.01z" fill="#010101"/></g></g><g><g><path d="m37.86 26.06v-5.19c0-.57-.46-1.04-1.05-1.04h-.52c-.37 0-.73.22-.9.55l-3.72 6.97-.42.8c-.09.16-.12.32-.12.5s.03.37.14.53c.19.3.53.5.89.5h3.62v1.56c0 .13.03.26.07.38m-.07-7.56v3.55h-.51" style="fill:none;stroke:#010101;stroke-width:.75;stroke-linecap:round;stroke-linejoin:round;stroke-miterlimit:10"/></g></g><g><g><g><path d="m40.09 38.42c-.09 0-.19-.01-.28-.02-.09-.02-.21-.04-.33-.08-.59-.2-1.01-.71-1.13-1.34-.02-.13.06-.26.19-.28s.26.06.28.19c.09.46.39.83.82.98.09.04.18.05.24.06.62.09 1.2-.25 1.41-.84l3.51-9.56c.05-.13.19-.19.31-.14.13.05.19.18.14.31l-3.51 9.55c-.24.71-.9 1.17-1.65 1.17z" fill="#010101"/></g></g></g><g><g><path d="m46.6 37.04c-.04 0-.07-.01-.11-.03-.12-.06-.17-.2-.11-.32l4.15-8.31h-3.11c-.7 0-1.28-.58-1.28-1.29 0-.7.57-1.27 1.28-1.27h5.19c.46 0 .87.24 1.08.63.12.16.19.4.19.66 0 .2-.04.38-.13.55l-.96 1.93c-.06.12-.2.17-.32.11s-.17-.2-.11-.32l.96-1.93c.05-.11.08-.21.08-.34 0-.15-.04-.3-.12-.41-.14-.26-.39-.4-.67-.4h-5.19c-.44 0-.79.35-.79.79 0 .45.35.81.79.81h3.5c.08 0 .16.04.21.11.04.07.05.16.01.23l-4.32 8.66c-.05.09-.13.14-.22.14z" fill="#010101"/></g></g></g><g><g><g><path d="m59.78 29.48h-3.78c-.49 0-.89-.4-.89-.89s.4-.89.89-.89h3.79c.49 0 .89.4.89.89s-.4.89-.9.89z" fill="#ffce3b"/></g></g></g><g><g><g><g><g><path d="m15.32 18.19c0 .84-.69 1.53-1.53 1.53s-1.53-.69-1.53-1.53.69-1.53 1.53-1.53 1.53.69 1.53 1.53z" fill="#f2778d"/></g></g></g><g><g><g><path d="m22.77 10.8c0 .84-.68 1.53-1.53 1.53s-1.53-.69-1.53-1.53.69-1.53 1.53-1.53 1.53.69 1.53 1.53z" fill="#f2778d"/></g></g></g></g><g><g><g><g><path d="m50.68 18.19c0-.84.69-1.53 1.53-1.53s1.53.69 1.53 1.53-.69 1.53-1.53 1.53c-.84.01-1.53-.68-1.53-1.53z" fill="#f2778d"/></g></g></g><g><g><g><path d="m46.29 10.8c0 .84-.69 1.53-1.53 1.53s-1.53-.69-1.53-1.53.69-1.53 1.53-1.53 1.53.69 1.53 1.53z" fill="#ffce3b"/></g></g></g></g><g><g><g><g><circle cx="44.7" cy="48.71" fill="#ffce3b" r="1.53"/></g></g></g><g><g><g><path d="m53.75 38.76c0 .84-.69 1.53-1.53 1.53s-1.53-.69-1.53-1.53.69-1.53 1.53-1.53c.84-.01 1.53.68 1.53 1.53z" fill="#ffce3b"/></g></g></g></g></g><g><g><path d="m26.85 45.47c-.44 0-.84.21-1.12.55-.29.34-.47.81-.47 1.33 0-1.04-.71-1.89-1.59-1.89.44 0 .84-.21 1.12-.55s.46-.81.46-1.33c0 .52.18.99.47 1.33.29.35.69.56 1.13.56z" fill="#fff"/></g></g><g><g><path d="m14.56 29.28c-.44 0-.84.21-1.12.55-.29.34-.47.81-.47 1.33 0-1.04-.71-1.89-1.59-1.89.44 0 .84-.21 1.12-.55s.46-.81.46-1.33c0 .52.18.99.47 1.33.29.35.69.56 1.13.56z" fill="#fff"/></g></g><g><g><path d="m28.13 47.88c-.26 0-.5.13-.67.33s-.28.48-.28.79c0-.62-.42-1.12-.94-1.12.26 0 .49-.13.67-.32.17-.2.27-.48.27-.79 0 .31.11.58.28.79.17.2.41.32.67.32z" fill="#fff"/></g></g><g><g><g><path d="m16.19 39.42c-.38.26-1.32-.46-2-1.67s-.79-2.39-.37-2.58c.43-.19 1.2.63 1.83 1.76.64 1.15.93 2.23.54 2.49z" fill="#fff"/></g></g><g><g><path d="m17.45 41.18c-.16.12-.5-.05-.75-.39s-.31-.71-.14-.83c.17-.11.49.07.73.4s.32.69.16.82z" fill="#fff"/></g></g></g></g></svg>