<svg id="Layer_1" enable-background="new 0 0 512 512" viewBox="0 0 512 512" xmlns="http://www.w3.org/2000/svg"><path d="m134.87 37.5c12.47 0 23.07 7.94 27.07 19.05 4.56-4.42 10.8-7.14 17.66-7.14 15 0 26.67 12.81 25.37 27.69h2.69c10.66 0 19.36 8.7 19.36 19.36 0 10.63-8.7 19.33-19.36 19.33h-103.75c-10.63 0-19.33-8.7-19.33-19.33 0-10.66 8.7-19.36 19.33-19.36h4.37c-7.66-18.68 6.01-39.6 26.59-39.6z" style="fill-rule:evenodd;clip-rule:evenodd;fill:#34c6f4;stroke:#000;stroke-width:13.975;stroke-linecap:round;stroke-linejoin:round;stroke-miterlimit:10"/><path clip-rule="evenodd" d="m134.87 37.5c12.47 0 23.07 7.94 27.07 19.05 4.56-4.42 10.8-7.14 17.66-7.14 15 0 26.67 12.81 25.37 27.69h2.69c6.94 0 13.04 3.69 16.47 9.21-3.43 5.5-9.52 9.18-16.47 9.18h-103.75c-6.92 0-13.01-3.68-16.44-9.18 3.43-5.53 9.52-9.21 16.44-9.21h4.37c-7.66-18.68 6.01-39.6 26.59-39.6z" fill="#60ccf0" fill-rule="evenodd"/><path d="m290.8 43.74c-1.93-3.34-.79-7.63 2.55-9.55 3.32-1.93 7.6-.79 9.52 2.55l5.5 9.5c1.93 3.32.79 7.6-2.55 9.52-3.34 1.93-7.63.79-9.55-2.55zm25.96-10.72c0-3.88 3.12-7 7-7 3.86 0 7 3.12 7 7v10.98c0 3.85-3.15 6.97-7 6.97-3.88 0-7-3.12-7-6.97zm0 96.72c0-3.88 3.12-7 7-7 3.86 0 7 3.12 7 7v10.94c0 3.88-3.15 7-7 7-3.88 0-7-3.12-7-7zm-13.88 7.23c-1.93 3.34-6.21 4.48-9.52 2.55-3.34-1.93-4.48-6.21-2.55-9.55l5.47-9.47c1.93-3.34 6.21-4.48 9.55-2.55s4.48 6.21 2.55 9.55zm48.35-83.76c-1.93 3.34-6.21 4.48-9.52 2.55-3.34-1.93-4.48-6.21-2.55-9.52l5.47-9.5c1.96-3.34 6.21-4.48 9.55-2.55s4.48 6.21 2.55 9.55zm-70.61 66.61c-3.32 1.93-7.6.79-9.52-2.55s-.79-7.6 2.52-9.52l9.5-5.5c3.34-1.93 7.63-.79 9.55 2.55 1.93 3.34.79 7.6-2.55 9.55zm83.77-48.36c-3.32 1.93-7.6.79-9.52-2.55-1.96-3.34-.79-7.6 2.52-9.55l9.5-5.47c3.34-1.93 7.63-.79 9.55 2.55 1.93 3.34.79 7.6-2.55 9.52zm-94.48 22.4c-3.86 0-7-3.15-7-7 0-3.86 3.15-7 7-7h10.97c3.88 0 7 3.15 7 7s-3.12 7-7 7zm96.72 0c-3.86 0-7-3.15-7-7 0-3.86 3.15-7 7-7h10.97c3.88 0 7 3.15 7 7s-3.12 7-7 7zm-93.01-27.9c-3.32-1.93-4.45-6.18-2.52-9.52s6.21-4.48 9.52-2.55l9.5 5.47c3.34 1.96 4.48 6.21 2.55 9.55s-6.21 4.48-9.55 2.55zm83.77 48.39c-3.32-1.96-4.48-6.21-2.52-9.55 1.93-3.34 6.21-4.48 9.52-2.55l9.5 5.5c3.34 1.93 4.48 6.18 2.55 9.52s-6.21 4.48-9.55 2.55zm-18.23 13.15c-1.93-3.34-.79-7.63 2.55-9.55 3.32-1.93 7.6-.79 9.52 2.55l5.5 9.47c1.93 3.34.79 7.63-2.55 9.55s-7.6.79-9.55-2.55z" fill="#f0532c"/><g clip-rule="evenodd" fill-rule="evenodd"><path d="m218.32 332.14h247.46c-35.55-72.57-21.8-162.25-75.46-162.25-48.55-.01-149.58 139.88-172 162.25z" fill="#995f2f"/><path d="m289.07 332.14h176.71c-25.71-52.5-25.65-113.95-43.97-143.94-50.76 38.69-115.36 126.59-132.74 143.94z" fill="#b78045"/><path d="m395.82 332.14h-344.04c9.72-39.88 65.93-84.44 102.56-131.33 17.69-22.65 36.45-59.36 69.48-59.36 67.52 0 88.18 147.26 172 190.69z" fill="#995f2f"/><path d="m395.82 332.14h-282.44c9.72-39.88 65.96-84.44 102.56-131.33 11.37-14.57 23.22-34.98 39-47.65 45.33 35.69 71.43 143.01 140.88 178.98z" fill="#b78045"/><path d="m323.77 61.8c13.83 0 25.06 11.23 25.06 25.06s-11.23 25.06-25.06 25.06c-13.86 0-25.09-11.23-25.09-25.06s11.23-25.06 25.09-25.06z" fill="#fdb614"/><path d="m323.77 61.8c13.83 0 25.06 11.23 25.06 25.06 0 3.66-.79 7.14-2.18 10.29-3.69 2.1-7.94 3.32-12.5 3.32-13.83 0-25.06-11.23-25.06-25.06 0-3.69.79-7.17 2.21-10.29 3.65-2.13 7.93-3.32 12.47-3.32z" fill="#f7ec13"/></g><path d="m319.85 307.45c0-4.25 3.46-7.68 7.71-7.68s7.68 3.43 7.68 7.68v148.28c0 4.25-3.43 7.68-7.68 7.68s-7.71-3.43-7.71-7.68z" fill="#59595b"/><path clip-rule="evenodd" d="m223.05 215.55c18.96 0 34.36 15.39 34.36 34.36 0 18.99-15.39 34.36-34.36 34.36-18.99 0-34.36-15.36-34.36-34.36.01-18.97 15.37-34.36 34.36-34.36z" fill="#eaa377" fill-rule="evenodd"/><path clip-rule="evenodd" d="m223.05 215.55c18.96 0 34.36 15.39 34.36 34.36 0 5.58-1.33 10.89-3.71 15.53-4.2 1.84-8.82 2.86-13.69 2.86-18.99 0-34.36-15.39-34.36-34.36 0-5.61 1.33-10.89 3.69-15.53 4.22-1.84 8.84-2.86 13.71-2.86z" fill="#eeb491" fill-rule="evenodd"/><path d="m257.55 465.76c0 9.5-7.77 17.26-17.23 17.26-9.5 0-17.26-7.77-17.26-17.26 0 9.5-7.77 17.26-17.26 17.26-9.5 0-17.26-7.77-17.26-17.26v-86.15c-12.39-.62-32.26-1.98-32.26-25.17 0-47.17 25.97-77.47 65.31-76.73 49.07.96 47.54 22.14 61.68 60.63h46.03c6.72 0 12.16 5.47 12.16 12.19s-5.44 12.16-12.16 12.16h-56.15v-.03c-11.17 0-12.81-12.67-15.59-20.98v124.08z" fill="#e52a61"/><path d="m194.48 283.21c8.05-3.6 17.15-5.78 27.1-5.5 49.32 1.42 47.54 22.14 61.68 60.63h46.03c6.72 0 12.16 5.47 12.16 12.19s-5.44 12.16-12.16 12.16h-56.15v-.03c-11.17 0-12.81-12.67-15.59-20.98v33.82c-34.53-17.74-59.07-52.01-63.07-92.29z" fill="#ea527f"/><path clip-rule="evenodd" d="m219.11 277.71h7.88c19.53 0 35.52 15.99 35.52 35.52v35.52h-78.92v-35.52c0-19.53 15.99-35.52 35.52-35.52z" fill="#1a71aa" fill-rule="evenodd"/><path clip-rule="evenodd" d="m262.51 335.65v13.1h-78.92v-13.1c0-19.53 15.99-35.52 35.52-35.52h7.88c19.53 0 35.52 15.99 35.52 35.52z" fill="#48abc9" fill-rule="evenodd"/><path clip-rule="evenodd" d="m169.53 381.63h-9.41c-5.16 0-9.41-4.22-9.41-9.41v-5.22c0-5.19 4.25-9.41 9.41-9.41h9.41z" fill="#1a71aa" fill-rule="evenodd"/><path clip-rule="evenodd" d="m276.54 381.63h9.41c5.19 0 9.41-4.22 9.41-9.41v-5.22c0-5.19-4.22-9.41-9.41-9.41h-9.41z" fill="#1a71aa" fill-rule="evenodd"/><path clip-rule="evenodd" d="m178.38 390.47h89.35c4.85 0 8.82-3.97 8.82-8.84v-24.04c0-4.85-3.97-8.84-8.82-8.84h-89.35c-4.85 0-8.84 4-8.84 8.84v24.04c-.01 4.88 3.99 8.84 8.84 8.84z" fill="#5ac7f2" fill-rule="evenodd"/><path clip-rule="evenodd" d="m276.54 374.17v-16.58c0-4.85-3.97-8.84-8.82-8.84h-81.98v16.58c0 4.85 4 8.84 8.84 8.84z" fill="#76d1f7" fill-rule="evenodd"/></svg>