<?xml version="1.0" encoding="UTF-8"?>
<!-- Generator: Adobe Illustrator 25.2.1, SVG Export Plug-In . SVG Version: 6.00 Build 0)  -->
<svg xmlns="http://www.w3.org/2000/svg" xmlns:xlink="http://www.w3.org/1999/xlink" version="1.1" id="Capa_1" x="0px" y="0px" viewBox="0 0 512 512" style="enable-background:new 0 0 512 512;" xml:space="preserve" width="512" height="512">
<g>
	<g>
		<g>
			<g>
				<g>
					<path style="fill:#FFFFFF;" d="M464.841,241.769c0,0-3.759-2.879-9.65-7.366c1.637-4.412,2.466-9.005,2.503-13.59       c7.193-1.357,11.784-2.236,11.784-2.236s-1.358-12.382-3.025-14.697c-0.359-0.499-5.012-0.197-12.086,0.582       c-1.541-3.559-3.606-6.91-6.179-9.947c4.089-6.296,6.6-10.557,6.305-11.119c-1.323-2.527-11.785-9.288-11.785-9.288       s-3.047,3.979-7.754,10.159c-4.15-2.003-8.522-3.246-12.946-3.737c-1.419-6.547-2.542-10.776-3.108-10.953       c-2.723-0.852-14.901,1.766-14.901,1.766s0.555,4.184,1.452,10.824c-4.275,1.346-8.357,3.367-12.024,6.117       c-5.479-3.884-9.022-6.204-9.252-5.886c-1.12,1.552-11.527,14.889-9.975,16.008c0.272,0.196,2.868,2.057,6.972,4.981       c-1.815,3.858-2.992,7.902-3.508,11.997c-5.066,0.789-8.314,1.304-8.648,1.358c-1.889,0.306,1.442,16.892,1.747,18.781       c0.057,0.354,3.552-0.019,9.195-0.858c1.76,4.665,4.391,9.037,7.865,12.844c-3.027,4.332-4.764,7.062-4.485,7.263       c1.552,1.12,14.889,11.527,16.008,9.975c0.188-0.261,1.912-2.666,4.636-6.488c4.182,1.501,8.523,2.282,12.859,2.353       c1.047,6.058,1.848,9.809,2.217,9.749c1.889-0.306,18.679-2.377,18.373-4.266c-0.058-0.361-0.674-4.09-1.646-9.867       c3.845-1.957,7.397-4.565,10.517-7.776c5.261,3.368,8.747,5.365,9.251,5.101C458.081,252.23,464.841,241.769,464.841,241.769z        M401.39,244.18c-12.789-9.226-15.678-27.073-6.452-39.863c9.226-12.79,27.073-15.678,39.863-6.452       c12.789,9.226,15.678,27.073,6.452,39.863C432.027,250.518,414.179,253.406,401.39,244.18z"/>
				</g>
				<g>
					<path style="fill:#241726;" d="M419.05,271.553c-1.134,0-1.501,0-3.215-9.779c-3.877-0.156-7.705-0.859-11.401-2.1       l-4.114,5.758c-0.184,0.255-0.595,0.664-1.373,0.664c-1.821,0-6.228-2.764-15.213-9.542c-0.52-0.39-0.899-0.678-1.094-0.818       c-1.071-0.767-1.152-1.201,3.67-8.135c-3.004-3.452-5.394-7.354-7.117-11.622c-4.005,0.583-6.541,0.866-7.74,0.866       c-0.413,0-1.677,0-1.863-1.129c-0.039-0.244-0.128-0.722-0.249-1.378c-2.462-13.419-2.418-16.876-1.552-18.105       c0.255-0.363,0.625-0.599,1.038-0.664c0.309-0.054,3.208-0.511,7.78-1.224c0.536-3.607,1.568-7.152,3.075-10.56       c-3.614-2.574-5.884-4.204-6.17-4.409c-0.346-0.251-0.571-0.627-0.637-1.068c-0.225-1.487,1.285-4.6,9.503-15.496       c0.397-0.527,0.69-0.915,0.832-1.11c0.223-0.311,0.66-0.523,1.043-0.523c0.55,0,1.171-0.002,9.162,5.638       c3.229-2.311,6.829-4.149,10.725-5.473c-0.82-6.072-1.322-9.847-1.322-9.847c-0.081-0.613,0.323-1.187,0.929-1.319       c0.374-0.079,9.182-1.961,13.512-1.961c0.859,0,1.512,0.072,1.995,0.223c0.818,0.255,1.417,0.441,3.735,11.01       c4,0.53,7.893,1.649,11.598,3.331c4.376-5.745,7.176-9.398,7.176-9.398c0.379-0.495,1.071-0.609,1.589-0.276       c1.791,1.157,10.797,7.066,12.193,9.738c0.414,0.79,0.718,1.366-5.886,11.584c2.174,2.681,4,5.619,5.438,8.757       c4.558-0.492,7.793-0.741,9.626-0.741c1.431,0,2.242,0.114,2.692,0.736c1.763,2.448,3.011,13.145,3.243,15.264       c0.067,0.618-0.351,1.182-0.959,1.298c0,0-4.188,0.801-10.836,2.058c-0.132,4.149-0.892,8.239-2.258,12.181       c5.491,4.186,8.957,6.839,8.957,6.839c0.493,0.379,0.613,1.071,0.277,1.591c-1.157,1.791-7.066,10.797-9.738,12.193       c-0.17,0.088-0.479,0.158-0.671,0.158l0,0c-0.532,0-1.41,0-8.962-4.795c-2.804,2.757-5.949,5.078-9.368,6.913       c0.89,5.294,1.45,8.681,1.503,9.022c0.067,0.413-0.039,0.836-0.304,1.196c-0.892,1.21-4.163,2.342-17.684,4.239       c-0.65,0.091-1.129,0.158-1.366,0.195L419.05,271.553z M403.984,257.07c0.135,0,0.27,0.023,0.402,0.07       c4.025,1.447,8.221,2.216,12.474,2.283c0.571,0.009,1.057,0.423,1.154,0.987c0.95,5.496,1.468,7.738,1.73,8.651       c0.165-0.023,0.344-0.049,0.541-0.074c11.51-1.617,14.936-2.637,15.893-3.173c-0.2-1.22-0.762-4.602-1.568-9.387       c-0.086-0.514,0.17-1.022,0.634-1.257c3.77-1.919,7.203-4.458,10.204-7.545c0.395-0.406,1.017-0.481,1.494-0.172       c5.782,3.698,7.705,4.636,8.332,4.869c1.631-1.213,5.366-6.344,7.965-10.279c-1.436-1.099-4.558-3.484-8.769-6.695       c-0.416-0.316-0.576-0.869-0.395-1.359c1.575-4.246,2.39-8.683,2.427-13.185c0.005-0.569,0.411-1.055,0.969-1.159       c5.131-0.969,8.936-1.693,10.697-2.03c-0.534-4.458-1.556-10.876-2.511-12.753c-0.174-0.019-0.467-0.037-0.934-0.037       c-1.861,0-5.301,0.276-10.228,0.82c-0.541,0.049-1.015-0.235-1.222-0.708c-1.515-3.496-3.531-6.743-5.995-9.652       c-0.339-0.402-0.374-0.976-0.088-1.417c4.699-7.238,5.814-9.501,6.07-10.195c-1.21-1.631-6.344-5.366-10.279-7.965       c-1.143,1.493-3.68,4.811-7.083,9.28c-0.339,0.451-0.952,0.602-1.461,0.351c-3.986-1.921-8.211-3.143-12.562-3.626       c-0.506-0.056-0.922-0.432-1.029-0.932c-1.589-7.322-2.328-9.491-2.62-10.132c-0.204-0.028-0.513-0.051-0.966-0.051       c-3.229,0-9.44,1.182-11.937,1.686c0.221,1.654,0.681,5.092,1.305,9.724c0.079,0.574-0.269,1.122-0.82,1.294       c-4.293,1.352-8.218,3.347-11.668,5.935c-0.416,0.311-0.98,0.316-1.401,0.019c-5.094-3.612-7.231-4.959-8.128-5.454       c-0.1,0.135-0.211,0.283-0.335,0.444c-6.994,9.278-8.695,12.423-8.992,13.477c0.908,0.65,3.245,2.325,6.576,4.697       c0.469,0.332,0.632,0.955,0.386,1.475c-1.756,3.735-2.901,7.652-3.403,11.64c-0.067,0.525-0.474,0.945-0.996,1.027       c-4.135,0.643-7.057,1.103-8.167,1.282c-0.207,1.076-0.095,4.646,2.002,16.07c0.035,0.197,0.07,0.381,0.1,0.548       c1.312-0.051,3.998-0.376,8-0.971c0.543-0.088,1.089,0.232,1.287,0.755c1.749,4.637,4.318,8.829,7.631,12.465       c0.376,0.411,0.416,1.027,0.098,1.482c-2.595,3.712-3.638,5.392-4.056,6.144c0.13,0.098,0.272,0.205,0.425,0.321       c9.287,7.006,12.435,8.709,13.494,9.008l4.353-6.095C403.243,257.249,403.607,257.07,403.984,257.07z M418.07,250.768       c-6.267,0-12.277-1.944-17.378-5.624c-13.299-9.596-16.314-28.223-6.718-41.524c5.575-7.728,14.602-12.342,24.144-12.342       c6.27,0,12.279,1.944,17.38,5.624c13.299,9.596,16.314,28.223,6.718,41.522C436.642,246.152,427.615,250.768,418.07,250.768z        M418.119,193.657c-8.781,0-17.085,4.244-22.216,11.357c-8.827,12.235-6.053,29.373,6.184,38.203       c4.69,3.384,10.219,5.173,15.984,5.173c8.781,0,17.087-4.246,22.219-11.359c8.827-12.235,6.054-29.371-6.184-38.2       C429.413,195.445,423.884,193.657,418.119,193.657z"/>
				</g>
			</g>
			<g>
				<g>
					
						<ellipse transform="matrix(0.9933 -0.1156 0.1156 0.9933 -22.7817 49.8022)" style="fill:#FFFFFF;" cx="417.909" cy="221.281" rx="15.477" ry="15.477"/>
				</g>
				<g>
					<path style="fill:#241726;" d="M417.896,237.947c-3.512,0-6.88-1.089-9.735-3.15c-7.454-5.375-9.145-15.814-3.768-23.269       c3.124-4.33,8.181-6.915,13.529-6.915c3.512,0,6.88,1.089,9.74,3.152c3.61,2.604,5.988,6.458,6.699,10.853       c0.711,4.395-0.332,8.801-2.936,12.413C428.3,235.362,423.243,237.947,417.896,237.947z M417.921,206.992       c-4.585,0-8.922,2.216-11.601,5.93c-2.232,3.094-3.127,6.873-2.516,10.641c0.609,3.768,2.65,7.071,5.747,9.306       c2.448,1.765,5.333,2.699,8.344,2.699c4.585,0,8.92-2.216,11.601-5.93c2.232-3.094,3.127-6.873,2.516-10.639       c-0.609-3.768-2.648-7.073-5.745-9.306C423.817,207.926,420.932,206.992,417.921,206.992z"/>
				</g>
			</g>
		</g>
		<g>
			<g>
				<g>
					<path style="fill:#FFFFFF;" d="M181.778,296.122c0,0-5.841-4.473-14.996-11.447c2.544-6.856,3.833-13.994,3.891-21.12       c11.178-2.109,18.312-3.475,18.312-3.475s-2.11-19.242-4.701-22.84c-0.558-0.775-7.789-0.306-18.783,0.904       c-2.394-5.531-5.604-10.739-9.603-15.459c6.354-9.785,10.256-16.407,9.799-17.28c-2.056-3.928-18.314-14.434-18.314-14.434       s-4.735,6.183-12.05,15.789c-6.45-3.113-13.244-5.045-20.119-5.808c-2.205-10.175-3.95-16.747-4.83-17.022       c-4.232-1.324-23.157,2.744-23.157,2.744s0.862,6.502,2.256,16.822c-6.643,2.091-12.987,5.232-18.686,9.507       c-8.515-6.036-14.021-9.642-14.379-9.147c-1.74,2.412-17.914,23.138-15.502,24.878c0.422,0.305,4.458,3.197,10.836,7.741       c-2.82,5.995-4.65,12.28-5.452,18.644c-7.872,1.226-12.92,2.027-13.439,2.111c-2.936,0.475,2.24,26.251,2.716,29.187       c0.089,0.549,5.52-0.03,14.289-1.334c2.735,7.249,6.823,14.044,12.223,19.961c-4.703,6.732-7.403,10.975-6.971,11.287       c2.412,1.74,23.138,17.914,24.878,15.502c0.292-0.405,2.971-4.143,7.205-10.083c6.5,2.333,13.245,3.546,19.984,3.657       c1.627,9.415,2.871,15.244,3.445,15.151c2.936-0.475,29.028-3.694,28.553-6.63c-0.091-0.561-1.047-6.356-2.558-15.334       c5.974-3.041,11.495-7.094,16.344-12.085c8.175,5.233,13.593,8.337,14.377,7.927       C171.272,312.38,181.778,296.122,181.778,296.122z M83.17,299.869c-19.876-14.338-24.365-42.074-10.027-61.95       s42.074-24.365,61.95-10.027c19.876,14.338,24.365,42.074,10.027,61.95C130.782,309.718,103.046,314.207,83.17,299.869z"/>
				</g>
				<g>
					<path style="fill:#241726;" d="M110.614,341.749c-1.22,0-1.789,0.002-4.437-15.176c-6.307-0.204-12.53-1.347-18.527-3.403       c-3.282,4.604-5.549,7.768-6.372,8.915l-0.314,0.441c-0.204,0.279-0.674,0.741-1.589,0.741c-2.641,0-9.591-4.393-23.245-14.693       c-0.811-0.613-1.405-1.062-1.71-1.28c-1.108-0.794-1.54-1.106,6.151-12.158c-4.892-5.529-8.748-11.824-11.473-18.739       c-6.481,0.952-10.558,1.415-12.448,1.415c-0.667,0-2.056,0-2.249-1.208c-0.06-0.369-0.197-1.113-0.383-2.125       c-3.234-17.608-3.965-25.619-2.53-27.656c0.379-0.539,0.85-0.713,1.18-0.767c0.502-0.081,5.199-0.827,12.569-1.977       c0.829-5.886,2.516-11.668,5.02-17.208c-5.914-4.216-9.633-6.88-10.037-7.171c-0.272-0.197-0.615-0.567-0.713-1.215       c-0.372-2.469,3.877-9.312,14.669-23.619c0.611-0.811,1.059-1.403,1.278-1.707c0.223-0.309,0.704-0.537,1.087-0.537       c0.653,0,1.633,0,14.242,8.913c5.201-3.786,11.043-6.764,17.387-8.867c-1.315-9.749-2.123-15.84-2.123-15.84       c-0.081-0.613,0.323-1.187,0.929-1.319c0.578-0.123,14.198-3.034,20.86-3.034c1.266,0,2.216,0.105,2.904,0.318       c0.913,0.288,1.854,0.585,5.456,17.076c6.486,0.811,12.792,2.625,18.774,5.403c6.983-9.169,11.466-15.025,11.466-15.025       c0.379-0.492,1.071-0.611,1.591-0.277c1.691,1.092,16.586,10.795,18.725,14.883c0.462,0.887,0.941,1.805-9.38,17.742       c3.58,4.344,6.558,9.138,8.864,14.27c7.317-0.792,12.483-1.194,15.361-1.194c2.26,0,3.18,0.221,3.652,0.873       c2.697,3.745,4.699,21.403,4.917,23.403c0.067,0.618-0.351,1.182-0.959,1.298c0,0-6.732,1.289-17.361,3.296       c-0.158,6.72-1.385,13.345-3.647,19.715c8.755,6.669,14.3,10.92,14.3,10.92c0.493,0.376,0.613,1.069,0.277,1.589       c-1.092,1.691-10.792,16.583-14.88,18.723c-0.17,0.088-0.546,0.172-0.739,0.172l0,0c-0.718,0-2.042,0-14.016-7.633       c-4.525,4.52-9.631,8.288-15.199,11.222c1.426,8.495,2.327,13.944,2.413,14.486c0.054,0.33,0.037,0.832-0.353,1.361       c-1.482,2.007-9.319,3.842-27.053,6.328c-1.015,0.144-1.758,0.248-2.13,0.307L110.614,341.749z M87.199,320.562       c0.135,0,0.27,0.023,0.402,0.07c6.323,2.27,12.92,3.475,19.601,3.587c0.572,0.009,1.057,0.423,1.155,0.987       c1.666,9.635,2.49,12.939,2.871,14.063c0.376-0.053,0.845-0.121,1.391-0.198c19.615-2.75,24.363-4.437,25.338-5.257       c-0.23-1.398-1.143-6.911-2.506-15.022c-0.086-0.513,0.169-1.022,0.634-1.257c5.921-3.015,11.315-7.001,16.03-11.854       c0.393-0.404,1.018-0.478,1.494-0.172c10,6.402,12.697,7.554,13.408,7.742c2.699-1.719,9.069-10.606,13.162-16.855       c-1.949-1.491-7.043-5.387-14.116-10.776c-0.416-0.316-0.576-0.869-0.395-1.359c2.474-6.671,3.758-13.642,3.816-20.716       c0.005-0.569,0.411-1.055,0.969-1.159c8.62-1.626,14.834-2.811,17.227-3.268c-0.862-7.415-2.574-18.205-4.216-20.96       c-0.23-0.044-0.757-0.107-1.865-0.107c-2.904,0-8.276,0.427-15.968,1.275c-0.539,0.051-1.015-0.232-1.222-0.711       c-2.379-5.491-5.547-10.592-9.419-15.162c-0.339-0.4-0.376-0.976-0.088-1.417c7.91-12.177,9.394-15.433,9.612-16.304       c-1.714-2.695-10.606-9.069-16.857-13.164c-1.547,2.023-5.679,7.429-11.378,14.911c-0.341,0.451-0.948,0.602-1.464,0.351       c-6.258-3.02-12.897-4.936-19.733-5.696c-0.506-0.056-0.922-0.432-1.029-0.932c-2.695-12.435-3.844-15.475-4.274-16.202       c-0.36-0.077-0.959-0.146-1.942-0.146c-5.359,0-15.898,2.065-19.285,2.757c0.302,2.26,1.052,7.893,2.109,15.724       c0.079,0.574-0.27,1.122-0.82,1.294c-6.746,2.123-12.913,5.262-18.33,9.327c-0.413,0.309-0.978,0.316-1.401,0.019       c-8.915-6.321-12.079-8.23-13.201-8.783c-0.225,0.302-0.506,0.676-0.834,1.108c-11.935,15.824-14.102,20.376-14.214,21.65       c1.043,0.748,4.873,3.491,10.581,7.556c0.469,0.334,0.632,0.955,0.386,1.475c-2.76,5.865-4.558,12.019-5.347,18.286       c-0.067,0.527-0.474,0.945-0.997,1.027c-7.055,1.099-11.84,1.856-13.129,2.063c-0.472,1.185-0.571,6.221,3.004,25.694       c0.1,0.541,0.186,1.008,0.253,1.384c1.803-0.023,6.211-0.506,13.08-1.526c0.546-0.095,1.089,0.232,1.287,0.755       c2.748,7.285,6.781,13.872,11.986,19.58c0.376,0.411,0.416,1.027,0.097,1.482c-4.618,6.611-6.128,9.145-6.609,10.116       c0.302,0.228,0.676,0.509,1.11,0.834c15.018,11.329,20.095,14.028,21.652,14.205l0.128-0.179       c0.866-1.206,3.326-4.643,6.887-9.64C86.458,320.741,86.823,320.562,87.199,320.562z M109.095,309.449       c-9.603,0-18.809-2.978-26.623-8.616c-9.87-7.12-16.376-17.656-18.321-29.673c-1.944-12.014,0.906-24.068,8.028-33.938       c8.541-11.84,22.37-18.911,36.99-18.911c9.603,0,18.806,2.98,26.621,8.616c20.374,14.699,24.992,43.234,10.295,63.611       C137.544,302.38,123.713,309.449,109.095,309.449z M109.169,220.691c-13.858,0-26.967,6.702-35.062,17.926       c-6.748,9.354-9.45,20.776-7.607,32.165c1.842,11.387,8.009,21.375,17.366,28.124c7.403,5.343,16.128,8.165,25.229,8.165       c13.856,0,26.964-6.702,35.062-17.926c13.93-19.31,9.552-46.356-9.761-60.289C126.993,223.515,118.268,220.691,109.169,220.691       z"/>
				</g>
			</g>
			<g>
				<g>
					
						<ellipse transform="matrix(0.6287 -0.7776 0.7776 0.6287 -165.1018 182.7542)" style="fill:#FFFFFF;" cx="108.842" cy="264.283" rx="24.052" ry="24.052"/>
				</g>
				<g>
					<path style="fill:#241726;" d="M108.821,289.525c-5.319,0-10.418-1.649-14.748-4.771c-5.468-3.944-9.071-9.782-10.149-16.439       c-1.078-6.655,0.502-13.331,4.448-18.799c4.732-6.56,12.39-10.476,20.49-10.476c5.319,0,10.418,1.652,14.748,4.774       c5.466,3.944,9.071,9.782,10.149,16.437c1.076,6.655-0.504,13.333-4.448,18.802       C124.582,285.609,116.921,289.525,108.821,289.525z M108.863,241.418c-7.338,0-14.277,3.547-18.562,9.489       c-3.573,4.952-5.004,11.001-4.028,17.029c0.976,6.028,4.239,11.317,9.194,14.89c3.919,2.827,8.539,4.321,13.354,4.321       c7.338,0,14.277-3.547,18.562-9.487c3.573-4.955,5.004-11.001,4.028-17.032c-0.975-6.028-4.242-11.315-9.194-14.887       C118.298,242.914,113.681,241.418,108.863,241.418z"/>
				</g>
			</g>
		</g>
		<g>
			<g>
				<path style="fill:#F5D66E;" d="M100.11,494.434c0,0-44.894-55.668-35.915-87.992c8.979-32.324,46.69-95.175,59.26-82.605      s-12.57,37.711-5.387,55.668C125.25,397.463,155.778,526.758,100.11,494.434z"/>
			</g>
			<g>
				<path style="fill:#A5D5C9;" d="M123.729,216.438c0,0,288.992-14.271,296.128-3.568c7.136,10.703-10.704,196.23-7.136,217.636      c3.568,21.407-285.425,7.136-299.696,7.136C98.755,437.642,102.322,227.141,123.729,216.438z"/>
			</g>
			<g>
				<g>
					<path style="fill:#FFFFFF;" d="M150.111,246.961c0,0,226.802-10.868,232.402-2.717c5.6,8.151-8.4,149.429-5.6,165.73       c2.8,16.301-224.002,5.434-235.202,5.434C130.511,415.408,133.311,255.112,150.111,246.961z"/>
				</g>
				<g>
					<path style="fill:#241726;" d="M289.044,420.147c-48.76,0-104.807-2.051-131.744-3.034c-8.474-0.311-14.075-0.516-15.589-0.516       c-2.012,0-3.429-2.267-4.597-7.35c-6.586-28.665-3.22-155.742,12.476-163.359c0.146-0.07,0.302-0.109,0.462-0.116       c1.201-0.058,120.754-5.749,187.598-5.749c43.406,0,45.051,2.395,45.842,3.547c3.122,4.544,1.078,40.105-2.399,93.839       c-2.172,33.578-4.223,65.292-3.008,72.363c0.107,0.622,0.063,1.565-0.75,2.53C375.7,414.242,370.724,420.147,289.044,420.147z        M141.716,414.219c1.559,0,7.175,0.204,15.673,0.516c26.92,0.985,82.939,3.034,131.655,3.034       c66.595,0,83.783-3.805,86.473-6.999c0.272-0.321,0.239-0.504,0.223-0.592c-1.261-7.35,0.799-39.201,2.983-72.921       c2.539-39.266,5.7-88.133,2.811-92.338c-0.769-0.729-6.648-2.516-43.882-2.516c-65.267,0-180.871,5.431-187.219,5.733       c-12.358,7.106-17.624,114.168-12.102,154.306c1.559,11.32,3.368,11.775,3.384,11.777       C141.716,414.219,141.716,414.219,141.716,414.219z"/>
				</g>
			</g>
			<g>
				<path style="fill:#F5D66E;" d="M92.927,384.893c0,0,70.035-61.056,75.422-37.711c5.387,23.345-38.009,32.336-32.324,50.281      c5.686,17.945,41.302,26.936,37.711,44.894c-3.592,17.958-14.366,52.077-17.958,62.852c-3.591,10.774-66.443,8.979-70.034-7.183      C82.152,481.864,80.357,417.217,92.927,384.893z"/>
			</g>
			<g>
				<g>
					<path style="fill:#F5D66E;" d="M469.666,379.051c1.395-8.835,1.156-17.053-0.202-24.625c0.072-0.761,0.139-1.537,0.202-2.333       c1.982-24.976-17.047-50.348-22.201-51.934c-5.154-1.586-7.929,3.568-7.929,3.568s-9.515-10.308-15.065-12.29       c-5.55-1.982-21.012,5.55-21.012,5.55s-3.172-5.55-7.929-6.74c-3.956-0.989-13.647,10.06-16.806,13.817       c-8.17-13.732-18.852-48.794-37.937-50.262c-23.345-1.796,31.353,104.237,31.353,104.237       c-6.739,9.118-32.181-16.721-51.934-5.947c-19.753,10.775,47.003,40.313,52.904,48.962       c15.284,22.398,5.373,85.432,8.148,99.308c0.607,3.036,88.823,13.825,92.415-2.337       C477.266,481.864,468.477,386.583,469.666,379.051z"/>
				</g>
				<g>
					<path style="fill:#241726;" d="M391.963,323.549c-0.523,0-0.999-0.344-1.145-0.871c-1.879-6.762-11.115-16.446-11.208-16.541       c-0.455-0.476-0.439-1.229,0.035-1.682c0.474-0.458,1.227-0.437,1.68,0.032c0.397,0.414,9.747,10.214,11.784,17.554       c0.176,0.632-0.195,1.289-0.827,1.463C392.174,323.535,392.067,323.549,391.963,323.549z"/>
				</g>
				<g>
					<path style="fill:#241726;" d="M413.371,315.224c-0.546,0-1.038-0.376-1.161-0.931c-1.517-6.834-8.081-16.539-8.146-16.637       c-0.369-0.543-0.23-1.282,0.314-1.652c0.541-0.365,1.28-0.232,1.652,0.314c0.281,0.413,6.89,10.184,8.504,17.459       c0.142,0.641-0.263,1.278-0.904,1.419C413.543,315.214,413.454,315.224,413.371,315.224z"/>
				</g>
				<g>
					<path style="fill:#241726;" d="M441.52,314.432c-0.657,0-1.189-0.532-1.189-1.189c0-6.209-9.515-16.941-9.61-17.048       c-0.437-0.49-0.395-1.243,0.095-1.68c0.492-0.439,1.243-0.395,1.68,0.095c0.416,0.467,10.214,11.519,10.214,18.632       C442.709,313.9,442.177,314.432,441.52,314.432z"/>
				</g>
				<g>
					<path style="fill:#BA8296;" d="M376.726,459.649c1.116,0.36,97.851-17.408,99.35-9.671c1.5,7.737,1.125,54.158,1.125,54.158       s-104.224,10.638-103.474,0.967C374.477,495.431,373.727,458.681,376.726,459.649z"/>
				</g>
				<g>
					<g>
						<path style="fill:#FFFFFF;" d="M373.727,444.464c1.18,0.148,103.472-7.136,105.057-3.965        c1.586,3.172,1.189,22.201,1.189,22.201s-110.211,4.361-109.418,0.396C371.348,459.133,370.556,444.068,373.727,444.464z"/>
					</g>
					<g>
						<path style="fill:#241726;" d="M395.575,465.95c-24.323,0-25.262-1.143-25.882-1.898c-0.225-0.276-0.374-0.839-0.304-1.187        c0.225-1.131,0.32-3.426,0.423-5.856c0.353-8.551,0.785-13.742,3.796-13.742c0.049,0,0.218,0.009,0.267,0.016        c0.511-0.007,5.199-0.302,11.684-0.708c20.98-1.319,64.64-4.065,83.836-4.065c9.724,0,10.063,0.676,10.453,1.459        c1.67,3.338,1.357,20.779,1.315,22.758c-0.014,0.627-0.513,1.138-1.143,1.164C479.499,463.908,427.529,465.95,395.575,465.95z         M371.842,462.582c1.426,0.388,6.434,0.99,23.733,0.99c29.297,0,75.464-1.719,83.23-2.016        c0.109-7.029-0.063-17.619-0.966-20.237c-0.578-0.156-2.453-0.43-8.444-0.43c-19.122,0-62.73,2.741-83.688,4.06        c-7.596,0.476-11.275,0.706-11.912,0.706c-1.166,0.769-1.464,7.984-1.607,11.452        C372.097,459.295,372.016,461.237,371.842,462.582z"/>
					</g>
				</g>
				<g>
					<path style="fill:#241726;" d="M336.176,366.39c-3.624,0-9.15-1.861-12.827-3.275c-0.613-0.237-0.918-0.924-0.683-1.538       c0.235-0.611,0.918-0.915,1.538-0.683c6.135,2.358,12.353,3.749,13.306,2.976c-0.03-0.109-0.1-2.232-10.906-10.848       c-0.513-0.409-0.599-1.157-0.188-1.67c0.411-0.516,1.161-0.599,1.67-0.188c11.726,9.345,12.434,12.221,11.452,13.935       C339.007,366.026,337.776,366.39,336.176,366.39z"/>
				</g>
				<g>
					<path style="fill:#241726;" d="M350.736,379.447c-0.39,0-0.771-0.193-0.999-0.543c-0.358-0.551-0.2-1.287,0.351-1.645       c0.204-0.132,5.006-3.329,5.006-9.308c0-0.657,0.532-1.189,1.189-1.189c0.657,0,1.189,0.532,1.189,1.189       c0,7.303-5.847,11.148-6.095,11.308C351.177,379.387,350.956,379.447,350.736,379.447z"/>
				</g>
				<g>
					<path style="fill:#241726;" d="M356.285,382.223c-0.39,0-0.771-0.193-0.999-0.543c-0.358-0.551-0.2-1.287,0.351-1.645       c0.204-0.132,5.008-3.329,5.008-9.31c0-0.657,0.532-1.189,1.189-1.189s1.189,0.532,1.189,1.189       c0,7.306-5.849,11.15-6.098,11.31C356.727,382.163,356.506,382.223,356.285,382.223z"/>
				</g>
				<g>
					<path style="fill:#241726;" d="M349.133,283.76c-2.184,0-5.988-2.748-14.816-14.606c-0.393-0.527-0.283-1.273,0.244-1.666       c0.525-0.39,1.271-0.286,1.665,0.244c10.562,14.195,12.897,13.647,12.997,13.617c1.127-0.846-0.383-8.892-3.18-16.874       c-0.218-0.62,0.109-1.298,0.729-1.514c0.62-0.221,1.296,0.109,1.515,0.729c2.302,6.565,5.626,17.858,2.046,19.761       C349.985,283.637,349.595,283.76,349.133,283.76z"/>
				</g>
				<g>
					<path style="fill:#241726;" d="M353.902,304.917c-0.592,0-1.106-0.444-1.178-1.048c-0.079-0.65,0.385-1.243,1.038-1.322       c2.548-0.309,9.408-1.835,10.511-5.143c0.211-0.623,0.887-0.957,1.505-0.753c0.622,0.209,0.959,0.883,0.753,1.505       c-1.775,5.319-11.394,6.62-12.486,6.75C353.997,304.915,353.951,304.917,353.902,304.917z"/>
				</g>
				<g>
					<path style="fill:#241726;" d="M356.678,313.242c-0.592,0-1.106-0.444-1.178-1.048c-0.079-0.65,0.386-1.243,1.038-1.322       c2.548-0.309,9.408-1.835,10.509-5.143c0.211-0.622,0.885-0.959,1.505-0.753c0.622,0.209,0.959,0.88,0.753,1.505       c-1.772,5.319-11.392,6.62-12.483,6.75C356.773,313.24,356.727,313.242,356.678,313.242z"/>
				</g>
			</g>
			<g>
				<path style="fill:#241726;" d="M151.549,359.052c-0.946,0-1.779-0.211-2.509-0.632c-4.188-2.416-2.639-10.425-2.448-11.329      c0.135-0.643,0.781-1.043,1.408-0.92c0.643,0.135,1.055,0.764,0.92,1.408c-0.388,1.858-0.983,7.461,1.31,8.781      c1.387,0.792,5.222,0.785,15.364-8.323c0.486-0.439,1.238-0.402,1.68,0.091c0.439,0.488,0.4,1.24-0.091,1.679      C160.292,355.998,155.135,359.052,151.549,359.052z"/>
			</g>
			<g>
				<path style="fill:#241726;" d="M135.862,374.69c-0.114,0-0.228-0.016-0.342-0.051c-4.297-1.287-8.904-9.169-9.415-10.063      c-0.325-0.569-0.128-1.296,0.444-1.621c0.562-0.325,1.294-0.13,1.622,0.441c1.261,2.202,5.159,8.102,8.033,8.967      c0.629,0.188,0.987,0.85,0.797,1.48C136.847,374.358,136.373,374.69,135.862,374.69z"/>
			</g>
			<g>
				<path style="fill:#241726;" d="M129.518,379.845c-0.114,0-0.228-0.016-0.342-0.051c-4.297-1.287-8.904-9.169-9.415-10.063      c-0.325-0.569-0.128-1.296,0.444-1.621c0.562-0.328,1.294-0.13,1.621,0.441c1.261,2.202,5.159,8.102,8.033,8.967      c0.63,0.188,0.987,0.85,0.797,1.48C130.503,379.513,130.029,379.845,129.518,379.845z"/>
			</g>
		</g>
		<g>
			<path style="fill:#241726;" d="M61.78,367.951c-0.906,0-1.689,0-3.944-8.969c-7.586-1.461-8.235-2.33-8.483-2.664     c-0.223-0.295-0.316-0.836-0.216-1.192c0.139-0.49,0.46-1.628,9.143-5.129c3.124-8.135,4.193-8.135,4.906-8.135     c0.374,0,0.887,0.265,1.113,0.567c0.562,0.755,1.069,2.706,1.835,5.828c0.237,0.964,0.523,2.123,0.69,2.646     c0.46,0.204,1.454,0.56,2.279,0.857c4.479,1.605,5.633,2.153,5.844,3.236c0.079,0.411-0.128,1.006-0.441,1.285     c-0.906,0.815-5.208,2.416-7.477,3.224c-3.679,8.369-4.479,8.409-5.185,8.444C61.824,367.951,61.798,367.951,61.78,367.951z      M52.405,355.296c1.526,0.432,4.246,1.048,6.62,1.491c0.458,0.084,0.825,0.43,0.936,0.883c0.609,2.465,1.403,5.271,1.981,6.906     c0.841-1.524,2.093-4.163,3.113-6.497c0.132-0.302,0.383-0.537,0.695-0.646c2.028-0.713,4.314-1.589,5.768-2.221     c-1.006-0.42-2.346-0.899-3.22-1.212c-2.557-0.918-3.038-1.117-3.373-1.566c-0.29-0.39-0.467-1.031-1.101-3.607     c-0.232-0.948-0.588-2.39-0.908-3.494c-0.753,1.452-1.789,3.861-2.597,5.995c-0.118,0.314-0.362,0.56-0.671,0.685     C57.009,353.066,54.014,354.404,52.405,355.296z"/>
		</g>
		<g>
			<path style="fill:#241726;" d="M223.343,40.858c-0.906,0-1.691,0-3.944-8.969c-7.589-1.461-8.237-2.332-8.486-2.667     c-0.221-0.295-0.314-0.834-0.214-1.187c0.137-0.492,0.458-1.631,9.141-5.131c3.124-8.135,4.193-8.135,4.906-8.135     c0.374,0,0.887,0.265,1.113,0.567c0.56,0.755,1.066,2.702,1.833,5.817c0.239,0.969,0.525,2.135,0.692,2.657     c0.46,0.204,1.454,0.56,2.279,0.855c4.479,1.605,5.633,2.153,5.844,3.238c0.079,0.411-0.128,1.006-0.439,1.285     c-0.908,0.815-5.21,2.416-7.48,3.224c-3.679,8.365-4.474,8.406-5.178,8.444C223.389,40.858,223.364,40.858,223.343,40.858z      M213.965,28.2c1.529,0.434,4.249,1.05,6.623,1.494c0.458,0.084,0.825,0.43,0.936,0.883c0.609,2.465,1.401,5.271,1.979,6.904     c0.841-1.521,2.093-4.16,3.113-6.495c0.132-0.302,0.383-0.537,0.695-0.646c2.028-0.713,4.316-1.589,5.77-2.221     c-1.006-0.42-2.346-0.901-3.219-1.215c-2.56-0.917-3.041-1.115-3.375-1.566c-0.288-0.386-0.467-1.031-1.103-3.617     c-0.232-0.943-0.585-2.381-0.906-3.482c-0.753,1.452-1.789,3.861-2.597,5.995c-0.118,0.314-0.362,0.56-0.671,0.685     C218.569,25.973,215.575,27.311,213.965,28.2z"/>
		</g>
		<g>
			<path style="fill:#241726;" d="M467.622,297.918c-0.906,0-1.691,0-3.944-8.969c-7.589-1.461-8.237-2.332-8.486-2.667     c-0.221-0.295-0.314-0.834-0.214-1.189c0.139-0.492,0.46-1.631,9.141-5.131c3.124-8.133,4.193-8.133,4.906-8.133     c0.374,0,0.887,0.265,1.113,0.567c0.56,0.753,1.066,2.702,1.833,5.819c0.239,0.966,0.525,2.132,0.692,2.655     c0.46,0.204,1.454,0.56,2.281,0.857c4.476,1.603,5.631,2.151,5.845,3.234c0.079,0.411-0.128,1.008-0.439,1.287     c-0.91,0.815-5.215,2.413-7.482,3.222c-3.68,8.367-4.474,8.409-5.178,8.446C467.669,297.918,467.643,297.918,467.622,297.918z      M458.245,285.263c1.526,0.432,4.246,1.048,6.623,1.491c0.458,0.084,0.825,0.43,0.936,0.883c0.609,2.465,1.401,5.271,1.979,6.904     c0.841-1.524,2.093-4.163,3.113-6.497c0.132-0.302,0.383-0.537,0.694-0.646c2.028-0.713,4.316-1.587,5.77-2.219     c-1.006-0.42-2.346-0.901-3.22-1.215c-2.56-0.918-3.041-1.115-3.375-1.566c-0.288-0.385-0.467-1.031-1.103-3.617     c-0.232-0.943-0.585-2.381-0.906-3.482c-0.753,1.449-1.789,3.861-2.597,5.993c-0.118,0.314-0.363,0.56-0.671,0.685     C462.846,283.03,459.852,284.371,458.245,285.263z"/>
		</g>
		<g>
			<g>
				<path style="fill:#FFFFFF;" d="M227.017,464.788c0,0-2.37-16.73,13.807-11.467c16.177,5.263,11.073,20.651,4.874,15.463      c-6.198-5.189,5.162-23.101,17.577-15.296c12.416,7.806,9.806,23.213,1.065,24.433c-8.741,1.22,5.123-17.959,16.263-6.306      c11.14,11.653-12.722,33.329-22.643,25.542c-9.921-7.787-2.341-20.586,0.096-12.855c2.437,7.731-3.857,15.398-21.319,15.267      c-17.462-0.13-9.777-27.069-3.598-19.31c6.179,7.759-3.867,16.683-16.273,7.592C204.46,478.76,218.324,459.581,227.017,464.788z      "/>
			</g>
			<g>
				<path style="fill:#241726;" d="M237.173,500.761l-0.446-0.002c-5.742-0.042-9.817-2.936-11.303-7.982      c-3.013-0.36-6.195-1.721-9.261-3.968c-4.913-3.6-6.602-9.12-4.632-15.143c2.274-6.95,8.964-12.07,14.177-10.711      c-0.035-2.362,0.314-6.304,2.658-9.006c2.639-3.036,6.992-3.659,12.825-1.761c2.23,0.725,4.188,1.675,5.84,2.827      c4.63-4.939,11.254-6.072,16.878-2.534c5.366,3.371,8.662,8.602,9.004,14.174c3.124,0.079,6,1.47,8.551,4.137      c3.51,3.673,4.184,8.644,1.895,13.998c-3.461,8.098-12.941,15.203-20.291,15.203c0,0,0,0-0.002,0      c-2.265,0-4.228-0.639-5.838-1.902c-0.762-0.597-1.452-1.243-2.065-1.93C251.225,499.175,245.043,500.761,237.173,500.761z       M227.949,492.84c1.036,2.762,3.417,5.501,8.797,5.54l0.427,0.002c9.036,0,13.94-2.109,16.56-4.121      c-2.49-3.982-2.325-8.342-0.962-11.057c0.792-1.579,1.956-2.486,3.194-2.486c0.825,0,2.341,0.418,3.224,3.224      c1.222,3.877,0.393,7.689-2.27,10.616c0.523,0.588,1.117,1.145,1.775,1.661c1.18,0.927,2.65,1.396,4.37,1.396      c0.002,0,0.002,0,0.002,0c6.397,0,15.027-6.56,18.103-13.759c1.338-3.131,2.176-7.652-1.426-11.419      c-2.091-2.188-4.4-3.331-6.867-3.403c-0.499,5.361-3.828,9.429-8.372,10.063c-3.022,0.432-4.042-1.166-4.107-2.637      c-0.144-3.164,4.351-8.513,10.142-9.608c-0.279-4.827-3.173-9.389-7.896-12.36c-4.648-2.917-9.9-2.002-13.761,2.023      c3.842,3.617,4.574,8.086,3.519,11.09c-1.182,3.352-4.667,4.427-7.468,2.091c-3.436-2.878-2.421-8.548,0.59-12.829      c-1.429-0.973-3.129-1.784-5.069-2.416c-4.843-1.577-8.298-1.238-10.293,1.059c-2.769,3.187-1.977,9.052-1.967,9.11      c0.065,0.455-0.137,0.904-0.52,1.159c-0.386,0.249-0.878,0.265-1.268,0.028c-0.79-0.472-1.659-0.713-2.583-0.713      c-3.851,0-8.351,4.177-10.03,9.31c-0.771,2.358-1.947,8.293,3.777,12.486c2.465,1.807,4.98,2.969,7.359,3.408      c-0.432-3.9,0.553-8.286,2.52-10.75c1.24-1.557,2.499-1.882,3.338-1.882c0.825,0,2.063,0.321,3.282,1.851      c2.223,2.792,2.743,5.958,1.426,8.688C234.221,490.852,231.378,492.578,227.949,492.84z M255.966,483.098      c-0.156,0-0.622,0.286-1.068,1.173c-0.976,1.947-1.122,5.227,0.599,8.3c1.833-2.244,2.342-5.006,1.426-7.912      C256.514,483.363,256.063,483.098,255.966,483.098z M230.788,480.046c-0.446,0-0.971,0.351-1.48,0.985      c-1.466,1.838-2.518,5.754-1.958,9.461c2.769-0.091,5.052-1.345,6.005-3.319c0.904-1.875,0.486-4.123-1.148-6.172      C231.861,480.564,231.334,480.046,230.788,480.046z M270.454,469.302c-4.578,1.113-7.756,5.352-7.68,7.052      c0.009,0.202,0.019,0.432,0.813,0.432c0.179,0,0.376-0.014,0.588-0.044C267.466,476.283,269.917,473.307,270.454,469.302z       M247.376,458.366c-2.546,3.661-2.997,7.763-0.913,9.505c1.556,1.306,3.034,0.829,3.696-1.055      C250.941,464.589,250.335,461.223,247.376,458.366z"/>
			</g>
		</g>
		<g>
			<path style="fill:#241726;" d="M63.926,179.492c-0.002,0-0.033,0-0.035,0c-2.177-0.009-4.218-0.866-5.751-2.411     c-1.531-1.545-2.369-3.594-2.36-5.77c0.019-4.474,3.673-8.112,8.146-8.112c2.211,0.009,4.253,0.866,5.786,2.411     c1.531,1.545,2.369,3.594,2.36,5.77C72.054,175.854,68.4,179.492,63.926,179.492z M63.952,165.577     c-3.192,0-5.78,2.576-5.793,5.742c-0.007,1.54,0.588,2.992,1.673,4.086c1.085,1.094,2.53,1.701,4.07,1.707l0.026,1.189v-1.189     c3.166,0,5.754-2.576,5.768-5.742c0.007-1.54-0.588-2.992-1.673-4.086S65.492,165.584,63.952,165.577z"/>
		</g>
		<g>
			<path style="fill:#241726;" d="M266.112,20.121c-0.002,0-0.032,0-0.035,0c-2.177-0.009-4.219-0.866-5.751-2.411     c-1.531-1.545-2.369-3.594-2.36-5.77c0.019-4.474,3.673-8.112,8.146-8.112c2.212,0.009,4.253,0.867,5.786,2.411     c1.531,1.545,2.369,3.594,2.36,5.77C274.24,16.484,270.586,20.121,266.112,20.121z M266.138,6.207     c-3.192,0-5.779,2.576-5.793,5.742c-0.007,1.54,0.588,2.992,1.673,4.086c1.085,1.094,2.53,1.7,4.07,1.707l0.025,1.189v-1.189     c3.166,0,5.754-2.576,5.768-5.742c0.007-1.54-0.588-2.992-1.672-4.086C269.123,6.82,267.678,6.214,266.138,6.207z"/>
		</g>
		<g>
			<path style="fill:#241726;" d="M449.269,158.084c-0.002,0-0.033,0-0.035,0c-2.177-0.009-4.218-0.867-5.751-2.411     c-1.531-1.545-2.369-3.593-2.36-5.77c0.019-4.474,3.673-8.112,8.146-8.112c2.211,0.009,4.253,0.866,5.786,2.411     c1.531,1.545,2.369,3.594,2.36,5.77C457.397,154.446,453.743,158.084,449.269,158.084z M449.294,144.169     c-3.192,0-5.779,2.576-5.793,5.742c-0.007,1.54,0.588,2.992,1.673,4.086c1.085,1.094,2.53,1.7,4.07,1.707l0.026,1.189v-1.189     c3.166,0,5.754-2.576,5.768-5.742c0.007-1.54-0.588-2.992-1.673-4.086C452.279,144.783,450.834,144.176,449.294,144.169z"/>
		</g>
		<g>
			<path style="fill:#241726;" d="M349.365,474.445c-0.002,0-0.033,0-0.035,0c-2.177-0.009-4.218-0.867-5.752-2.411     c-1.531-1.545-2.369-3.594-2.36-5.77c0.019-4.474,3.673-8.112,8.147-8.112c2.211,0.009,4.253,0.867,5.786,2.411     c1.531,1.545,2.369,3.594,2.36,5.77C357.493,470.807,353.839,474.445,349.365,474.445z M349.391,460.531     c-3.192,0-5.779,2.576-5.793,5.742c-0.007,1.54,0.588,2.992,1.672,4.086c1.085,1.094,2.53,1.7,4.07,1.707l0.026,1.189v-1.189     c3.166,0,5.754-2.576,5.768-5.742c0.007-1.54-0.588-2.992-1.672-4.086C352.376,461.144,350.931,460.538,349.391,460.531z"/>
		</g>
		<g>
			<path style="fill:#BA8296;" d="M319.662,105.399c0,0,19.047-60.315,14.285-61.902c-4.762-1.587-19.047-6.349-19.047-6.349     s36.506-42.855,42.855-36.506c6.349,6.349,30.158,49.204,22.221,50.791c-7.936,1.587-20.634,0-20.634,0     s-4.762,58.728-9.523,60.315C345.058,113.335,319.662,105.399,319.662,105.399z"/>
		</g>
		<g>
			<path style="fill:#EA7E94;" d="M345.195,144.02c0,0,47.321-41.968,44.051-45.776c-3.27-3.808-13.082-15.23-13.082-15.23     s53.334-18.02,55.521-9.312c2.187,8.709,0.604,57.708-7.021,54.993c-7.625-2.714-17.704-10.598-17.704-10.598     s-34.249,47.944-39.15,46.86C362.909,163.873,345.195,144.02,345.195,144.02z"/>
		</g>
		<g>
			<g>
				<path style="fill:#F5D66E;" d="M235.233,202.227l-28.176,205.899c13.836,1.621,30.68,2.35,47.512,2.244l3.789-209.126      L235.233,202.227z"/>
			</g>
			<g>
				<path style="fill:#EA7E94;" d="M215.858,203.051l-40.867,192.751c-0.976,5.978,12.55,10.036,32.066,12.323l28.176-205.899      L215.858,203.051z"/>
			</g>
			<g>
				<path style="fill:#A5D5C9;" d="M258.358,201.243l-3.789,209.126c15.95-0.101,31.874-0.954,45.216-2.514l-24.393-207.337      L258.358,201.243z"/>
			</g>
			<g>
				<path style="fill:#BA8296;" d="M294.361,199.711l-18.968,0.807l24.393,207.337c19.295-2.257,33.178-5.989,33.827-11.068      C334.909,386.628,294.361,199.711,294.361,199.711z"/>
			</g>
			<g>
				<path style="fill:#241726;" d="M299.783,409.044c-0.592,0-1.106-0.444-1.178-1.048l-22.302-186.911      c-0.079-0.653,0.388-1.245,1.038-1.322c0.634-0.1,1.243,0.383,1.322,1.038l22.302,186.91c0.079,0.653-0.388,1.245-1.038,1.322      C299.878,409.041,299.831,409.044,299.783,409.044z"/>
			</g>
			<g>
				<path style="fill:#241726;" d="M254.57,411.559c-0.009,0-0.019,0-0.028,0c-0.657-0.016-1.178-0.562-1.161-1.217l4.79-196.985      c0.016-0.657,0.565-1.143,1.217-1.161c0.658,0.016,1.178,0.562,1.162,1.217l-4.79,196.985      C255.743,411.046,255.213,411.559,254.57,411.559z"/>
			</g>
			<g>
				<path style="fill:#241726;" d="M207.059,409.315c-0.056,0-0.114-0.005-0.17-0.012c-0.65-0.093-1.103-0.694-1.01-1.345      l30.158-211.675c0.095-0.65,0.699-1.094,1.345-1.01c0.65,0.093,1.103,0.695,1.01,1.345l-30.158,211.675      C208.149,408.888,207.64,409.315,207.059,409.315z"/>
			</g>
			<g>
				<g>
					<path style="fill:#668E9D;" d="M208.006,144.762c0,0-33.633,26.38-38.016,41.509c-4.383,15.129,14.321,76.861,24.618,71.49       c10.297-5.371,4.457-35.142,14.227-44.302c9.77-9.159,19.52-12.91,19.52-12.91L208.006,144.762z"/>
				</g>
				<g>
					<path style="fill:#668E9D;" d="M306.358,145.124c0,0,33.438,26.627,37.709,41.789c4.271,15.161-14.887,76.753-25.144,71.307       c-10.257-5.447-4.198-35.174-13.9-44.405c-9.702-9.231-19.424-13.053-19.424-13.053L306.358,145.124z"/>
				</g>
				<g>
					<g>
						<path style="fill:#FFFFFF;" d="M294.272,220.265l-75.717-2.443c0,0-27.923-55.275-15.912-85.521        c12.011-30.246,46.888-100.435,63.079-90.639s42.446,77.506,47.791,94.834C318.858,153.825,294.272,220.265,294.272,220.265z"/>
					</g>
					<g>
						<path style="fill:#241726;" d="M294.273,221.455c-0.012,0-0.026,0-0.039,0l-75.718-2.444        c-0.434-0.014-0.827-0.265-1.022-0.653c-1.15-2.276-28.026-56.101-15.956-86.496c7.275-18.318,40.964-92.319,60.839-92.319        c1.419,0,2.753,0.369,3.961,1.101c17.143,10.372,43.877,81.121,48.312,95.502c5.403,17.512-18.251,81.804-19.262,84.533        C295.216,221.146,294.77,221.455,294.273,221.455z M219.308,216.656l74.143,2.393c2.76-7.596,23.78-66.463,18.927-82.201        c-5.791-18.774-31.849-84.837-47.271-94.168c-0.843-0.509-1.735-0.757-2.729-0.757c-15.749,0-46.444,60.14-58.628,90.819        C192.75,160.437,216.297,210.465,219.308,216.656z"/>
					</g>
				</g>
				<g>
					<path style="fill:#668E9D;" d="M217.389,93.951c0,0,81.118,4.626,83.837,0.85c3.176-4.412-32.197-69.895-40.873-63.977       C236.742,46.929,219.576,87.468,217.389,93.951z"/>
				</g>
				<g>
					<circle style="fill:#EA7E94;" cx="259.142" cy="139.27" r="30.02"/>
				</g>
				<g>
					<path style="fill:#F5D66E;" d="M276.836,140.2c-0.036,9.887-8.081,17.873-17.969,17.837       c-9.888-0.036-17.873-8.081-17.837-17.969c0.036-9.887,8.081-17.873,17.969-17.837       C268.887,122.268,276.873,130.313,276.836,140.2z"/>
				</g>
				<g>
					<path style="fill:#668E9D;" d="M257.655,175.776c0,0-13.546,6.441-23.985,50.216c-1.31,5.493,13.894,46.028,18.213,48.207       s24.476-36.691,25.6-48.046C278.606,214.798,260.938,165.511,257.655,175.776z"/>
				</g>
				<g>
					<g>
						<path style="fill:#FFFFFF;" d="M276.658,60.356c0,0,3.529,4.624,3.782,6.55"/>
					</g>
					<g>
						<path style="fill:#241726;" d="M280.438,68.096c-0.588,0-1.099-0.437-1.178-1.034c-0.144-1.113-2.163-4.17-3.547-5.984        c-0.4-0.523-0.297-1.268,0.223-1.668c0.52-0.4,1.266-0.3,1.668,0.223c0.62,0.815,3.735,4.983,4.016,7.117        c0.084,0.653-0.374,1.25-1.025,1.336C280.542,68.094,280.491,68.096,280.438,68.096z"/>
					</g>
				</g>
				<g>
					<g>
						<path style="fill:#FFFFFF;" d="M282.908,75.943c0,0,3.528,4.624,3.782,6.55"/>
					</g>
					<g>
						<path style="fill:#241726;" d="M286.688,83.683c-0.588,0-1.099-0.437-1.178-1.034c-0.144-1.113-2.163-4.17-3.547-5.984        c-0.4-0.523-0.297-1.268,0.223-1.668c0.523-0.4,1.266-0.302,1.668,0.223c0.62,0.815,3.735,4.983,4.016,7.117        c0.084,0.653-0.374,1.25-1.025,1.336C286.793,83.681,286.742,83.683,286.688,83.683z"/>
					</g>
				</g>
				<g>
					<g>
						<path style="fill:#FFFFFF;" d="M266.072,57.577c0,0,3.528,4.624,3.782,6.55"/>
					</g>
					<g>
						<path style="fill:#241726;" d="M269.852,65.316c-0.588,0-1.099-0.437-1.178-1.034c-0.146-1.113-2.163-4.17-3.547-5.984        c-0.399-0.523-0.297-1.271,0.223-1.668c0.523-0.399,1.268-0.302,1.668,0.223c0.623,0.815,3.735,4.985,4.016,7.117        c0.084,0.653-0.374,1.25-1.024,1.336C269.957,65.313,269.905,65.316,269.852,65.316z"/>
					</g>
				</g>
				<g>
					<g>
						<path style="fill:#FFFFFF;" d="M268.224,46.037c0,0,3.529,4.624,3.782,6.55"/>
					</g>
					<g>
						<path style="fill:#241726;" d="M272.003,53.776c-0.588,0-1.099-0.437-1.178-1.034c-0.146-1.113-2.163-4.169-3.547-5.984        c-0.4-0.523-0.297-1.271,0.223-1.668c0.52-0.4,1.266-0.302,1.668,0.223c0.622,0.815,3.735,4.985,4.016,7.117        c0.084,0.653-0.374,1.25-1.024,1.336C272.108,53.773,272.057,53.776,272.003,53.776z"/>
					</g>
				</g>
				<g>
					<g>
						<path style="fill:#FFFFFF;" d="M272.012,72.58c0,0,3.529,4.624,3.782,6.55"/>
					</g>
					<g>
						<path style="fill:#241726;" d="M275.792,80.32c-0.588,0-1.099-0.437-1.178-1.034c-0.146-1.113-2.163-4.17-3.547-5.984        c-0.4-0.523-0.297-1.271,0.223-1.668c0.52-0.397,1.266-0.3,1.668,0.223c0.622,0.815,3.735,4.985,4.016,7.117        c0.084,0.653-0.374,1.25-1.024,1.336C275.896,80.317,275.845,80.32,275.792,80.32z"/>
					</g>
				</g>
			</g>
		</g>
		<g>
			<g>
				<path style="fill:#F5D66E;" d="M77.188,42.867c0,0,46.384-40.437,86.272-4.231c87.658,79.567-35.425,107.962-16.869,116.396      c18.556,8.435,4.504,11.238-26.587,13.903C78.377,172.504,11.398,100.222,77.188,42.867z"/>
			</g>
			<g>
				
					<ellipse transform="matrix(0.9239 -0.3827 0.3827 0.9239 -26.2045 53.8991)" style="fill:#EA7E94;" cx="122.382" cy="92.819" rx="47.97" ry="47.97"/>
			</g>
			<g>
				<g>
					
						<ellipse transform="matrix(0.7071 -0.7071 0.7071 0.7071 -29.7093 113.6907)" style="fill:#FFFFFF;" cx="122.382" cy="92.708" rx="38.108" ry="38.108"/>
				</g>
				<g>
					<path style="fill:#241726;" d="M122.382,132.004c-21.668,0-39.297-17.629-39.297-39.297s17.629-39.297,39.297-39.297       s39.297,17.629,39.297,39.297S144.05,132.004,122.382,132.004z M122.382,55.79c-20.356,0-36.918,16.562-36.918,36.918       c0,20.356,16.562,36.918,36.918,36.918c20.356,0,36.918-16.562,36.918-36.918C159.3,72.352,142.738,55.79,122.382,55.79z"/>
				</g>
			</g>
			<g>
				<circle style="fill:#EA7E94;" cx="122.382" cy="92.708" r="30.526"/>
			</g>
			<g>
				<g>
					
						<ellipse transform="matrix(0.9239 -0.3827 0.3827 0.9239 -26.1619 53.8905)" style="fill:#FFFFFF;" cx="122.382" cy="92.708" rx="18.236" ry="18.236"/>
				</g>
				<g>
					<path style="fill:#241726;" d="M122.382,112.134c-10.711,0-19.427-8.716-19.427-19.426s8.716-19.426,19.427-19.426       s19.426,8.716,19.426,19.426S133.093,112.134,122.382,112.134z M122.382,75.66c-9.401,0-17.048,7.647-17.048,17.048       s7.647,17.048,17.048,17.048s17.048-7.647,17.048-17.048S131.783,75.66,122.382,75.66z"/>
				</g>
			</g>
			<g>
				<circle style="fill:#EA7E94;" cx="122.382" cy="92.708" r="7.532"/>
			</g>
			<g>
				<path style="fill:#668E9D;" d="M157.268,64.654c0,0-0.837-12.269,1.115-17.009c1.952-4.74,25.653-22.585,30.393-28.72      c4.74-6.134,9.201,10.038-0.837,21.47c0,0,17.522-5.772,22.585,0.558c2.231,2.788-10.875,8.086-20.634,15.615      C180.132,64.097,172.604,68.837,157.268,64.654z"/>
			</g>
			<g>
				<path style="fill:#241726;" d="M122.382,94.008c-0.353,0-0.704-0.158-0.938-0.458c-0.404-0.518-0.311-1.266,0.207-1.67      l66.115-51.587c0.518-0.404,1.266-0.311,1.67,0.207c0.404,0.518,0.311,1.266-0.207,1.67l-66.115,51.587      C122.896,93.927,122.638,94.008,122.382,94.008z"/>
			</g>
		</g>
	</g>
</g>















</svg>
